<?xml version="1.0" encoding="UTF-8"?>
<!DOCTYPE svg PUBLIC "-//W3C//DTD SVG 1.1//EN" "http://www.w3.org/Graphics/SVG/1.1/DTD/svg11.dtd">
<!-- Creator: CorelDRAW -->
<svg xmlns="http://www.w3.org/2000/svg" xml:space="preserve" width="25.3998mm" height="15.8748mm" version="1.1" style="shape-rendering:geometricPrecision; text-rendering:geometricPrecision; image-rendering:optimizeQuality; fill-rule:evenodd; clip-rule:evenodd"
viewBox="0 0 2539.98 1587.48"
 xmlns:xlink="http://www.w3.org/1999/xlink"
 xmlns:xodm="http://www.corel.com/coreldraw/odm/2003">
 <defs>
  <style type="text/css">
   <![CDATA[.fil0 {fill:#66FCF1}]]>
  </style>
 </defs>
 <g id="Camada_x0020_1">
  <metadata id="CorelCorpID_0Corel-Layer"/>
  <path class="fil0" d="M659.79 1279.91l-347.26 0 0 -411.76 391.91 0c63.24,0 131.11,12.4 171.72,36.64 111.53,66.56 99.9,272.94 -9.92,338.48 -49.5,29.55 -129.36,36.64 -206.45,36.64zm4.97 -669.73l-352.23 0 0 -327.42c0,-11.43 3.45,-14.88 14.88,-14.88 124.67,0 371.29,-6.53 478.24,17.85 132.92,30.3 134.35,161.16 98.74,236.66 -34.79,73.75 -154.75,87.79 -239.63,87.79zm-664.77 937.62l763.98 0c171.63,0 327.43,-52.52 422.52,-172.79 15.56,-19.68 26.58,-38.18 39.12,-60.1 55.68,-97.35 77.58,-210.62 54.84,-323.27 -2.9,-14.31 -4.48,-26.69 -9.06,-40.55 -25.01,-75.56 -59.01,-129.16 -119.62,-178.04 -9.66,-7.8 -19.86,-13.05 -30.31,-19.29 -41.28,-24.65 -35.02,-17.77 -69.75,-34.43 5.89,-8.05 67.82,-42.2 98.14,-70.54 94.63,-88.46 107.67,-277.37 65.65,-390.91 -20.33,-54.93 -44.02,-92.54 -82.4,-130.92l-7.74 -7.14c-87.47,-80.03 -212.36,-119.83 -331.62,-119.83l-793.75 0 0 1547.81z"/>
  <path class="fil0" d="M2222.49 863.19l-515.94 0c0,-126.19 107.16,-247.08 257.69,-242.85 31.23,0.88 80.28,10.58 104.54,19.53 31.33,11.55 53.71,25.9 77.87,46.16 19.02,15.95 42.75,47.24 51.81,72.21 9.75,26.88 24.03,67.94 24.03,104.95zm317.5 82.1l0 116.34 -843.36 0c0,45.16 14.12,110.51 33.05,145.55 73.73,136.49 253.18,163.5 370.33,113.96 98.27,-41.56 96.42,-110.68 122.48,-110.68l302.62 0c-1.68,75.25 -68.21,165.11 -120.3,217.04 -133.32,132.9 -272.63,159.99 -460.13,159.99 -173.86,0 -327.01,-85.37 -418.74,-176.58l-44.66 -54.55c-86.27,-124.29 -92.23,-258.98 -92.23,-408.83 0,-85.92 20.14,-176.67 44.59,-238.19 21.94,-55.23 30.94,-72.51 62.45,-116.14 37.21,-51.54 70.42,-86.18 125.07,-122.98 33.24,-22.38 74.42,-44.9 113.79,-59.84l81.09 -23.09c134.25,-27.31 289.17,-20.07 411.41,34.39 122.1,54.39 228.52,162.86 271.06,289.51 33.04,98.34 40.19,157.43 41.48,234.1z"/>
  <polygon class="fil0" points="1622.22,267.88 2296.9,267.88 2296.9,69.44 1622.22,69.44 "/>
 </g>
</svg>
