<?xml version="1.0" encoding="UTF-8"?>
<!DOCTYPE svg PUBLIC "-//W3C//DTD SVG 1.1//EN" "http://www.w3.org/Graphics/SVG/1.1/DTD/svg11.dtd">
<!-- Creator: CorelDRAW -->
<svg xmlns="http://www.w3.org/2000/svg" xml:space="preserve" width="133.32mm" height="133.32mm" version="1.1" style="shape-rendering:geometricPrecision; text-rendering:geometricPrecision; image-rendering:optimizeQuality; fill-rule:evenodd; clip-rule:evenodd"
viewBox="0 0 13332 13332"
 xmlns:xlink="http://www.w3.org/1999/xlink"
 xmlns:xodm="http://www.corel.com/coreldraw/odm/2003">
 <defs>
  <style type="text/css">
   <![CDATA[
    .fil0 {fill:#66FCF1;fill-rule:nonzero}
   ]]>
  </style>
 </defs>
 <g id="Camada_x0020_1">
  <metadata id="CorelCorpID_0Corel-Layer"/>
  <g id="_2195119174416">
   <path class="fil0" d="M7667.45 12866.37c-61.57,2.47 -100.96,7.39 -140.36,7.39 -842.21,0 -1681.94,-2.46 -2524.15,2.47 -118.21,0 -150.23,-32.02 -150.23,-150.22 2.47,-1960.22 2.47,-3922.9 2.47,-5883.13 0,-51.71 0,-103.43 0,-169.91 -458.04,0 -903.77,0 -1356.88,0 0,-699.38 0,-1386.43 0,-2093.2 46.79,0 91.12,0 132.98,0 369.4,0 738.78,-2.47 1108.17,2.46 93.58,0 118.21,-27.08 118.21,-118.2 -4.93,-549.16 -4.93,-1100.78 0,-1649.93 2.46,-384.17 64.02,-758.48 241.33,-1105.71 253.64,-490.05 655.05,-807.72 1162.34,-1004.73 413.71,-162.54 849.59,-221.64 1287.93,-229.02 714.15,-9.85 1428.3,-4.92 2142.45,-7.39 66.5,0 120.67,-2.47 120.67,91.12 -2.46,677.21 -2.46,1354.42 -2.46,2031.63 0,7.39 -2.47,14.78 -12.32,46.79 -41.86,0 -88.65,0 -135.44,0 -443.26,0 -886.53,-2.47 -1329.79,0 -256.12,0 -462.97,103.43 -593.49,327.53 -39.4,66.49 -64.03,152.68 -64.03,231.48 -7.39,418.64 0,837.28 -4.92,1255.93 0,98.5 29.55,125.59 125.59,125.59 615.65,-4.92 1231.3,-2.47 1846.95,-2.47 49.25,0 96.04,0 179.77,0 -86.19,704.3 -169.92,1393.83 -256.11,2090.74 -640.28,0 -1263.31,0 -1898.66,0 -0.02,2071.03 -0.02,4129.74 -0.02,6200.78z"/>
  </g>
 </g>
</svg>
