<?xml version="1.0" encoding="UTF-8"?>
<!DOCTYPE svg PUBLIC "-//W3C//DTD SVG 1.1//EN" "http://www.w3.org/Graphics/SVG/1.1/DTD/svg11.dtd">
<!-- Creator: CorelDRAW -->
<svg xmlns="http://www.w3.org/2000/svg" xml:space="preserve" width="40.9582mm" height="40.9582mm" version="1.1" style="shape-rendering:geometricPrecision; text-rendering:geometricPrecision; image-rendering:optimizeQuality; fill-rule:evenodd; clip-rule:evenodd"
viewBox="0 0 4095.82 4095.82"
 xmlns:xlink="http://www.w3.org/1999/xlink"
 xmlns:xodm="http://www.corel.com/coreldraw/odm/2003">
 <defs>
  <style type="text/css">
   <![CDATA[
    .fil0 {fill:#66FCF1}
   ]]>
  </style>
 </defs>
 <g id="Camada_x0020_1">
  <metadata id="CorelCorpID_0Corel-Layer"/>
  <path class="fil0" d="M2046.9 0.99c1131.04,0 2047.93,916.89 2047.93,2047.93 0,1131.04 -916.89,2047.93 -2047.93,2047.93 -1131.04,0 -2047.93,-916.89 -2047.93,-2047.93 0,-1131.04 916.89,-2047.93 2047.93,-2047.93zm41.31 1339.53l101.92 0 -201.82 1416.8 -101.92 0 201.82 -1416.8zm879.21 634.2l-47.19 296.89 372.76 -158.48 -325.57 -138.41zm-152.09 341.84l60.53 -380.76 -4.85 -2.06 -271.13 -118.24 0 309.86 -205.89 85.62 0 -483.13 0 -132.51 0 -89.69 417.9 179.39 50.96 20.39 89.71 38.73 438.28 187.54 419.95 181.43 -419.95 181.44 -438.28 187.54 -89.71 38.74 -50.96 20.39 -417.9 179.38 0 -222.2 421.34 -181.86zm-1533.42 -624.12l417.9 -179.39 0 89.7 0 132.5 0 483.14 -205.89 -85.62 0 -309.87 -273.17 118.25 -419.95 179.38 419.95 179.4 10.19 4.38 0 223.94 -87.65 -38.73 -440.33 -187.55 -419.95 -183.47 419.95 -179.4 440.33 -187.54 87.65 -38.73 50.97 -20.39z"/>
 </g>
</svg>
