<?xml version="1.0" encoding="UTF-8"?>
<!DOCTYPE svg PUBLIC "-//W3C//DTD SVG 1.1//EN" "http://www.w3.org/Graphics/SVG/1.1/DTD/svg11.dtd">
<!-- Creator: CorelDRAW -->
<svg xmlns="http://www.w3.org/2000/svg" xml:space="preserve" width="12.6998mm" height="12.6998mm" version="1.1" style="shape-rendering:geometricPrecision; text-rendering:geometricPrecision; image-rendering:optimizeQuality; fill-rule:evenodd; clip-rule:evenodd"
viewBox="0 0 1269.98 1269.98"
 xmlns:xlink="http://www.w3.org/1999/xlink"
 xmlns:xodm="http://www.corel.com/coreldraw/odm/2003">
 <defs>
  <style type="text/css">
   <![CDATA[
    .fil0 {fill:#66FCF1}
   ]]>
  </style>
 </defs>
 <g id="Camada_x0020_1">
  <metadata id="CorelCorpID_0Corel-Layer"/>
  <path class="fil0" d="M-0.01 617.35c0,43.75 1.2,87.78 9.22,129.69 11.92,62.32 32.45,124.79 60.23,180.37l104.78 153.19c21.07,23.72 54.41,58.35 80.23,76.04l60.45 41.25c7.68,4.63 12.32,8.49 21.57,13.15 39.92,20.16 105.67,55.01 149.69,58.67l0 -210.84c-32.92,2.74 -45.95,8.46 -79.71,-2.15 -56.88,-17.87 -68.45,-44.25 -99.87,-86.16 -14.95,-19.93 -30.86,-35.71 -58.54,-35.71 0,-27.37 -4.96,-47.63 -4.96,-74.42 55.57,0 84.57,25.2 112.29,53.9 28.37,29.38 37.81,75.09 93.58,75.09 51.84,0 38.75,-13.41 49.25,-42.54 5.08,-14.1 8.44,-17.18 16.25,-28.39l18.84 -28.29c-19.93,-0.45 -62.51,-12.98 -80.32,-18.9 -61.47,-20.42 -107.87,-53.89 -146.13,-104.4l-19.8 -32.29c-43.15,-89.79 -34.92,-207.83 24.46,-291.93 19.19,-27.18 10.95,-15.95 4.52,-52.06 -5.15,-28.9 -3.05,-59.44 2.48,-87.28 3.04,-15.3 10.13,-27.99 11.39,-43.18 24.45,5.7 52.53,7.11 76.1,18.16 15.27,7.16 85.44,48.72 94.1,47.87 4.45,-0.44 12.66,-3.29 17.8,-4.53 5.45,-1.32 14.37,-3.02 20.55,-4.26 60.71,-12.16 130.32,-12.44 191.04,-0.42 19.66,3.89 38.69,14.61 56.12,4.56 6.18,-3.55 10.45,-5.97 15.72,-9.15 10.61,-6.4 19.04,-10.35 30.42,-16.71 31.99,-17.88 49.79,-26.3 87.85,-31.21 4.94,-0.63 14.8,-2.98 20.5,-4.31 3.07,36.89 23.82,43.75 14.52,126.15 -5.21,46.11 -18.4,25.51 12.77,72.28 23.66,35.51 44.64,83.99 44.64,131.47 0,66.56 -7.53,105.13 -38.9,162.02 -26.95,48.88 -78.03,87.04 -129.04,109.08 -28.45,12.29 -75.14,28.32 -107.39,29.04 12.12,22.91 31.38,41.33 39.46,67.2 13.44,43.04 7.67,258.22 7.67,312.31 51.98,-4.33 144.91,-54.5 191.51,-83.82 13.78,-8.68 24.9,-18.98 38.7,-28.27 17.71,-11.91 58.61,-49.56 73.01,-65.9l60.71 -75.72c30.39,-40.57 54.83,-87.5 73.69,-134.66 29.47,-73.7 45.66,-148.06 48.55,-222.01l0 -47.91c-3.89,-99.91 -32.22,-198.63 -85.1,-293.44 -51.2,-91.82 -138.98,-182 -231.55,-232.31 -17.5,-9.51 -32.9,-17.62 -50.46,-26.43 -155.18,-77.84 -378.37,-79.13 -534.13,-0.83 -100,50.28 -188.91,118.01 -252.67,211.18 -68.03,99.4 -116.09,214.49 -116.09,347.76z"/>
 </g>
</svg>
