<?xml version="1.0" encoding="UTF-8"?>
<!DOCTYPE svg PUBLIC "-//W3C//DTD SVG 1.1//EN" "http://www.w3.org/Graphics/SVG/1.1/DTD/svg11.dtd">
<!-- Creator: CorelDRAW -->
<svg xmlns="http://www.w3.org/2000/svg" xml:space="preserve" width="133.32mm" height="133.32mm" version="1.1" style="shape-rendering:geometricPrecision; text-rendering:geometricPrecision; image-rendering:optimizeQuality; fill-rule:evenodd; clip-rule:evenodd"
viewBox="0 0 13332 13332"
 xmlns:xlink="http://www.w3.org/1999/xlink"
 xmlns:xodm="http://www.corel.com/coreldraw/odm/2003">
 <defs>
  <style type="text/css">
   <![CDATA[
    .fil0 {fill:#66FCF1;fill-rule:nonzero}
   ]]>
  </style>
 </defs>
 <g id="Camada_x0020_1">
  <metadata id="CorelCorpID_0Corel-Layer"/>
  <path class="fil0" d="M8645.71 6671.74c0,1096.31 -889.11,1985.42 -1985.45,1985.42 -1096.31,0 -1985.42,-889.11 -1985.42,-1985.42 0,-1096.34 889.11,-1985.45 1985.42,-1985.45 1095.82,0.96 1984.49,889.63 1985.45,1985.52l0 -0.07zm4219.04 -2729.99l0 5459.95c-1.67,1917.7 -1556.8,3472.84 -3474.62,3474.53l-5459.86 0c-1917.67,-1.69 -3472.81,-1556.83 -3474.5,-3474.64l0 -5459.84c1.69,-1917.7 1556.83,-3472.83 3474.64,-3474.52l5459.84 0.02c1917.7,1.67 3472.83,1556.8 3474.52,3474.62l-0.02 -0.12zm-3226.33 2729.99c0,-1644.51 -1333.65,-2978.16 -2978.16,-2978.16 -1644.48,0 -2978.13,1333.65 -2978.13,2978.16 0,1644.48 1333.65,2978.13 2978.13,2978.13 1643.73,-1.45 2976.7,-1334.42 2978.16,-2978.22l0 0.09zm992.71 -3226.33c0,-411.13 -333.41,-744.54 -744.54,-744.54 -411.13,0 -744.54,333.41 -744.54,744.54 0,411.13 333.41,744.54 744.54,744.54 411.13,0 744.54,-333.41 744.54,-744.54z"/>
 </g>
</svg>
