<?xml version="1.0" encoding="UTF-8"?>
<!DOCTYPE svg PUBLIC "-//W3C//DTD SVG 1.1//EN" "http://www.w3.org/Graphics/SVG/1.1/DTD/svg11.dtd">
<!-- Creator: CorelDRAW -->
<svg xmlns="http://www.w3.org/2000/svg" xml:space="preserve" width="133.32mm" height="133.32mm" version="1.1" style="shape-rendering:geometricPrecision; text-rendering:geometricPrecision; image-rendering:optimizeQuality; fill-rule:evenodd; clip-rule:evenodd"
viewBox="0 0 13332 13332"
 xmlns:xlink="http://www.w3.org/1999/xlink"
 xmlns:xodm="http://www.corel.com/coreldraw/odm/2003">
 <defs>
  <style type="text/css">
   <![CDATA[
    .fil0 {fill:#66FCF1}
    .fil1 {fill:#66FCF1;fill-rule:nonzero}
   ]]>
  </style>
 </defs>
 <g id="Camada_x0020_1">
  <metadata id="CorelCorpID_0Corel-Layer"/>
  <g id="_2195119866576">
   <circle class="fil0" cx="1742.88" cy="1777.63" r="1310.4"/>
   <path class="fil1" d="M7170 5683.11c105.52,-63.81 147.24,-157.06 201.23,-233.14 267.51,-368.12 598.8,-652.79 1011.09,-856.48 564.44,-277.32 1163.25,-306.77 1766.95,-250.33 463.83,41.72 903.12,198.78 1303.13,454.01 476.1,304.31 817.22,726.42 1050.36,1231.96 142.34,306.77 235.6,633.17 292.04,971.83 51.53,316.58 90.8,628.25 90.8,949.74 -2.46,1595.16 -2.46,3190.33 2.46,4785.5 0,112.89 -31.91,142.34 -142.34,139.88 -753.41,-4.91 -1504.37,-4.91 -2257.78,0 -110.43,0 -134.97,-31.91 -134.97,-137.43 2.46,-1504.37 9.81,-3011.19 -2.46,-4515.54 -2.46,-341.12 -49.08,-679.79 -225.78,-991.46 -157.06,-274.86 -375.47,-471.19 -662.61,-584.08 -385.3,-152.16 -782.86,-181.6 -1185.33,-68.71 -407.39,112.89 -689.61,380.38 -890.84,743.59 -112.9,203.69 -152.16,417.2 -184.06,645.43 -31.91,245.4 -27,485.91 -27,728.86 -4.9,1342.39 -4.9,2682.34 0,4024.73 0,122.7 -29.45,157.06 -154.61,154.61 -743.59,-7.36 -1489.64,-4.91 -2233.23,0 -103.08,0 -139.88,-31.91 -137.43,-127.61 2.45,-68.71 7.36,-137.43 7.36,-206.14 0,-2589.08 2.46,-5178.16 -2.46,-7767.23 0,-107.99 22.09,-147.25 139.88,-147.25 748.51,4.91 1497.01,4.91 2245.51,0 100.62,0 134.97,24.54 132.53,130.07 -7.35,299.39 -2.44,601.25 -2.44,925.19z"/>
   <path class="fil1" d="M3066.73 4701.47c0,85.89 2.46,171.79 2.46,257.68 0,2584.17 0,5168.34 0,7754.96 0,157.06 0,157.06 -159.52,157.06 -780.41,0 -1563.26,0 -2343.66,0 -2.46,-61.36 -4.91,-122.71 -4.91,-184.06 0,-1933.84 0,-3865.22 0,-5799.04 0,-689.61 2.46,-1381.66 -2.46,-2071.26 0,-88.35 22.09,-120.26 115.34,-120.26 797.59,4.92 1595.18,2.46 2392.75,4.92z"/>
  </g>
 </g>
</svg>
