<?xml version="1.0" encoding="UTF-8"?>
<!DOCTYPE svg PUBLIC "-//W3C//DTD SVG 1.1//EN" "http://www.w3.org/Graphics/SVG/1.1/DTD/svg11.dtd">
<!-- Creator: CorelDRAW -->
<svg xmlns="http://www.w3.org/2000/svg" xml:space="preserve" width="36.1246mm" height="25.3998mm" version="1.1" style="shape-rendering:geometricPrecision; text-rendering:geometricPrecision; image-rendering:optimizeQuality; fill-rule:evenodd; clip-rule:evenodd"
viewBox="0 0 3612.46 2539.98"
 xmlns:xlink="http://www.w3.org/1999/xlink"
 xmlns:xodm="http://www.corel.com/coreldraw/odm/2003">
 <defs>
  <style type="text/css">
   <![CDATA[
    .fil0 {fill:#66FCF1}
   ]]>
  </style>
 </defs>
 <g id="Camada_x0020_1">
  <metadata id="CorelCorpID_0Corel-Layer"/>
  <g id="_2853095083536">
   <path class="fil0" d="M177.82 28.21c41.59,62.11 1177.01,1166.65 1345.94,1349.29l148.07 155.31c150.76,151 205.04,52.49 352.78,-95.25l144.96 -151.38c16.02,-19.16 34.59,-35.22 52.6,-53.23l800.8 -800.81c34.56,-34.55 380.62,-374.38 400.41,-403.93 -25.19,-12.08 -75.7,-28.22 -112.89,-28.22l-3019.78 0c-37.19,0 -87.7,16.14 -112.89,28.22z"/>
   <path class="fil0" d="M176.07 2510.01c26.94,13.84 77.45,29.98 114.64,29.98l3019.78 0c37.19,0 87.7,-16.14 112.89,-28.22l-1091.86 -1095.37 -225.77 229.3c-101.83,101.83 -143.96,167.57 -319.26,167.57 -166.18,0 -271.45,-147.98 -400.4,-276.93 -30.8,-30.8 -93.8,-87.04 -114.65,-118.18l-1095.37 1091.85z"/>
   <path class="fil0" d="M-5.62 296.32l0 1947.34c0,50.05 18.73,79.19 28.22,119.94l1095.37 -1091.85 -1093.61 -1097.13c-11.25,42.51 -29.98,71.65 -29.98,121.7z"/>
   <path class="fil0" d="M2483.23 1268.23l1093.61 1097.13c11.25,-42.51 29.98,-71.65 29.98,-121.7l0 -1947.34c0,-50.05 -18.73,-79.19 -28.22,-119.94l-1095.37 1091.85z"/>
  </g>
 </g>
</svg>
