<?xml version="1.0" encoding="UTF-8"?>
<!DOCTYPE svg PUBLIC "-//W3C//DTD SVG 1.1//EN" "http://www.w3.org/Graphics/SVG/1.1/DTD/svg11.dtd">
<!-- Creator: CorelDRAW -->
<svg xmlns="http://www.w3.org/2000/svg" xml:space="preserve" width="16.3288mm" height="25.3998mm" version="1.1" style="shape-rendering:geometricPrecision; text-rendering:geometricPrecision; image-rendering:optimizeQuality; fill-rule:evenodd; clip-rule:evenodd"
viewBox="0 0 1632.88 2539.98"
 xmlns:xlink="http://www.w3.org/1999/xlink"
 xmlns:xodm="http://www.corel.com/coreldraw/odm/2003">
 <defs>
  <style type="text/css">
   <![CDATA[
    .fil0 {fill:#66FCF1}
   ]]>
  </style>
 </defs>
 <g id="Camada_x0020_1">
  <metadata id="CorelCorpID_0Corel-Layer"/>
  <g id="_2853705760432">
   <path class="fil0" d="M355.73 816.96c0,-177.94 109.09,-337.56 268.3,-412.07 83.44,-39.05 188.67,-52.21 285.98,-28.81 140.25,33.7 250.47,125.46 311.37,255.6 41.21,88.04 51.5,191.62 28.81,285.97 -6.65,27.65 -16.33,57.72 -28.85,84.54 -91.47,195.98 -304.67,305.52 -512.77,255.68 -201.01,-48.14 -352.84,-232.25 -352.84,-440.91zm-362.86 -34.03c0,230.77 32.88,398.7 106.92,596.13 91.13,243.05 159.57,396.66 297.42,626.73l311.65 465.08c41.92,56.23 49.87,69.65 111.79,69.65 40.95,0 67.46,-40.6 86.68,-66.4 287.93,-386.56 573.38,-861.64 680.99,-1331.74 34.73,-151.75 37.43,-208.83 37.43,-359.45 0,-154.48 -63.3,-317.55 -147.43,-436.55 -33.06,-46.74 -55.1,-72.77 -96.95,-112.83l-98.2 -83.24c-118.48,-85.71 -286.13,-149.79 -439.84,-149.79 -195.49,0 -286.21,23.22 -445.99,109.65 -21.08,11.41 -40.62,25.07 -58.59,37.78 -68.37,48.33 -76.32,60.01 -128.97,114.82 -9.51,9.89 -16.55,15.43 -25.52,25.52 -109.21,122.81 -191.39,328.23 -191.39,494.64z"/>
   <path class="fil0" d="M537.16 794.27c0,84.44 12.64,152.01 77.73,217.1 175.09,175.09 466.57,34.06 466.57,-171.74 0,-59.02 0.9,-88.32 -26.28,-143.82 -11.13,-22.72 -34.83,-56.65 -51.45,-73.28 -125.82,-125.83 -355.32,-100.2 -440.29,73.28 -11.81,24.11 -26.28,65.45 -26.28,98.46z"/>
  </g>
 </g>
</svg>
