<?xml version="1.0" encoding="UTF-8"?>
<!DOCTYPE svg PUBLIC "-//W3C//DTD SVG 1.1//EN" "http://www.w3.org/Graphics/SVG/1.1/DTD/svg11.dtd">
<!-- Creator: CorelDRAW -->
<svg xmlns="http://www.w3.org/2000/svg" xml:space="preserve" width="176.389mm" height="176.389mm" version="1.1" style="shape-rendering:geometricPrecision; text-rendering:geometricPrecision; image-rendering:optimizeQuality; fill-rule:evenodd; clip-rule:evenodd"
viewBox="0 0 17638.88 17638.88"
 xmlns:xlink="http://www.w3.org/1999/xlink"
 xmlns:xodm="http://www.corel.com/coreldraw/odm/2003">
 <defs>
  <style type="text/css">
   <![CDATA[
    .fil0 {fill:#66FCF1}
   ]]>
  </style>
 </defs>
 <g id="Camada_x0020_1">
  <metadata id="CorelCorpID_0Corel-Layer"/>
  <path class="fil0" d="M6326.2 7994.56c0,351.71 813.24,1347.33 1076.86,1610.3 44.16,44.05 60.14,63.04 99.85,106.86l588.93 547.94c379.22,354.63 1677.31,1111.09 2058.41,1111.09 600.36,0 949.69,-1309.13 1446.94,-1309.13 185.07,0 562.42,177.18 712.39,252.22 226.34,113.25 427.83,196.3 654.23,310.41l963.2 483.74c180.82,104.52 185.1,169.21 185.1,400.56 0,643.71 -219.23,1228.41 -703.05,1605.17 -1302.41,1014.25 -2508.87,625.41 -3923.28,58.37 -745.59,-298.9 -1210.35,-520.72 -1865.05,-994.37 -225.39,-163.05 -593.04,-433.59 -785.86,-626.62 -97.8,-97.9 -161.05,-125.24 -259.59,-222.73 -1072.95,-1061.62 -2867.36,-3139.78 -2867.36,-4677.4 0,-769.8 73.98,-1280.86 555.75,-1924.72 322.25,-430.7 760.84,-754.5 1352.32,-675.11 483.29,64.86 483.14,-30.32 676.21,360.05 108.28,218.92 217.39,490.3 309.6,723.93l457.54 1092.76c87.78,202.68 128.12,261.19 128.12,492 0,408.09 -861.26,988.85 -861.26,1274.68zm-6338.99 901.7l0 -272.82 0 -43.21c0,-1437.72 480.07,-2986.98 1185.88,-4188.49 355.2,-604.67 894.9,-1320.29 1389.27,-1814.66 51.9,-51.89 84.27,-90.06 138.14,-137.48l292.16 -259.04c485.23,-451.58 1529.91,-1133.01 2107.84,-1371.71 1482.24,-612.21 2204.12,-806.92 3947.31,-806.92 2309.12,0 4736.67,1141.62 6261.75,2867.78l260.15 291.05c453.32,539.5 987.1,1319.17 1249.48,1954.46 479.76,1161.54 806.92,2136.02 806.92,3465.01 0,1741.77 -317.49,3192.53 -1185.88,4670.79l-1146.63 1540.54c-633.29,756.37 -1934.71,1692.91 -2780.78,2042.35 -1161.03,479.54 -2134.41,806.92 -3465.01,806.92 -1421.02,0 -2503.64,-168.66 -3777.83,-735.24 -316.09,-140.54 -557.83,-262.88 -849.88,-424.81 -465.53,-258.11 -292.29,-353.92 -889.06,-153.72l-2958.16 934.81c16.68,-200.32 441.22,-1341.32 538.21,-1632.2 634.52,-1902.94 664.52,-1446.26 205.37,-2143.07 -522.11,-792.36 -963.57,-1956.03 -1148.14,-2882.61 -166.14,-833.91 -180.19,-1042.82 -181.11,-1707.73z"/>
 </g>
</svg>
