<?xml version="1.0" encoding="UTF-8"?>
<!DOCTYPE svg PUBLIC "-//W3C//DTD SVG 1.1//EN" "http://www.w3.org/Graphics/SVG/1.1/DTD/svg11.dtd">
<!-- Creator: CorelDRAW -->
<svg xmlns="http://www.w3.org/2000/svg" xml:space="preserve" width="42.3332mm" height="42.3332mm" version="1.1" style="shape-rendering:geometricPrecision; text-rendering:geometricPrecision; image-rendering:optimizeQuality; fill-rule:evenodd; clip-rule:evenodd"
viewBox="0 0 4233.32 4233.32"
 xmlns:xlink="http://www.w3.org/1999/xlink"
 xmlns:xodm="http://www.corel.com/coreldraw/odm/2003">
 <defs>
  <style type="text/css">
   <![CDATA[
    .fil7 {fill:#0073D9}
    .fil5 {fill:#00796C}
    .fil6 {fill:#00AC95}
    .fil8 {fill:#0E6EF3}
    .fil11 {fill:#333333}
    .fil0 {fill:#E02424}
    .fil2 {fill:#FDF6D5}
    .fil9 {fill:#FEF7D8}
    .fil1 {fill:#FEFEFE}
    .fil3 {fill:#FFE149}
    .fil10 {fill:#FFE985}
    .fil4 {fill:#FFEA88}
    .fil13 {fill:#F6F6F6;fill-rule:nonzero}
    .fil12 {fill:url(#id0)}
   ]]>
  </style>
  <linearGradient id="id0" gradientUnits="userSpaceOnUse" x1="308.01" y1="4098" x2="3035" y2="4098">
   <stop offset="0" style="stop-opacity:1; stop-color:#FF4A4A"/>
   <stop offset="1" style="stop-opacity:1; stop-color:#910000"/>
  </linearGradient>
 </defs>
 <g id="Camada_x0020_1">
  <metadata id="CorelCorpID_0Corel-Layer"/>
  <g id="_1805759187408">
   <circle class="fil0" cx="2116.66" cy="2301.45" r="1366.18"/>
   <path class="fil1" d="M1703.48 2633.61l88.91 -0.34 0.47 112.82 -90.66 -2.44 1.28 -110.04zm-401.09 224.65c29.39,11.6 55.87,33.09 93.46,45.92 38.31,13.09 78.89,19.76 123.06,21.6l-42.74 104.8c-7.47,13.09 -35.29,65.87 -27.1,79.34l346.21 -177.31c10.01,-39.16 3.74,-157.47 3,-204.4 -1.42,-89.73 4.84,-104.74 -3.11,-191.13 -0.22,-2.4 -0.99,-2.98 -1.73,-4.35l-3.31 22.74 -88.62 0.09c2.31,-93.94 34.5,-110.52 98.73,-143.9l-1.27 -162.65c-59.85,2.23 -69.86,31.8 -98.34,61.3 -27.66,-8.61 -44.3,-31.88 -70.67,-42.53 18.58,-65.04 85.24,-104.13 170.11,-108.23l-2.06 -184.47c-236.57,0 -500.79,-44.76 -619.54,225.68 -38.2,86.98 -39.64,287.49 -28.63,391.38 6.39,60.22 27.07,112.71 53.52,155.53 13.66,22.11 30.97,45.87 46,61.55 20.42,21.32 43.44,33.34 53.03,49.04z"/>
   <path class="fil2" d="M1800.07 2159.55c103.71,-0.49 175.62,67.4 168.7,176.8 -6.51,102.97 -112.84,123.3 -165.57,177.66l-9.76 18.72c0.74,1.37 1.51,1.95 1.73,4.35 7.95,86.39 1.69,101.4 3.11,191.13 0.74,46.93 7.01,165.24 -3,204.4 106.79,-34.06 330.59,45.19 494.02,-72.07 152.54,-109.45 163.59,-231.77 162.4,-407.29l1.12 -143.43c-14.44,-22.29 -14.12,-64.27 -23.83,-89.65 -11.08,-28.98 -24.32,-49.57 -34.61,-73.69 -34.86,-35.12 -60.7,-83.21 -131.82,-125.06 -38.03,-14.61 -54.27,-26.11 -97.72,-36.75 -36.76,-9 -75.72,-11.4 -115.12,-11.49 -53.57,-0.12 -209.97,-6.46 -251.81,3.47l0.1 -1.57 2.06 184.47z"/>
   <path class="fil3" d="M2450.64 1772.39l349.15 1.44 -0.1 122.2 -349.06 0.1 -0.16 125.99c46.13,-1.24 328.25,-7.88 348.22,4.02l-0.1 121.38 -346.42 -0.25 0.65 162.55 -1.12 143.43c68.34,21.48 320.28,172.53 358.29,177.3l-79.61 -185.6c185.07,-8.41 307.55,-117.73 354.23,-259.98 25.12,-76.54 28.15,-339.49 2.46,-424.46 -14.12,-46.7 -36.02,-73.81 -48.09,-108.11 -25.63,-15.06 -70.51,-112.69 -225.49,-149.66 -78.64,-18.76 -272.18,-10.6 -363.02,-9.3l0.17 278.95z"/>
   <path class="fil4" d="M1797.91 1976.65c41.84,-9.93 198.24,-3.59 251.81,-3.47 39.4,0.09 78.36,2.49 115.12,11.49 43.45,10.64 59.69,22.14 97.72,36.75l187.91 0.7 0.16 -125.99 -348.18 -0.11 -0.05 -123.49 348.24 -0.14 -0.17 -278.95c-187.08,-0.18 -360.94,-25.68 -496.48,71.01 -50.62,36.1 -95.9,87.99 -125.65,158.9 -39.26,93.58 -24.39,151.75 -30.43,253.3z"/>
   <path class="fil5" d="M2452.17 2147.27l346.42 0.25 0.1 -121.38c-43.08,-11.31 -284.86,-3.27 -348.44,-3.27l1.92 124.4z"/>
   <polygon class="fil6" points="2450.63,1896.13 2450.64,1772.39 2102.4,1772.53 2102.45,1896.02 "/>
   <polygon class="fil5" points="2450.63,1896.13 2799.69,1896.03 2799.79,1773.83 2450.64,1772.39 "/>
   <path class="fil7" d="M1803.75 2249.94c43.98,7.6 78.79,31.13 66.64,84.26 -11.03,48.21 -48.46,52.69 -70.15,77.46 -1.34,17.49 -1.35,35.64 -1.47,53.6 -0.15,20.32 -2.21,35.14 4.43,48.75 52.73,-54.36 159.06,-74.69 165.57,-177.66 6.92,-109.4 -64.99,-177.29 -168.7,-176.8 -2.14,28.45 -5.09,69.67 3.68,90.39z"/>
   <path class="fil8" d="M1798.97 2249.01l4.78 0.93c-8.77,-20.72 -5.82,-61.94 -3.68,-90.39 -84.87,4.1 -151.53,43.19 -170.11,108.23 26.37,10.65 43.01,33.92 70.67,42.53 28.48,-29.5 38.49,-59.07 98.34,-61.3z"/>
   <path class="fil6" d="M2394.38 2146.48l57.79 0.79 -1.92 -124.4c63.58,0 305.36,-8.04 348.44,3.27 -19.97,-11.9 -302.09,-5.26 -348.22,-4.02l-187.91 -0.7c71.12,41.85 96.96,89.94 131.82,125.06z"/>
   <path class="fil8" d="M1793.44 2532.73l9.76 -18.72c-6.64,-13.61 -4.58,-28.43 -4.43,-48.75 0.12,-17.96 0.13,-36.11 1.47,-53.6 -64.23,33.38 -96.42,49.96 -98.73,143.9l88.62 -0.09 3.31 -22.74z"/>
   <polygon class="fil8" points="1702.2,2743.65 1792.86,2746.09 1792.39,2633.27 1703.48,2633.61 "/>
   <path class="fil9" d="M1800.24 2411.66c21.69,-24.77 59.12,-29.25 70.15,-77.46 12.15,-53.13 -22.66,-76.66 -66.64,-84.26l-4.78 -0.93 1.27 162.65z"/>
   <path class="fil10" d="M2452.82 2309.82l-0.65 -162.55 -57.79 -0.79c10.29,24.12 23.53,44.71 34.61,73.69 9.71,25.38 9.39,67.36 23.83,89.65z"/>
  </g>
  <rect class="fil11" x="309.81" y="3963.03" width="3613.7" height="270.29"/>
  <rect class="fil12" x="309.81" y="3963.03" width="2726.48" height="270.29"/>
  <path class="fil13" d="M219.57 547.09c-64.92,0 -114.39,-18.06 -148.39,-54.17 -34,-36.11 -51,-87.4 -51,-153.87 0,-33.04 5.19,-62.52 15.56,-88.45 10.38,-25.94 24.59,-47.83 42.65,-65.7 18.05,-17.86 39.57,-31.4 64.54,-40.62 24.97,-9.23 52.06,-13.84 81.25,-13.84 16.91,0 32.27,1.25 46.1,3.75 13.84,2.5 25.94,5.38 36.31,8.64 10.37,3.27 19.02,6.63 25.93,10.09 6.92,3.46 11.91,6.15 14.98,8.07l-25.93 72.61c-12.29,-6.53 -26.6,-12.1 -42.93,-16.71 -16.33,-4.62 -34.86,-6.92 -55.61,-6.92 -13.83,0 -27.37,2.3 -40.63,6.92 -13.25,4.61 -24.97,12 -35.15,22.18 -10.18,10.18 -18.34,23.34 -24.49,39.48 -6.15,16.13 -9.22,35.72 -9.22,58.78 0,18.44 2.02,35.63 6.05,51.57 4.03,15.95 10.57,29.68 19.59,41.2 9.03,11.53 20.85,20.65 35.44,27.38 14.6,6.72 32.27,10.08 53.02,10.08 13.06,0 24.78,-0.77 35.15,-2.3 10.38,-1.54 19.6,-3.36 27.66,-5.48 8.07,-2.11 15.18,-4.51 21.33,-7.2 6.14,-2.69 11.71,-5.19 16.71,-7.49l24.78 72.03c-12.68,7.69 -30.54,14.6 -53.6,20.75 -23.05,6.14 -49.75,9.22 -80.1,9.22zm462.17 -160.21c0,23.82 -3.45,45.63 -10.37,65.41 -6.91,19.79 -16.9,36.69 -29.97,50.71 -13.06,14.03 -28.71,24.88 -46.96,32.56 -18.25,7.69 -38.71,11.53 -61.37,11.53 -22.29,0 -42.55,-3.84 -60.8,-11.53 -18.25,-7.68 -33.9,-18.53 -46.97,-32.56 -13.06,-14.02 -23.24,-30.92 -30.54,-50.71 -7.3,-19.78 -10.95,-41.59 -10.95,-65.41 0,-23.81 3.75,-45.52 11.24,-65.11 7.49,-19.6 17.86,-36.31 31.12,-50.14 13.25,-13.83 29,-24.59 47.25,-32.27 18.25,-7.68 38.13,-11.53 59.65,-11.53 21.89,0 41.97,3.85 60.22,11.53 18.24,7.68 33.9,18.44 46.96,32.27 13.06,13.83 23.25,30.54 30.54,50.14 7.3,19.59 10.95,41.3 10.95,65.11zm-87.59 0c0,-26.5 -5.28,-47.35 -15.85,-62.52 -10.56,-15.18 -25.64,-22.76 -45.23,-22.76 -19.6,0 -34.77,7.58 -45.53,22.76 -10.76,15.17 -16.13,36.02 -16.13,62.52 0,26.51 5.37,47.55 16.13,63.11 10.76,15.56 25.93,23.34 45.53,23.34 19.59,0 34.67,-7.78 45.23,-23.34 10.57,-15.56 15.85,-36.6 15.85,-63.11zm320.41 -8.64c0,-27.66 -3.55,-47.25 -10.66,-58.78 -7.11,-11.52 -19.31,-17.29 -36.59,-17.29 -5.38,0 -10.95,0.29 -16.72,0.87 -5.76,0.57 -11.33,1.25 -16.71,2.01l0 233.97 -85.86 0 0 -292.75c7.3,-1.92 15.85,-3.93 25.64,-6.05 9.8,-2.11 20.17,-4.03 31.12,-5.76 10.95,-1.73 22.19,-3.07 33.71,-4.03 11.53,-0.96 22.86,-1.44 34,-1.44 21.9,0 39.67,2.78 53.31,8.35 13.64,5.57 24.87,12.2 33.71,19.88 12.29,-8.83 26.41,-15.75 42.36,-20.74 15.94,-5 30.63,-7.49 44.08,-7.49 24.2,0 44.09,3.36 59.64,10.08 15.56,6.72 27.95,16.23 37.17,28.53 9.22,12.29 15.56,26.89 19.02,43.79 3.46,16.91 5.19,35.73 5.19,56.48l0 171.15 -85.87 0 0 -160.78c0,-27.66 -3.55,-47.25 -10.66,-58.78 -7.11,-11.52 -19.3,-17.29 -36.59,-17.29 -4.61,0 -11.05,1.16 -19.31,3.46 -8.26,2.31 -15.08,5.19 -20.45,8.64 2.69,8.84 4.41,18.16 5.18,27.95 0.77,9.8 1.16,20.27 1.16,31.41l0 165.39 -85.87 0 0 -160.78zm496.74 0c0,-27.66 -3.55,-47.25 -10.66,-58.78 -7.11,-11.52 -19.31,-17.29 -36.59,-17.29 -5.38,0 -10.95,0.29 -16.72,0.87 -5.76,0.57 -11.33,1.25 -16.71,2.01l0 233.97 -85.86 0 0 -292.75c7.3,-1.92 15.85,-3.93 25.64,-6.05 9.8,-2.11 20.17,-4.03 31.12,-5.76 10.95,-1.73 22.19,-3.07 33.71,-4.03 11.53,-0.96 22.86,-1.44 34,-1.44 21.9,0 39.67,2.78 53.31,8.35 13.64,5.57 24.87,12.2 33.71,19.88 12.29,-8.83 26.41,-15.75 42.36,-20.74 15.94,-5 30.63,-7.49 44.08,-7.49 24.2,0 44.09,3.36 59.64,10.08 15.56,6.72 27.95,16.23 37.17,28.53 9.22,12.29 15.56,26.89 19.02,43.79 3.46,16.91 5.19,35.73 5.19,56.48l0 171.15 -85.87 0 0 -160.78c0,-27.66 -3.55,-47.25 -10.66,-58.78 -7.11,-11.52 -19.3,-17.29 -36.59,-17.29 -4.61,0 -11.05,1.16 -19.31,3.46 -8.26,2.31 -15.08,5.19 -20.45,8.64 2.69,8.84 4.41,18.16 5.18,27.95 0.77,9.8 1.16,20.27 1.16,31.41l0 165.39 -85.87 0 0 -160.78zm588.94 150.41c-14.59,4.22 -33.42,8.16 -56.47,11.81 -23.05,3.65 -47.25,5.48 -72.61,5.48 -25.74,0 -47.16,-3.46 -64.25,-10.38 -17.1,-6.91 -30.64,-16.61 -40.63,-29.1 -9.99,-12.49 -17.1,-27.37 -21.32,-44.66 -4.23,-17.29 -6.34,-36.31 -6.34,-57.05l0 -168.85 85.86 0 0 158.48c0,27.66 3.65,47.63 10.95,59.93 7.3,12.29 20.94,18.44 40.92,18.44 6.14,0 12.67,-0.29 19.59,-0.87 6.91,-0.57 13.06,-1.24 18.44,-2.01l0 -233.97 85.86 0 0 292.75zm80.68 -282.38c14.6,-4.22 33.42,-8.16 56.47,-11.81 23.05,-3.65 47.26,-5.47 72.61,-5.47 25.74,0 47.16,3.36 64.26,10.08 17.09,6.72 30.64,16.23 40.62,28.53 9.99,12.29 17.1,26.89 21.33,43.79 4.22,16.91 6.34,35.73 6.34,56.48l0 171.15 -85.87 0 0 -160.78c0,-27.66 -3.65,-47.25 -10.95,-58.78 -7.3,-11.52 -20.94,-17.29 -40.91,-17.29 -6.15,0 -12.68,0.29 -19.6,0.87 -6.91,0.57 -13.06,1.25 -18.44,2.01l0 233.97 -85.86 0 0 -292.75zm425.28 292.75l-85.86 0 0 -303.12 85.86 0 0 303.12zm8.07 -390.71c0,15.75 -5.09,28.14 -15.27,37.17 -10.18,9.03 -22.19,13.54 -36.02,13.54 -13.83,0 -25.83,-4.51 -36.01,-13.54 -10.18,-9.03 -15.28,-21.42 -15.28,-37.17 0,-15.75 5.1,-28.14 15.28,-37.17 10.18,-9.03 22.18,-13.54 36.01,-13.54 13.83,0 25.84,4.51 36.02,13.54 10.18,9.03 15.27,21.42 15.27,37.17zm58.2 239.15c0,-21.9 3.56,-42.55 10.66,-61.95 7.11,-19.4 17.39,-36.3 30.83,-50.71 13.45,-14.41 29.78,-25.84 48.99,-34.29 19.21,-8.45 41.1,-12.68 65.69,-12.68 16.14,0 30.93,1.44 44.37,4.33 13.45,2.88 26.51,7.01 39.19,12.39l-17.86 68.57c-8.07,-3.07 -16.91,-5.76 -26.51,-8.07 -9.61,-2.3 -20.36,-3.45 -32.27,-3.45 -25.36,0 -44.28,7.87 -56.77,23.62 -12.48,15.76 -18.72,36.5 -18.72,62.24 0,27.28 5.85,48.41 17.57,63.39 11.72,14.98 32.18,22.48 61.37,22.48 10.38,0 21.52,-0.97 33.43,-2.89 11.91,-1.92 22.86,-4.99 32.85,-9.22l12.1 70.31c-9.99,4.22 -22.48,7.87 -37.46,10.95 -14.98,3.07 -31.5,4.61 -49.56,4.61 -27.66,0 -51.48,-4.13 -71.46,-12.39 -19.97,-8.26 -36.4,-19.5 -49.27,-33.71 -12.87,-14.22 -22.28,-31.03 -28.24,-50.43 -5.95,-19.4 -8.93,-40.43 -8.93,-63.1zm403.97 91.63c8.45,0 16.52,-0.19 24.2,-0.58 7.69,-0.38 13.83,-0.96 18.44,-1.73l0 -65.12c-3.45,-0.76 -8.64,-1.53 -15.56,-2.3 -6.91,-0.77 -13.25,-1.15 -19.01,-1.15 -8.07,0 -15.66,0.48 -22.77,1.44 -7.1,0.96 -13.35,2.78 -18.72,5.47 -5.38,2.69 -9.61,6.34 -12.68,10.95 -3.08,4.61 -4.61,10.37 -4.61,17.29 0,13.45 4.51,22.76 13.54,27.95 9.03,5.18 21.42,7.78 37.17,7.78zm-6.92 -251.26c25.36,0 46.49,2.89 63.39,8.65 16.91,5.76 30.45,14.02 40.63,24.78 10.18,10.75 17.38,23.82 21.61,39.18 4.23,15.37 6.34,32.47 6.34,51.29l0 178.65c-12.29,2.69 -29.39,5.85 -51.29,9.5 -21.9,3.65 -48.4,5.48 -79.52,5.48 -19.6,0 -37.37,-1.73 -53.31,-5.19 -15.94,-3.46 -29.68,-9.12 -41.2,-17 -11.53,-7.87 -20.36,-18.15 -26.51,-30.83 -6.15,-12.68 -9.22,-28.24 -9.22,-46.68 0,-17.67 3.55,-32.65 10.66,-44.94 7.11,-12.3 16.62,-22.1 28.53,-29.39 11.91,-7.3 25.54,-12.59 40.91,-15.85 15.37,-3.27 31.31,-4.9 47.83,-4.9 11.14,0 21.04,0.48 29.68,1.44 8.64,0.96 15.65,2.21 21.03,3.75l0 -8.07c0,-14.6 -4.41,-26.32 -13.25,-35.15 -8.84,-8.84 -24.2,-13.26 -46.1,-13.26 -14.6,0 -29.01,1.06 -43.22,3.17 -14.22,2.11 -26.51,5.09 -36.88,8.93l-10.95 -69.15c4.99,-1.54 11.23,-3.17 18.73,-4.9 7.49,-1.73 15.65,-3.26 24.49,-4.61 8.83,-1.34 18.15,-2.49 27.95,-3.46 9.79,-0.96 19.69,-1.44 29.67,-1.44zm206.89 -67.42l85.86 -13.83 0 89.32 103.15 0 0 71.46 -103.15 0 0 106.61c0,18.06 3.17,32.46 9.51,43.22 6.34,10.76 19.11,16.14 38.32,16.14 9.22,0 18.73,-0.87 28.53,-2.6 9.79,-1.73 18.73,-4.13 26.79,-7.2l12.11 66.85c-10.38,4.22 -21.9,7.87 -34.58,10.95 -12.68,3.07 -28.24,4.61 -46.68,4.61 -23.43,0 -42.83,-3.17 -58.2,-9.51 -15.37,-6.34 -27.66,-15.18 -36.88,-26.51 -9.22,-11.33 -15.66,-25.07 -19.31,-41.2 -3.65,-16.14 -5.47,-34 -5.47,-53.6l0 -254.71zm344.6 378.61l-85.86 0 0 -303.12 85.86 0 0 303.12zm8.07 -390.71c0,15.75 -5.09,28.14 -15.27,37.17 -10.18,9.03 -22.19,13.54 -36.02,13.54 -13.83,0 -25.83,-4.51 -36.01,-13.54 -10.18,-9.03 -15.28,-21.42 -15.28,-37.17 0,-15.75 5.1,-28.14 15.28,-37.17 10.18,-9.03 22.18,-13.54 36.01,-13.54 13.83,0 25.84,4.51 36.02,13.54 10.18,9.03 15.27,21.42 15.27,37.17zm356.13 238.57c0,23.82 -3.45,45.63 -10.37,65.41 -6.91,19.79 -16.9,36.69 -29.97,50.71 -13.06,14.03 -28.71,24.88 -46.96,32.56 -18.25,7.69 -38.71,11.53 -61.37,11.53 -22.29,0 -42.55,-3.84 -60.8,-11.53 -18.25,-7.68 -33.9,-18.53 -46.97,-32.56 -13.06,-14.02 -23.24,-30.92 -30.54,-50.71 -7.3,-19.78 -10.95,-41.59 -10.95,-65.41 0,-23.81 3.75,-45.52 11.24,-65.11 7.49,-19.6 17.86,-36.31 31.12,-50.14 13.25,-13.83 29,-24.59 47.25,-32.27 18.25,-7.68 38.13,-11.53 59.65,-11.53 21.89,0 41.97,3.85 60.22,11.53 18.24,7.68 33.9,18.44 46.96,32.27 13.06,13.83 23.25,30.54 30.54,50.14 7.3,19.59 10.95,41.3 10.95,65.11zm-87.59 0c0,-26.5 -5.28,-47.35 -15.85,-62.52 -10.56,-15.18 -25.64,-22.76 -45.23,-22.76 -19.6,0 -34.77,7.58 -45.53,22.76 -10.76,15.17 -16.13,36.02 -16.13,62.52 0,26.51 5.37,47.55 16.13,63.11 10.76,15.56 25.93,23.34 45.53,23.34 19.59,0 34.67,-7.78 45.23,-23.34 10.57,-15.56 15.85,-36.6 15.85,-63.11zm153.87 -140.61c14.6,-4.22 33.42,-8.16 56.47,-11.81 23.05,-3.65 47.26,-5.47 72.61,-5.47 25.74,0 47.16,3.36 64.26,10.08 17.09,6.72 30.64,16.23 40.62,28.53 9.99,12.29 17.1,26.89 21.33,43.79 4.22,16.91 6.34,35.73 6.34,56.48l0 171.15 -85.87 0 0 -160.78c0,-27.66 -3.65,-47.25 -10.95,-58.78 -7.3,-11.52 -20.94,-17.29 -40.91,-17.29 -6.15,0 -12.68,0.29 -19.6,0.87 -6.91,0.57 -13.06,1.25 -18.44,2.01l0 233.97 -85.86 0 0 -292.75z"/>
 </g>
</svg>
