<?xml version="1.0" encoding="UTF-8"?>
<!DOCTYPE svg PUBLIC "-//W3C//DTD SVG 1.1//EN" "http://www.w3.org/Graphics/SVG/1.1/DTD/svg11.dtd">
<!-- Creator: CorelDRAW -->
<svg xmlns="http://www.w3.org/2000/svg" xml:space="preserve" width="42.3332mm" height="42.3332mm" version="1.1" style="shape-rendering:geometricPrecision; text-rendering:geometricPrecision; image-rendering:optimizeQuality; fill-rule:evenodd; clip-rule:evenodd"
viewBox="0 0 4233.32 4233.32"
 xmlns:xlink="http://www.w3.org/1999/xlink"
 xmlns:xodm="http://www.corel.com/coreldraw/odm/2003">
 <defs>
  <style type="text/css">
   <![CDATA[
    .fil9 {fill:#145383}
    .fil8 {fill:#1C78BF}
    .fil10 {fill:#333333}
    .fil5 {fill:#BBDCFE}
    .fil6 {fill:#E0F4FE}
    .fil0 {fill:#F6F6F6}
    .fil1 {fill:#FCBF00}
    .fil3 {fill:#FDBE00}
    .fil2 {fill:#FF9100}
    .fil4 {fill:#FFD82C}
    .fil7 {fill:#FFD92D}
    .fil12 {fill:#F6F6F6;fill-rule:nonzero}
    .fil11 {fill:url(#id0)}
   ]]>
  </style>
  <linearGradient id="id0" gradientUnits="userSpaceOnUse" x1="308.01" y1="4084.91" x2="3727" y2="4084.91">
   <stop offset="0" style="stop-opacity:1; stop-color:#F2F2F2"/>
   <stop offset="1" style="stop-opacity:1; stop-color:#969696"/>
  </linearGradient>
 </defs>
 <g id="Camada_x0020_1">
  <metadata id="CorelCorpID_0Corel-Layer"/>
  <g id="_1804672205744">
   <circle class="fil0" cx="2116.66" cy="2288.36" r="1366.18"/>
   <g>
    <path class="fil1" d="M1757.22 1973.52l-72.77 0c-37.65,-57.14 -62.11,-113.42 -16.04,-189.38 14.11,-23.26 40.43,-47.34 69.4,-60.08 33.94,-14.92 76.04,-13.28 116.24,-13.28 0,-54.95 -4.31,-88.91 24.16,-136.71 10.25,-17.22 11.61,-17.78 25.23,-30.9 11.88,-11.45 14.15,-14.89 28.85,-23.62 12.7,-7.55 24.63,-12.82 39.32,-16.69 41.82,-11.01 56.07,-3.55 92.69,4.3l0 1148.8 -105.26 0 0 -99.41c-159.67,-43.97 -92.13,-154.41 -74.48,-218.07 -77.35,-2.15 -139.85,22.93 -207.43,-58.61 -20.33,-24.53 -34.24,-62.2 -32.76,-103.5 1.61,-45.05 23.3,-72.97 40.16,-98.12l72.54 0c18.39,86.12 98.81,153.28 201.91,157.42l0.07 -104.76c-138.16,-7.85 -138.04,-202.37 -0.01,-210.05l-0.01 -104.73c-103.05,3.64 -183.86,71.79 -201.81,157.39zm232.58 -581.08l46.04 0c18.5,1.73 36.97,5.58 55.07,11.74 11.59,3.94 15.6,6.97 26.65,9.26l-0.9 1347.36 -262.48 0 0 -132.97c-66.46,-35.17 -104.99,-106.04 -104.99,-185.48 -22.27,-10.69 -49.29,-4.25 -115.04,-56.45 -66.97,-53.18 -109.98,-150.15 -93.05,-242.64 4.21,-23.03 11.21,-47.15 19.11,-64.88 9.93,-22.31 19.1,-33.98 31.5,-52.5 -55.89,-83.45 -74.33,-174.01 -29.23,-267.2 40.26,-83.18 102.78,-128.89 190.21,-149.26 5.83,-25.01 7.74,-36.71 18.62,-58.37 8.73,-17.36 15.94,-32.09 26.34,-47.15 43.51,-62.99 115.71,-104.43 192.15,-111.46z"/>
    <path class="fil2" d="M2274.22 1920.89c138.14,7.5 137.91,202.47 0,209.98l0.02 104.84c59.69,-2.27 94.43,-18.23 131.14,-47.01 26.73,-20.96 60.71,-61.66 70.74,-110.4l72.55 0c28.96,43.52 55.46,83.61 31.69,155.79 -47.85,145.27 -190.78,56.18 -201.58,218.86 -4.26,64.14 -48.39,87.99 -104.56,103.65l0 99.3 -105.06 0 -0.08 -1148.66c60.6,-13.73 108.95,-12.24 150.47,25.35 60.44,54.71 59.66,97.65 59.66,178.25 85.18,0 149.96,4.07 191.84,84.79 38.81,74.82 11.02,127.24 -22.38,177.84l-72.53 0c-20.38,-95.98 -108.39,-153.54 -201.92,-157.49l0 104.91zm-82.08 -528.45l54.77 0c56.09,2.95 117.52,35.83 154.1,72.62 35.63,35.83 75.02,89.18 79.62,144.36 18.08,1.51 52.85,14.16 66.3,21.2 124.12,64.97 184.5,208.66 127.21,340.3 -27.26,62.63 -39.24,41.92 -17.85,75.28 4.66,7.26 6.86,12.13 11.03,20.47 52.63,105.46 29.49,227.46 -56.26,310.13 -9.38,9.05 -24.57,20.15 -35.37,27.62 -68.49,47.34 -90.15,17.51 -91.76,58.73 -2.65,67.82 -47.74,134.49 -104.79,164.68l0 132.97 -262.48 0 0.9 -1347.36c35.62,-9.46 42.23,-18.27 74.58,-21z"/>
    <path class="fil3" d="M2274.22 1815.98c93.53,3.95 181.54,61.51 201.92,157.49l72.53 0c33.4,-50.6 61.19,-103.02 22.38,-177.84 -41.88,-80.72 -106.66,-84.79 -191.84,-84.79 0,-80.6 0.78,-123.54 -59.66,-178.25 -41.52,-37.59 -89.87,-39.08 -150.47,-25.35l0.08 1148.66 105.06 0 0 -99.3c56.17,-15.66 100.3,-39.51 104.56,-103.65 10.8,-162.68 153.73,-73.59 201.58,-218.86 23.77,-72.18 -2.73,-112.27 -31.69,-155.79l-72.55 0c-10.03,48.74 -44.01,89.44 -70.74,110.4 -36.71,28.78 -71.45,44.74 -131.14,47.01l-0.02 -104.84c137.91,-7.51 138.14,-202.48 0,-209.98l0 -104.91z"/>
    <path class="fil4" d="M1757.22 1973.52c17.95,-85.6 98.76,-153.75 201.81,-157.39l0.01 104.73c-138.03,7.68 -138.15,202.2 0.01,210.05l-0.07 104.76c-103.1,-4.14 -183.52,-71.3 -201.91,-157.42l-72.54 0c-16.86,25.15 -38.55,53.07 -40.16,98.12 -1.48,41.3 12.43,78.97 32.76,103.5 67.58,81.54 130.08,56.46 207.43,58.61 -17.65,63.66 -85.19,174.1 74.48,218.07l0 99.41 105.26 0 0 -1148.8c-36.62,-7.85 -50.87,-15.31 -92.69,-4.3 -14.69,3.87 -26.62,9.14 -39.32,16.69 -14.7,8.73 -16.97,12.17 -28.85,23.62 -13.62,13.12 -14.98,13.68 -25.23,30.9 -28.47,47.8 -24.16,81.76 -24.16,136.71 -40.2,0 -82.3,-1.64 -116.24,13.28 -28.97,12.74 -55.29,36.82 -69.4,60.08 -46.07,75.96 -21.61,132.24 16.04,189.38l72.77 0z"/>
    <polygon class="fil5" points="2116.66,2970.8 2379.14,2970.8 2379.14,2760.8 2116.66,2760.8 "/>
    <polygon class="fil6" points="2116.66,2970.8 2116.66,2760.8 1854.18,2760.8 1854.18,2970.8 "/>
    <polygon class="fil4" points="1220.74,2078.38 1483.22,2078.38 1483.22,1973.39 1220.74,1973.39 "/>
    <polygon class="fil1" points="2750.1,2078.38 3012.58,2078.38 3012.58,1973.39 2750.1,1973.39 "/>
    <path class="fil7" d="M1250.94 1706.76c26.93,6.62 190.08,100.09 214.78,102.14l46.8 -93.84c-28.6,-7.3 -189.76,-100.05 -214.78,-102.14l-46.8 93.84z"/>
    <path class="fil1" d="M2720.8 2336.7c26.93,6.63 190.09,100.09 214.78,102.15l46.8 -93.84c-28.6,-7.31 -189.76,-100.06 -214.78,-102.15l-46.8 93.84z"/>
    <path class="fil7" d="M1252.24 2344.35l45.47 94.51c17.85,-1.5 87.11,-40.06 107.35,-50.18 18.47,-9.23 32.86,-16.43 51.33,-25.66 14.93,-7.47 40.24,-22.27 54.83,-25.66l-45.47 -94.51c-17.86,1.5 -87.11,40.06 -107.35,50.18l-106.16 51.32z"/>
    <path class="fil1" d="M2722.1 1714.41l45.47 94.51c24.88,-2.09 187.58,-95.47 213.51,-101.51l-45.47 -94.5c-17.85,1.5 -87.11,40.05 -107.35,50.18l-106.16 51.32z"/>
    <polygon class="fil8" points="2116.66,3184.28 2116.66,3079.29 1959.17,3079.29 1959.17,3184.28 "/>
    <polygon class="fil9" points="2116.66,3184.28 2274.15,3184.28 2274.15,3079.29 2116.66,3079.29 "/>
   </g>
  </g>
  <rect class="fil10" x="309.81" y="3949.94" width="3613.7" height="270.29"/>
  <rect class="fil11" x="309.81" y="3949.94" width="3418.86" height="270.29"/>
  <path class="fil12" d="M716.8 558.62c-78.8,0 -138.83,-21.91 -180.09,-65.74 -41.27,-43.83 -61.9,-106.08 -61.9,-186.74 0,-40.1 6.29,-75.89 18.88,-107.36 12.59,-31.47 29.84,-58.05 51.76,-79.73 21.91,-21.68 48.02,-38.12 78.33,-49.31 30.31,-11.19 63.18,-16.78 98.62,-16.78 20.51,0 39.16,1.51 55.95,4.54 16.79,3.03 31.47,6.53 44.06,10.49 12.59,3.97 23.08,8.05 31.47,12.24 8.4,4.2 14.46,7.46 18.19,9.79l-31.47 88.13c-14.92,-7.93 -32.29,-14.69 -52.11,-20.28 -19.82,-5.6 -42.31,-8.4 -67.49,-8.4 -16.79,0 -33.22,2.8 -49.31,8.4 -16.09,5.59 -30.31,14.57 -42.66,26.92 -12.36,12.36 -22.27,28.33 -29.73,47.91 -7.46,19.58 -11.19,43.36 -11.19,71.34 0,22.38 2.45,43.25 7.35,62.6 4.89,19.35 12.82,36.02 23.78,50 10.95,13.99 25.29,25.07 43.01,33.22 17.72,8.16 39.17,12.24 64.34,12.24 15.86,0 30.08,-0.93 42.67,-2.79 12.59,-1.87 23.78,-4.08 33.57,-6.65 9.79,-2.56 18.42,-5.48 25.88,-8.74 7.46,-3.26 14.22,-6.29 20.28,-9.09l30.07 87.42c-15.38,9.33 -37.06,17.72 -65.04,25.18 -27.98,7.46 -60.38,11.19 -97.22,11.19zm446.92 -285.35c-9.33,-2.33 -20.28,-4.78 -32.87,-7.35 -12.59,-2.56 -26.11,-3.84 -40.57,-3.84 -6.53,0 -14.34,0.58 -23.43,1.74 -9.09,1.17 -15.97,2.45 -20.63,3.85l0 281.16 -104.21 0 0 -348.3c18.65,-6.53 40.68,-12.71 66.09,-18.54 25.41,-5.82 53.74,-8.74 84.98,-8.74 5.59,0 12.35,0.35 20.28,1.05 7.93,0.7 15.85,1.63 23.78,2.8 7.93,1.16 15.85,2.56 23.78,4.2 7.93,1.63 14.69,3.61 20.28,5.94l-17.48 86.03zm48.95 94.42c0,-32.64 5.02,-61.2 15.04,-85.68 10.02,-24.48 23.2,-44.88 39.52,-61.2 16.32,-16.32 35.08,-28.67 56.3,-37.07 21.21,-8.39 43.01,-12.59 65.39,-12.59 52.22,0 93.49,15.97 123.8,47.91 30.3,31.94 45.46,78.92 45.46,140.93 0,6.06 -0.24,12.71 -0.7,19.93 -0.47,7.23 -0.94,13.64 -1.4,19.24l-236.4 0c2.33,21.45 12.36,38.47 30.08,51.05 17.71,12.59 41.49,18.89 71.33,18.89 19.12,0 37.89,-1.75 56.31,-5.25 18.41,-3.49 33.45,-7.81 45.11,-12.94l13.99 84.63c-5.6,2.8 -13.06,5.6 -22.39,8.39 -9.32,2.8 -19.7,5.25 -31.12,7.35 -11.42,2.1 -23.66,3.84 -36.72,5.24 -13.05,1.4 -26.11,2.1 -39.16,2.1 -33.11,0 -61.9,-4.89 -86.38,-14.69 -24.48,-9.79 -44.76,-23.19 -60.85,-40.21 -16.08,-17.02 -27.97,-37.19 -35.67,-60.5 -7.69,-23.31 -11.54,-48.49 -11.54,-75.53zm244.79 -39.87c-0.46,-8.86 -1.98,-17.49 -4.54,-25.88 -2.57,-8.39 -6.53,-15.85 -11.89,-22.38 -5.36,-6.53 -12.13,-11.89 -20.29,-16.09 -8.16,-4.19 -18.3,-6.29 -30.42,-6.29 -11.66,0 -21.68,1.98 -30.07,5.95 -8.4,3.96 -15.39,9.2 -20.99,15.73 -5.59,6.53 -9.9,14.11 -12.93,22.73 -3.04,8.63 -5.25,17.37 -6.65,26.23l137.78 0zm321.73 148.27c10.26,0 20.05,-0.23 29.37,-0.7 9.33,-0.46 16.79,-1.16 22.38,-2.1l0 -79.03c-4.19,-0.93 -10.49,-1.86 -18.88,-2.8 -8.39,-0.93 -16.09,-1.39 -23.08,-1.39 -9.79,0 -19,0.58 -27.63,1.74 -8.62,1.17 -16.2,3.39 -22.73,6.65 -6.53,3.26 -11.65,7.69 -15.38,13.29 -3.73,5.59 -5.6,12.59 -5.6,20.98 0,16.32 5.48,27.63 16.44,33.92 10.95,6.3 25.99,9.44 45.11,9.44zm-8.4 -304.94c30.78,0 56.42,3.5 76.94,10.49 20.51,7 36.95,17.02 49.31,30.08 12.35,13.05 21.09,28.91 26.22,47.56 5.13,18.65 7.7,39.4 7.7,62.24l0 216.82c-14.92,3.26 -35.67,7.11 -62.25,11.54 -26.58,4.43 -58.75,6.64 -96.52,6.64 -23.78,0 -45.34,-2.09 -64.69,-6.29 -19.35,-4.2 -36.02,-11.08 -50.01,-20.63 -13.99,-9.56 -24.71,-22.03 -32.17,-37.42 -7.46,-15.39 -11.19,-34.27 -11.19,-56.65 0,-21.45 4.31,-39.64 12.94,-54.56 8.62,-14.92 20.16,-26.81 34.62,-35.67 14.45,-8.85 31,-15.27 49.66,-19.23 18.65,-3.96 38,-5.94 58.05,-5.94 13.52,0 25.52,0.58 36.01,1.74 10.5,1.17 19.01,2.69 25.53,4.55l0 -9.79c0,-17.72 -5.36,-31.94 -16.08,-42.66 -10.73,-10.73 -29.38,-16.09 -55.96,-16.09 -17.71,0 -35.2,1.28 -52.45,3.85 -17.25,2.56 -32.17,6.17 -44.76,10.84l-13.29 -83.93c6.06,-1.87 13.64,-3.85 22.73,-5.95 9.09,-2.09 19,-3.96 29.72,-5.59 10.73,-1.63 22.04,-3.03 33.93,-4.2 11.89,-1.16 23.89,-1.75 36.01,-1.75zm251.09 -81.83l104.21 -16.78 0 108.41 125.19 0 0 86.72 -125.19 0 0 129.39c0,21.91 3.85,39.4 11.54,52.46 7.7,13.05 23.2,19.58 46.51,19.58 11.19,0 22.73,-1.05 34.62,-3.15 11.89,-2.1 22.73,-5.01 32.52,-8.74l14.69 81.13c-12.59,5.13 -26.58,9.56 -41.96,13.29 -15.39,3.73 -34.27,5.59 -56.65,5.59 -28.45,0 -51.99,-3.84 -70.64,-11.54 -18.65,-7.69 -33.57,-18.41 -44.76,-32.17 -11.2,-13.75 -19.01,-30.42 -23.43,-50.01 -4.43,-19.58 -6.65,-41.26 -6.65,-65.04l0 -309.14zm418.24 459.51l-104.21 0 0 -367.88 104.21 0 0 367.88zm9.79 -474.19c0,19.11 -6.18,34.15 -18.53,45.11 -12.36,10.96 -26.93,16.43 -43.72,16.43 -16.78,0 -31.35,-5.47 -43.71,-16.43 -12.35,-10.96 -18.53,-26 -18.53,-45.11 0,-19.12 6.18,-34.16 18.53,-45.11 12.36,-10.96 26.93,-16.44 43.71,-16.44 16.79,0 31.36,5.48 43.72,16.44 12.35,10.95 18.53,25.99 18.53,45.11zm177.54 474.19c-23.9,-46.63 -48.15,-101.18 -72.74,-163.66 -24.6,-62.48 -47.79,-130.55 -69.83,-204.22l110.51 0c4.66,18.18 10.14,37.88 16.55,59.09 6.3,21.22 12.82,42.67 19.58,64.35 6.88,21.68 13.64,42.78 20.4,63.3 6.76,20.51 13.53,39.16 20.05,55.95 6.06,-16.79 12.59,-35.44 19.7,-55.95 7,-20.52 13.87,-41.62 20.64,-63.3 6.76,-21.68 13.4,-43.13 19.7,-64.35 6.29,-21.21 11.77,-40.91 16.43,-59.09l107.83 0c-22.04,73.67 -45.23,141.74 -69.83,204.22 -24.48,62.48 -48.72,117.03 -72.62,163.66l-86.37 0zm388.28 0l-104.21 0 0 -367.88 104.21 0 0 367.88zm9.79 -474.19c0,19.11 -6.18,34.15 -18.53,45.11 -12.36,10.96 -26.93,16.43 -43.72,16.43 -16.78,0 -31.35,-5.47 -43.71,-16.43 -12.35,-10.96 -18.53,-26 -18.53,-45.11 0,-19.12 6.18,-34.16 18.53,-45.11 12.36,-10.96 26.93,-16.44 43.71,-16.44 16.79,0 31.36,5.48 43.72,16.44 12.35,10.95 18.53,25.99 18.53,45.11zm84.63 14.68l104.21 -16.78 0 108.41 125.19 0 0 86.72 -125.19 0 0 129.39c0,21.91 3.85,39.4 11.54,52.46 7.7,13.05 23.2,19.58 46.51,19.58 11.19,0 22.73,-1.05 34.62,-3.15 11.89,-2.1 22.73,-5.01 32.52,-8.74l14.69 81.13c-12.59,5.13 -26.58,9.56 -41.96,13.29 -15.39,3.73 -34.27,5.59 -56.65,5.59 -28.45,0 -51.99,-3.84 -70.64,-11.54 -18.65,-7.69 -33.57,-18.41 -44.76,-32.17 -11.2,-13.75 -19.01,-30.42 -23.43,-50.01 -4.43,-19.58 -6.65,-41.26 -6.65,-65.04l0 -309.14zm648.35 91.63c-20.98,70.87 -43.02,137.31 -65.86,199.32 -22.97,62.02 -47.91,122.17 -75.07,180.45 -9.79,20.98 -19.59,38.82 -29.38,53.5 -9.9,14.69 -20.63,26.81 -32.29,36.37 -11.65,9.56 -24.82,16.56 -39.51,20.98 -14.81,4.43 -31.94,6.65 -51.52,6.65 -16.32,0 -31.36,-1.52 -45.23,-4.55 -13.76,-3.03 -25.06,-6.41 -33.92,-10.14l18.18 -83.23c10.73,3.73 20.28,6.3 28.68,7.7 8.39,1.4 17.25,2.09 26.57,2.09 18.65,0 32.99,-5.01 43.02,-15.03 10.02,-10.03 18.65,-23.9 25.64,-41.62 -23.89,-46.62 -47.67,-98.96 -71.45,-157.01 -23.78,-58.05 -46.16,-123.21 -67.15,-195.48l110.51 0c4.66,18.18 10.14,37.88 16.55,59.09 6.3,21.22 12.94,42.67 19.93,64.35 7.12,21.68 14.23,42.78 21.45,63.3 7.23,20.51 14.22,39.16 20.75,55.95 6.06,-16.79 12.36,-35.44 19,-55.95 6.53,-20.52 12.94,-41.62 19.24,-63.3 6.41,-21.68 12.47,-43.13 18.3,-64.35 5.82,-21.21 11.07,-40.91 15.85,-59.09l107.71 0z"/>
 </g>
</svg>
