<?xml version="1.0" encoding="UTF-8"?>
<!DOCTYPE svg PUBLIC "-//W3C//DTD SVG 1.1//EN" "http://www.w3.org/Graphics/SVG/1.1/DTD/svg11.dtd">
<!-- Creator: CorelDRAW -->
<svg xmlns="http://www.w3.org/2000/svg" xml:space="preserve" width="42.3332mm" height="42.3332mm" version="1.1" style="shape-rendering:geometricPrecision; text-rendering:geometricPrecision; image-rendering:optimizeQuality; fill-rule:evenodd; clip-rule:evenodd"
viewBox="0 0 4233.32 4233.32"
 xmlns:xlink="http://www.w3.org/1999/xlink"
 xmlns:xodm="http://www.corel.com/coreldraw/odm/2003">
 <defs>
  <style type="text/css">
   <![CDATA[
    .fil8 {fill:#333333}
    .fil6 {fill:#E09380}
    .fil4 {fill:#F14500}
    .fil3 {fill:#F9A58E}
    .fil7 {fill:#FAA68E}
    .fil1 {fill:#FD6816}
    .fil5 {fill:#FD6A16}
    .fil2 {fill:#FFBDA9}
    .fil0 {fill:#F6F6F6;fill-rule:nonzero}
    .fil9 {fill:url(#id0)}
   ]]>
  </style>
  <linearGradient id="id0" gradientUnits="userSpaceOnUse" x1="308.02" y1="4098" x2="3419.01" y2="4098">
   <stop offset="0" style="stop-opacity:1; stop-color:#FF8D4F"/>
   <stop offset="1" style="stop-opacity:1; stop-color:#D14900"/>
  </linearGradient>
 </defs>
 <g id="Camada_x0020_1">
  <metadata id="CorelCorpID_0Corel-Layer"/>
  <path class="fil0" d="M584.18 600.62l0 -518.05 349.85 0 0 97.93 -233.23 0 0 101.67 207.07 0 0 95.68 -207.07 0 0 124.84 250.43 0 0 97.93 -367.05 0zm661.58 -208.56c0,-35.89 -4.61,-61.3 -13.83,-76.25 -9.22,-14.95 -25.05,-22.43 -47.47,-22.43 -6.98,0 -14.2,0.37 -21.68,1.12 -7.48,0.75 -14.7,1.62 -21.68,2.62l0 303.5 -111.38 0 0 -379.75c9.47,-2.49 20.56,-5.11 33.26,-7.85 12.71,-2.74 26.17,-5.23 40.37,-7.47 14.2,-2.25 28.78,-3.99 43.73,-5.24 14.95,-1.24 29.65,-1.87 44.11,-1.87 28.4,0 51.45,3.62 69.14,10.84 17.7,7.23 32.27,15.83 43.73,25.79 15.95,-11.46 34.27,-20.43 54.95,-26.91 20.68,-6.48 39.74,-9.72 57.19,-9.72 31.39,0 57.18,4.36 77.37,13.09 20.18,8.72 36.25,21.05 48.21,37 11.96,15.95 20.19,34.88 24.67,56.81 4.49,21.93 6.73,46.35 6.73,73.26l0 222.02 -111.38 0 0 -208.56c0,-35.89 -4.61,-61.3 -13.83,-76.25 -9.22,-14.95 -25.05,-22.43 -47.47,-22.43 -5.98,0 -14.33,1.5 -25.04,4.49 -10.72,2.99 -19.57,6.72 -26.54,11.21 3.49,11.46 5.73,23.55 6.73,36.26 0.99,12.7 1.49,26.28 1.49,40.74l0 214.54 -111.38 0 0 -208.56zm680.26 14.95c0,-34.39 -7.73,-61.92 -23.17,-82.61 -15.45,-20.68 -38.38,-31.02 -68.78,-31.02 -9.97,0 -19.19,0.37 -27.66,1.12 -8.47,0.75 -15.45,1.62 -20.93,2.62l0 201.09c6.98,4.48 16.07,8.22 27.29,11.21 11.21,2.99 22.55,4.49 34.01,4.49 52.83,0 79.24,-35.64 79.24,-106.9zm113.62 -2.99c0,30.4 -3.73,58.06 -11.21,82.97 -7.47,24.92 -18.44,46.35 -32.89,64.29 -14.45,17.94 -32.39,31.9 -53.82,41.86 -21.43,9.97 -46.1,14.96 -74.01,14.96 -15.45,0 -29.9,-1.5 -43.36,-4.49 -13.45,-2.99 -26.41,-7.23 -38.87,-12.71l0 148.01 -111.38 0 0 -518.04c9.96,-2.99 21.43,-5.86 34.38,-8.6 12.96,-2.74 26.54,-5.11 40.75,-7.1 14.2,-1.99 28.65,-3.61 43.35,-4.86 14.7,-1.24 28.78,-1.87 42.24,-1.87 32.39,0 61.3,4.86 86.71,14.58 25.42,9.72 46.85,23.42 64.29,41.12 17.44,17.69 30.78,39.24 40,64.66 9.22,25.41 13.82,53.82 13.82,85.22zm236.22 118.86c10.97,0 21.43,-0.25 31.4,-0.75 9.97,-0.5 17.94,-1.25 23.92,-2.24l0 -84.48c-4.48,-0.99 -11.21,-1.99 -20.18,-2.99 -8.97,-0.99 -17.2,-1.49 -24.67,-1.49 -10.47,0 -20.31,0.62 -29.53,1.87 -9.22,1.24 -17.32,3.61 -24.29,7.1 -6.98,3.49 -12.46,8.22 -16.45,14.2 -3.99,5.98 -5.98,13.46 -5.98,22.43 0,17.44 5.86,29.53 17.57,36.25 11.71,6.73 27.78,10.1 48.21,10.1zm-8.97 -325.93c32.89,0 60.3,3.74 82.23,11.21 21.93,7.48 39.5,18.19 52.7,32.15 13.21,13.95 22.55,30.89 28.04,50.83 5.48,19.93 8.22,42.11 8.22,66.53l0 231.74c-15.95,3.49 -38.13,7.6 -66.53,12.33 -28.41,4.74 -62.79,7.1 -103.16,7.1 -25.42,0 -48.47,-2.24 -69.15,-6.72 -20.68,-4.49 -38.5,-11.84 -53.45,-22.06 -14.95,-10.21 -26.41,-23.54 -34.39,-39.99 -7.97,-16.45 -11.96,-36.63 -11.96,-60.55 0,-22.93 4.61,-42.36 13.83,-58.31 9.22,-15.95 21.56,-28.66 37.01,-38.12 15.45,-9.47 33.14,-16.33 53.07,-20.56 19.94,-4.24 40.62,-6.36 62.05,-6.36 14.45,0 27.28,0.63 38.5,1.87 11.21,1.25 20.3,2.87 27.28,4.86l0 -10.46c0,-18.94 -5.73,-34.14 -17.19,-45.6 -11.46,-11.47 -31.4,-17.2 -59.81,-17.2 -18.93,0 -37.62,1.37 -56.06,4.11 -18.44,2.75 -34.39,6.61 -47.84,11.59l-14.21 -89.7c6.48,-2 14.58,-4.11 24.3,-6.36 9.72,-2.24 20.31,-4.23 31.77,-5.98 11.46,-1.74 23.55,-3.24 36.25,-4.48 12.71,-1.25 25.55,-1.87 38.5,-1.87zm268.37 -87.46l111.38 -17.94 0 115.86 133.81 0 0 92.7 -133.81 0 0 138.29c0,23.43 4.12,42.12 12.34,56.07 8.22,13.95 24.79,20.93 49.71,20.93 11.96,0 24.29,-1.12 37,-3.36 12.71,-2.25 24.3,-5.36 34.76,-9.35l15.7 86.72c-13.45,5.48 -28.4,10.21 -44.85,14.2 -16.45,3.99 -36.63,5.98 -60.55,5.98 -30.4,0 -55.57,-4.11 -75.5,-12.33 -19.94,-8.23 -35.89,-19.69 -47.85,-34.39 -11.96,-14.7 -20.3,-32.52 -25.04,-53.45 -4.73,-20.93 -7.1,-44.1 -7.1,-69.52l0 -330.41zm335.65 491.13l0 -562.15 111.38 -17.94 0 188.38c7.48,-2.49 17.07,-4.86 28.78,-7.1 11.71,-2.25 23.05,-3.37 34.01,-3.37 31.9,0 58.44,4.36 79.62,13.09 21.18,8.72 38.12,21.05 50.83,37 12.71,15.95 21.68,34.88 26.91,56.81 5.23,21.93 7.85,46.35 7.85,73.26l0 222.02 -111.38 0 0 -208.56c0,-35.89 -4.61,-61.3 -13.83,-76.25 -9.22,-14.95 -26.29,-22.43 -51.21,-22.43 -9.97,0 -19.31,0.87 -28.03,2.62 -8.72,1.74 -16.57,3.61 -23.55,5.6l0 299.02 -111.38 0zm778.19 -393.21c-22.43,75.75 -45.98,146.77 -70.4,213.05 -24.54,66.28 -51.2,130.57 -80.23,192.87 -10.47,22.42 -20.93,41.49 -31.4,57.18 -10.59,15.7 -22.05,28.66 -34.51,38.88 -12.46,10.21 -26.54,17.69 -42.24,22.42 -15.82,4.74 -34.13,7.1 -55.07,7.1 -17.44,0 -33.51,-1.61 -48.34,-4.85 -14.7,-3.24 -26.78,-6.86 -36.25,-10.84l19.43 -88.96c11.47,3.99 21.68,6.73 30.65,8.22 8.97,1.5 18.44,2.24 28.41,2.24 19.93,0 35.26,-5.35 45.97,-16.07 10.72,-10.71 19.94,-25.54 27.41,-44.48 -25.54,-49.83 -50.95,-105.77 -76.37,-167.82 -25.42,-62.04 -49.34,-131.69 -71.76,-208.94l118.11 0c4.98,19.44 10.84,40.5 17.69,63.17 6.73,22.68 13.83,45.6 21.3,68.77 7.6,23.18 15.2,45.73 22.93,67.66 7.72,21.92 15.2,41.86 22.17,59.8 6.48,-17.94 13.21,-37.88 20.31,-59.8 6.98,-21.93 13.83,-44.48 20.56,-67.66 6.85,-23.17 13.33,-46.09 19.56,-68.77 6.23,-22.67 11.84,-43.73 16.95,-63.17l115.12 0z"/>
  <g id="_1805759178240">
   <path class="fil1" d="M3482.84 2300.86c0,-754.19 -611.66,-1365.59 -1366.18,-1365.59 -754.52,0 -1366.18,611.4 -1366.18,1365.59 0,754.19 611.66,1365.59 1366.18,1365.59 754.52,0 1366.18,-611.4 1366.18,-1365.59z"/>
   <path class="fil2" d="M2017.09 1363.43l-4.37 728.17 -79.87 -0.57c-5.79,-37.61 -1.81,-347.85 -1.81,-413.11 0,-88.95 15.69,-230.21 -24.26,-286.25 -18.43,-25.85 -26.56,-25.72 -54.74,-41.75 -37.28,2 -64.71,35.36 -78.44,65.29 -16.24,35.36 -14.92,90.48 -7.42,128.6 -11.59,170.01 -2.78,371.93 -2.77,547.51l-81.45 0.43c0,-121.94 0,-243.88 0,-365.82 0,-111.61 21.49,-246.66 -84.92,-272.56 -112.76,29.99 -83.1,198.87 -83.1,325.91l-10.06 810.81c-1.27,62.43 -10.21,140.53 11.34,195.73 10.05,25.76 25,45.8 39.93,61.44 28.36,29.71 43.24,30.51 57.19,43.78l-0.13 680.57c60.29,31.11 157.05,53.51 231.16,70.47 79.03,18.08 174.39,25.55 273.61,25.55l-1.34 -912.03c-104.7,-65.25 -288.55,-227.62 -329.37,-352.63 -51.23,-156.9 106.94,-281.01 241.7,-220.3 63.19,28.46 65.27,59.78 88.69,81.78 -1.73,-162.7 0.52,-330.95 0.52,-495.84 0,-81.8 0,-163.59 0,-245.38 0,-76.93 5.46,-176.62 -1.39,-250.79l-25.14 -5.42c-35.84,11.48 -77.67,49.21 -73.56,96.41z"/>
   <path class="fil3" d="M2116.66 2264.45c32.42,-38.07 35.32,-59.43 87.76,-82.47 44.47,-19.55 99.62,-19.93 145.32,-0.91 71.68,29.84 132.27,118.3 97.76,222.27 -25.5,76.83 -97.86,158.65 -141.16,200.28 -27.89,26.83 -152.28,137.93 -190.7,151.98l1.34 912.03c78.02,0 141.53,-2.84 210.21,-13.61l140.65 -30.11c14.67,-3.54 30.32,-5.5 43.41,-14.96l-0.04 -698.8c170.24,-2.49 187.69,-133.75 213.64,-240.2 28.98,-118.92 59.02,-240.6 88.07,-360.09 11.54,-47.45 42.28,-138.97 31.47,-185.93 -31.39,-136.34 -208.99,-140.87 -259.06,-30.92 -25.33,55.63 -31.43,166.42 -64.97,152.97 -22.02,-8.84 -10.44,-53.36 -9.44,-93.29 4.17,-167.72 0.29,-382.34 0.29,-554.78 0,-113.43 0.81,-102.5 -8.93,-208.98 -23.86,-20.29 -19.11,-34.64 -49.08,-52.95 -64.5,-39.39 -130.73,-24.2 -173.96,39.72 -8.99,13.3 -10.35,18.77 -14.69,34.69 -19.23,79.81 11.66,601.03 -6.47,680.83l-74.2 0c-9.41,-29.37 -3.96,-558.71 -3.82,-664.01 0.11,-78.91 -8.66,-123.51 -64.27,-154.77 6.85,74.17 1.39,173.86 1.39,250.79 0,81.79 0,163.58 0,245.38 0,164.89 -2.25,333.14 -0.52,495.84z"/>
   <path class="fil4" d="M2116.66 2264.45l-1.02 491.15c38.42,-14.05 162.81,-125.15 190.7,-151.98 43.3,-41.63 115.66,-123.45 141.16,-200.28 34.51,-103.97 -26.08,-192.43 -97.76,-222.27 -45.7,-19.02 -100.85,-18.64 -145.32,0.91 -52.44,23.04 -55.34,44.4 -87.76,82.47z"/>
   <path class="fil5" d="M2115.64 2755.6l1.02 -491.15c-23.42,-22 -25.5,-53.32 -88.69,-81.78 -134.76,-60.71 -292.93,63.4 -241.7,220.3 40.82,125.01 224.67,287.38 329.37,352.63z"/>
   <path class="fil6" d="M2090.65 1267.02l25.14 5.42c55.61,31.26 64.38,75.86 64.27,154.77 -0.14,105.3 -5.59,634.64 3.82,664.01l74.2 0c18.13,-79.8 -12.76,-601.02 6.47,-680.83 -18.93,-40.37 7.79,-79.78 -44.44,-123.97 -23.77,-20.11 -90.75,-49.62 -129.46,-19.4z"/>
   <path class="fil7" d="M2017.09 1363.43l-5.59 15.97c-0.77,4.85 -0.62,10.28 -0.63,15.23 -0.04,12.7 1.23,21.24 0.81,34.86 -14.81,-17.12 -20.56,-48.87 -59.36,-72.5 -22.33,-13.6 -80.99,-27.73 -100.28,-7.07 28.18,16.03 36.31,15.9 54.74,41.75 39.95,56.04 24.26,197.3 24.26,286.25 0,65.26 -3.98,375.5 1.81,413.11l79.87 0.57 4.37 -728.17z"/>
   <path class="fil7" d="M1597.04 1453.37c106.41,25.9 84.92,160.95 84.92,272.56 0,121.94 0,243.88 0,365.82l81.45 -0.43c-0.01,-175.58 -8.82,-377.5 2.77,-547.51 -26.14,-32.42 -17.97,-54.2 -59.82,-80 -31.78,-19.6 -75.72,-29.92 -109.32,-10.44z"/>
  </g>
  <polygon class="fil8" points="309.81,4233.32 3923.51,4233.32 3923.51,3963.03 309.81,3963.03 "/>
  <polygon class="fil9" points="309.82,4233.32 3420.39,4233.32 3420.39,3963.03 309.82,3963.03 "/>
 </g>
</svg>
