<?xml version="1.0" encoding="UTF-8"?>
<!DOCTYPE svg PUBLIC "-//W3C//DTD SVG 1.1//EN" "http://www.w3.org/Graphics/SVG/1.1/DTD/svg11.dtd">
<!-- Creator: CorelDRAW -->
<svg xmlns="http://www.w3.org/2000/svg" xml:space="preserve" width="42.3332mm" height="42.3332mm" version="1.1" style="shape-rendering:geometricPrecision; text-rendering:geometricPrecision; image-rendering:optimizeQuality; fill-rule:evenodd; clip-rule:evenodd"
viewBox="0 0 4233.32 4233.32"
 xmlns:xlink="http://www.w3.org/1999/xlink"
 xmlns:xodm="http://www.corel.com/coreldraw/odm/2003">
 <defs>
  <style type="text/css">
   <![CDATA[
    .fil1 {fill:#05C0A1}
    .fil5 {fill:#19A19F}
    .fil4 {fill:#1AA0A0}
    .fil8 {fill:#333333}
    .fil0 {fill:#4683C3}
    .fil3 {fill:#B1D5F1}
    .fil6 {fill:#C6C6E0}
    .fil2 {fill:#D5E6F6}
    .fil7 {fill:#DFDEF4}
    .fil10 {fill:#F6F6F6;fill-rule:nonzero}
    .fil9 {fill:url(#id0)}
   ]]>
  </style>
  <linearGradient id="id0" gradientUnits="userSpaceOnUse" x1="308.01" y1="4098" x2="3036" y2="4098">
   <stop offset="0" style="stop-opacity:1; stop-color:#00EED0"/>
   <stop offset="1" style="stop-opacity:1; stop-color:#009187"/>
  </linearGradient>
 </defs>
 <g id="Camada_x0020_1">
  <metadata id="CorelCorpID_0Corel-Layer"/>
  <g id="_1804597747760">
   <circle class="fil0" cx="2116.66" cy="2301.45" r="1366.18"/>
   <g>
    <path class="fil1" d="M1346.02 1822.49l175.81 -0.03 133.36 -0.23 351.2 0.45 101.32 0.39 119.58 1.37 -2.58 -0.13 352.77 -0.94 136.15 0.32 171.47 -0.63 -0.2 -165.57c-39.95,-22.01 -457.14,-7.54 -541.11,-7.39l-114.97 -1.33 -6.56 -0.06 -108.05 1.62 -106.93 0.53 -661.02 0.17 -0.24 171.46z"/>
    <path class="fil1" d="M1610.82 3083.91l408.84 1.43 605.52 0.33 0.31 -214.1 -517.78 -2.53 -101.89 0.69 -399.1 1.22c-5.57,46.09 -13.84,179.49 4.1,212.96z"/>
    <path class="fil1" d="M1441 2651.28c109.07,36.59 183.56,60.13 289.86,-1.86 52.66,-30.71 146.54,-119.77 135.02,-211.56l3.28 -43.53 -280.65 -2.14 -4.8 -169.28 -135.83 -0.23 -117.65 0.14 -68.21 0.47 -0.71 161.76c1.9,1.32 5.16,0.35 6.11,3.03 5.31,14.83 1.39,-5.44 34.02,14.07 12.59,186.72 124.35,224.81 139.56,249.13z"/>
    <path class="fil1" d="M2367.59 2479.12c58.89,117.13 137.17,230.49 320.92,205.25 78.72,-10.8 129.44,-50.55 171.34,-93.99 46.53,-48.25 63.86,-106.85 72.71,-194.14l-288.17 -1.71 -2.94 -171.55 -136.91 -0.93 -117.8 0.05 -68.33 1.18 -0.19 170.99 38.8 0.11 10.57 84.74z"/>
    <path class="fil2" d="M2005.82 2869.73l101.89 -0.69c13.73,-43.28 13.9,-999.67 0,-1045.97l-101.32 -0.39 -0.57 1047.05z"/>
    <path class="fil3" d="M2107.71 2869.04l517.78 2.53c-8.25,-4.06 0.07,-3.13 -22.42,-6.95 -56.17,-9.55 -314.6,9.49 -381.1,-6.73 0,-148.61 -18.24,-958.16 5.32,-1033.45l-119.58 -1.37c13.9,46.3 13.73,1002.69 0,1045.97z"/>
    <path class="fil4" d="M1865.88 2437.86l7.92 -20c20.16,-36.9 16.09,-11.87 42.71,-32.81l-0.08 -158.96 -68.56 -4.09 -122.35 0.18 -141.81 0.73 4.8 169.28 280.65 2.14 -3.28 43.53z"/>
    <polygon class="fil5" points="2932.56,2396.24 2969.48,2394.87 2972.01,2294.45 2970.72,2222.65 2903.49,2222.4 2783.13,2222.72 2641.45,2222.98 2644.39,2394.53 "/>
    <path class="fil6" d="M2636.97 1941.15c30.46,21.49 57.12,97.86 76.49,137.67 18.57,38.21 57.74,106.55 69.67,143.9l120.36 -0.32 -189.86 -398.71 -136.15 -0.32 -0.65 14.59 67.61 -2.49c0,38.06 0.37,81.82 -7.47,105.68z"/>
    <path class="fil6" d="M1583.15 1943.91c21.08,17.25 26.5,39.59 41.28,70.26 30.28,62.82 81.69,143.86 101.09,208.01l122.35 -0.18 -192.68 -399.77 -133.36 0.23 0 4.8 66.98 -0.36 -5.66 117.01z"/>
    <polygon class="fil7" points="1466.67,1935.7 1330.23,2222.82 1447.88,2222.68 1583.15,1943.91 1588.81,1826.9 1521.83,1827.26 "/>
    <path class="fil7" d="M2386.74 2222.1l117.8 -0.05 132.43 -280.9c7.84,-23.86 7.47,-67.62 7.47,-105.68l-67.61 2.49 -190.09 384.14z"/>
    <polygon class="fil3" points="2114.21,1650.33 2222.26,1648.71 2222.28,1517.23 2114.21,1517.97 "/>
    <polygon class="fil2" points="2007.28,1650.86 2114.21,1650.33 2114.21,1517.97 2007.23,1520.23 "/>
   </g>
  </g>
  <rect class="fil8" x="309.81" y="3963.03" width="3613.7" height="270.29"/>
  <rect class="fil9" x="309.81" y="3963.03" width="2727.92" height="270.29"/>
  <path class="fil10" d="M1306.04 551.9l0 -484.68 327.32 0 0 91.62 -218.21 0 0 95.12 193.73 0 0 89.52 -193.73 0 0 116.8 234.3 0 0 91.62 -343.41 0zm413.35 -459.51l104.21 -16.78 0 108.41 125.19 0 0 86.72 -125.19 0 0 129.39c0,21.91 3.85,39.4 11.54,52.46 7.7,13.05 23.2,19.58 46.51,19.58 11.19,0 22.73,-1.05 34.62,-3.15 11.89,-2.1 22.73,-5.01 32.52,-8.74l14.69 81.13c-12.59,5.13 -26.58,9.56 -41.96,13.29 -15.39,3.73 -34.27,5.59 -56.65,5.59 -28.45,0 -51.99,-3.84 -70.64,-11.54 -18.65,-7.69 -33.57,-18.41 -44.76,-32.17 -11.2,-13.75 -19.01,-30.42 -23.43,-50.01 -4.43,-19.58 -6.65,-41.26 -6.65,-65.04l0 -309.14zm314.03 459.51l0 -525.95 104.21 -16.78 0 176.24c6.99,-2.33 15.97,-4.54 26.93,-6.64 10.95,-2.1 21.56,-3.15 31.82,-3.15 29.84,0 54.67,4.08 74.48,12.24 19.82,8.16 35.67,19.7 47.56,34.62 11.89,14.92 20.29,32.64 25.18,53.16 4.9,20.51 7.35,43.36 7.35,68.54l0 207.72 -104.21 0 0 -195.13c0,-33.57 -4.32,-57.35 -12.94,-71.34 -8.63,-13.99 -24.6,-20.98 -47.91,-20.98 -9.33,0 -18.07,0.81 -26.23,2.44 -8.16,1.64 -15.5,3.38 -22.03,5.25l0 279.76 -104.21 0zm516.16 0l-104.21 0 0 -367.88 104.21 0 0 367.88zm9.79 -474.19c0,19.11 -6.18,34.15 -18.53,45.11 -12.36,10.96 -26.93,16.43 -43.72,16.43 -16.78,0 -31.35,-5.47 -43.71,-16.43 -12.35,-10.96 -18.53,-26 -18.53,-45.11 0,-19.12 6.18,-34.16 18.53,-45.11 12.36,-10.96 26.93,-16.44 43.71,-16.44 16.79,0 31.36,5.48 43.72,16.44 12.35,10.95 18.53,25.99 18.53,45.11zm70.64 290.25c0,-26.58 4.32,-51.64 12.94,-75.19 8.63,-23.54 21.1,-44.06 37.42,-61.54 16.32,-17.49 36.14,-31.36 59.45,-41.62 23.31,-10.26 49.89,-15.39 79.73,-15.39 19.58,0 37.53,1.75 53.85,5.25 16.32,3.5 32.18,8.51 47.56,15.04l-21.68 83.23c-9.79,-3.73 -20.51,-7 -32.17,-9.8 -11.66,-2.79 -24.71,-4.19 -39.17,-4.19 -30.77,0 -53.73,9.56 -68.89,28.67 -15.15,19.12 -22.73,44.3 -22.73,75.54 0,33.1 7.11,58.75 21.33,76.93 14.22,18.19 39.05,27.28 74.49,27.28 12.59,0 26.11,-1.17 40.56,-3.5 14.46,-2.33 27.75,-6.06 39.87,-11.19l14.69 85.33c-12.12,5.13 -27.28,9.56 -45.46,13.29 -18.19,3.73 -38.24,5.59 -60.15,5.59 -33.57,0 -62.48,-5.01 -86.73,-15.04 -24.24,-10.02 -44.18,-23.66 -59.8,-40.91 -15.62,-17.25 -27.04,-37.65 -34.27,-61.2 -7.22,-23.54 -10.84,-49.07 -10.84,-76.58z"/>
 </g>
</svg>
