<?xml version="1.0" encoding="UTF-8"?>
<!DOCTYPE svg PUBLIC "-//W3C//DTD SVG 1.1//EN" "http://www.w3.org/Graphics/SVG/1.1/DTD/svg11.dtd">
<!-- Creator: CorelDRAW -->
<svg xmlns="http://www.w3.org/2000/svg" xml:space="preserve" width="42.3332mm" height="42.3332mm" version="1.1" style="shape-rendering:geometricPrecision; text-rendering:geometricPrecision; image-rendering:optimizeQuality; fill-rule:evenodd; clip-rule:evenodd"
viewBox="0 0 4233.32 4233.32"
 xmlns:xlink="http://www.w3.org/1999/xlink"
 xmlns:xodm="http://www.corel.com/coreldraw/odm/2003">
 <defs>
  <style type="text/css">
   <![CDATA[
    .fil0 {fill:#00EED0}
    .fil7 {fill:#333333}
    .fil6 {fill:#681E7B}
    .fil5 {fill:#9331B2}
    .fil1 {fill:#FDDBA9}
    .fil3 {fill:#FE52A1}
    .fil2 {fill:#FF127F}
    .fil4 {fill:#FFC473}
    .fil9 {fill:#F6F6F6;fill-rule:nonzero}
    .fil8 {fill:url(#id0)}
   ]]>
  </style>
  <linearGradient id="id0" gradientUnits="userSpaceOnUse" x1="308.01" y1="4098" x2="3309" y2="4098">
   <stop offset="0" style="stop-opacity:1; stop-color:#00EED0"/>
   <stop offset="1" style="stop-opacity:1; stop-color:#009187"/>
  </linearGradient>
 </defs>
 <g id="Camada_x0020_1">
  <metadata id="CorelCorpID_0Corel-Layer"/>
  <g id="_1804915309504">
   <path class="fil0" d="M3482.84 2301.45c0,-754.52 -611.66,-1366.18 -1366.18,-1366.18 -754.52,0 -1366.18,611.66 -1366.18,1366.18 0,754.52 611.66,1366.18 1366.18,1366.18 754.52,0 1366.18,-611.66 1366.18,-1366.18z"/>
   <path class="fil1" d="M1567.9 2504.51c-78.96,1.7 -153.95,-7.84 -195.12,41.92 -60.17,72.71 -11.31,131.9 17.43,169.4 -78.6,98.66 -9.67,145.24 12,179.1l809.79 1.56 -0.32 -391.64c-75.18,0 -73.99,7.45 -134.09,-21.29 -34.44,-16.46 -74.38,-36.14 -110.92,-50.99 -69.14,-28.11 -157.99,-70.88 -235.92,-83.21l-1.46 156.15 -161.39 -1z"/>
   <path class="fil2" d="M1731.8 2063.14l984.64 0c-6.74,-25.34 -147.89,-235.75 -179.36,-287.1 -16.52,-26.95 -43.51,-74.08 -62.46,-97.41 -54.6,-12.99 -297.56,-3.49 -371.44,-3.49 -124.13,0 -248.27,0 -372.41,0l1.03 388z"/>
   <path class="fil3" d="M1730.77 1675.14c124.14,0 248.28,0 372.41,0 73.88,0 316.84,-9.5 371.44,3.49 7.2,-24.89 42.7,-73.76 59.35,-99.58 20.72,-32.12 39.7,-63.95 60.38,-96.09 41.78,-64.94 86.31,-129.35 122.23,-193.26l-985.97 -1.38 0.16 386.82z"/>
   <path class="fil4" d="M1478.06 3255.62c46.55,13.12 295.91,5.05 366.44,5.05 122.31,0 244.62,0 366.92,0l0.58 -364.18 -809.79 -1.56c-59.32,62.41 -34.21,155.51 33.97,182.34 -5.8,24.82 -49.13,83.65 6.48,148.86 11.77,13.8 29.54,21.01 35.4,29.49z"/>
   <polygon class="fil5" points="2211.68,2504.85 2212,2896.49 2761.79,2894.79 2761.41,2485.85 2213.19,2485.91 "/>
   <polygon class="fil6" points="2211.42,3260.67 2212.3,3296.34 2760.06,3297.08 2761.79,2894.79 2212,2896.49 "/>
   <path class="fil5" d="M1567.9 2504.51l161.39 1 1.46 -156.15c-12.45,31.27 -3.58,112.92 -3.47,153.55l-78.15 0 0 -1214.59 -80.94 -0.03 -0.29 1216.22z"/>
   <path class="fil6" d="M1730.75 2349.36l1.05 -286.22 -1.03 -388 -0.16 -386.82 -81.48 0 0 1214.59 78.15 0c-0.11,-40.63 -8.98,-122.28 3.47,-153.55z"/>
  </g>
  <polygon class="fil7" points="309.81,4233.32 3923.51,4233.32 3923.51,3963.03 309.81,3963.03 "/>
  <polygon class="fil8" points="309.81,4233.32 3311.05,4233.32 3311.05,3963.03 309.81,3963.03 "/>
  <path class="fil9" d="M779.74 475.46l0 84.78 -292.94 0 0 -438.47 98.7 0 0 353.69 194.24 0zm41.13 -79.09c0,-29.53 4.54,-55.36 13.61,-77.51 9.06,-22.14 20.98,-40.6 35.74,-55.36 14.77,-14.76 31.74,-25.94 50.94,-33.53 19.19,-7.6 38.91,-11.39 59.15,-11.39 47.25,0 84.58,14.44 111.99,43.34 27.42,28.89 41.13,71.39 41.13,127.49 0,5.48 -0.21,11.49 -0.63,18.03 -0.42,6.54 -0.85,12.34 -1.27,17.4l-213.85 0c2.11,19.4 11.17,34.8 27.2,46.19 16.03,11.39 37.54,17.08 64.54,17.08 17.29,0 34.27,-1.58 50.93,-4.74 16.66,-3.17 30.27,-7.07 40.81,-11.71l12.66 76.56c-5.07,2.53 -11.81,5.06 -20.25,7.59 -8.44,2.53 -17.82,4.75 -28.16,6.64 -10.33,1.9 -21.4,3.48 -33.21,4.75 -11.81,1.27 -23.62,1.9 -35.43,1.9 -29.95,0 -56,-4.43 -78.14,-13.29 -22.15,-8.86 -40.5,-20.98 -55.05,-36.38 -14.55,-15.4 -25.31,-33.64 -32.27,-54.73 -6.96,-21.09 -10.44,-43.87 -10.44,-68.33zm221.45 -36.07c-0.42,-8.01 -1.79,-15.81 -4.11,-23.41 -2.32,-7.59 -5.91,-14.34 -10.76,-20.24 -4.85,-5.91 -10.97,-10.76 -18.35,-14.56 -7.38,-3.79 -16.55,-5.69 -27.52,-5.69 -10.54,0 -19.61,1.79 -27.21,5.38 -7.59,3.58 -13.92,8.33 -18.98,14.23 -5.06,5.91 -8.96,12.76 -11.7,20.57 -2.74,7.8 -4.75,15.71 -6.01,23.72l124.64 0zm291.04 134.14c9.28,0 18.14,-0.21 26.58,-0.63 8.43,-0.43 15.18,-1.06 20.24,-1.9l0 -71.5c-3.79,-0.84 -9.49,-1.69 -17.08,-2.53 -7.59,-0.84 -14.55,-1.27 -20.88,-1.27 -8.86,0 -17.19,0.53 -24.99,1.59 -7.8,1.05 -14.66,3.05 -20.56,6.01 -5.91,2.95 -10.55,6.96 -13.92,12.02 -3.38,5.06 -5.06,11.39 -5.06,18.98 0,14.76 4.95,24.99 14.86,30.69 9.92,5.69 23.52,8.54 40.81,8.54zm-7.59 -275.86c27.84,0 51.04,3.16 69.6,9.49 18.56,6.32 33.43,15.39 44.61,27.2 11.17,11.81 19.08,26.16 23.72,43.03 4.64,16.87 6.96,35.64 6.96,56.31l0 196.14c-13.5,2.95 -32.27,6.43 -56.31,10.44 -24.04,4.01 -53.15,6.01 -87.31,6.01 -21.51,0 -41.02,-1.9 -58.53,-5.69 -17.5,-3.8 -32.58,-10.02 -45.24,-18.67 -12.65,-8.65 -22.35,-19.93 -29.1,-33.85 -6.75,-13.92 -10.13,-31 -10.13,-51.25 0,-19.4 3.91,-35.85 11.71,-49.35 7.8,-13.5 18.24,-24.25 31.32,-32.27 13.08,-8.01 28.05,-13.81 44.92,-17.4 16.87,-3.58 34.38,-5.38 52.52,-5.38 12.23,0 23.09,0.53 32.58,1.59 9.49,1.05 17.19,2.42 23.09,4.11l0 -8.86c0,-16.03 -4.85,-28.89 -14.55,-38.6 -9.7,-9.7 -26.57,-14.55 -50.61,-14.55 -16.03,0 -31.85,1.16 -47.46,3.48 -15.6,2.32 -29.1,5.59 -40.49,9.81l-12.02 -75.93c5.48,-1.68 12.34,-3.48 20.56,-5.37 8.23,-1.9 17.19,-3.59 26.89,-5.07 9.7,-1.47 19.93,-2.74 30.69,-3.79 10.75,-1.06 21.61,-1.58 32.58,-1.58zm310.66 172.73c0,29.1 6.54,52.51 19.62,70.23 13.07,17.71 32.48,26.57 58.21,26.57 8.43,0 16.24,-0.32 23.41,-0.95 7.17,-0.63 13.07,-1.37 17.71,-2.21l0 -171.47c-5.9,-3.79 -13.6,-6.96 -23.09,-9.49 -9.49,-2.53 -19.09,-3.79 -28.79,-3.79 -44.71,0 -67.07,30.37 -67.07,91.11zm213.23 158.17c-8.44,2.53 -18.14,4.96 -29.11,7.28 -10.96,2.32 -22.46,4.32 -34.48,6.01 -12.02,1.69 -24.25,3.06 -36.7,4.11 -12.44,1.06 -24.36,1.59 -35.75,1.59 -27.41,0 -51.88,-4.01 -73.39,-12.03 -21.51,-8.01 -39.65,-19.5 -54.41,-34.48 -14.77,-14.97 -26.05,-33.11 -33.85,-54.41 -7.81,-21.3 -11.71,-45.24 -11.71,-71.81 0,-27 3.38,-51.36 10.13,-73.08 6.74,-21.73 16.45,-40.18 29.1,-55.36 12.65,-15.19 28.16,-26.79 46.5,-34.8 18.35,-8.02 39.34,-12.03 62.96,-12.03 13.07,0 24.78,1.27 35.11,3.8 10.34,2.53 20.78,6.12 31.32,10.76l0 -150.59 94.28 -15.18 0 480.22zm72.76 -153.11c0,-29.53 4.54,-55.36 13.61,-77.51 9.06,-22.14 20.98,-40.6 35.74,-55.36 14.77,-14.76 31.74,-25.94 50.94,-33.53 19.19,-7.6 38.91,-11.39 59.15,-11.39 47.25,0 84.58,14.44 111.99,43.34 27.42,28.89 41.13,71.39 41.13,127.49 0,5.48 -0.21,11.49 -0.63,18.03 -0.42,6.54 -0.85,12.34 -1.27,17.4l-213.85 0c2.11,19.4 11.17,34.8 27.2,46.19 16.03,11.39 37.54,17.08 64.54,17.08 17.29,0 34.27,-1.58 50.93,-4.74 16.66,-3.17 30.27,-7.07 40.81,-11.71l12.66 76.56c-5.07,2.53 -11.81,5.06 -20.25,7.59 -8.44,2.53 -17.82,4.75 -28.16,6.64 -10.33,1.9 -21.4,3.48 -33.21,4.75 -11.81,1.27 -23.62,1.9 -35.43,1.9 -29.95,0 -56,-4.43 -78.14,-13.29 -22.15,-8.86 -40.5,-20.98 -55.05,-36.38 -14.55,-15.4 -25.31,-33.64 -32.27,-54.73 -6.96,-21.09 -10.44,-43.87 -10.44,-68.33zm221.45 -36.07c-0.42,-8.01 -1.79,-15.81 -4.11,-23.41 -2.32,-7.59 -5.91,-14.34 -10.76,-20.24 -4.85,-5.91 -10.97,-10.76 -18.35,-14.56 -7.38,-3.79 -16.55,-5.69 -27.52,-5.69 -10.54,0 -19.61,1.79 -27.21,5.38 -7.59,3.58 -13.92,8.33 -18.98,14.23 -5.06,5.91 -8.96,12.76 -11.7,20.57 -2.74,7.8 -4.75,15.71 -6.01,23.72l124.64 0zm364.44 -49.35c-8.44,-2.11 -18.35,-4.32 -29.74,-6.64 -11.39,-2.32 -23.62,-3.48 -36.7,-3.48 -5.9,0 -12.97,0.53 -21.19,1.58 -8.23,1.06 -14.45,2.22 -18.67,3.48l0 254.35 -94.27 0 0 -315.09c16.87,-5.9 36.8,-11.49 59.79,-16.77 22.99,-5.27 48.61,-7.91 76.88,-7.91 5.06,0 11.17,0.32 18.34,0.95 7.17,0.64 14.35,1.48 21.52,2.53 7.17,1.06 14.34,2.32 21.51,3.8 7.17,1.48 13.28,3.27 18.35,5.38l-15.82 77.82zm161.97 181.59c17.29,0 29.53,-1.69 36.7,-5.06 7.17,-3.38 10.75,-9.91 10.75,-19.62 0,-7.59 -4.64,-14.23 -13.92,-19.93 -9.28,-5.69 -23.41,-12.12 -42.39,-19.29 -14.76,-5.49 -28.15,-11.18 -40.18,-17.09 -12.02,-5.9 -22.25,-12.97 -30.68,-21.19 -8.44,-8.23 -14.98,-18.03 -19.62,-29.42 -4.64,-11.39 -6.96,-25.1 -6.96,-41.13 0,-31.21 11.6,-55.89 34.8,-74.03 23.2,-18.13 55.05,-27.2 95.54,-27.2 20.25,0 39.65,1.79 58.21,5.37 18.56,3.59 33.32,7.49 44.29,11.71l-16.45 73.39c-10.97,-3.79 -22.88,-7.17 -35.75,-10.12 -12.86,-2.95 -27.31,-4.43 -43.34,-4.43 -29.52,0 -44.29,8.23 -44.29,24.68 0,3.79 0.63,7.17 1.9,10.12 1.27,2.95 3.8,5.8 7.59,8.54 3.8,2.74 8.97,5.7 15.5,8.86 6.54,3.27 14.87,6.75 25,10.55 20.66,7.69 37.75,15.18 51.25,22.67 13.49,7.38 24.14,15.5 31.95,24.04 7.8,8.65 13.28,18.24 16.45,28.79 3.16,10.54 4.74,22.67 4.74,36.59 0,32.8 -12.33,57.68 -37.01,74.55 -24.68,16.77 -59.58,25.21 -104.71,25.21 -29.53,0 -54.1,-2.53 -73.71,-7.59 -19.62,-5.07 -33.22,-9.28 -40.81,-12.66l15.81 -76.56c16.03,6.33 32.48,11.29 49.35,14.87 16.88,3.59 33.54,5.38 49.99,5.38zm211.32 67.7l0 -475.8 94.27 -15.18 0 159.44c6.33,-2.11 14.45,-4.11 24.36,-6.01 9.92,-1.9 19.51,-2.85 28.79,-2.85 27,0 49.46,3.69 67.38,11.07 17.93,7.39 32.27,17.83 43.03,31.32 10.76,13.5 18.35,29.53 22.78,48.09 4.43,18.56 6.64,39.23 6.64,62.01l0 187.91 -94.27 0 0 -176.53c0,-30.37 -3.91,-51.88 -11.71,-64.53 -7.8,-12.66 -22.25,-18.98 -43.34,-18.98 -8.44,0 -16.34,0.73 -23.73,2.21 -7.38,1.48 -14.02,3.06 -19.93,4.75l0 253.08 -94.27 0zm466.94 0l-94.27 0 0 -332.81 94.27 0 0 332.81zm8.86 -428.98c0,17.3 -5.59,30.9 -16.77,40.81 -11.17,9.91 -24.35,14.87 -39.54,14.87 -15.18,0 -28.37,-4.96 -39.54,-14.87 -11.18,-9.91 -16.77,-23.51 -16.77,-40.81 0,-17.29 5.59,-30.89 16.77,-40.81 11.17,-9.91 24.36,-14.87 39.54,-14.87 15.19,0 28.37,4.96 39.54,14.87 11.18,9.92 16.77,23.52 16.77,40.81zm292.94 265.11c0,-29.11 -6.54,-52.41 -19.61,-69.92 -13.08,-17.5 -32.48,-26.25 -58.21,-26.25 -8.44,0 -16.24,0.31 -23.41,0.95 -7.17,0.63 -13.08,1.37 -17.72,2.21l0 170.2c5.91,3.79 13.61,6.96 23.1,9.49 9.49,2.53 19.08,3.8 28.79,3.8 44.71,0 67.06,-30.16 67.06,-90.48zm96.17 -2.53c0,25.73 -3.16,49.14 -9.49,70.23 -6.32,21.09 -15.6,39.23 -27.84,54.41 -12.23,15.19 -27.41,27 -45.55,35.43 -18.14,8.44 -39.02,12.66 -62.64,12.66 -13.07,0 -25.31,-1.27 -36.7,-3.8 -11.38,-2.53 -22.35,-6.12 -32.9,-10.76l0 125.28 -94.27 0 0 -438.47c8.44,-2.53 18.14,-4.95 29.1,-7.27 10.97,-2.32 22.47,-4.33 34.49,-6.01 12.02,-1.69 24.25,-3.06 36.69,-4.12 12.45,-1.05 24.36,-1.58 35.75,-1.58 27.42,0 51.88,4.11 73.4,12.34 21.51,8.23 39.65,19.82 54.41,34.8 14.76,14.97 26.05,33.22 33.85,54.73 7.8,21.51 11.7,45.55 11.7,72.13z"/>
 </g>
</svg>
