<?xml version="1.0" encoding="UTF-8"?>
<!DOCTYPE svg PUBLIC "-//W3C//DTD SVG 1.1//EN" "http://www.w3.org/Graphics/SVG/1.1/DTD/svg11.dtd">
<!-- Creator: CorelDRAW -->
<svg xmlns="http://www.w3.org/2000/svg" xml:space="preserve" width="42.3332mm" height="42.3332mm" version="1.1" style="shape-rendering:geometricPrecision; text-rendering:geometricPrecision; image-rendering:optimizeQuality; fill-rule:evenodd; clip-rule:evenodd"
viewBox="0 0 4233.32 4233.32"
 xmlns:xlink="http://www.w3.org/1999/xlink"
 xmlns:xodm="http://www.corel.com/coreldraw/odm/2003">
 <defs>
  <style type="text/css">
   <![CDATA[
    .fil7 {fill:#333333}
    .fil3 {fill:#5AC3FF}
    .fil0 {fill:#8847C9}
    .fil4 {fill:#ABE9FF}
    .fil5 {fill:#E0E0E0}
    .fil1 {fill:#F9BA3A}
    .fil2 {fill:#FEE471}
    .fil6 {fill:#FEFDFE}
    .fil9 {fill:#F6F6F6;fill-rule:nonzero}
    .fil8 {fill:url(#id0)}
   ]]>
  </style>
  <linearGradient id="id0" gradientUnits="userSpaceOnUse" x1="308.01" y1="4098" x2="2925" y2="4098">
   <stop offset="0" style="stop-opacity:1; stop-color:#8847C9"/>
   <stop offset="1" style="stop-opacity:1; stop-color:#46008C"/>
  </linearGradient>
 </defs>
 <g id="Camada_x0020_1">
  <metadata id="CorelCorpID_0Corel-Layer"/>
  <g id="_1804746388784">
   <circle class="fil0" cx="2116.66" cy="2301.45" r="1366.18"/>
   <path class="fil1" d="M2833.99 1689.14c-108.63,59.87 -403.89,130.36 -556.08,138.03l-159.81 7.96 0 186.95 -74.22 -1.68c203.25,23.59 531.73,-37.75 728.65,-105.29 73.35,-25.16 152.3,-62.28 202.19,-79.26l60.64 -30.62c-10.16,-30.43 -64.96,-147.12 -84.75,-166.91 -39.79,13.3 -73.84,36.85 -116.62,50.82z"/>
   <path class="fil1" d="M2038.16 2769.05c267.49,-12.17 575.21,43.58 816.15,151.62 28.88,12.95 66.94,33.89 96.3,43.79 0.86,-1.08 2.16,-4.11 2.53,-3.26l82.29 -163.85c-279.07,-135.27 -662.89,-243.8 -986.92,-215.48l69.59 -1.12 -0.01 184.72 -79.93 3.58z"/>
   <path class="fil2" d="M1220.25 1815.78l181.69 75.77c189.98,72.13 436.72,126.59 641.94,128.85l74.22 1.68 0 -186.95c-156.55,3.79 -314.23,-21.65 -458,-57.95 -193.91,-48.96 -338.07,-127.7 -375.62,-137.69l-83.4 162.32 19.17 13.97z"/>
   <path class="fil2" d="M1483.68 2680.6c-89.35,42.25 -202.34,66.39 -281.75,118.48 10.09,23 73.14,155.06 86.56,163.26 54.03,-20.94 105.88,-49.11 164.97,-71.49 57.74,-21.87 115.85,-41.07 177.04,-57.69 129.84,-35.28 266.34,-58.14 407.66,-64.11l79.93 -3.58 0.01 -184.72 -69.59 1.12c-98.63,1.96 -206.51,14.97 -300.06,32.43 -46.99,8.77 -90.08,18.6 -135.71,30.33 -39.68,10.21 -91.38,29.14 -129.06,35.97z"/>
   <polygon class="fil3" points="2118.12,2392.24 3034.85,2392.58 3034.88,2210.06 2118.12,2210.43 "/>
   <polygon class="fil4" points="2118.12,2392.24 2118.12,2210.43 1200.88,2210.59 1200.88,2391.44 1205.53,2391.52 "/>
   <path class="fil5" d="M2112.81 1654.88c4.09,8.33 -7.49,7.14 10.22,6.12 21.59,-42.71 219,-284.34 224.45,-313.28l-96.97 0 0.32 -236.49c-20.28,-13.01 -102.39,-5.55 -133.68,-5.18 0.6,7.49 8.98,530.68 -4.34,548.83z"/>
   <path class="fil5" d="M2116.73 3496.62l134.04 0.01 0.15 -241.67 96.32 0c-5.28,-30.04 -208.48,-276.57 -223.66,-314.44 -21.33,1.67 -2.28,-1.29 -10.55,8.17l5.05 14.78c6.84,45.76 -0.68,527 -1.35,533.15z"/>
   <path class="fil6" d="M1888.97 1355.06c48.11,53.28 180.93,253.93 223.84,299.82 13.32,-18.15 4.94,-541.34 4.34,-548.83l-126.79 -0.11 -3.12 242.7c-29.77,10.44 -66.46,1.57 -98.27,6.42z"/>
   <path class="fil6" d="M1889.11 3247.07c31.81,5.2 68.63,-4.07 99.95,6.81l1.55 242.76 126.12 -0.02c0.67,-6.15 8.19,-487.39 1.35,-533.15l-5.05 -14.78c-26.64,24.06 -191.23,265.44 -223.92,298.38z"/>
  </g>
  <rect class="fil7" x="309.81" y="3963.03" width="3613.7" height="270.29"/>
  <rect class="fil8" x="309.81" y="3963.03" width="2616.38" height="270.29"/>
  <path class="fil9" d="M507.21 67.54c77.75,0 137.3,13.83 178.67,41.49 41.36,27.66 62.04,70.65 62.04,128.95 0,36.38 -8.35,65.91 -25.04,88.59 -16.7,22.67 -40.74,40.49 -72.14,53.45 10.47,12.95 21.43,27.78 32.89,44.47 11.47,16.7 22.8,34.14 34.02,52.33 11.21,18.19 22.05,37.13 32.51,56.82 10.47,19.68 20.19,38.99 29.16,57.93l-130.32 0c-9.6,-16.94 -19.19,-34.14 -28.91,-51.58 -9.84,-17.44 -19.81,-34.39 -30.02,-50.83 -10.22,-16.45 -20.44,-32.02 -30.4,-46.72 -9.97,-14.71 -20.06,-28.04 -30.03,-40l-57.56 0 0 189.13 -116.62 0 0 -510.57c25.42,-4.98 51.71,-8.47 78.87,-10.47 27.16,-1.99 51.45,-2.99 72.88,-2.99zm6.73 99.43c-8.47,0 -16.07,0.25 -22.8,0.74 -6.73,0.5 -13.08,1 -19.06,1.5l0 140.54 32.89 0c43.86,0 75.25,-5.48 94.19,-16.45 18.94,-10.96 28.41,-29.65 28.41,-56.06 0,-25.42 -9.6,-43.49 -28.78,-54.2 -19.19,-10.72 -47.47,-16.07 -84.85,-16.07zm295.28 230.99c0,-34.89 5.36,-65.41 16.07,-91.58 10.72,-26.16 24.79,-47.96 42.24,-65.41 17.44,-17.44 37.5,-30.65 60.17,-39.62 22.68,-8.97 45.98,-13.45 69.9,-13.45 55.82,0 99.92,17.07 132.31,51.2 32.4,34.14 48.59,84.35 48.59,150.63 0,6.48 -0.25,13.58 -0.74,21.31 -0.5,7.72 -1,14.58 -1.5,20.56l-252.67 0c2.49,22.92 13.21,41.11 32.15,54.57 18.93,13.45 44.35,20.18 76.25,20.18 20.43,0 40.49,-1.87 60.17,-5.61 19.69,-3.73 35.76,-8.34 48.22,-13.83l14.95 90.46c-5.98,2.99 -13.95,5.98 -23.92,8.97 -9.97,2.99 -21.06,5.6 -33.27,7.85 -12.21,2.24 -25.29,4.11 -39.24,5.6 -13.96,1.5 -27.91,2.25 -41.86,2.25 -35.39,0 -66.16,-5.24 -92.33,-15.7 -26.16,-10.47 -47.84,-24.8 -65.03,-42.99 -17.2,-18.19 -29.9,-39.74 -38.13,-64.66 -8.22,-24.92 -12.33,-51.83 -12.33,-80.73zm261.64 -42.61c-0.5,-9.47 -2.12,-18.69 -4.86,-27.66 -2.74,-8.97 -6.98,-16.95 -12.71,-23.92 -5.73,-6.98 -12.96,-12.71 -21.68,-17.2 -8.72,-4.48 -19.56,-6.72 -32.52,-6.72 -12.45,0 -23.17,2.11 -32.14,6.35 -8.97,4.24 -16.45,9.84 -22.43,16.82 -5.98,6.98 -10.59,15.07 -13.83,24.29 -3.23,9.22 -5.6,18.57 -7.1,28.04l147.27 0zm306.49 156.23c20.43,0 34.88,-1.99 43.35,-5.98 8.48,-3.98 12.71,-11.71 12.71,-23.17 0,-8.97 -5.48,-16.82 -16.44,-23.55 -10.97,-6.73 -27.66,-14.33 -50.09,-22.8 -17.44,-6.48 -33.26,-13.2 -47.47,-20.18 -14.2,-6.98 -26.29,-15.33 -36.25,-25.04 -9.97,-9.72 -17.7,-21.31 -23.18,-34.77 -5.48,-13.45 -8.22,-29.65 -8.22,-48.59 0,-36.87 13.7,-66.03 41.11,-87.46 27.41,-21.43 65.04,-32.14 112.88,-32.14 23.92,0 46.85,2.12 68.78,6.35 21.92,4.24 39.37,8.85 52.32,13.83l-19.43 86.72c-12.96,-4.49 -27.04,-8.48 -42.24,-11.96 -15.2,-3.49 -32.27,-5.24 -51.2,-5.24 -34.89,0 -52.33,9.72 -52.33,29.16 0,4.48 0.75,8.47 2.24,11.96 1.5,3.49 4.49,6.85 8.97,10.09 4.49,3.24 10.59,6.73 18.32,10.47 7.72,3.86 17.56,7.97 29.52,12.45 24.42,9.1 44.61,17.95 60.55,26.79 15.95,8.72 28.54,18.32 37.76,28.41 9.21,10.21 15.69,21.55 19.43,34.01 3.74,12.46 5.61,26.79 5.61,43.23 0,38.75 -14.58,68.15 -43.73,88.09 -29.16,19.81 -70.4,29.78 -123.72,29.78 -34.89,0 -63.92,-2.99 -87.09,-8.97 -23.17,-5.99 -39.25,-10.97 -48.22,-14.96l18.69 -90.45c18.94,7.48 38.38,13.33 58.31,17.57 19.94,4.24 39.62,6.35 59.06,6.35zm361.06 79.99l-111.38 0 0 -393.21 111.38 0 0 393.21zm10.47 -506.83c0,20.43 -6.61,36.5 -19.81,48.21 -13.21,11.72 -28.78,17.57 -46.72,17.57 -17.95,0 -33.52,-5.85 -46.73,-17.57 -13.2,-11.71 -19.81,-27.78 -19.81,-48.21 0,-20.43 6.61,-36.51 19.81,-48.22 13.21,-11.71 28.78,-17.57 46.73,-17.57 17.94,0 33.51,5.86 46.72,17.57 13.2,11.71 19.81,27.79 19.81,48.22zm251.17 514.31c-32.39,-0.5 -58.68,-3.99 -78.86,-10.47 -20.19,-6.48 -36.14,-15.57 -47.85,-27.29 -11.71,-11.71 -19.68,-25.91 -23.92,-42.61 -4.23,-16.69 -6.35,-35.5 -6.35,-56.43l0 -432.83 111.38 -17.94 0 428.34c0,9.97 0.75,18.94 2.24,26.91 1.5,7.97 4.36,14.7 8.6,20.18 4.24,5.49 10.34,9.97 18.32,13.46 7.97,3.49 18.68,5.73 32.14,6.73l-15.7 91.95zm190.62 -7.48l-111.38 0 0 -393.21 111.38 0 0 393.21zm10.47 -506.83c0,20.43 -6.61,36.5 -19.81,48.21 -13.21,11.72 -28.78,17.57 -46.72,17.57 -17.95,0 -33.52,-5.85 -46.73,-17.57 -13.2,-11.71 -19.81,-27.78 -19.81,-48.21 0,-20.43 6.61,-36.51 19.81,-48.22 13.21,-11.71 28.78,-17.57 46.73,-17.57 17.94,0 33.51,5.86 46.72,17.57 13.2,11.71 19.81,27.79 19.81,48.22zm75.5 313.22c0,-34.89 5.36,-65.41 16.07,-91.58 10.72,-26.16 24.79,-47.96 42.24,-65.41 17.44,-17.44 37.5,-30.65 60.17,-39.62 22.68,-8.97 45.98,-13.45 69.9,-13.45 55.82,0 99.92,17.07 132.31,51.2 32.4,34.14 48.59,84.35 48.59,150.63 0,6.48 -0.25,13.58 -0.74,21.31 -0.5,7.72 -1,14.58 -1.5,20.56l-252.67 0c2.49,22.92 13.21,41.11 32.15,54.57 18.93,13.45 44.35,20.18 76.25,20.18 20.43,0 40.49,-1.87 60.17,-5.61 19.69,-3.73 35.76,-8.34 48.22,-13.83l14.95 90.46c-5.98,2.99 -13.95,5.98 -23.92,8.97 -9.97,2.99 -21.06,5.6 -33.27,7.85 -12.21,2.24 -25.29,4.11 -39.24,5.6 -13.96,1.5 -27.91,2.25 -41.86,2.25 -35.39,0 -66.16,-5.24 -92.33,-15.7 -26.16,-10.47 -47.84,-24.8 -65.03,-42.99 -17.2,-18.19 -29.9,-39.74 -38.13,-64.66 -8.22,-24.92 -12.33,-51.83 -12.33,-80.73zm261.64 -42.61c-0.5,-9.47 -2.12,-18.69 -4.86,-27.66 -2.74,-8.97 -6.98,-16.95 -12.71,-23.92 -5.73,-6.98 -12.96,-12.71 -21.68,-17.2 -8.72,-4.48 -19.56,-6.72 -32.52,-6.72 -12.45,0 -23.17,2.11 -32.14,6.35 -8.97,4.24 -16.45,9.84 -22.43,16.82 -5.98,6.98 -10.59,15.07 -13.83,24.29 -3.23,9.22 -5.6,18.57 -7.1,28.04l147.27 0zm193.61 -143.53c18.94,-5.48 43.36,-10.59 73.26,-15.32 29.9,-4.74 61.29,-7.11 94.19,-7.11 33.39,0 61.17,4.36 83.35,13.09 22.17,8.72 39.74,21.05 52.7,37 12.96,15.95 22.18,34.88 27.66,56.81 5.48,21.93 8.22,46.35 8.22,73.26l0 222.02 -111.38 0 0 -208.56c0,-35.89 -4.74,-61.3 -14.21,-76.25 -9.46,-14.95 -27.16,-22.43 -53.07,-22.43 -7.97,0 -16.45,0.37 -25.42,1.12 -8.97,0.75 -16.94,1.62 -23.92,2.62l0 303.5 -111.38 0 0 -379.75zm421.61 183.15c0,-28.41 4.61,-55.2 13.83,-80.36 9.22,-25.17 22.55,-47.1 39.99,-65.79 17.44,-18.69 38.63,-33.51 63.54,-44.48 24.92,-10.96 53.33,-16.44 85.22,-16.44 20.93,0 40.12,1.87 57.56,5.6 17.45,3.74 34.39,9.1 50.84,16.08l-23.18 88.95c-10.46,-3.98 -21.93,-7.47 -34.38,-10.46 -12.46,-2.99 -26.42,-4.49 -41.87,-4.49 -32.89,0 -57.43,10.22 -73.63,30.65 -16.2,20.44 -24.29,47.35 -24.29,80.74 0,35.38 7.6,62.79 22.8,82.23 15.2,19.43 41.73,29.15 79.61,29.15 13.45,0 27.91,-1.25 43.36,-3.74 15.44,-2.49 29.65,-6.48 42.61,-11.96l15.69 91.2c-12.95,5.48 -29.15,10.22 -48.59,14.21 -19.43,3.98 -40.86,5.98 -64.28,5.98 -35.89,0 -66.78,-5.36 -92.7,-16.08 -25.91,-10.71 -47.22,-25.29 -63.91,-43.73 -16.7,-18.44 -28.91,-40.24 -36.63,-65.41 -7.73,-25.16 -11.59,-52.45 -11.59,-81.85zm355.08 2.99c0,-34.89 5.36,-65.41 16.07,-91.58 10.72,-26.16 24.79,-47.96 42.24,-65.41 17.44,-17.44 37.5,-30.65 60.17,-39.62 22.68,-8.97 45.98,-13.45 69.9,-13.45 55.82,0 99.92,17.07 132.31,51.2 32.4,34.14 48.59,84.35 48.59,150.63 0,6.48 -0.25,13.58 -0.74,21.31 -0.5,7.72 -1,14.58 -1.5,20.56l-252.67 0c2.49,22.92 13.21,41.11 32.15,54.57 18.93,13.45 44.35,20.18 76.25,20.18 20.43,0 40.49,-1.87 60.17,-5.61 19.69,-3.73 35.76,-8.34 48.22,-13.83l14.95 90.46c-5.98,2.99 -13.95,5.98 -23.92,8.97 -9.97,2.99 -21.06,5.6 -33.27,7.85 -12.21,2.24 -25.29,4.11 -39.24,5.6 -13.96,1.5 -27.91,2.25 -41.86,2.25 -35.39,0 -66.16,-5.24 -92.33,-15.7 -26.16,-10.47 -47.84,-24.8 -65.03,-42.99 -17.2,-18.19 -29.9,-39.74 -38.13,-64.66 -8.22,-24.92 -12.33,-51.83 -12.33,-80.73zm261.64 -42.61c-0.5,-9.47 -2.12,-18.69 -4.86,-27.66 -2.74,-8.97 -6.98,-16.95 -12.71,-23.92 -5.73,-6.98 -12.96,-12.71 -21.68,-17.2 -8.72,-4.48 -19.56,-6.72 -32.52,-6.72 -12.45,0 -23.17,2.11 -32.14,6.35 -8.97,4.24 -16.45,9.84 -22.43,16.82 -5.98,6.98 -10.59,15.07 -13.83,24.29 -3.23,9.22 -5.6,18.57 -7.1,28.04l147.27 0z"/>
 </g>
</svg>
