<?xml version="1.0" encoding="UTF-8"?>
<!DOCTYPE svg PUBLIC "-//W3C//DTD SVG 1.1//EN" "http://www.w3.org/Graphics/SVG/1.1/DTD/svg11.dtd">
<!-- Creator: CorelDRAW -->
<svg xmlns="http://www.w3.org/2000/svg" xml:space="preserve" width="42.3332mm" height="42.3332mm" version="1.1" style="shape-rendering:geometricPrecision; text-rendering:geometricPrecision; image-rendering:optimizeQuality; fill-rule:evenodd; clip-rule:evenodd"
viewBox="0 0 4233.32 4233.32"
 xmlns:xlink="http://www.w3.org/1999/xlink"
 xmlns:xodm="http://www.corel.com/coreldraw/odm/2003">
 <defs>
  <style type="text/css">
   <![CDATA[
    .fil7 {fill:#0073D9}
    .fil5 {fill:#00796C}
    .fil6 {fill:#00AC95}
    .fil8 {fill:#0E6EF3}
    .fil11 {fill:#333333}
    .fil0 {fill:#E02424}
    .fil2 {fill:#FDF6D5}
    .fil9 {fill:#FEF7D8}
    .fil1 {fill:#FEFEFE}
    .fil3 {fill:#FFE149}
    .fil10 {fill:#FFE985}
    .fil4 {fill:#FFEA88}
    .fil13 {fill:#F6F6F6;fill-rule:nonzero}
    .fil12 {fill:url(#id0)}
   ]]>
  </style>
  <linearGradient id="id0" gradientUnits="userSpaceOnUse" x1="308.61" y1="4098" x2="3035.32" y2="4098">
   <stop offset="0" style="stop-opacity:1; stop-color:#FF4A4A"/>
   <stop offset="1" style="stop-opacity:1; stop-color:#910000"/>
  </linearGradient>
 </defs>
 <g id="Camada_x0020_1">
  <metadata id="CorelCorpID_0Corel-Layer"/>
  <g id="_1805759187408">
   <circle class="fil0" cx="2116.66" cy="2301.45" r="1366.18"/>
   <path class="fil1" d="M1703.48 2633.61l88.91 -0.34 0.47 112.82 -90.66 -2.44 1.28 -110.04zm-401.09 224.65c29.39,11.6 55.87,33.09 93.46,45.92 38.31,13.09 78.89,19.76 123.06,21.6l-42.74 104.8c-7.47,13.09 -35.29,65.87 -27.1,79.34l346.21 -177.31c10.01,-39.16 3.74,-157.47 3,-204.4 -1.42,-89.73 4.84,-104.74 -3.11,-191.13 -0.22,-2.4 -0.99,-2.98 -1.73,-4.35l-3.31 22.74 -88.62 0.09c2.31,-93.94 34.5,-110.52 98.73,-143.9l-1.27 -162.65c-59.85,2.23 -69.86,31.8 -98.34,61.3 -27.66,-8.61 -44.3,-31.88 -70.67,-42.53 18.58,-65.04 85.24,-104.13 170.11,-108.23l-2.06 -184.47c-236.57,0 -500.79,-44.76 -619.54,225.68 -38.2,86.98 -39.64,287.49 -28.63,391.38 6.39,60.22 27.07,112.71 53.52,155.53 13.66,22.11 30.97,45.87 46,61.55 20.42,21.32 43.44,33.34 53.03,49.04z"/>
   <path class="fil2" d="M1800.07 2159.55c103.71,-0.49 175.62,67.4 168.7,176.8 -6.51,102.97 -112.84,123.3 -165.57,177.66l-9.76 18.72c0.74,1.37 1.51,1.95 1.73,4.35 7.95,86.39 1.69,101.4 3.11,191.13 0.74,46.93 7.01,165.24 -3,204.4 106.79,-34.06 330.59,45.19 494.02,-72.07 152.54,-109.45 163.59,-231.77 162.4,-407.29l1.12 -143.43c-14.44,-22.29 -14.12,-64.27 -23.83,-89.65 -11.08,-28.98 -24.32,-49.57 -34.61,-73.69 -34.86,-35.12 -60.7,-83.21 -131.82,-125.06 -38.03,-14.61 -54.27,-26.11 -97.72,-36.75 -36.76,-9 -75.72,-11.4 -115.12,-11.49 -53.57,-0.12 -209.97,-6.46 -251.81,3.47l0.1 -1.57 2.06 184.47z"/>
   <path class="fil3" d="M2450.64 1772.39l349.15 1.44 -0.1 122.2 -349.06 0.1 -0.16 125.99c46.13,-1.24 328.25,-7.88 348.22,4.02l-0.1 121.38 -346.42 -0.25 0.65 162.55 -1.12 143.43c68.34,21.48 320.28,172.53 358.29,177.3l-79.61 -185.6c185.07,-8.41 307.55,-117.73 354.23,-259.98 25.12,-76.54 28.15,-339.49 2.46,-424.46 -14.12,-46.7 -36.02,-73.81 -48.09,-108.11 -25.63,-15.06 -70.51,-112.69 -225.49,-149.66 -78.64,-18.76 -272.18,-10.6 -363.02,-9.3l0.17 278.95z"/>
   <path class="fil4" d="M1797.91 1976.65c41.84,-9.93 198.24,-3.59 251.81,-3.47 39.4,0.09 78.36,2.49 115.12,11.49 43.45,10.64 59.69,22.14 97.72,36.75l187.91 0.7 0.16 -125.99 -348.18 -0.11 -0.05 -123.49 348.24 -0.14 -0.17 -278.95c-187.08,-0.18 -360.94,-25.68 -496.48,71.01 -50.62,36.1 -95.9,87.99 -125.65,158.9 -39.26,93.58 -24.39,151.75 -30.43,253.3z"/>
   <path class="fil5" d="M2452.17 2147.27l346.42 0.25 0.1 -121.38c-43.08,-11.31 -284.86,-3.27 -348.44,-3.27l1.92 124.4z"/>
   <polygon class="fil6" points="2450.63,1896.13 2450.64,1772.39 2102.4,1772.53 2102.45,1896.02 "/>
   <polygon class="fil5" points="2450.63,1896.13 2799.69,1896.03 2799.79,1773.83 2450.64,1772.39 "/>
   <path class="fil7" d="M1803.75 2249.94c43.98,7.6 78.79,31.13 66.64,84.26 -11.03,48.21 -48.46,52.69 -70.15,77.46 -1.34,17.49 -1.35,35.64 -1.47,53.6 -0.15,20.32 -2.21,35.14 4.43,48.75 52.73,-54.36 159.06,-74.69 165.57,-177.66 6.92,-109.4 -64.99,-177.29 -168.7,-176.8 -2.14,28.45 -5.09,69.67 3.68,90.39z"/>
   <path class="fil8" d="M1798.97 2249.01l4.78 0.93c-8.77,-20.72 -5.82,-61.94 -3.68,-90.39 -84.87,4.1 -151.53,43.19 -170.11,108.23 26.37,10.65 43.01,33.92 70.67,42.53 28.48,-29.5 38.49,-59.07 98.34,-61.3z"/>
   <path class="fil6" d="M2394.38 2146.48l57.79 0.79 -1.92 -124.4c63.58,0 305.36,-8.04 348.44,3.27 -19.97,-11.9 -302.09,-5.26 -348.22,-4.02l-187.91 -0.7c71.12,41.85 96.96,89.94 131.82,125.06z"/>
   <path class="fil8" d="M1793.44 2532.73l9.76 -18.72c-6.64,-13.61 -4.58,-28.43 -4.43,-48.75 0.12,-17.96 0.13,-36.11 1.47,-53.6 -64.23,33.38 -96.42,49.96 -98.73,143.9l88.62 -0.09 3.31 -22.74z"/>
   <polygon class="fil8" points="1702.2,2743.65 1792.86,2746.09 1792.39,2633.27 1703.48,2633.61 "/>
   <path class="fil9" d="M1800.24 2411.66c21.69,-24.77 59.12,-29.25 70.15,-77.46 12.15,-53.13 -22.66,-76.66 -66.64,-84.26l-4.78 -0.93 1.27 162.65z"/>
   <path class="fil10" d="M2452.82 2309.82l-0.65 -162.55 -57.79 -0.79c10.29,24.12 23.53,44.71 34.61,73.69 9.71,25.38 9.39,67.36 23.83,89.65z"/>
  </g>
  <rect class="fil11" x="309.81" y="3963.03" width="3613.7" height="270.29"/>
  <rect class="fil12" x="309.81" y="3963.03" width="2726.48" height="270.29"/>
  <path class="fil13" d="M290.53 568.6c-75.53,0 -133.07,-21.01 -172.62,-63.02 -39.55,-42.01 -59.33,-101.67 -59.33,-178.99 0,-38.44 6.03,-72.74 18.1,-102.91 12.07,-30.16 28.6,-55.64 49.61,-76.42 21,-20.78 46.03,-36.53 75.08,-47.26 29.05,-10.73 60.56,-16.09 94.52,-16.09 19.67,0 37.54,1.45 53.63,4.36 16.09,2.9 30.17,6.25 42.24,10.05 12.06,3.8 22.12,7.71 30.16,11.74 8.05,4.02 13.86,7.15 17.43,9.38l-30.16 84.47c-14.3,-7.6 -30.95,-14.08 -49.95,-19.44 -18.99,-5.37 -40.55,-8.05 -64.69,-8.05 -16.09,0 -31.84,2.68 -47.26,8.05 -15.42,5.36 -29.05,13.96 -40.89,25.81 -11.85,11.84 -21.34,27.15 -28.49,45.92 -7.15,18.77 -10.73,41.56 -10.73,68.38 0,21.45 2.35,41.45 7.04,60 4.69,18.54 12.29,34.52 22.79,47.93 10.51,13.41 24.25,24.02 41.23,31.84 16.98,7.82 37.54,11.73 61.68,11.73 15.19,0 28.82,-0.89 40.89,-2.68 12.07,-1.79 22.79,-3.91 32.18,-6.37 9.38,-2.46 17.65,-5.25 24.8,-8.38 7.15,-3.13 13.63,-6.03 19.44,-8.71l28.83 83.8c-14.75,8.93 -35.53,16.98 -62.35,24.13 -26.81,7.15 -57.87,10.73 -93.18,10.73zm537.64 -186.37c0,27.71 -4.02,53.07 -12.06,76.09 -8.05,23.01 -19.67,42.68 -34.86,58.99 -15.2,16.31 -33.41,28.94 -54.64,37.88 -21.23,8.94 -45.03,13.41 -71.39,13.41 -25.93,0 -49.5,-4.47 -70.73,-13.41 -21.23,-8.94 -39.44,-21.57 -54.64,-37.88 -15.19,-16.31 -27.03,-35.98 -35.53,-58.99 -8.49,-23.02 -12.73,-48.38 -12.73,-76.09 0,-27.71 4.35,-52.96 13.07,-75.75 8.71,-22.8 20.78,-42.24 36.2,-58.33 15.42,-16.09 33.74,-28.6 54.97,-37.54 21.23,-8.94 44.36,-13.41 69.39,-13.41 25.47,0 48.82,4.47 70.05,13.41 21.23,8.94 39.44,21.45 54.64,37.54 15.19,16.09 27.03,35.53 35.53,58.33 8.49,22.79 12.73,48.04 12.73,75.75zm-101.89 0c0,-30.84 -6.15,-55.08 -18.44,-72.74 -12.29,-17.65 -29.83,-26.48 -52.62,-26.48 -22.8,0 -40.45,8.83 -52.96,26.48 -12.52,17.66 -18.78,41.9 -18.78,72.74 0,30.84 6.26,55.31 18.78,73.41 12.51,18.1 30.16,27.15 52.96,27.15 22.79,0 40.33,-9.05 52.62,-27.15 12.29,-18.1 18.44,-42.57 18.44,-73.41zm372.73 -10.06c0,-32.17 -4.14,-54.97 -12.41,-68.37 -8.26,-13.41 -22.45,-20.12 -42.56,-20.12 -6.26,0 -12.74,0.34 -19.45,1.01 -6.7,0.67 -13.18,1.45 -19.44,2.35l0 272.17 -99.88 0 0 -340.55c8.49,-2.24 18.43,-4.58 29.83,-7.04 11.39,-2.46 23.46,-4.69 36.2,-6.71 12.74,-2.01 25.81,-3.57 39.22,-4.69 13.4,-1.12 26.59,-1.67 39.55,-1.67 25.47,0 46.14,3.24 62.01,9.72 15.86,6.48 28.94,14.19 39.22,23.12 14.3,-10.27 30.72,-18.32 49.27,-24.13 18.55,-5.81 35.64,-8.71 51.28,-8.71 28.16,0 51.29,3.91 69.39,11.73 18.1,7.82 32.51,18.88 43.24,33.18 10.72,14.3 18.1,31.29 22.12,50.95 4.02,19.66 6.03,41.56 6.03,65.7l0 199.1 -99.88 0 0 -187.04c0,-32.17 -4.14,-54.97 -12.41,-68.37 -8.26,-13.41 -22.45,-20.12 -42.56,-20.12 -5.37,0 -12.85,1.34 -22.46,4.03 -9.61,2.68 -17.54,6.03 -23.8,10.05 3.13,10.28 5.14,21.12 6.03,32.52 0.9,11.39 1.34,23.57 1.34,36.53l0 192.4 -99.88 0 0 -187.04zm685.13 174.97c-16.99,4.92 -38.88,9.5 -65.7,13.75 -26.82,4.24 -54.97,6.36 -84.47,6.36 -29.94,0 -54.86,-4.02 -74.75,-12.06 -19.88,-8.05 -35.64,-19.33 -47.26,-33.86 -11.62,-14.52 -19.89,-31.84 -24.8,-51.95 -4.92,-20.11 -7.38,-42.23 -7.38,-66.37l0 -196.42 99.89 0 0 184.35c0,32.18 4.25,55.42 12.74,69.72 8.49,14.31 24.36,21.46 47.6,21.46 7.15,0 14.74,-0.34 22.79,-1.01 8.04,-0.67 15.19,-1.45 21.45,-2.35l0 -272.17 99.89 0 0 340.55zm93.85 -328.48c16.98,-4.92 38.88,-9.5 65.69,-13.75 26.82,-4.24 54.97,-6.36 84.47,-6.36 29.95,0 54.86,3.91 74.75,11.73 19.89,7.82 35.64,18.88 47.26,33.18 11.62,14.3 19.89,31.29 24.8,50.95 4.92,19.66 7.38,41.56 7.38,65.7l0 199.1 -99.89 0 0 -187.04c0,-32.17 -4.24,-54.97 -12.73,-68.37 -8.5,-13.41 -24.36,-20.12 -47.6,-20.12 -7.15,0 -14.75,0.34 -22.79,1.01 -8.05,0.67 -15.2,1.45 -21.46,2.35l0 272.17 -99.88 0 0 -340.55zm494.73 340.55l-99.88 0 0 -352.62 99.88 0 0 352.62zm9.39 -454.52c0,18.33 -5.92,32.74 -17.77,43.24 -11.84,10.5 -25.81,15.76 -41.9,15.76 -16.08,0 -30.05,-5.26 -41.89,-15.76 -11.85,-10.5 -17.77,-24.91 -17.77,-43.24 0,-18.32 5.92,-32.73 17.77,-43.24 11.84,-10.5 25.81,-15.75 41.89,-15.75 16.09,0 30.06,5.25 41.9,15.75 11.85,10.51 17.77,24.92 17.77,43.24zm67.71 278.21c0,-25.47 4.13,-49.5 12.4,-72.07 8.27,-22.57 20.22,-42.23 35.86,-58.99 15.65,-16.76 34.64,-30.05 56.99,-39.89 22.34,-9.83 47.82,-14.75 76.42,-14.75 18.77,0 35.98,1.68 51.62,5.03 15.64,3.35 30.84,8.16 45.59,14.42l-20.79 79.77c-9.38,-3.57 -19.66,-6.7 -30.83,-9.38 -11.18,-2.69 -23.69,-4.03 -37.55,-4.03 -29.49,0 -51.5,9.17 -66.03,27.49 -14.52,18.32 -21.79,42.46 -21.79,72.4 0,31.73 6.82,56.31 20.45,73.74 13.63,17.43 37.43,26.15 71.4,26.15 12.06,0 25.02,-1.12 38.88,-3.36 13.85,-2.23 26.59,-5.81 38.21,-10.72l14.08 81.79c-11.62,4.91 -26.15,9.16 -43.58,12.73 -17.43,3.58 -36.64,5.37 -57.65,5.37 -32.18,0 -59.89,-4.81 -83.13,-14.42 -23.24,-9.61 -42.34,-22.68 -57.31,-39.22 -14.98,-16.53 -25.92,-36.08 -32.85,-58.65 -6.93,-22.57 -10.39,-47.04 -10.39,-73.41zm469.93 106.59c9.84,0 19.22,-0.22 28.16,-0.67 8.94,-0.45 16.09,-1.12 21.45,-2.01l0 -75.75c-4.02,-0.9 -10.05,-1.79 -18.1,-2.69 -8.04,-0.89 -15.42,-1.34 -22.12,-1.34 -9.39,0 -18.21,0.56 -26.48,1.68 -8.27,1.12 -15.53,3.24 -21.79,6.37 -6.26,3.13 -11.17,7.37 -14.75,12.74 -3.57,5.36 -5.36,12.06 -5.36,20.11 0,15.64 5.25,26.48 15.75,32.51 10.51,6.03 24.92,9.05 43.24,9.05zm-8.04 -292.29c29.5,0 54.08,3.36 73.74,10.06 19.66,6.7 35.42,16.31 47.26,28.83 11.85,12.51 20.23,27.71 25.14,45.58 4.92,17.88 7.38,37.77 7.38,59.67l0 207.81c-14.31,3.13 -34.19,6.82 -59.67,11.07 -25.47,4.24 -56.31,6.36 -92.51,6.36 -22.79,0 -43.46,-2.01 -62.01,-6.03 -18.55,-4.02 -34.53,-10.61 -47.93,-19.78 -13.41,-9.16 -23.69,-21.11 -30.84,-35.86 -7.15,-14.75 -10.73,-32.85 -10.73,-54.3 0,-20.56 4.14,-37.99 12.41,-52.29 8.26,-14.3 19.32,-25.7 33.18,-34.19 13.85,-8.49 29.72,-14.64 47.6,-18.44 17.87,-3.79 36.42,-5.69 55.64,-5.69 12.96,0 24.47,0.55 34.52,1.67 10.06,1.12 18.21,2.57 24.47,4.36l0 -9.39c0,-16.98 -5.14,-30.61 -15.42,-40.89 -10.28,-10.28 -28.15,-15.42 -53.63,-15.42 -16.98,0 -33.74,1.23 -50.28,3.69 -16.53,2.46 -30.83,5.92 -42.9,10.39l-12.74 -80.45c5.81,-1.78 13.07,-3.68 21.79,-5.69 8.71,-2.02 18.21,-3.8 28.49,-5.37 10.28,-1.56 21.12,-2.9 32.51,-4.02 11.4,-1.12 22.91,-1.68 34.53,-1.68zm416.97 388.83c14.31,7.15 24.14,15.64 29.5,25.47 5.36,9.83 8.05,19.89 8.05,30.17 0,21.45 -8.5,37.76 -25.48,48.93 -16.98,11.18 -39.33,16.76 -67.04,16.76 -9.83,0 -19.66,-0.78 -29.49,-2.34 -9.84,-1.57 -19.67,-3.69 -29.5,-6.37l12.07 -58.32c3.13,0.89 8.82,2.34 17.09,4.35 8.27,2.01 16.43,3.02 24.47,3.02 6.26,0 11.73,-1.23 16.42,-3.69 4.7,-2.45 7.27,-6.81 7.71,-13.07 0.45,-5.36 -1.67,-10.28 -6.36,-14.75 -4.7,-4.47 -12.18,-7.82 -22.46,-10.05l-8.05 -2.01c1.79,-5.81 4.25,-12.41 7.38,-19.78 3.13,-7.37 6.25,-14.19 9.38,-20.45 -23.24,-4.47 -43.24,-12.18 -60,-23.13 -16.76,-10.94 -30.61,-24.35 -41.56,-40.22 -10.95,-15.86 -18.99,-33.85 -24.13,-53.96 -5.14,-20.12 -7.71,-41.34 -7.71,-63.69 0,-25.47 4.13,-49.5 12.4,-72.07 8.27,-22.57 20.22,-42.23 35.86,-58.99 15.65,-16.76 34.64,-30.05 56.99,-39.89 22.34,-9.83 47.82,-14.75 76.42,-14.75 18.77,0 35.98,1.68 51.62,5.03 15.64,3.35 30.84,8.16 45.59,14.42l-20.79 79.77c-9.38,-3.57 -19.66,-6.7 -30.83,-9.38 -11.18,-2.69 -23.69,-4.03 -37.55,-4.03 -29.49,0 -51.5,9.17 -66.03,27.49 -14.52,18.32 -21.79,42.46 -21.79,72.4 0,31.73 6.82,56.31 20.45,73.74 13.63,17.43 37.43,26.15 71.4,26.15 12.06,0 25.02,-1.12 38.88,-3.36 13.85,-2.23 26.59,-5.81 38.21,-10.72l14.08 81.79c-10.28,4.46 -22.91,8.26 -37.88,11.39 -14.97,3.13 -31.39,5.14 -49.27,6.03 -1.79,3.58 -3.35,6.93 -4.69,10.06 -1.34,3.13 -2.46,5.81 -3.36,8.05zm280.22 -96.54c9.84,0 19.22,-0.22 28.16,-0.67 8.94,-0.45 16.09,-1.12 21.45,-2.01l0 -75.75c-4.02,-0.9 -10.05,-1.79 -18.1,-2.69 -8.04,-0.89 -15.42,-1.34 -22.12,-1.34 -9.39,0 -18.21,0.56 -26.48,1.68 -8.27,1.12 -15.53,3.24 -21.79,6.37 -6.26,3.13 -11.17,7.37 -14.75,12.74 -3.57,5.36 -5.36,12.06 -5.36,20.11 0,15.64 5.25,26.48 15.75,32.51 10.51,6.03 24.92,9.05 43.24,9.05zm-8.04 -292.29c29.5,0 54.08,3.36 73.74,10.06 19.66,6.7 35.42,16.31 47.26,28.83 11.85,12.51 20.23,27.71 25.14,45.58 4.92,17.88 7.38,37.77 7.38,59.67l0 207.81c-14.31,3.13 -34.19,6.82 -59.67,11.07 -25.47,4.24 -56.31,6.36 -92.51,6.36 -22.79,0 -43.46,-2.01 -62.01,-6.03 -18.55,-4.02 -34.53,-10.61 -47.93,-19.78 -13.41,-9.16 -23.69,-21.11 -30.84,-35.86 -7.15,-14.75 -10.73,-32.85 -10.73,-54.3 0,-20.56 4.14,-37.99 12.41,-52.29 8.26,-14.3 19.32,-25.7 33.18,-34.19 13.85,-8.49 29.72,-14.64 47.6,-18.44 17.87,-3.79 36.42,-5.69 55.64,-5.69 12.96,0 24.47,0.55 34.52,1.67 10.06,1.12 18.21,2.57 24.47,4.36l0 -9.39c0,-16.98 -5.14,-30.61 -15.42,-40.89 -10.28,-10.28 -28.15,-15.42 -53.63,-15.42 -16.98,0 -33.74,1.23 -50.28,3.69 -16.53,2.46 -30.83,5.92 -42.9,10.39l-12.74 -80.45c5.81,-1.78 13.07,-3.68 21.79,-5.69 8.71,-2.02 18.21,-3.8 28.49,-5.37 10.28,-1.56 21.12,-2.9 32.51,-4.02 11.4,-1.12 22.91,-1.68 34.53,-1.68zm130.72 -113.29c-2.68,6.7 -6.37,14.08 -11.06,22.12 -4.69,8.05 -10.39,15.53 -17.09,22.46 -6.71,6.93 -14.3,12.63 -22.8,17.1 -8.49,4.46 -17.87,6.7 -28.15,6.7 -8.05,0 -15.53,-1.23 -22.46,-3.69 -6.93,-2.46 -13.74,-5.14 -20.45,-8.04 -6.7,-2.91 -13.4,-5.59 -20.11,-8.05 -6.7,-2.45 -13.63,-3.68 -20.78,-3.68 -8.94,0 -16.31,2.9 -22.12,8.71 -5.81,5.81 -10.5,12.51 -14.08,20.11l-48.94 -32.18c2.68,-6.7 6.37,-14.07 11.06,-22.12 4.7,-8.04 10.39,-15.53 17.1,-22.46 6.7,-6.92 14.3,-12.62 22.79,-17.09 8.49,-4.47 17.88,-6.7 28.16,-6.7 8.04,0 15.53,1.22 22.45,3.68 6.93,2.46 13.75,5.14 20.45,8.05 6.7,2.9 13.3,5.58 19.78,8.04 6.48,2.46 13.52,3.69 21.11,3.69 8.94,0 16.32,-2.91 22.13,-8.72 5.81,-5.81 10.5,-12.51 14.07,-20.11l48.94 32.18zm443.11 298.32c0,27.71 -4.02,53.07 -12.06,76.09 -8.05,23.01 -19.67,42.68 -34.86,58.99 -15.2,16.31 -33.41,28.94 -54.64,37.88 -21.23,8.94 -45.03,13.41 -71.38,13.41 -25.93,0 -49.5,-4.47 -70.73,-13.41 -21.23,-8.94 -39.44,-21.57 -54.64,-37.88 -15.19,-16.31 -27.03,-35.98 -35.53,-58.99 -8.49,-23.02 -12.73,-48.38 -12.73,-76.09 0,-27.71 4.35,-52.96 13.07,-75.75 8.71,-22.8 20.78,-42.24 36.2,-58.33 15.42,-16.09 33.74,-28.6 54.97,-37.54 21.23,-8.94 44.36,-13.41 69.39,-13.41 25.46,0 48.81,4.47 70.04,13.41 21.23,8.94 39.44,21.45 54.64,37.54 15.19,16.09 27.03,35.53 35.53,58.33 8.49,22.79 12.73,48.04 12.73,75.75zm-101.89 0c0,-30.84 -6.15,-55.08 -18.44,-72.74 -12.29,-17.65 -29.83,-26.48 -52.61,-26.48 -22.8,0 -40.45,8.83 -52.96,26.48 -12.52,17.66 -18.78,41.9 -18.78,72.74 0,30.84 6.26,55.31 18.78,73.41 12.51,18.1 30.16,27.15 52.96,27.15 22.78,0 40.32,-9.05 52.61,-27.15 12.29,-18.1 18.44,-42.57 18.44,-73.41z"/>
 </g>
</svg>
