<?xml version="1.0" encoding="UTF-8"?>
<!DOCTYPE svg PUBLIC "-//W3C//DTD SVG 1.1//EN" "http://www.w3.org/Graphics/SVG/1.1/DTD/svg11.dtd">
<!-- Creator: CorelDRAW -->
<svg xmlns="http://www.w3.org/2000/svg" xml:space="preserve" width="42.3332mm" height="42.3332mm" version="1.1" style="shape-rendering:geometricPrecision; text-rendering:geometricPrecision; image-rendering:optimizeQuality; fill-rule:evenodd; clip-rule:evenodd"
viewBox="0 0 4233.32 4233.32"
 xmlns:xlink="http://www.w3.org/1999/xlink"
 xmlns:xodm="http://www.corel.com/coreldraw/odm/2003">
 <defs>
  <style type="text/css">
   <![CDATA[
    .fil0 {fill:#333333}
    .fil5 {fill:#FEFEFE}
    .fil2 {fill:#F6F6F6;fill-rule:nonzero}
    .fil4 {fill:black;fill-opacity:0.301961}
    .fil1 {fill:url(#id0)}
    .fil3 {fill:url(#id1)}
   ]]>
  </style>
  <linearGradient id="id0" gradientUnits="userSpaceOnUse" x1="309.8" y1="4098.18" x2="2846.4" y2="4098.18">
   <stop offset="0" style="stop-opacity:1; stop-color:#8AE31B"/>
   <stop offset="1" style="stop-opacity:1; stop-color:#2C9A18"/>
  </linearGradient>
  <linearGradient id="id1" gradientUnits="userSpaceOnUse" x1="1165.74" y1="1473.75" x2="3067.47" y2="3157.53">
   <stop offset="0" style="stop-opacity:1; stop-color:#96EC1B"/>
   <stop offset="0.360784" style="stop-opacity:1; stop-color:#61C31A"/>
   <stop offset="1" style="stop-opacity:1; stop-color:#2C9A18"/>
  </linearGradient>
 </defs>
 <g id="Camada_x0020_1">
  <metadata id="CorelCorpID_0Corel-Layer"/>
  <rect class="fil0" x="309.81" y="3963.03" width="3613.7" height="270.29"/>
  <rect class="fil1" x="309.81" y="3963.03" width="2536.6" height="270.29"/>
  <path class="fil2" d="M627.8 549.63c-78.39,0 -138.11,-21.8 -179.15,-65.4 -41.05,-43.6 -61.57,-105.52 -61.57,-185.75 0,-39.89 6.26,-75.49 18.78,-106.8 12.52,-31.31 29.68,-57.74 51.48,-79.31 21.8,-21.57 47.78,-37.92 77.92,-49.05 30.15,-11.13 62.85,-16.7 98.1,-16.7 20.41,0 38.96,1.51 55.66,4.53 16.7,3.01 31.31,6.49 43.83,10.43 12.52,3.94 22.96,8 31.31,12.18 8.34,4.17 14.37,7.42 18.08,9.74l-31.3 87.66c-14.84,-7.89 -32.12,-14.61 -51.83,-20.18 -19.72,-5.56 -42.09,-8.35 -67.14,-8.35 -16.7,0 -33.05,2.79 -49.05,8.35 -16,5.57 -30.15,14.5 -42.44,26.79 -12.29,12.29 -22.14,28.17 -29.57,47.65 -7.42,19.48 -11.13,43.14 -11.13,70.97 0,22.26 2.44,43.02 7.31,62.26 4.87,19.25 12.75,35.83 23.65,49.75 10.9,13.91 25.16,24.93 42.79,33.05 17.62,8.11 38.96,12.17 64.01,12.17 15.76,0 29.91,-0.93 42.43,-2.78 12.53,-1.86 23.66,-4.06 33.4,-6.61 9.74,-2.55 18.32,-5.45 25.74,-8.7 7.42,-3.24 14.15,-6.26 20.18,-9.04l29.91 86.96c-15.3,9.28 -36.87,17.63 -64.7,25.05 -27.83,7.42 -60.06,11.13 -96.7,11.13zm557.96 -193.41c0,28.76 -4.17,55.08 -12.52,78.96 -8.35,23.89 -20.41,44.3 -36.18,61.23 -15.77,16.93 -34.67,30.03 -56.7,39.31 -22.03,9.27 -46.73,13.91 -74.09,13.91 -26.9,0 -51.37,-4.64 -73.4,-13.91 -22.03,-9.28 -40.93,-22.38 -56.7,-39.31 -15.77,-16.93 -28.06,-37.34 -36.87,-61.23 -8.82,-23.88 -13.22,-50.2 -13.22,-78.96 0,-28.76 4.52,-54.96 13.56,-78.62 9.05,-23.65 21.57,-43.83 37.57,-60.52 16,-16.7 35.02,-29.69 57.05,-38.96 22.03,-9.28 46.04,-13.92 72.01,-13.92 26.44,0 50.67,4.64 72.7,13.92 22.03,9.27 40.93,22.26 56.7,38.96 15.77,16.69 28.06,36.87 36.88,60.52 8.81,23.66 13.21,49.86 13.21,78.62zm-105.74 0c0,-32 -6.38,-57.17 -19.14,-75.49 -12.75,-18.32 -30.96,-27.48 -54.61,-27.48 -23.66,0 -41.98,9.16 -54.96,27.48 -12.99,18.32 -19.48,43.49 -19.48,75.49 0,32 6.49,57.4 19.48,76.18 12.98,18.79 31.3,28.18 54.96,28.18 23.65,0 41.86,-9.39 54.61,-28.18 12.76,-18.78 19.14,-44.18 19.14,-76.18zm406.29 -90.44c-9.27,-2.32 -20.17,-4.76 -32.7,-7.31 -12.52,-2.55 -25.97,-3.83 -40.35,-3.83 -6.49,0 -14.26,0.58 -23.3,1.74 -9.05,1.16 -15.89,2.44 -20.53,3.83l0 279.68 -103.66 0 0 -346.47c18.55,-6.49 40.47,-12.64 65.75,-18.44 25.27,-5.79 53.45,-8.69 84.53,-8.69 5.56,0 12.29,0.35 20.17,1.04 7.89,0.7 15.77,1.63 23.66,2.78 7.88,1.16 15.77,2.56 23.65,4.18 7.89,1.62 14.61,3.59 20.18,5.91l-17.4 85.58zm48.71 93.92c0,-32.47 4.98,-60.88 14.96,-85.23 9.97,-24.35 23.07,-44.64 39.3,-60.87 16.24,-16.24 34.91,-28.53 56.01,-36.88 21.1,-8.34 42.79,-12.52 65.05,-12.52 51.95,0 92.99,15.89 123.14,47.66 30.15,31.77 45.22,78.5 45.22,140.19 0,6.03 -0.23,12.63 -0.69,19.82 -0.47,7.19 -0.93,13.57 -1.39,19.14l-235.16 0c2.32,21.33 12.29,38.26 29.92,50.78 17.62,12.53 41.28,18.79 70.96,18.79 19.02,0 37.69,-1.74 56.01,-5.22 18.32,-3.48 33.28,-7.77 44.87,-12.87l13.92 84.18c-5.57,2.78 -12.99,5.57 -22.27,8.35 -9.27,2.78 -19.59,5.22 -30.96,7.31 -11.36,2.08 -23.54,3.82 -36.52,5.21 -12.99,1.39 -25.98,2.09 -38.96,2.09 -32.93,0 -61.57,-4.87 -85.92,-14.61 -24.35,-9.74 -44.53,-23.07 -60.53,-40 -16,-16.93 -27.83,-36.99 -35.48,-60.18 -7.66,-23.19 -11.48,-48.24 -11.48,-75.14zm243.5 -39.66c-0.46,-8.81 -1.97,-17.39 -4.52,-25.74 -2.55,-8.35 -6.5,-15.77 -11.83,-22.26 -5.33,-6.5 -12.06,-11.83 -20.18,-16 -8.11,-4.18 -18.2,-6.27 -30.26,-6.27 -11.6,0 -21.57,1.98 -29.92,5.92 -8.34,3.94 -15.3,9.16 -20.87,15.65 -5.56,6.5 -9.85,14.03 -12.87,22.61 -3.01,8.58 -5.22,17.28 -6.61,26.09l137.06 0zm326.29 226.81c-30.15,-0.47 -54.61,-3.71 -73.4,-9.74 -18.78,-6.03 -33.62,-14.5 -44.52,-25.4 -10.9,-10.9 -18.32,-24.11 -22.27,-39.65 -3.94,-15.54 -5.91,-33.05 -5.91,-52.53l0 -402.82 103.66 -16.7 0 398.65c0,9.28 0.7,17.62 2.09,25.04 1.39,7.43 4.06,13.69 8,18.79 3.94,5.1 9.62,9.28 17.05,12.52 7.42,3.25 17.39,5.34 29.91,6.26l-14.61 85.58zm189.24 -95.32c5.1,0.47 11.02,0.82 17.74,1.05 6.73,0.23 14.73,0.34 24,0.34 54.27,0 94.51,-13.68 120.71,-41.04 26.21,-27.37 39.31,-65.17 39.31,-113.4 0,-50.56 -12.52,-88.83 -37.57,-114.8 -25.05,-25.97 -64.7,-38.96 -118.97,-38.96 -7.42,0 -15.07,0.12 -22.96,0.35 -7.88,0.23 -15.3,0.81 -22.26,1.74l0 304.72zm313.77 -153.05c0,41.74 -6.49,78.15 -19.48,109.22 -12.99,31.08 -31.42,56.82 -55.31,77.23 -23.89,20.41 -52.99,35.71 -87.31,45.92 -34.33,10.2 -72.82,15.3 -115.49,15.3 -19.48,0 -42.21,-0.81 -68.18,-2.43 -25.98,-1.63 -51.49,-4.99 -76.53,-10.09l0 -469.61c25.04,-4.64 51.13,-7.77 78.27,-9.39 27.13,-1.63 50.44,-2.44 69.92,-2.44 41.28,0 78.73,4.64 112.35,13.91 33.63,9.28 62.5,23.89 86.62,43.84 24.12,19.94 42.67,45.45 55.66,76.52 12.99,31.08 19.48,68.42 19.48,112.02zm304.03 -32.7c-9.27,-2.32 -20.17,-4.76 -32.7,-7.31 -12.52,-2.55 -25.97,-3.83 -40.35,-3.83 -6.49,0 -14.26,0.58 -23.3,1.74 -9.05,1.16 -15.89,2.44 -20.53,3.83l0 279.68 -103.66 0 0 -346.47c18.55,-6.49 40.47,-12.64 65.75,-18.44 25.27,-5.79 53.45,-8.69 84.53,-8.69 5.56,0 12.29,0.35 20.17,1.04 7.89,0.7 15.77,1.63 23.66,2.78 7.88,1.16 15.77,2.56 23.65,4.18 7.89,1.62 14.61,3.59 20.18,5.91l-17.4 85.58zm205.94 201.76c10.2,0 19.94,-0.24 29.22,-0.7 9.28,-0.46 16.7,-1.16 22.26,-2.09l0 -78.61c-4.17,-0.93 -10.43,-1.86 -18.78,-2.79 -8.35,-0.92 -16,-1.39 -22.96,-1.39 -9.74,0 -18.9,0.58 -27.48,1.74 -8.58,1.16 -16.12,3.36 -22.61,6.61 -6.5,3.25 -11.6,7.65 -15.31,13.22 -3.71,5.56 -5.56,12.52 -5.56,20.87 0,16.23 5.45,27.48 16.35,33.74 10.9,6.26 25.85,9.4 44.87,9.4zm-8.35 -303.34c30.61,0 56.12,3.48 76.53,10.44 20.41,6.95 36.76,16.93 49.05,29.91 12.29,12.99 20.99,28.76 26.09,47.31 5.1,18.55 7.65,39.19 7.65,61.92l0 215.67c-14.84,3.25 -35.48,7.08 -61.92,11.48 -26.44,4.41 -58.44,6.61 -96.01,6.61 -23.65,0 -45.1,-2.08 -64.35,-6.26 -19.25,-4.17 -35.83,-11.01 -49.75,-20.52 -13.91,-9.51 -24.58,-21.92 -32,-37.22 -7.42,-15.31 -11.13,-34.09 -11.13,-56.36 0,-21.33 4.29,-39.42 12.87,-54.26 8.58,-14.84 20.06,-26.67 34.44,-35.48 14.38,-8.82 30.84,-15.19 49.4,-19.14 18.55,-3.94 37.8,-5.91 57.74,-5.91 13.45,0 25.39,0.58 35.83,1.74 10.44,1.16 18.9,2.67 25.39,4.52l0 -9.74c0,-17.62 -5.33,-31.77 -16,-42.44 -10.67,-10.67 -29.22,-16 -55.66,-16 -17.62,0 -35.01,1.28 -52.17,3.83 -17.17,2.55 -32.01,6.14 -44.53,10.78l-13.22 -83.49c6.03,-1.85 13.57,-3.82 22.61,-5.91 9.05,-2.09 18.9,-3.94 29.57,-5.57 10.67,-1.62 21.91,-3.01 33.74,-4.17 11.83,-1.16 23.77,-1.74 35.83,-1.74zm469.27 165.58c-9.28,35.25 -19.13,70.27 -29.57,105.06 -10.44,34.78 -21.45,69.8 -33.05,105.05l-80.7 0c-8.35,-19.48 -17.39,-42.67 -27.25,-69.57 -9.74,-26.9 -19.83,-56.24 -30.26,-88.01 -10.55,-31.77 -21.22,-65.4 -32.12,-100.88 -10.9,-35.48 -21.57,-71.31 -31.77,-107.49l109.23 0c3.71,16.7 7.76,34.9 12.29,54.62 4.4,19.71 9.04,40 13.91,60.87 4.99,20.87 10.09,41.86 15.42,62.96 5.34,21.11 10.9,41.4 16.47,60.88 6.03,-20.41 11.94,-41.28 17.74,-62.62 5.8,-21.33 11.36,-42.32 16.7,-62.96 5.33,-20.64 10.43,-40.58 15.3,-59.83 4.87,-19.25 9.16,-37.22 12.87,-53.92l75.14 0c3.71,16.7 7.89,34.67 12.52,53.92 4.64,19.25 9.51,39.19 14.61,59.83 5.11,20.64 10.44,41.63 16.01,62.96 5.56,21.34 11.36,42.21 17.39,62.62 5.56,-19.48 11.25,-39.77 16.81,-60.88 5.57,-21.1 10.78,-42.09 15.77,-62.96 4.87,-20.87 9.51,-41.16 13.92,-60.87 4.52,-19.72 8.58,-37.92 12.29,-54.62l107.83 0c-10.2,36.18 -20.87,72.01 -31.77,107.49 -10.9,35.48 -21.57,69.11 -32.12,100.88 -10.43,31.77 -20.64,61.11 -30.61,88.01 -10.09,26.9 -19.25,50.09 -27.6,69.57l-80.7 0c-11.59,-35.25 -22.96,-70.27 -34.09,-105.05 -11.13,-34.79 -21.34,-69.81 -30.61,-105.06z"/>
  <g id="_2209192359504">
   <path class="fil3" d="M1655.95 1045.68l1721.19 0c5.23,0 9.51,4.28 9.51,9.51l0 1721.2c0,445.1 -364.18,809.28 -809.28,809.28l-921.42 0c-445.11,0 -809.29,-364.18 -809.29,-809.28l0 -921.43c0,-445.1 364.18,-809.28 809.29,-809.28z"/>
   <g>
    <path class="fil4" d="M1262.12 1886.82l190.16 -188.09c44.59,-44.12 116.9,-44 160.68,0.26 346.01,349.8 727.21,734.79 1073.21,1084.59 27.12,29.31 44.65,59.62 55.7,90.61 15.93,151.53 0,0 15.93,151.53 -60.88,60.22 -121.76,120.44 -182.65,180.66 -149.84,-18.59 0.04,-0.03 -149.84,-18.59 -29.5,-11.34 -59.85,-28.89 -91.47,-55.7l-1073.21 -1084.59c-43.79,-44.25 -43.11,-116.56 1.49,-160.68z"/>
    <path class="fil4" d="M2804.36 3201.68l-6.07 -46.97 -6 -46.48c-5.92,-24.04 -20.84,-26.09 -44.53,-6.72l-40.83 40.39 -40.41 39.97c-20.18,23.2 -18.21,38.11 5.33,44.94l46.9 6.58 46.41 6.51c26.1,0.85 39.05,-12.01 39.2,-38.22z"/>
   </g>
   <g>
    <path class="fil5" d="M1382.02 1762.95l190.16 -188.09c44.59,-44.12 116.9,-44 160.68,0.26 346.01,349.8 692.02,699.6 1038.02,1049.4 27.12,29.3 44.65,59.61 55.7,90.61 15.93,151.53 0,0 15.93,151.53 -60.89,60.22 -121.77,120.44 -182.65,180.66 -149.84,-18.59 0.04,-0.03 -149.84,-18.59 -29.5,-11.34 -59.85,-28.9 -91.47,-55.71l-1038.02 -1049.39c-43.78,-44.26 -43.11,-116.56 1.49,-160.68z"/>
    <path class="fil5" d="M2885.19 3051.24l-6.07 -46.97 -6.01 -46.48c-5.92,-24.04 -20.83,-26.09 -44.52,-6.72l-40.83 40.39 -40.41 39.97c-20.18,23.2 -18.22,38.11 5.32,44.94l46.91 6.58 46.41 6.51c26.1,0.84 39.05,-12.01 39.2,-38.22z"/>
   </g>
  </g>
 </g>
</svg>
