<?xml version="1.0" encoding="UTF-8"?>
<!DOCTYPE svg PUBLIC "-//W3C//DTD SVG 1.1//EN" "http://www.w3.org/Graphics/SVG/1.1/DTD/svg11.dtd">
<!-- Creator: CorelDRAW -->
<svg xmlns="http://www.w3.org/2000/svg" xml:space="preserve" width="42.3332mm" height="42.3332mm" version="1.1" style="shape-rendering:geometricPrecision; text-rendering:geometricPrecision; image-rendering:optimizeQuality; fill-rule:evenodd; clip-rule:evenodd"
viewBox="0 0 4233.32 4233.32"
 xmlns:xlink="http://www.w3.org/1999/xlink"
 xmlns:xodm="http://www.corel.com/coreldraw/odm/2003">
 <defs>
  <style type="text/css">
   <![CDATA[
    .fil9 {fill:#145383}
    .fil8 {fill:#1C78BF}
    .fil10 {fill:#333333}
    .fil5 {fill:#BBDCFE}
    .fil6 {fill:#E0F4FE}
    .fil0 {fill:#F6F6F6}
    .fil1 {fill:#FCBF00}
    .fil3 {fill:#FDBE00}
    .fil2 {fill:#FF9100}
    .fil4 {fill:#FFD82C}
    .fil7 {fill:#FFD92D}
    .fil12 {fill:#F6F6F6;fill-rule:nonzero}
    .fil11 {fill:url(#id0)}
   ]]>
  </style>
  <linearGradient id="id0" gradientUnits="userSpaceOnUse" x1="308.31" y1="4098" x2="3727.45" y2="4098">
   <stop offset="0" style="stop-opacity:1; stop-color:#F2F2F2"/>
   <stop offset="1" style="stop-opacity:1; stop-color:#969696"/>
  </linearGradient>
 </defs>
 <g id="Camada_x0020_1">
  <metadata id="CorelCorpID_0Corel-Layer"/>
  <g id="_1804672205744">
   <circle class="fil0" cx="2116.66" cy="2301.45" r="1366.18"/>
   <g>
    <path class="fil1" d="M1757.22 1986.61l-72.77 0c-37.65,-57.14 -62.11,-113.42 -16.04,-189.38 14.11,-23.26 40.43,-47.34 69.4,-60.08 33.94,-14.92 76.04,-13.28 116.24,-13.28 0,-54.95 -4.31,-88.91 24.16,-136.71 10.25,-17.22 11.61,-17.78 25.23,-30.9 11.88,-11.45 14.15,-14.89 28.85,-23.62 12.7,-7.55 24.63,-12.82 39.32,-16.69 41.82,-11.01 56.07,-3.55 92.69,4.3l0 1148.8 -105.26 0 0 -99.41c-159.67,-43.97 -92.13,-154.41 -74.48,-218.07 -77.35,-2.15 -139.85,22.93 -207.43,-58.61 -20.33,-24.53 -34.24,-62.2 -32.76,-103.5 1.61,-45.05 23.3,-72.97 40.16,-98.12l72.54 0c18.39,86.12 98.81,153.28 201.91,157.42l0.07 -104.76c-138.16,-7.85 -138.04,-202.37 -0.01,-210.05l-0.01 -104.73c-103.05,3.64 -183.86,71.79 -201.81,157.39zm232.58 -581.08l46.04 0c18.5,1.73 36.97,5.58 55.07,11.74 11.59,3.94 15.6,6.97 26.65,9.26l-0.9 1347.36 -262.48 0 0 -132.97c-66.46,-35.17 -104.99,-106.04 -104.99,-185.48 -22.27,-10.69 -49.29,-4.25 -115.04,-56.45 -66.97,-53.18 -109.98,-150.15 -93.05,-242.64 4.21,-23.03 11.21,-47.15 19.11,-64.88 9.93,-22.31 19.1,-33.98 31.5,-52.5 -55.89,-83.45 -74.33,-174.01 -29.23,-267.2 40.26,-83.18 102.78,-128.89 190.21,-149.26 5.83,-25.01 7.74,-36.71 18.62,-58.37 8.73,-17.36 15.94,-32.09 26.34,-47.15 43.51,-62.99 115.71,-104.43 192.15,-111.46z"/>
    <path class="fil2" d="M2274.22 1933.98c138.14,7.5 137.91,202.47 0,209.98l0.02 104.84c59.69,-2.27 94.43,-18.23 131.14,-47.01 26.73,-20.96 60.71,-61.66 70.74,-110.4l72.55 0c28.96,43.52 55.46,83.61 31.69,155.79 -47.85,145.27 -190.78,56.18 -201.58,218.86 -4.26,64.14 -48.39,87.99 -104.56,103.65l0 99.3 -105.06 0 -0.08 -1148.66c60.6,-13.73 108.95,-12.24 150.47,25.35 60.44,54.71 59.66,97.65 59.66,178.25 85.18,0 149.96,4.07 191.84,84.79 38.81,74.82 11.02,127.24 -22.38,177.84l-72.53 0c-20.38,-95.98 -108.39,-153.54 -201.92,-157.49l0 104.91zm-82.08 -528.45l54.77 0c56.09,2.95 117.52,35.83 154.1,72.62 35.63,35.83 75.02,89.18 79.62,144.36 18.08,1.51 52.85,14.16 66.3,21.2 124.12,64.97 184.5,208.66 127.21,340.3 -27.26,62.63 -39.24,41.92 -17.85,75.28 4.66,7.26 6.86,12.13 11.03,20.47 52.63,105.46 29.49,227.46 -56.26,310.13 -9.38,9.05 -24.57,20.15 -35.37,27.62 -68.49,47.34 -90.15,17.51 -91.76,58.73 -2.65,67.82 -47.74,134.49 -104.79,164.68l0 132.97 -262.48 0 0.9 -1347.36c35.62,-9.46 42.23,-18.27 74.58,-21z"/>
    <path class="fil3" d="M2274.22 1829.07c93.53,3.95 181.54,61.51 201.92,157.49l72.53 0c33.4,-50.6 61.19,-103.02 22.38,-177.84 -41.88,-80.72 -106.66,-84.79 -191.84,-84.79 0,-80.6 0.78,-123.54 -59.66,-178.25 -41.52,-37.59 -89.87,-39.08 -150.47,-25.35l0.08 1148.66 105.06 0 0 -99.3c56.17,-15.66 100.3,-39.51 104.56,-103.65 10.8,-162.68 153.73,-73.59 201.58,-218.86 23.77,-72.18 -2.73,-112.27 -31.69,-155.79l-72.55 0c-10.03,48.74 -44.01,89.44 -70.74,110.4 -36.71,28.78 -71.45,44.74 -131.14,47.01l-0.02 -104.84c137.91,-7.51 138.14,-202.48 0,-209.98l0 -104.91z"/>
    <path class="fil4" d="M1757.22 1986.61c17.95,-85.6 98.76,-153.75 201.81,-157.39l0.01 104.73c-138.03,7.68 -138.15,202.2 0.01,210.05l-0.07 104.76c-103.1,-4.14 -183.52,-71.3 -201.91,-157.42l-72.54 0c-16.86,25.15 -38.55,53.07 -40.16,98.12 -1.48,41.3 12.43,78.97 32.76,103.5 67.58,81.54 130.08,56.46 207.43,58.61 -17.65,63.66 -85.19,174.1 74.48,218.07l0 99.41 105.26 0 0 -1148.8c-36.62,-7.85 -50.87,-15.31 -92.69,-4.3 -14.69,3.87 -26.62,9.14 -39.32,16.69 -14.7,8.73 -16.97,12.17 -28.85,23.62 -13.62,13.12 -14.98,13.68 -25.23,30.9 -28.47,47.8 -24.16,81.76 -24.16,136.71 -40.2,0 -82.3,-1.64 -116.24,13.28 -28.97,12.74 -55.29,36.82 -69.4,60.08 -46.07,75.96 -21.61,132.24 16.04,189.38l72.77 0z"/>
    <polygon class="fil5" points="2116.66,2983.89 2379.14,2983.89 2379.14,2773.89 2116.66,2773.89 "/>
    <polygon class="fil6" points="2116.66,2983.89 2116.66,2773.89 1854.18,2773.89 1854.18,2983.89 "/>
    <polygon class="fil4" points="1220.74,2091.47 1483.22,2091.47 1483.22,1986.48 1220.74,1986.48 "/>
    <polygon class="fil1" points="2750.1,2091.47 3012.58,2091.47 3012.58,1986.48 2750.1,1986.48 "/>
    <path class="fil7" d="M1250.94 1719.85c26.93,6.62 190.08,100.09 214.78,102.14l46.8 -93.84c-28.6,-7.3 -189.76,-100.05 -214.78,-102.14l-46.8 93.84z"/>
    <path class="fil1" d="M2720.8 2349.79c26.93,6.63 190.09,100.09 214.78,102.15l46.8 -93.84c-28.6,-7.31 -189.76,-100.06 -214.78,-102.15l-46.8 93.84z"/>
    <path class="fil7" d="M1252.24 2357.44l45.47 94.51c17.85,-1.5 87.11,-40.06 107.35,-50.18 18.47,-9.23 32.86,-16.43 51.33,-25.66 14.93,-7.47 40.24,-22.27 54.83,-25.66l-45.47 -94.51c-17.86,1.5 -87.11,40.06 -107.35,50.18l-106.16 51.32z"/>
    <path class="fil1" d="M2722.1 1727.5l45.47 94.51c24.88,-2.09 187.58,-95.47 213.51,-101.51l-45.47 -94.5c-17.85,1.5 -87.11,40.05 -107.35,50.18l-106.16 51.32z"/>
    <polygon class="fil8" points="2116.66,3197.37 2116.66,3092.38 1959.17,3092.38 1959.17,3197.37 "/>
    <polygon class="fil9" points="2116.66,3197.37 2274.15,3197.37 2274.15,3092.38 2116.66,3092.38 "/>
   </g>
  </g>
  <rect class="fil10" x="309.81" y="3963.03" width="3613.7" height="270.29"/>
  <rect class="fil11" x="309.81" y="3963.03" width="3418.86" height="270.29"/>
  <path class="fil12" d="M407.74 577.36c-76.61,0 -134.98,-21.31 -175.11,-63.92 -40.12,-42.62 -60.18,-103.14 -60.18,-181.57 0,-38.99 6.12,-73.78 18.36,-104.39 12.24,-30.6 29.02,-56.44 50.32,-77.52 21.31,-21.08 46.7,-37.06 76.17,-47.94 29.47,-10.88 61.43,-16.32 95.88,-16.32 19.95,0 38.08,1.47 54.4,4.42 16.33,2.95 30.61,6.35 42.85,10.2 12.24,3.85 22.44,7.82 30.6,11.9 8.16,4.08 14.05,7.25 17.68,9.52l-30.6 85.68c-14.51,-7.7 -31.4,-14.28 -50.67,-19.72 -19.26,-5.44 -41.14,-8.16 -65.62,-8.16 -16.32,0 -32.3,2.72 -47.94,8.16 -15.64,5.44 -29.47,14.17 -41.48,26.18 -12.02,12.02 -21.65,27.55 -28.9,46.59 -7.26,19.04 -10.88,42.16 -10.88,69.36 0,21.76 2.38,42.05 7.14,60.86 4.76,18.82 12.46,35.02 23.12,48.62 10.65,13.6 24.59,24.37 41.82,32.31 17.23,7.93 38.08,11.9 62.56,11.9 15.42,0 29.24,-0.91 41.48,-2.72 12.24,-1.82 23.13,-3.97 32.65,-6.46 9.52,-2.5 17.9,-5.33 25.16,-8.5 7.25,-3.18 13.82,-6.12 19.72,-8.84l29.24 85c-14.96,9.07 -36.04,17.23 -63.24,24.48 -27.21,7.25 -58.71,10.88 -94.53,10.88zm434.54 -277.45c-9.07,-2.27 -19.72,-4.65 -31.96,-7.14 -12.24,-2.5 -25.39,-3.74 -39.44,-3.74 -6.35,0 -13.94,0.56 -22.78,1.7 -8.84,1.13 -15.53,2.38 -20.06,3.74l0 273.37 -101.33 0 0 -338.65c18.14,-6.35 39.56,-12.36 64.26,-18.03 24.71,-5.66 52.25,-8.5 82.63,-8.5 5.44,0 12.01,0.34 19.72,1.02 7.71,0.68 15.41,1.59 23.12,2.72 7.71,1.14 15.41,2.5 23.12,4.08 7.71,1.59 14.28,3.52 19.72,5.78l-17 83.65zm172.73 267.93l-101.33 0 0 -357.7 101.33 0 0 357.7zm9.52 -461.06c0,18.59 -6.01,33.21 -18.02,43.86 -12.02,10.66 -26.18,15.98 -42.51,15.98 -16.32,0 -30.48,-5.32 -42.5,-15.98 -12.01,-10.65 -18.02,-25.27 -18.02,-43.86 0,-18.59 6.01,-33.21 18.02,-43.86 12.02,-10.66 26.18,-15.98 42.5,-15.98 16.33,0 30.49,5.32 42.51,15.98 12.01,10.65 18.02,25.27 18.02,43.86zm222.37 390.34c9.97,0 19.49,-0.23 28.56,-0.68 9.07,-0.46 16.32,-1.14 21.76,-2.04l0 -76.85c-4.08,-0.9 -10.2,-1.81 -18.36,-2.72 -8.16,-0.9 -15.64,-1.36 -22.44,-1.36 -9.52,0 -18.48,0.57 -26.86,1.7 -8.39,1.14 -15.76,3.29 -22.1,6.46 -6.35,3.18 -11.34,7.48 -14.96,12.92 -3.63,5.44 -5.44,12.24 -5.44,20.41 0,15.86 5.32,26.86 15.98,32.98 10.65,6.12 25.27,9.18 43.86,9.18zm-8.16 -296.5c29.92,0 54.85,3.4 74.8,10.2 19.95,6.8 35.93,16.55 47.94,29.25 12.02,12.69 20.52,28.1 25.5,46.24 4.99,18.13 7.48,38.31 7.48,60.52l0 210.81c-14.5,3.17 -34.68,6.91 -60.52,11.22 -25.84,4.31 -57.12,6.46 -93.84,6.46 -23.12,0 -44.09,-2.04 -62.9,-6.12 -18.82,-4.08 -35.03,-10.77 -48.63,-20.06 -13.6,-9.29 -24.02,-21.42 -31.28,-36.38 -7.25,-14.96 -10.88,-33.32 -10.88,-55.08 0,-20.86 4.19,-38.54 12.58,-53.05 8.39,-14.5 19.61,-26.07 33.66,-34.68 14.06,-8.61 30.15,-14.85 48.29,-18.7 18.13,-3.85 36.94,-5.78 56.44,-5.78 13.14,0 24.82,0.57 35.02,1.7 10.2,1.13 18.47,2.61 24.82,4.42l0 -9.52c0,-17.23 -5.21,-31.05 -15.64,-41.48 -10.43,-10.43 -28.56,-15.64 -54.4,-15.64 -17.23,0 -34.23,1.24 -51,3.74 -16.78,2.49 -31.29,6 -43.53,10.54l-12.92 -81.61c5.9,-1.81 13.26,-3.74 22.1,-5.78 8.84,-2.04 18.48,-3.85 28.9,-5.44 10.43,-1.58 21.43,-2.94 32.99,-4.08 11.56,-1.13 23.23,-1.7 35.02,-1.7zm244.13 -79.56l101.33 -16.32 0 105.4 121.72 0 0 84.33 -121.72 0 0 125.8c0,21.31 3.74,38.31 11.22,51.01 7.48,12.69 22.55,19.04 45.22,19.04 10.88,0 22.1,-1.02 33.66,-3.06 11.56,-2.04 22.1,-4.88 31.62,-8.5l14.28 78.88c-12.24,4.99 -25.84,9.29 -40.8,12.92 -14.96,3.63 -33.32,5.44 -55.08,5.44 -27.66,0 -50.55,-3.74 -68.68,-11.22 -18.14,-7.48 -32.65,-17.91 -43.53,-31.28 -10.88,-13.38 -18.47,-29.58 -22.78,-48.62 -4.3,-19.04 -6.46,-40.13 -6.46,-63.25l0 -300.57zm406.66 446.78l-101.33 0 0 -357.7 101.33 0 0 357.7zm9.52 -461.06c0,18.59 -6.01,33.21 -18.02,43.86 -12.02,10.66 -26.18,15.98 -42.51,15.98 -16.32,0 -30.48,-5.32 -42.5,-15.98 -12.01,-10.65 -18.02,-25.27 -18.02,-43.86 0,-18.59 6.01,-33.21 18.02,-43.86 12.02,-10.66 26.18,-15.98 42.5,-15.98 16.33,0 30.49,5.32 42.51,15.98 12.01,10.65 18.02,25.27 18.02,43.86zm172.61 461.06c-23.23,-45.34 -46.81,-98.38 -70.72,-159.13 -23.91,-60.75 -46.47,-126.94 -67.89,-198.57l107.45 0c4.53,17.68 9.86,36.84 16.09,57.47 6.12,20.62 12.47,41.48 19.04,62.56 6.69,21.08 13.26,41.59 19.83,61.54 6.58,19.95 13.15,38.08 19.5,54.4 5.89,-16.32 12.24,-34.45 19.15,-54.4 6.8,-19.95 13.49,-40.46 20.06,-61.54 6.58,-21.08 13.04,-41.94 19.16,-62.56 6.12,-20.63 11.44,-39.79 15.98,-57.47l104.84 0c-21.42,71.63 -43.98,137.82 -67.89,198.57 -23.8,60.75 -47.38,113.79 -70.61,159.13l-83.99 0zm377.54 0l-101.33 0 0 -357.7 101.33 0 0 357.7zm9.52 -461.06c0,18.59 -6.01,33.21 -18.02,43.86 -12.02,10.66 -26.18,15.98 -42.51,15.98 -16.32,0 -30.48,-5.32 -42.5,-15.98 -12.01,-10.65 -18.02,-25.27 -18.02,-43.86 0,-18.59 6.01,-33.21 18.02,-43.86 12.02,-10.66 26.18,-15.98 42.5,-15.98 16.33,0 30.49,5.32 42.51,15.98 12.01,10.65 18.02,25.27 18.02,43.86zm172.05 279.49c0,31.28 7.02,56.44 21.08,75.49 14.05,19.04 34.91,28.56 62.56,28.56 9.07,0 17.45,-0.34 25.16,-1.02 7.71,-0.68 14.05,-1.48 19.04,-2.38l0 -184.29c-6.35,-4.08 -14.62,-7.48 -24.82,-10.2 -10.2,-2.72 -20.51,-4.08 -30.94,-4.08 -48.06,0 -72.08,32.64 -72.08,97.92zm229.17 170.01c-9.07,2.72 -19.5,5.33 -31.29,7.82 -11.78,2.49 -24.14,4.65 -37.06,6.46 -12.92,1.81 -26.06,3.29 -39.44,4.42 -13.37,1.13 -26.18,1.7 -38.42,1.7 -29.47,0 -55.76,-4.31 -78.88,-12.92 -23.12,-8.61 -42.62,-20.97 -58.49,-37.06 -15.86,-16.1 -27.99,-35.59 -36.38,-58.48 -8.39,-22.9 -12.58,-48.63 -12.58,-77.19 0,-29.01 3.63,-55.19 10.88,-78.54 7.26,-23.35 17.68,-43.18 31.28,-59.5 13.6,-16.32 30.26,-28.79 49.99,-37.41 19.72,-8.61 42.27,-12.92 67.66,-12.92 14.05,0 26.63,1.36 37.74,4.08 11.11,2.72 22.33,6.58 33.66,11.56l0 -161.84 101.33 -16.32 0 516.14zm231.89 -59.16c9.97,0 19.49,-0.23 28.56,-0.68 9.07,-0.46 16.32,-1.14 21.76,-2.04l0 -76.85c-4.08,-0.9 -10.2,-1.81 -18.36,-2.72 -8.16,-0.9 -15.64,-1.36 -22.44,-1.36 -9.52,0 -18.48,0.57 -26.86,1.7 -8.39,1.14 -15.76,3.29 -22.1,6.46 -6.35,3.18 -11.34,7.48 -14.96,12.92 -3.63,5.44 -5.44,12.24 -5.44,20.41 0,15.86 5.32,26.86 15.98,32.98 10.65,6.12 25.27,9.18 43.86,9.18zm-8.16 -296.5c29.92,0 54.85,3.4 74.8,10.2 19.95,6.8 35.93,16.55 47.94,29.25 12.02,12.69 20.52,28.1 25.5,46.24 4.99,18.13 7.48,38.31 7.48,60.52l0 210.81c-14.5,3.17 -34.68,6.91 -60.52,11.22 -25.84,4.31 -57.12,6.46 -93.84,6.46 -23.12,0 -44.09,-2.04 -62.9,-6.12 -18.82,-4.08 -35.03,-10.77 -48.63,-20.06 -13.6,-9.29 -24.02,-21.42 -31.28,-36.38 -7.25,-14.96 -10.88,-33.32 -10.88,-55.08 0,-20.86 4.19,-38.54 12.58,-53.05 8.39,-14.5 19.61,-26.07 33.66,-34.68 14.06,-8.61 30.15,-14.85 48.29,-18.7 18.13,-3.85 36.94,-5.78 56.44,-5.78 13.14,0 24.82,0.57 35.02,1.7 10.2,1.13 18.47,2.61 24.82,4.42l0 -9.52c0,-17.23 -5.21,-31.05 -15.64,-41.48 -10.43,-10.43 -28.56,-15.64 -54.4,-15.64 -17.23,0 -34.23,1.24 -51,3.74 -16.78,2.49 -31.29,6 -43.53,10.54l-12.92 -81.61c5.9,-1.81 13.26,-3.74 22.1,-5.78 8.84,-2.04 18.48,-3.85 28.9,-5.44 10.43,-1.58 21.43,-2.94 32.99,-4.08 11.56,-1.13 23.23,-1.7 35.02,-1.7zm333.9 185.65c0,31.28 7.02,56.44 21.08,75.49 14.05,19.04 34.91,28.56 62.56,28.56 9.07,0 17.45,-0.34 25.16,-1.02 7.71,-0.68 14.05,-1.48 19.04,-2.38l0 -184.29c-6.35,-4.08 -14.62,-7.48 -24.82,-10.2 -10.2,-2.72 -20.51,-4.08 -30.94,-4.08 -48.06,0 -72.08,32.64 -72.08,97.92zm229.17 170.01c-9.07,2.72 -19.5,5.33 -31.29,7.82 -11.78,2.49 -24.14,4.65 -37.06,6.46 -12.92,1.81 -26.06,3.29 -39.44,4.42 -13.37,1.13 -26.18,1.7 -38.42,1.7 -29.47,0 -55.76,-4.31 -78.88,-12.92 -23.12,-8.61 -42.62,-20.97 -58.49,-37.06 -15.86,-16.1 -27.99,-35.59 -36.38,-58.48 -8.39,-22.9 -12.58,-48.63 -12.58,-77.19 0,-29.01 3.63,-55.19 10.88,-78.54 7.26,-23.35 17.68,-43.18 31.28,-59.5 13.6,-16.32 30.26,-28.79 49.99,-37.41 19.72,-8.61 42.27,-12.92 67.66,-12.92 14.05,0 26.63,1.36 37.74,4.08 11.11,2.72 22.33,6.58 33.66,11.56l0 -161.84 101.33 -16.32 0 516.14zm78.2 -164.57c0,-31.73 4.87,-59.5 14.62,-83.3 9.75,-23.8 22.56,-43.64 38.42,-59.5 15.87,-15.87 34.12,-27.89 54.75,-36.05 20.62,-8.16 41.82,-12.24 63.58,-12.24 50.77,0 90.9,15.53 120.36,46.59 29.47,31.05 44.21,76.73 44.21,137.02 0,5.9 -0.23,12.36 -0.68,19.38 -0.46,7.03 -0.91,13.26 -1.36,18.7l-229.85 0c2.26,20.86 12.01,37.41 29.24,49.65 17.22,12.24 40.35,18.36 69.36,18.36 18.59,0 36.84,-1.7 54.74,-5.1 17.91,-3.4 32.53,-7.6 43.86,-12.58l13.61 82.28c-5.44,2.72 -12.7,5.44 -21.77,8.16 -9.06,2.72 -19.15,5.1 -30.26,7.14 -11.1,2.04 -23,3.74 -35.7,5.1 -12.69,1.36 -25.39,2.04 -38.08,2.04 -32.19,0 -60.18,-4.76 -83.98,-14.28 -23.81,-9.52 -43.53,-22.55 -59.17,-39.1 -15.64,-16.55 -27.2,-36.16 -34.68,-58.82 -7.48,-22.67 -11.22,-47.15 -11.22,-73.45zm238.01 -38.76c-0.45,-8.61 -1.92,-17 -4.42,-25.16 -2.49,-8.16 -6.35,-15.41 -11.56,-21.76 -5.21,-6.35 -11.79,-11.56 -19.72,-15.64 -7.93,-4.08 -17.79,-6.12 -29.58,-6.12 -11.33,0 -21.08,1.92 -29.24,5.78 -8.16,3.85 -14.96,8.95 -20.4,15.3 -5.44,6.35 -9.64,13.71 -12.58,22.1 -2.95,8.39 -5.1,16.89 -6.46,25.5l133.96 0z"/>
 </g>
</svg>
