<?xml version="1.0" encoding="UTF-8"?>
<!DOCTYPE svg PUBLIC "-//W3C//DTD SVG 1.1//EN" "http://www.w3.org/Graphics/SVG/1.1/DTD/svg11.dtd">
<!-- Creator: CorelDRAW -->
<svg xmlns="http://www.w3.org/2000/svg" xml:space="preserve" width="42.3332mm" height="42.3332mm" version="1.1" style="shape-rendering:geometricPrecision; text-rendering:geometricPrecision; image-rendering:optimizeQuality; fill-rule:evenodd; clip-rule:evenodd"
viewBox="0 0 4233.32 4233.32"
 xmlns:xlink="http://www.w3.org/1999/xlink"
 xmlns:xodm="http://www.corel.com/coreldraw/odm/2003">
 <defs>
  <style type="text/css">
   <![CDATA[
    .fil2 {fill:#264BE1}
    .fil3 {fill:#2964F1}
    .fil6 {fill:#2965F1}
    .fil0 {fill:#333333}
    .fil5 {fill:#EAEAEB}
    .fil4 {fill:#FEFEFE}
    .fil7 {fill:#F6F6F6;fill-rule:nonzero}
    .fil1 {fill:url(#id0)}
   ]]>
  </style>
  <linearGradient id="id0" gradientUnits="userSpaceOnUse" x1="309.8" y1="4098.18" x2="2116.66" y2="4098.18">
   <stop offset="0" style="stop-opacity:1; stop-color:#2A97F1"/>
   <stop offset="1" style="stop-opacity:1; stop-color:#264BE1"/>
  </linearGradient>
 </defs>
 <g id="Camada_x0020_1">
  <metadata id="CorelCorpID_0Corel-Layer"/>
  <rect class="fil0" x="309.81" y="3963.03" width="3613.7" height="270.29"/>
  <rect class="fil1" x="309.81" y="3963.03" width="1806.85" height="270.29"/>
  <path class="fil2" d="M2115.66 3667.64c10.27,0 419.61,-117.21 481.4,-132.92l336.4 -93.25c16.78,-4.88 31.77,-9.32 48.68,-13.55 32.99,-8.25 62.99,-18.25 95.98,-26.48 30.21,-7.54 21.82,-3.01 25.85,-34.38 5.19,-40.38 8.45,-96.27 13.17,-141.42l30.12 -337.28c3.14,-30.05 3.12,-56.35 7.49,-86.86 5,-34.84 4.69,-75.1 10.04,-112.42 1.17,-8.12 2.23,-20.8 2.73,-27.39 3.14,-41.46 10.65,-106.49 12.19,-142.4 1.43,-33.21 8.47,-75.96 10.04,-112.42 1.49,-34.63 7.84,-74.01 10.08,-114.39 2.04,-36.85 7.75,-71.2 10.04,-112.43 0.88,-15.93 3.47,-39.79 5.4,-54.83 4.62,-35.85 4.87,-72.31 10.04,-112.42l10.29 -114.18c2.14,-20.32 2.92,-37.72 4.48,-57.77l20.07 -224.85c2.84,-36.54 7.09,-74.41 10.04,-112.43 1.36,-17.46 4.42,-39.05 5.74,-56.49l30.09 -339.31c3.07,-39.41 14.21,-141.78 14.21,-172.51l-2407.14 0 19.51 225.42c4.49,34.62 5.03,73.49 10.04,112.43l10.28 114.19c3.97,37.98 6.24,76.08 10.04,112.43l30.3 339.1c14.09,185.89 35.79,378.98 50.17,564.16l32.34 367.18c0.43,7.73 1.27,18.51 2.25,27.86 1.77,16.79 4.7,39.34 5.66,56.58 2.19,39.61 8.11,77.61 10.04,112.43 2.59,46.81 10.23,96.59 12.12,140.46 0.35,8.26 1.34,20.2 2.55,29.57 1.93,14.98 4.96,40.78 5.46,56.77 1.25,39.96 9.63,95.8 12.11,140.47l5.26 54.97c2.74,9.71 3.39,6.83 20.79,11.34l937.98 260.56c6.64,1.87 19.46,6.46 25.67,6.46z"/>
  <path class="fil3" d="M2116.55 3221.95l0 236.4c17.23,-2.72 36.28,-9.38 52.79,-13.93l149.36 -41.38c163.81,-45.53 333.96,-90.87 496.67,-137.7l75.43 -20.96c4.67,-1.28 8.63,-2.13 12.65,-3.29l10.38 -5.08 186.57 -2098.6 -983.85 0c0,634.38 0,2068.74 0,2084.54z"/>
  <path class="fil4" d="M2115.83 1740.66l424.11 -0.33 -26.98 309.16 -397.13 -0.34 -700.4 0.07 26.79 300.34c14.34,4.01 643.05,1.44 673.04,1.2l371.38 0.03 -34.73 390.19 -336.24 91.01 0.23 0.26 -336.03 -89.98 -20.57 -240.82 -303.49 0.05 42.08 473.18 615.48 171 2.46 0.22 617.85 -171.05 137.06 -1535.68 -754.19 -0.02 -0.72 0 -754.7 0.01 27.15 299.8c12.31,4.97 320.57,1.65 361.99,1.65 121.67,0 243.97,-1.24 365.56,0.05z"/>
  <polygon class="fil5" points="2113.36,3145.68 2115.83,3145.9 2115.9,2832.25 1779.87,2742.27 1759.3,2501.45 1455.81,2501.5 1497.89,2974.68 "/>
  <path class="fil5" d="M2115.83 1740.66l0 -301.51 -754.7 0.01 27.15 299.8c12.31,4.97 320.57,1.65 361.99,1.65 121.67,0 243.97,-1.24 365.56,0.05z"/>
  <path class="fil5" d="M2115.26 2350.76l0.57 -301.61 -700.4 0.07 26.79 300.34c14.34,4.01 643.05,1.44 673.04,1.2z"/>
  <path class="fil6" d="M2115.67 2831.99l336.24 -91.01 34.74 -390.19 -371.39 -0.03c2.22,8.24 4.04,462 0.41,481.23z"/>
  <polygon class="fil6" points="2512.96,2049.48 2539.94,1740.33 2116.66,1740.33 2116.63,2049.48 "/>
  <path class="fil7" d="M1562.87 549.63c-78.39,0 -138.11,-21.8 -179.15,-65.4 -41.05,-43.6 -61.57,-105.52 -61.57,-185.75 0,-39.89 6.26,-75.49 18.78,-106.8 12.52,-31.31 29.68,-57.74 51.48,-79.31 21.8,-21.57 47.78,-37.92 77.92,-49.05 30.15,-11.13 62.85,-16.7 98.1,-16.7 20.41,0 38.96,1.51 55.66,4.53 16.7,3.01 31.31,6.49 43.83,10.43 12.52,3.94 22.96,8 31.31,12.18 8.34,4.17 14.37,7.42 18.08,9.74l-31.3 87.66c-14.84,-7.89 -32.12,-14.61 -51.83,-20.18 -19.72,-5.56 -42.09,-8.35 -67.14,-8.35 -16.7,0 -33.05,2.79 -49.05,8.35 -16,5.57 -30.15,14.5 -42.44,26.79 -12.29,12.29 -22.14,28.17 -29.57,47.65 -7.42,19.48 -11.13,43.14 -11.13,70.97 0,22.26 2.44,43.02 7.31,62.26 4.87,19.25 12.75,35.83 23.65,49.75 10.9,13.91 25.16,24.93 42.79,33.05 17.62,8.11 38.96,12.17 64.01,12.17 15.76,0 29.91,-0.93 42.43,-2.78 12.53,-1.86 23.66,-4.06 33.4,-6.61 9.74,-2.55 18.32,-5.45 25.74,-8.7 7.42,-3.24 14.15,-6.26 20.18,-9.04l29.91 86.96c-15.3,9.28 -36.87,17.63 -64.7,25.05 -27.83,7.42 -60.06,11.13 -96.7,11.13zm374.29 -92.53c15.3,0 27.94,-1.28 37.92,-3.83 9.97,-2.55 17.97,-6.03 24,-10.43 6.03,-4.41 10.2,-9.63 12.52,-15.66 2.32,-6.03 3.48,-12.75 3.48,-20.17 0,-15.77 -7.42,-28.87 -22.26,-39.31 -14.85,-10.44 -40.36,-21.68 -76.53,-33.74 -15.77,-5.57 -31.54,-11.95 -47.31,-19.14 -15.77,-7.18 -29.92,-16.23 -42.44,-27.13 -12.52,-10.9 -22.73,-24.12 -30.61,-39.65 -7.89,-15.54 -11.83,-34.44 -11.83,-56.71 0,-22.26 4.17,-42.32 12.52,-60.18 8.35,-17.85 20.18,-33.04 35.48,-45.57 15.31,-12.52 33.86,-22.14 55.66,-28.87 21.8,-6.72 46.38,-10.09 73.75,-10.09 32.47,0 60.53,3.48 84.18,10.44 23.66,6.96 43.14,14.61 58.44,22.96l-31.31 85.57c-13.45,-6.95 -28.4,-13.1 -44.87,-18.43 -16.47,-5.34 -36.29,-8 -59.48,-8 -25.98,0 -44.65,3.59 -56.01,10.78 -11.36,7.19 -17.04,18.2 -17.04,33.05 0,8.81 2.08,16.23 6.26,22.26 4.17,6.03 10.08,11.48 17.74,16.35 7.65,4.87 16.46,9.27 26.44,13.22 9.97,3.94 20.98,8 33.04,12.17 25.05,9.28 46.85,18.44 65.4,27.48 18.55,9.05 33.97,19.6 46.26,31.66 12.3,12.06 21.46,26.2 27.49,42.44 6.03,16.23 9.04,35.94 9.04,59.13 0,44.99 -15.77,79.9 -47.31,104.71 -31.54,24.81 -79.08,37.22 -142.62,37.22 -21.34,0 -40.58,-1.28 -57.75,-3.83 -17.16,-2.55 -32.35,-5.68 -45.57,-9.39 -13.21,-3.71 -24.58,-7.65 -34.09,-11.83 -9.5,-4.17 -17.5,-8.11 -24,-11.82l30.61 -86.27c14.38,7.88 32.12,14.96 53.23,21.22 21.1,6.26 46.96,9.39 77.57,9.39zm404.91 0c15.3,0 27.94,-1.28 37.92,-3.83 9.97,-2.55 17.97,-6.03 24,-10.43 6.03,-4.41 10.2,-9.63 12.52,-15.66 2.32,-6.03 3.48,-12.75 3.48,-20.17 0,-15.77 -7.42,-28.87 -22.26,-39.31 -14.85,-10.44 -40.36,-21.68 -76.53,-33.74 -15.77,-5.57 -31.54,-11.95 -47.31,-19.14 -15.77,-7.18 -29.92,-16.23 -42.44,-27.13 -12.52,-10.9 -22.73,-24.12 -30.61,-39.65 -7.89,-15.54 -11.83,-34.44 -11.83,-56.71 0,-22.26 4.17,-42.32 12.52,-60.18 8.35,-17.85 20.18,-33.04 35.48,-45.57 15.31,-12.52 33.86,-22.14 55.66,-28.87 21.8,-6.72 46.38,-10.09 73.75,-10.09 32.47,0 60.53,3.48 84.18,10.44 23.66,6.96 43.14,14.61 58.44,22.96l-31.31 85.57c-13.45,-6.95 -28.4,-13.1 -44.87,-18.43 -16.47,-5.34 -36.29,-8 -59.48,-8 -25.98,0 -44.65,3.59 -56.01,10.78 -11.36,7.19 -17.04,18.2 -17.04,33.05 0,8.81 2.08,16.23 6.26,22.26 4.17,6.03 10.08,11.48 17.74,16.35 7.65,4.87 16.46,9.27 26.44,13.22 9.97,3.94 20.98,8 33.04,12.17 25.05,9.28 46.85,18.44 65.4,27.48 18.55,9.05 33.97,19.6 46.26,31.66 12.3,12.06 21.46,26.2 27.49,42.44 6.03,16.23 9.04,35.94 9.04,59.13 0,44.99 -15.77,79.9 -47.31,104.71 -31.54,24.81 -79.08,37.22 -142.62,37.22 -21.34,0 -40.58,-1.28 -57.75,-3.83 -17.16,-2.55 -32.35,-5.68 -45.57,-9.39 -13.21,-3.71 -24.58,-7.65 -34.09,-11.83 -9.5,-4.17 -17.5,-8.11 -24,-11.82l30.61 -86.27c14.38,7.88 32.12,14.96 53.23,21.22 21.1,6.26 46.96,9.39 77.57,9.39zm376.38 93.23c-12.52,0 -25.74,-0.82 -39.65,-2.44 -13.92,-1.62 -27.37,-3.83 -40.35,-6.61 -12.99,-2.78 -24.82,-5.8 -35.49,-9.04 -10.66,-3.25 -19.01,-6.26 -25.04,-9.05l20.17 -86.27c12.06,5.11 27.49,10.56 46.27,16.35 18.78,5.8 42.09,8.7 69.92,8.7 32,0 55.43,-6.03 70.27,-18.09 14.84,-12.06 22.26,-28.29 22.26,-48.7 0,-12.52 -2.67,-23.07 -8,-31.66 -5.33,-8.58 -12.64,-15.53 -21.92,-20.87 -9.27,-5.33 -20.29,-9.04 -33.04,-11.13 -12.76,-2.09 -26.32,-3.13 -40.7,-3.13l-40.35 0 0 -83.49 45.91 0c10.21,0 20.06,-0.92 29.57,-2.78 9.51,-1.85 17.97,-4.98 25.4,-9.39 7.42,-4.41 13.33,-10.44 17.74,-18.09 4.4,-7.65 6.61,-17.28 6.61,-28.87 0,-8.81 -1.86,-16.47 -5.57,-22.96 -3.71,-6.49 -8.46,-11.83 -14.26,-16 -5.8,-4.18 -12.52,-7.31 -20.18,-9.39 -7.65,-2.09 -15.42,-3.13 -23.3,-3.13 -19.95,0 -38.38,3.01 -55.31,9.04 -16.93,6.03 -32.36,13.45 -46.27,22.26l-36.87 -75.83c7.42,-4.64 16.11,-9.51 26.09,-14.61 9.97,-5.1 20.98,-9.74 33.04,-13.92 12.06,-4.17 24.93,-7.65 38.62,-10.43 13.68,-2.78 28.17,-4.18 43.48,-4.18 28.29,0 52.76,3.37 73.4,10.09 20.64,6.73 37.68,16.24 51.13,28.41 13.45,12.29 23.42,26.67 29.92,43.14 6.49,16.46 9.74,34.32 9.74,53.8 0,19.01 -5.34,37.45 -16,55.31 -10.67,17.74 -25.05,31.31 -43.14,40.58 25.05,10.21 44.41,25.4 58.09,45.69 13.69,20.17 20.53,44.41 20.53,72.7 0,22.38 -3.71,42.9 -11.13,61.69 -7.42,18.78 -19.02,35.01 -34.79,48.7 -15.77,13.8 -35.83,24.46 -60.18,32.12 -24.35,7.65 -53.22,11.48 -86.62,11.48z"/>
 </g>
</svg>
