<?xml version="1.0" encoding="UTF-8"?>
<!DOCTYPE svg PUBLIC "-//W3C//DTD SVG 1.1//EN" "http://www.w3.org/Graphics/SVG/1.1/DTD/svg11.dtd">
<!-- Creator: CorelDRAW -->
<svg xmlns="http://www.w3.org/2000/svg" xml:space="preserve" width="42.3332mm" height="42.3332mm" version="1.1" style="shape-rendering:geometricPrecision; text-rendering:geometricPrecision; image-rendering:optimizeQuality; fill-rule:evenodd; clip-rule:evenodd"
viewBox="0 0 4233.32 4233.32"
 xmlns:xlink="http://www.w3.org/1999/xlink"
 xmlns:xodm="http://www.corel.com/coreldraw/odm/2003">
 <defs>
  <style type="text/css">
   <![CDATA[
    .fil7 {fill:#333333}
    .fil5 {fill:#E09380}
    .fil3 {fill:#F14500}
    .fil2 {fill:#F9A58E}
    .fil6 {fill:#FAA68E}
    .fil0 {fill:#FD6816}
    .fil4 {fill:#FD6A16}
    .fil1 {fill:#FFBDA9}
    .fil9 {fill:#F6F6F6;fill-rule:nonzero}
    .fil8 {fill:url(#id0)}
   ]]>
  </style>
  <linearGradient id="id0" gradientUnits="userSpaceOnUse" x1="308.44" y1="4098" x2="3419.27" y2="4098">
   <stop offset="0" style="stop-opacity:1; stop-color:#FF8D4F"/>
   <stop offset="1" style="stop-opacity:1; stop-color:#D14900"/>
  </linearGradient>
 </defs>
 <g id="Camada_x0020_1">
  <metadata id="CorelCorpID_0Corel-Layer"/>
  <g id="_1805759178240">
   <ellipse class="fil0" cx="2116.66" cy="2300.86" rx="1366.18" ry="1365.59"/>
   <path class="fil1" d="M2017.09 1363.43l-4.37 728.17 -79.87 -0.57c-5.79,-37.61 -1.81,-347.85 -1.81,-413.11 0,-88.95 15.69,-230.21 -24.26,-286.25 -18.43,-25.85 -26.56,-25.72 -54.74,-41.75 -37.28,2 -64.71,35.36 -78.44,65.29 -16.24,35.36 -14.92,90.48 -7.42,128.6 -11.59,170.01 -2.78,371.93 -2.77,547.51l-81.45 0.43c0,-121.94 0,-243.88 0,-365.82 0,-111.61 21.49,-246.66 -84.92,-272.56 -112.76,29.99 -83.1,198.87 -83.1,325.91l-10.06 810.81c-1.27,62.43 -10.21,140.53 11.34,195.73 10.05,25.76 25,45.8 39.93,61.44 28.36,29.71 43.24,30.51 57.19,43.78l-0.13 680.57c60.29,31.11 157.05,53.51 231.16,70.47 79.03,18.08 174.39,25.55 273.61,25.55l-1.34 -912.03c-104.7,-65.25 -288.55,-227.62 -329.37,-352.63 -51.23,-156.9 106.94,-281.01 241.7,-220.3 63.19,28.46 65.27,59.78 88.69,81.78 -1.73,-162.7 0.52,-330.95 0.52,-495.84 0,-81.8 0,-163.59 0,-245.38 0,-76.93 5.46,-176.62 -1.39,-250.79l-25.14 -5.42c-35.84,11.48 -77.67,49.21 -73.56,96.41z"/>
   <path class="fil2" d="M2116.66 2264.45c32.42,-38.07 35.32,-59.43 87.76,-82.47 44.47,-19.55 99.62,-19.93 145.32,-0.91 71.68,29.84 132.27,118.3 97.76,222.27 -25.5,76.83 -97.86,158.65 -141.16,200.28 -27.89,26.83 -152.28,137.93 -190.7,151.98l1.34 912.03c78.02,0 141.53,-2.84 210.21,-13.61l140.65 -30.11c14.67,-3.54 30.32,-5.5 43.41,-14.96l-0.04 -698.8c170.24,-2.49 187.69,-133.75 213.64,-240.2 28.98,-118.92 59.02,-240.6 88.07,-360.09 11.54,-47.45 42.28,-138.97 31.47,-185.93 -31.39,-136.34 -208.99,-140.87 -259.06,-30.92 -25.33,55.63 -31.43,166.42 -64.97,152.97 -22.02,-8.84 -10.44,-53.36 -9.44,-93.29 4.17,-167.72 0.29,-382.34 0.29,-554.78 0,-113.43 0.81,-102.5 -8.93,-208.98 -23.86,-20.29 -19.11,-34.64 -49.08,-52.95 -64.5,-39.39 -130.73,-24.2 -173.96,39.72 -8.99,13.3 -10.35,18.77 -14.69,34.69 -19.23,79.81 11.66,601.03 -6.47,680.83l-74.2 0c-9.41,-29.37 -3.96,-558.71 -3.82,-664.01 0.11,-78.91 -8.66,-123.51 -64.27,-154.77 6.85,74.17 1.39,173.86 1.39,250.79 0,81.79 0,163.58 0,245.38 0,164.89 -2.25,333.14 -0.52,495.84z"/>
   <path class="fil3" d="M2116.66 2264.45l-1.02 491.15c38.42,-14.05 162.81,-125.15 190.7,-151.98 43.3,-41.63 115.66,-123.45 141.16,-200.28 34.51,-103.97 -26.08,-192.43 -97.76,-222.27 -45.7,-19.02 -100.85,-18.64 -145.32,0.91 -52.44,23.04 -55.34,44.4 -87.76,82.47z"/>
   <path class="fil4" d="M2115.64 2755.6l1.02 -491.15c-23.42,-22 -25.5,-53.32 -88.69,-81.78 -134.76,-60.71 -292.93,63.4 -241.7,220.3 40.82,125.01 224.67,287.38 329.37,352.63z"/>
   <path class="fil5" d="M2090.65 1267.02l25.14 5.42c55.61,31.26 64.38,75.86 64.27,154.77 -0.14,105.3 -5.59,634.64 3.82,664.01l74.2 0c18.13,-79.8 -12.76,-601.02 6.47,-680.83 -18.93,-40.37 7.79,-79.78 -44.44,-123.97 -23.77,-20.11 -90.75,-49.62 -129.46,-19.4z"/>
   <path class="fil6" d="M2017.09 1363.43l-5.59 15.97c-0.77,4.85 -0.62,10.28 -0.63,15.23 -0.04,12.7 1.23,21.24 0.81,34.86 -14.81,-17.12 -20.56,-48.87 -59.36,-72.5 -22.33,-13.6 -80.99,-27.73 -100.28,-7.07 28.18,16.03 36.31,15.9 54.74,41.75 39.95,56.04 24.26,197.3 24.26,286.25 0,65.26 -3.98,375.5 1.81,413.11l79.87 0.57 4.37 -728.17z"/>
   <path class="fil6" d="M1597.04 1453.37c106.41,25.9 84.92,160.95 84.92,272.56 0,121.94 0,243.88 0,365.82l81.45 -0.43c-0.01,-175.58 -8.82,-377.5 2.77,-547.51 -26.14,-32.42 -17.97,-54.2 -59.82,-80 -31.78,-19.6 -75.72,-29.92 -109.32,-10.44z"/>
  </g>
  <rect class="fil7" x="309.81" y="3963.03" width="3613.7" height="270.29"/>
  <rect class="fil8" x="309.81" y="3963.03" width="3110.57" height="270.29"/>
  <path class="fil9" d="M806.54 566.95l0 -482.16 325.62 0 0 91.14 -217.08 0 0 94.63 192.72 0 0 89.05 -192.72 0 0 116.2 233.08 0 0 91.14 -341.62 0zm615.75 -194.12c0,-33.39 -4.29,-57.05 -12.87,-70.96 -8.58,-13.92 -23.31,-20.88 -44.18,-20.88 -6.5,0 -13.22,0.35 -20.18,1.05 -6.96,0.69 -13.68,1.5 -20.18,2.43l0 282.48 -103.67 0 0 -353.45c8.82,-2.32 19.14,-4.75 30.96,-7.3 11.83,-2.55 24.36,-4.87 37.58,-6.96 13.21,-2.09 26.78,-3.71 40.7,-4.87 13.91,-1.16 27.6,-1.74 41.05,-1.74 26.44,0 47.89,3.36 64.36,10.09 16.46,6.73 30.03,14.73 40.7,24 14.84,-10.66 31.89,-19.01 51.14,-25.04 19.24,-6.03 36.99,-9.05 53.22,-9.05 29.22,0 53.23,4.06 72.01,12.18 18.79,8.11 33.75,19.59 44.88,34.44 11.13,14.84 18.78,32.47 22.96,52.87 4.17,20.41 6.26,43.14 6.26,68.19l0 206.64 -103.67 0 0 -194.12c0,-33.39 -4.29,-57.05 -12.87,-70.96 -8.58,-13.92 -23.31,-20.88 -44.18,-20.88 -5.57,0 -13.34,1.39 -23.31,4.18 -9.97,2.78 -18.2,6.26 -24.7,10.43 3.25,10.67 5.34,21.92 6.26,33.75 0.93,11.83 1.4,24.47 1.4,37.92l0 199.68 -103.67 0 0 -194.12zm633.14 13.92c0,-32.01 -7.19,-57.63 -21.56,-76.88 -14.38,-19.25 -35.72,-28.88 -64.01,-28.88 -9.28,0 -17.86,0.35 -25.75,1.05 -7.88,0.69 -14.38,1.5 -19.48,2.43l0 187.16c6.5,4.18 14.96,7.65 25.4,10.44 10.43,2.78 20.99,4.17 31.65,4.17 49.17,0 73.75,-33.16 73.75,-99.49zm105.76 -2.78c0,28.29 -3.48,54.03 -10.44,77.22 -6.95,23.2 -17.16,43.14 -30.61,59.84 -13.45,16.7 -30.15,29.69 -50.09,38.96 -19.95,9.28 -42.91,13.92 -68.88,13.92 -14.38,0 -27.84,-1.39 -40.36,-4.18 -12.52,-2.78 -24.58,-6.72 -36.18,-11.82l0 137.76 -103.67 0 0 -482.17c9.28,-2.78 19.95,-5.45 32.01,-8 12.06,-2.55 24.7,-4.75 37.92,-6.61 13.22,-1.85 26.67,-3.36 40.35,-4.52 13.68,-1.16 26.79,-1.74 39.31,-1.74 30.15,0 57.05,4.52 80.71,13.57 23.66,9.04 43.6,21.8 59.84,38.27 16.23,16.46 28.64,36.52 37.22,60.18 8.58,23.65 12.87,50.09 12.87,79.32zm219.86 110.62c10.21,0 19.95,-0.23 29.22,-0.69 9.28,-0.47 16.7,-1.16 22.27,-2.09l0 -78.62c-4.18,-0.93 -10.44,-1.86 -18.79,-2.79 -8.35,-0.92 -16,-1.39 -22.96,-1.39 -9.74,0 -18.9,0.58 -27.48,1.74 -8.58,1.16 -16.12,3.36 -22.61,6.61 -6.5,3.25 -11.6,7.65 -15.31,13.22 -3.71,5.57 -5.57,12.52 -5.57,20.87 0,16.24 5.45,27.49 16.35,33.75 10.9,6.26 25.86,9.39 44.88,9.39zm-8.35 -303.35c30.62,0 56.13,3.48 76.54,10.44 20.4,6.95 36.75,16.93 49.05,29.91 12.29,12.99 20.99,28.76 26.09,47.32 5.1,18.55 7.65,39.19 7.65,61.92l0 215.68c-14.84,3.25 -35.48,7.08 -61.92,11.48 -26.44,4.41 -58.45,6.61 -96.02,6.61 -23.65,0 -45.11,-2.08 -64.35,-6.26 -19.25,-4.17 -35.84,-11.01 -49.75,-20.52 -13.92,-9.51 -24.58,-21.92 -32.01,-37.23 -7.42,-15.3 -11.13,-34.09 -11.13,-56.35 0,-21.34 4.29,-39.43 12.87,-54.27 8.58,-14.85 20.06,-26.67 34.44,-35.49 14.38,-8.81 30.85,-15.19 49.4,-19.13 18.56,-3.94 37.81,-5.91 57.75,-5.91 13.45,0 25.4,0.58 35.83,1.74 10.44,1.16 18.9,2.66 25.4,4.52l0 -9.74c0,-17.63 -5.34,-31.78 -16.01,-42.44 -10.66,-10.67 -29.22,-16.01 -55.66,-16.01 -17.62,0 -35.02,1.28 -52.18,3.83 -17.16,2.55 -32,6.15 -44.53,10.78l-13.22 -83.49c6.03,-1.85 13.57,-3.82 22.62,-5.91 9.04,-2.09 18.9,-3.94 29.57,-5.57 10.66,-1.62 21.91,-3.01 33.74,-4.17 11.83,-1.16 23.77,-1.74 35.83,-1.74zm249.78 -81.4l103.67 -16.7 0 107.84 124.54 0 0 86.27 -124.54 0 0 128.72c0,21.8 3.83,39.19 11.48,52.18 7.66,12.99 23.08,19.48 46.27,19.48 11.13,0 22.61,-1.04 34.44,-3.13 11.83,-2.08 22.61,-4.98 32.35,-8.69l14.61 80.7c-12.52,5.11 -26.43,9.51 -41.74,13.22 -15.31,3.71 -34.09,5.57 -56.36,5.57 -28.29,0 -51.72,-3.83 -70.27,-11.48 -18.55,-7.65 -33.4,-18.32 -44.53,-32.01 -11.13,-13.68 -18.9,-30.26 -23.31,-49.74 -4.4,-19.48 -6.61,-41.05 -6.61,-64.71l0 -307.52zm416.07 457.11l-103.67 0 0 -365.97 103.67 0 0 365.97zm9.74 -471.73c0,19.02 -6.14,33.98 -18.44,44.88 -12.29,10.9 -26.78,16.35 -43.48,16.35 -16.7,0 -31.19,-5.45 -43.49,-16.35 -12.29,-10.9 -18.43,-25.86 -18.43,-44.88 0,-19.01 6.14,-33.97 18.43,-44.87 12.3,-10.9 26.79,-16.35 43.49,-16.35 16.7,0 31.19,5.45 43.48,16.35 12.3,10.9 18.44,25.86 18.44,44.87zm227.51 399.37c10.21,0 19.95,-0.23 29.22,-0.69 9.28,-0.47 16.7,-1.16 22.27,-2.09l0 -78.62c-4.18,-0.93 -10.44,-1.86 -18.79,-2.79 -8.35,-0.92 -16,-1.39 -22.96,-1.39 -9.74,0 -18.9,0.58 -27.48,1.74 -8.58,1.16 -16.12,3.36 -22.61,6.61 -6.5,3.25 -11.6,7.65 -15.31,13.22 -3.71,5.57 -5.57,12.52 -5.57,20.87 0,16.24 5.45,27.49 16.35,33.75 10.9,6.26 25.86,9.39 44.88,9.39zm-8.35 -303.35c30.62,0 56.13,3.48 76.54,10.44 20.4,6.95 36.75,16.93 49.05,29.91 12.29,12.99 20.99,28.76 26.09,47.32 5.1,18.55 7.65,39.19 7.65,61.92l0 215.68c-14.84,3.25 -35.48,7.08 -61.92,11.48 -26.44,4.41 -58.45,6.61 -96.02,6.61 -23.65,0 -45.11,-2.08 -64.35,-6.26 -19.25,-4.17 -35.84,-11.01 -49.75,-20.52 -13.92,-9.51 -24.58,-21.92 -32.01,-37.23 -7.42,-15.3 -11.13,-34.09 -11.13,-56.35 0,-21.34 4.29,-39.43 12.87,-54.27 8.58,-14.85 20.06,-26.67 34.44,-35.49 14.38,-8.81 30.85,-15.19 49.4,-19.13 18.56,-3.94 37.81,-5.91 57.75,-5.91 13.45,0 25.4,0.58 35.83,1.74 10.44,1.16 18.9,2.66 25.4,4.52l0 -9.74c0,-17.63 -5.34,-31.78 -16.01,-42.44 -10.66,-10.67 -29.22,-16.01 -55.66,-16.01 -17.62,0 -35.02,1.28 -52.18,3.83 -17.16,2.55 -32,6.15 -44.53,10.78l-13.22 -83.49c6.03,-1.85 13.57,-3.82 22.62,-5.91 9.04,-2.09 18.9,-3.94 29.57,-5.57 10.66,-1.62 21.91,-3.01 33.74,-4.17 11.83,-1.16 23.77,-1.74 35.83,-1.74z"/>
 </g>
</svg>
