<?xml version="1.0" encoding="UTF-8"?>
<!DOCTYPE svg PUBLIC "-//W3C//DTD SVG 1.1//EN" "http://www.w3.org/Graphics/SVG/1.1/DTD/svg11.dtd">
<!-- Creator: CorelDRAW -->
<svg xmlns="http://www.w3.org/2000/svg" xml:space="preserve" width="17.6388mm" height="12.7776mm" version="1.1" style="shape-rendering:geometricPrecision; text-rendering:geometricPrecision; image-rendering:optimizeQuality; fill-rule:evenodd; clip-rule:evenodd"
viewBox="0 0 1763.88 1277.76"
 xmlns:xlink="http://www.w3.org/1999/xlink"
 xmlns:xodm="http://www.corel.com/coreldraw/odm/2003">
 <defs>
  <style type="text/css">
   <![CDATA[
    .fil4 {fill:none}
    .fil2 {fill:#3A88C3}
    .fil1 {fill:#DD2E44}
    .fil3 {fill:#DEEDF1}
    .fil0 {fill:#EEEEEE}
   ]]>
  </style>
   <clipPath id="id0">
    <path d="M188.49 31.4l1386.89 0c103.64,0 188.42,84.78 188.42,188.42l0 900.92c0,103.64 -84.78,188.42 -188.42,188.42l-1386.89 0c-103.64,0 -188.42,-84.78 -188.42,-188.42l0 -900.92c0,-103.64 84.78,-188.42 188.42,-188.42z"/>
   </clipPath>
 </defs>
 <g id="Camada_x0020_1">
  <metadata id="CorelCorpID_0Corel-Layer"/>
  <path class="fil0" d="M188.49 31.4l1386.89 0c103.64,0 188.42,84.78 188.42,188.42l0 900.92c0,103.64 -84.78,188.42 -188.42,188.42l-1386.89 0c-103.64,0 -188.42,-84.78 -188.42,-188.42l0 -900.92c0,-103.64 84.78,-188.42 188.42,-188.42z"/>
  <g style="clip-path:url(#id0)">
   <g id="_2546222385936">
    <polygon id="_1" class="fil1" points="-46.4,919.5 1810.28,919.51 1810.28,819.85 -46.4,819.85 "/>
    <polygon class="fil1" points="-46.4,1118.83 1810.28,1118.84 1810.28,1019.17 -46.4,1019.17 "/>
    <polygon class="fil1" points="-46.4,1318.15 1810.28,1318.16 1810.28,1218.5 -46.4,1218.5 "/>
    <polygon class="fil1" points="-46.4,720.14 1810.28,720.15 1810.28,620.49 -46.4,620.49 "/>
    <polygon class="fil1" points="-46.4,520.77 1810.28,520.78 1810.28,421.12 -46.4,421.12 "/>
    <polygon class="fil1" points="-46.4,321.41 1810.28,321.42 1810.28,221.76 -46.4,221.76 "/>
    <polygon class="fil1" points="-46.4,122.05 1810.28,122.06 1810.28,22.4 -46.4,22.4 "/>
    <rect class="fil2" x="0.07" y="31.4" width="884.14" height="688.74"/>
    <g>
     <path class="fil3" d="M82.59 549.12c16.07,13.72 35.38,29.06 55.09,39.96l-19.92 65.39c21.59,-9.04 35.46,-26.37 55.56,-36.77 19.12,10.43 35.3,28.63 55.86,36.79l-19.34 -65.84c17.01,-9.36 39.31,-26.92 54.07,-39.86l-69.35 -0.14c-3.31,-12.83 -13.74,-49.06 -21.24,-60.53l-8.05 16.16c-1.26,3.64 -2.64,9.21 -4.1,13.93 -3.37,10.92 -6.58,19.84 -9.29,30.37l-69.29 0.54z"/>
     <path class="fil3" d="M420.22 157.16l-68.39 0.34c15.98,16.2 35.88,26.01 53.5,42.58l-19.27 63.09c21.4,-9.77 37.05,-26.12 55.81,-36.71l56.53 37.76 -19.96 -63.96c11.76,-14.2 39.77,-27.53 53.92,-42.73l-69.1 -0.13c-4.49,-19.53 -10.93,-48.25 -21.39,-62.12l-21.65 61.88z"/>
     <path class="fil3" d="M351.49 549.28c15.47,16.84 39.49,26.48 54.23,42.8l-19.05 62.62c21.28,-8.96 34.92,-27.56 55.2,-37 20.39,9.83 34.22,28.08 56.39,36.38l-19.45 -62.06c13.22,-15.13 38.34,-28.32 53.99,-43.26l-69.31 -0.2c-4.68,-19.29 -11.58,-48.46 -22.8,-62.22l-19.84 62.23 -69.36 0.71z"/>
     <path class="fil3" d="M557.89 352.85l-69.09 0.38c13.28,14.2 44.23,30.28 53.52,42.82l-19.81 64.14c19.26,-8.36 37.58,-29.2 57.26,-37.95 17.99,10.91 35.19,27.58 54.69,37.19l-19.03 -63.25 54.21 -42.51 -69.41 -0.56 -19.68 -63.4c-8.29,12.02 -8.17,15.47 -12.51,29.32 -3.52,11.23 -7.45,21.93 -10.15,33.82z"/>
     <path class="fil3" d="M689.27 157.2l-68.62 0.33c16.72,15.32 37.92,27.28 53.63,42.55l-19.38 63.35c19.89,-8.81 38.11,-26.17 55.52,-36.96 13.92,5.04 39.83,28.43 56.8,38.02l-20.05 -64.16c13.42,-15.55 41.02,-27.56 54.03,-42.87l-68.99 -0.1c-2.3,-12.08 -14.27,-53.14 -22.55,-63.44l-20.39 63.28z"/>
     <path class="fil3" d="M620.4 549.49c16.17,16.42 40.26,26.3 54.6,42.69l-19.43 62.76c21.56,-11.26 35.54,-26.84 54.85,-37.19 16.95,7.08 38.84,28.47 57.05,38.02l-19.73 -63.75c14.33,-15.77 38.42,-27.41 53.96,-43.26l-68.71 -0.61 -22.7 -64.05 -20.5 64.45 -69.39 0.94z"/>
     <path class="fil3" d="M151.35 157.17l-68.37 0.31c14.21,15.66 36.14,26.86 53.4,42.6l-19.55 63.99c19.51,-10.64 38.76,-29.31 56.49,-37.62 19.25,9.71 33.45,26.2 55.2,36.97l-19.14 -63.13c17.97,-15.72 40.18,-27.55 54.16,-42.69l-69.22 -0.18 -19.73 -62.56 -23.24 62.31z"/>
     <path class="fil3" d="M278.56 353.17l-63.97 0.22c16.72,16.11 38.85,26.78 53.91,42.66l-19.33 63.45c17.58,-9.98 41.52,-31.09 59.44,-37.87 6.88,8.5 43.01,33.83 52.41,38.81l-19.5 -64.24c12.69,-15.33 41.4,-27.57 53.91,-43.03l-69 -0.24 -20.42 -64.63c-8.49,17.94 -11.46,53.72 -27.45,64.87z"/>
    </g>
   </g>
  </g>
  <path class="fil4" d="M188.49 31.4l1386.89 0c103.64,0 188.42,84.78 188.42,188.42l0 900.92c0,103.64 -84.78,188.42 -188.42,188.42l-1386.89 0c-103.64,0 -188.42,-84.78 -188.42,-188.42l0 -900.92c0,-103.64 84.78,-188.42 188.42,-188.42z"/>
 </g>
</svg>
