<?xml version="1.0" encoding="UTF-8"?>
<!DOCTYPE svg PUBLIC "-//W3C//DTD SVG 1.1//EN" "http://www.w3.org/Graphics/SVG/1.1/DTD/svg11.dtd">
<!-- Creator: CorelDRAW -->
<svg xmlns="http://www.w3.org/2000/svg" xml:space="preserve" width="42.3332mm" height="42.3332mm" version="1.1" style="shape-rendering:geometricPrecision; text-rendering:geometricPrecision; image-rendering:optimizeQuality; fill-rule:evenodd; clip-rule:evenodd"
viewBox="0 0 4233.32 4233.32"
 xmlns:xlink="http://www.w3.org/1999/xlink"
 xmlns:xodm="http://www.corel.com/coreldraw/odm/2003">
 <defs>
  <style type="text/css">
   <![CDATA[
    .fil0 {fill:#4683C3}
    .fil1 {fill:#05C0A1}
    .fil5 {fill:#19A19F}
    .fil4 {fill:#1AA0A0}
    .fil8 {fill:#333333}
    .fil3 {fill:#B1D5F1}
    .fil6 {fill:#C6C6E0}
    .fil2 {fill:#D5E6F6}
    .fil7 {fill:#DFDEF4}
    .fil10 {fill:#F6F6F6;fill-rule:nonzero}
    .fil9 {fill:url(#id0)}
   ]]>
  </style>
  <linearGradient id="id0" gradientUnits="userSpaceOnUse" x1="308.61" y1="4098" x2="3036.76" y2="4098">
   <stop offset="0" style="stop-opacity:1; stop-color:#00EED0"/>
   <stop offset="1" style="stop-opacity:1; stop-color:#009187"/>
  </linearGradient>
 </defs>
 <g id="Camada_x0020_1">
  <metadata id="CorelCorpID_0Corel-Layer"/>
  <g id="_1804597747760">
   <circle class="fil0" cx="2116.66" cy="2301.45" r="1366.18"/>
   <g>
    <path class="fil1" d="M1346.02 1822.49l175.81 -0.03 133.36 -0.23 351.2 0.45 101.32 0.39 119.58 1.37 -2.58 -0.13 352.77 -0.94 136.15 0.32 171.47 -0.63 -0.2 -165.57c-39.95,-22.01 -457.14,-7.54 -541.11,-7.39l-114.97 -1.33 -6.56 -0.06 -108.05 1.62 -106.93 0.53 -661.02 0.17 -0.24 171.46z"/>
    <path class="fil1" d="M1610.82 3083.91l408.84 1.43 605.52 0.33 0.31 -214.1 -517.78 -2.53 -101.89 0.69 -399.1 1.22c-5.57,46.09 -13.84,179.49 4.1,212.96z"/>
    <path class="fil1" d="M1441 2651.28c109.07,36.59 183.56,60.13 289.86,-1.86 52.66,-30.71 146.54,-119.77 135.02,-211.56l3.28 -43.53 -280.65 -2.14 -4.8 -169.28 -135.83 -0.23 -117.65 0.14 -68.21 0.47 -0.71 161.76c1.9,1.32 5.16,0.35 6.11,3.03 5.31,14.83 1.39,-5.44 34.02,14.07 12.59,186.72 124.35,224.81 139.56,249.13z"/>
    <path class="fil1" d="M2367.59 2479.12c58.89,117.13 137.17,230.49 320.92,205.25 78.72,-10.8 129.44,-50.55 171.34,-93.99 46.53,-48.25 63.86,-106.85 72.71,-194.14l-288.17 -1.71 -2.94 -171.55 -136.91 -0.93 -117.8 0.05 -68.33 1.18 -0.19 170.99 38.8 0.11 10.57 84.74z"/>
    <path class="fil2" d="M2005.82 2869.73l101.89 -0.69c13.73,-43.28 13.9,-999.67 0,-1045.97l-101.32 -0.39 -0.57 1047.05z"/>
    <path class="fil3" d="M2107.71 2869.04l517.78 2.53c-8.25,-4.06 0.07,-3.13 -22.42,-6.95 -56.17,-9.55 -314.6,9.49 -381.1,-6.73 0,-148.61 -18.24,-958.16 5.32,-1033.45l-119.58 -1.37c13.9,46.3 13.73,1002.69 0,1045.97z"/>
    <path class="fil4" d="M1865.88 2437.86l7.92 -20c20.16,-36.9 16.09,-11.87 42.71,-32.81l-0.08 -158.96 -68.56 -4.09 -122.35 0.18 -141.81 0.73 4.8 169.28 280.65 2.14 -3.28 43.53z"/>
    <polygon class="fil5" points="2932.56,2396.24 2969.48,2394.87 2972.01,2294.45 2970.72,2222.65 2903.49,2222.4 2783.13,2222.72 2641.45,2222.98 2644.39,2394.53 "/>
    <path class="fil6" d="M2636.97 1941.15c30.46,21.49 57.12,97.86 76.49,137.67 18.57,38.21 57.74,106.55 69.67,143.9l120.36 -0.32 -189.86 -398.71 -136.15 -0.32 -0.65 14.59 67.61 -2.49c0,38.06 0.37,81.82 -7.47,105.68z"/>
    <path class="fil6" d="M1583.15 1943.91c21.08,17.25 26.5,39.59 41.28,70.26 30.28,62.82 81.69,143.86 101.09,208.01l122.35 -0.18 -192.68 -399.77 -133.36 0.23 0 4.8 66.98 -0.36 -5.66 117.01z"/>
    <polygon class="fil7" points="1466.67,1935.7 1330.23,2222.82 1447.88,2222.68 1583.15,1943.91 1588.81,1826.9 1521.83,1827.26 "/>
    <path class="fil7" d="M2386.74 2222.1l117.8 -0.05 132.43 -280.9c7.84,-23.86 7.47,-67.62 7.47,-105.68l-67.61 2.49 -190.09 384.14z"/>
    <polygon class="fil3" points="2114.21,1650.33 2222.26,1648.71 2222.28,1517.23 2114.21,1517.97 "/>
    <polygon class="fil2" points="2007.28,1650.86 2114.21,1650.33 2114.21,1517.97 2007.23,1520.23 "/>
   </g>
  </g>
  <rect class="fil8" x="309.81" y="3963.03" width="3613.7" height="270.29"/>
  <rect class="fil9" x="309.81" y="3963.03" width="2727.92" height="270.29"/>
  <path class="fil10" d="M1361.14 652.51l0 -471.26 318.26 0 0 89.08 -212.17 0 0 92.49 188.37 0 0 87.04 -188.37 0 0 113.57 227.81 0 0 89.08 -333.9 0zm244.81 -595.03l-111.86 94.53 -46.58 -41.48 96.22 -110.17 62.22 57.12zm157.09 148.25l101.33 -16.32 0 105.4 121.72 0 0 84.33 -121.72 0 0 125.8c0,21.31 3.74,38.31 11.22,51.01 7.48,12.69 22.55,19.04 45.22,19.04 10.88,0 22.1,-1.02 33.66,-3.06 11.56,-2.04 22.1,-4.88 31.62,-8.5l14.28 78.88c-12.24,4.99 -25.84,9.29 -40.8,12.92 -14.96,3.63 -33.32,5.44 -55.08,5.44 -27.66,0 -50.55,-3.74 -68.68,-11.22 -18.14,-7.48 -32.65,-17.91 -43.53,-31.28 -10.88,-13.38 -18.47,-29.58 -22.78,-48.62 -4.3,-19.04 -6.46,-40.13 -6.46,-63.25l0 -300.57zm406.66 446.78l-101.33 0 0 -357.7 101.33 0 0 357.7zm9.52 -461.06c0,18.59 -6.01,33.21 -18.02,43.86 -12.02,10.66 -26.18,15.98 -42.51,15.98 -16.32,0 -30.48,-5.32 -42.5,-15.98 -12.01,-10.65 -18.02,-25.27 -18.02,-43.86 0,-18.59 6.01,-33.21 18.02,-43.86 12.02,-10.66 26.18,-15.98 42.5,-15.98 16.33,0 30.49,5.32 42.51,15.98 12.01,10.65 18.02,25.27 18.02,43.86zm68.68 282.21c0,-25.84 4.19,-50.21 12.58,-73.1 8.39,-22.9 20.52,-42.84 36.38,-59.84 15.87,-17 35.14,-30.49 57.81,-40.47 22.66,-9.97 48.5,-14.96 77.52,-14.96 19.04,0 36.49,1.7 52.36,5.1 15.87,3.4 31.28,8.28 46.24,14.62l-21.08 80.93c-9.52,-3.63 -19.94,-6.8 -31.28,-9.52 -11.33,-2.72 -24.03,-4.08 -38.08,-4.08 -29.92,0 -52.25,9.29 -66.98,27.88 -14.74,18.59 -22.1,43.07 -22.1,73.44 0,32.19 6.91,57.12 20.74,74.81 13.82,17.68 37.97,26.52 72.42,26.52 12.24,0 25.39,-1.14 39.44,-3.4 14.06,-2.27 26.98,-5.9 38.76,-10.88l14.28 82.96c-11.78,4.99 -26.52,9.29 -44.2,12.92 -17.68,3.63 -37.17,5.44 -58.48,5.44 -32.64,0 -60.75,-4.87 -84.32,-14.62 -23.58,-9.75 -42.96,-23.01 -58.15,-39.78 -15.18,-16.78 -26.29,-36.61 -33.32,-59.5 -7.03,-22.9 -10.54,-47.72 -10.54,-74.47zm476.7 108.13c9.97,0 19.49,-0.23 28.56,-0.68 9.07,-0.46 16.32,-1.14 21.76,-2.04l0 -76.85c-4.08,-0.9 -10.2,-1.81 -18.36,-2.72 -8.16,-0.9 -15.64,-1.36 -22.44,-1.36 -9.52,0 -18.48,0.57 -26.86,1.7 -8.39,1.14 -15.76,3.29 -22.1,6.46 -6.35,3.18 -11.34,7.48 -14.96,12.92 -3.63,5.44 -5.44,12.24 -5.44,20.41 0,15.86 5.32,26.86 15.98,32.98 10.65,6.12 25.27,9.18 43.86,9.18zm-8.16 -296.5c29.92,0 54.85,3.4 74.8,10.2 19.95,6.8 35.93,16.55 47.94,29.25 12.02,12.69 20.52,28.1 25.5,46.24 4.99,18.13 7.48,38.31 7.48,60.52l0 210.81c-14.5,3.17 -34.68,6.91 -60.52,11.22 -25.84,4.31 -57.12,6.46 -93.84,6.46 -23.12,0 -44.09,-2.04 -62.9,-6.12 -18.82,-4.08 -35.03,-10.77 -48.63,-20.06 -13.6,-9.29 -24.02,-21.42 -31.28,-36.38 -7.25,-14.96 -10.88,-33.32 -10.88,-55.08 0,-20.86 4.19,-38.54 12.58,-53.05 8.39,-14.5 19.61,-26.07 33.66,-34.68 14.06,-8.61 30.15,-14.85 48.29,-18.7 18.13,-3.85 36.94,-5.78 56.44,-5.78 13.14,0 24.82,0.57 35.02,1.7 10.2,1.13 18.47,2.61 24.82,4.42l0 -9.52c0,-17.23 -5.21,-31.05 -15.64,-41.48 -10.43,-10.43 -28.56,-15.64 -54.4,-15.64 -17.23,0 -34.23,1.24 -51,3.74 -16.78,2.49 -31.29,6 -43.53,10.54l-12.92 -81.61c5.9,-1.81 13.26,-3.74 22.1,-5.78 8.84,-2.04 18.48,-3.85 28.9,-5.44 10.43,-1.58 21.43,-2.94 32.99,-4.08 11.56,-1.13 23.23,-1.7 35.02,-1.7z"/>
 </g>
</svg>
