<?xml version="1.0" encoding="UTF-8"?>
<!DOCTYPE svg PUBLIC "-//W3C//DTD SVG 1.1//EN" "http://www.w3.org/Graphics/SVG/1.1/DTD/svg11.dtd">
<!-- Creator: CorelDRAW -->
<svg xmlns="http://www.w3.org/2000/svg" xml:space="preserve" width="42.3332mm" height="42.3332mm" version="1.1" style="shape-rendering:geometricPrecision; text-rendering:geometricPrecision; image-rendering:optimizeQuality; fill-rule:evenodd; clip-rule:evenodd"
viewBox="0 0 4233.32 4233.32"
 xmlns:xlink="http://www.w3.org/1999/xlink"
 xmlns:xodm="http://www.corel.com/coreldraw/odm/2003">
 <defs>
  <style type="text/css">
   <![CDATA[
    .fil4 {fill:#0ACF83}
    .fil2 {fill:#1ABCFE}
    .fil6 {fill:#333333}
    .fil3 {fill:#A259FF}
    .fil0 {fill:#F24E1E}
    .fil1 {fill:#FF7262}
    .fil5 {fill:#F6F6F6;fill-rule:nonzero}
    .fil7 {fill:url(#id0)}
   ]]>
  </style>
  <linearGradient id="id0" gradientUnits="userSpaceOnUse" x1="309.81" y1="4098.18" x2="1114.27" y2="4098.18">
   <stop offset="0" style="stop-opacity:1; stop-color:#A259FF"/>
   <stop offset="1" style="stop-opacity:1; stop-color:#5B0BC2"/>
  </linearGradient>
 </defs>
 <g id="Camada_x0020_1">
  <metadata id="CorelCorpID_0Corel-Layer"/>
  <g id="_1940415093488">
   <path class="fil0" d="M1687.09 1045.68l429.56 0 0 845.7 -429.56 0c-232.57,0 -422.85,-190.28 -422.85,-422.85l0 0c0,-232.57 190.28,-422.85 422.85,-422.85z"/>
   <path class="fil1" d="M2546.22 1045.68l-429.56 0 0 845.7 429.56 0c232.57,0 422.85,-190.28 422.85,-422.85l0 0c0,-232.57 -190.28,-422.85 -422.85,-422.85z"/>
   <rect class="fil2" x="2116.66" y="1891.38" width="852.41" height="845.7" rx="18.46" ry="422.85"/>
   <path class="fil3" d="M1687.09 1891.38l429.56 0 0 845.7 -429.56 0c-232.57,0 -422.85,-190.28 -422.85,-422.85l0 0c0,-232.57 190.28,-422.85 422.85,-422.85z"/>
   <path class="fil4" d="M1687.28 2733.01l429.56 0 0 422.85c0,232.57 -190.28,422.85 -422.85,422.85l-6.71 0c-232.57,0 -422.85,-190.28 -422.85,-422.85l0 0c0,-232.57 190.28,-422.85 422.85,-422.85z"/>
  </g>
  <path class="fil5" d="M1168.05 539.89l0 -482.13 322.81 0 0 91.14 -214.28 0 0 100.87 190.63 0 0 91.14 -190.63 0 0 198.98 -108.53 0zm496.04 0l-103.66 0 0 -365.95 103.66 0 0 365.95zm9.74 -471.7c0,19.02 -6.14,33.98 -18.43,44.88 -12.29,10.9 -26.79,16.35 -43.49,16.35 -16.69,0 -31.19,-5.45 -43.48,-16.35 -12.29,-10.9 -18.44,-25.86 -18.44,-44.88 0,-19.01 6.15,-33.97 18.44,-44.87 12.29,-10.9 26.79,-16.35 43.48,-16.35 16.7,0 31.2,5.45 43.49,16.35 12.29,10.9 18.43,25.86 18.43,44.87zm176.02 276.9c0,57.98 23.42,86.96 70.26,86.96 10.67,0 20.64,-1.39 29.92,-4.17 9.28,-2.78 17.16,-6.03 23.66,-9.74l0 -165.58c-5.11,-0.93 -11.14,-1.74 -18.09,-2.44 -6.96,-0.69 -15.08,-1.04 -24.35,-1.04 -27.37,0 -47.78,9.04 -61.23,27.13 -13.45,18.09 -20.17,41.05 -20.17,68.88zm227.5 148.88c0,59.83 -15.19,104.24 -45.57,133.23 -30.38,28.99 -77.34,43.49 -140.89,43.49 -22.26,0 -44.52,-1.98 -66.78,-5.92 -22.27,-3.94 -42.91,-9.16 -61.92,-15.65l18.08 -86.97c16.24,6.5 33.28,11.6 51.14,15.31 17.86,3.71 38.15,5.56 60.88,5.56 29.68,0 50.67,-6.49 62.96,-19.48 12.29,-12.98 18.44,-29.68 18.44,-50.09l0 -13.22c-11.14,5.11 -22.62,8.93 -34.44,11.48 -11.83,2.55 -24.7,3.83 -38.62,3.83 -50.55,0 -89.28,-14.96 -116.18,-44.87 -26.9,-29.92 -40.35,-71.78 -40.35,-125.58 0,-26.9 4.17,-51.37 12.52,-73.4 8.35,-22.03 20.52,-40.93 36.53,-56.7 16,-15.77 35.59,-27.95 58.78,-36.53 23.19,-8.58 49.4,-12.87 78.62,-12.87 12.52,0 25.39,0.58 38.61,1.74 13.22,1.16 26.32,2.67 39.31,4.52 12.99,1.86 25.39,4.06 37.22,6.61 11.83,2.55 22.38,5.22 31.66,8l0 307.51zm298.46 -148.19c0,-33.39 -4.29,-57.04 -12.87,-70.96 -8.58,-13.91 -23.3,-20.87 -44.18,-20.87 -6.49,0 -13.21,0.35 -20.17,1.04 -6.96,0.7 -13.68,1.51 -20.18,2.44l0 282.46 -103.66 0 0 -353.43c8.81,-2.31 19.13,-4.75 30.96,-7.3 11.83,-2.55 24.35,-4.87 37.57,-6.96 13.22,-2.09 26.78,-3.71 40.7,-4.87 13.91,-1.16 27.6,-1.74 41.05,-1.74 26.43,0 47.88,3.37 64.35,10.09 16.47,6.73 30.03,14.73 40.7,24 14.84,-10.66 31.89,-19.01 51.14,-25.04 19.24,-6.03 36.98,-9.05 53.22,-9.05 29.22,0 53.22,4.06 72,12.18 18.79,8.11 33.75,19.59 44.88,34.44 11.13,14.84 18.78,32.46 22.96,52.87 4.17,20.41 6.26,43.14 6.26,68.18l0 206.63 -103.66 0 0 -194.11c0,-33.39 -4.29,-57.04 -12.87,-70.96 -8.58,-13.91 -23.31,-20.87 -44.18,-20.87 -5.57,0 -13.34,1.39 -23.31,4.17 -9.97,2.79 -18.2,6.26 -24.7,10.44 3.25,10.67 5.34,21.91 6.26,33.74 0.93,11.83 1.4,24.47 1.4,37.92l0 199.67 -103.67 0 0 -194.11zm538.49 121.76c10.2,0 19.94,-0.24 29.22,-0.7 9.28,-0.46 16.7,-1.16 22.26,-2.09l0 -78.61c-4.17,-0.93 -10.43,-1.86 -18.78,-2.79 -8.35,-0.92 -16,-1.39 -22.96,-1.39 -9.74,0 -18.9,0.58 -27.48,1.74 -8.58,1.16 -16.12,3.36 -22.61,6.61 -6.5,3.25 -11.6,7.65 -15.31,13.22 -3.71,5.56 -5.56,12.52 -5.56,20.87 0,16.23 5.45,27.48 16.35,33.74 10.9,6.26 25.85,9.4 44.87,9.4zm-8.35 -303.34c30.61,0 56.12,3.48 76.53,10.44 20.41,6.95 36.76,16.93 49.05,29.91 12.29,12.99 20.99,28.76 26.09,47.31 5.1,18.55 7.65,39.19 7.65,61.92l0 215.67c-14.84,3.25 -35.48,7.08 -61.92,11.48 -26.44,4.41 -58.44,6.61 -96.01,6.61 -23.65,0 -45.1,-2.08 -64.35,-6.26 -19.25,-4.17 -35.83,-11.01 -49.75,-20.52 -13.91,-9.51 -24.58,-21.92 -32,-37.22 -7.42,-15.31 -11.13,-34.09 -11.13,-56.36 0,-21.33 4.29,-39.42 12.87,-54.26 8.58,-14.84 20.06,-26.67 34.44,-35.48 14.38,-8.82 30.84,-15.19 49.4,-19.14 18.55,-3.94 37.8,-5.91 57.74,-5.91 13.45,0 25.39,0.58 35.83,1.74 10.44,1.16 18.9,2.67 25.39,4.52l0 -9.74c0,-17.62 -5.33,-31.77 -16,-42.44 -10.67,-10.67 -29.22,-16 -55.66,-16 -17.62,0 -35.01,1.28 -52.17,3.83 -17.17,2.55 -32.01,6.14 -44.53,10.78l-13.22 -83.49c6.03,-1.85 13.57,-3.82 22.61,-5.91 9.05,-2.09 18.9,-3.94 29.57,-5.57 10.67,-1.62 21.91,-3.01 33.74,-4.17 11.83,-1.16 23.77,-1.74 35.83,-1.74z"/>
  <rect class="fil6" x="309.81" y="3963.03" width="3613.7" height="270.29"/>
  <rect class="fil7" x="309.81" y="3963.03" width="804.46" height="270.29"/>
 </g>
</svg>
