<?xml version="1.0" encoding="UTF-8"?>
<!DOCTYPE svg PUBLIC "-//W3C//DTD SVG 1.1//EN" "http://www.w3.org/Graphics/SVG/1.1/DTD/svg11.dtd">
<!-- Creator: CorelDRAW -->
<svg xmlns="http://www.w3.org/2000/svg" xml:space="preserve" width="42.3332mm" height="42.3332mm" version="1.1" style="shape-rendering:geometricPrecision; text-rendering:geometricPrecision; image-rendering:optimizeQuality; fill-rule:evenodd; clip-rule:evenodd"
viewBox="0 0 4233.32 4233.32"
 xmlns:xlink="http://www.w3.org/1999/xlink"
 xmlns:xodm="http://www.corel.com/coreldraw/odm/2003">
 <defs>
  <style type="text/css">
   <![CDATA[
    .fil5 {fill:#333333}
    .fil0 {fill:#E14B26}
    .fil4 {fill:#E34D26}
    .fil3 {fill:#EBEBEB}
    .fil1 {fill:#F06429}
    .fil2 {fill:#FEFEFE}
    .fil7 {fill:#F6F6F6;fill-rule:nonzero}
    .fil6 {fill:url(#id0)}
   ]]>
  </style>
  <linearGradient id="id0" gradientUnits="userSpaceOnUse" x1="309.8" y1="4098.18" x2="2116.66" y2="4098.18">
   <stop offset="0" style="stop-opacity:1; stop-color:#F08629"/>
   <stop offset="1" style="stop-opacity:1; stop-color:#E14B26"/>
  </linearGradient>
 </defs>
 <g id="Camada_x0020_1">
  <metadata id="CorelCorpID_0Corel-Layer"/>
  <g id="_1940409308672">
   <path class="fil0" d="M2115 3667.63c10.35,0 37.82,-9.92 48.5,-12.92 16.34,-4.6 32.54,-9.33 48.13,-13.29l480.85 -133.35c64.24,-18.9 128.71,-35.07 193.7,-53.64 64.78,-18.51 127.58,-35.11 192.32,-53.36 31.73,-8.95 21.89,-0.68 26.32,-35.1 4.44,-34.45 5.31,-78.55 10.2,-112.64 5.35,-37.25 4.8,-75.34 10.22,-112.62 5.43,-37.39 4.54,-75.53 9.95,-112.89 2.71,-18.67 2.98,-38.95 5.23,-56.19 1.13,-8.64 1.79,-19.72 2.13,-27.75 0.35,-8.19 1.92,-21.5 2.85,-28.69 4.42,-34.36 9.31,-104.23 12.19,-142.19 4.86,-64.14 14.61,-134.77 18.1,-197.7 2.1,-37.93 8.39,-75.51 10,-112.84 2.11,-49.06 12.87,-120.56 14.96,-169.3 1.63,-37.81 8.76,-74.79 9.95,-112.89 1.17,-37.16 7.91,-75.04 10.01,-112.83 1.02,-18.36 4,-36.92 4.96,-56.46 2.29,-46.47 9.46,-94.03 13.12,-141.26l4.98 -56.44c2.23,-28.71 3.41,-56.02 7.23,-85.73 4.86,-37.65 4.7,-74.29 10.2,-112.64 2.73,-19.02 2.25,-37.36 4.98,-56.44 2.73,-19.02 2.21,-37.37 4.98,-56.44 5.38,-36.98 5.75,-77.5 10.46,-114.04l7.15 -84.15c0.45,-8.11 2.2,-20.87 3.01,-28.53 2.01,-19.28 3.11,-38.55 4.98,-56.44 1.08,-10.41 1.24,-17.51 2.05,-27.83l20.25 -227.09c0.79,-6.11 2.86,-21.8 2.86,-28.68l-2410.32 0 10.01 112.83c2.86,51.49 10.77,114.66 15.02,169.24 1.42,18.27 3.48,37.15 4.98,56.44l7.91 83.39c1.12,10.78 1.05,18.58 2.18,29.36 1.9,18.05 2.97,37.14 4.99,56.44 3.52,33.77 6.2,82.18 10.15,112.68 2.27,17.47 2.54,37.43 4.98,56.44 4.85,37.64 4.66,74.32 10.21,112.63 5.41,37.36 4.59,75.48 9.95,112.89 2.73,18.97 2.49,37.23 5.24,56.18 5.43,37.39 4.6,75.53 9.96,112.88l17.35 196.79c0.45,8.11 2.21,20.86 3.02,28.52l9.95 112.89c1.08,10.41 1.24,17.51 2.05,27.83l13.02 141.35c1.48,19 4.2,38.57 5.08,56.35 0.96,19.54 3.94,38.1 4.96,56.46 2.15,38.74 9.06,76.41 10.01,114.49 0.94,37.52 8.35,75.2 9.97,112.87 0.78,18.14 4.18,37.81 4.98,56.44 0.79,18.36 3.96,37.33 5.02,56.4 1.01,18.28 3.93,37.48 4.98,56.44 3,54.13 10.69,113.54 15.02,169.24l10.09 112.74c2.8,26.69 3.87,55.99 7.75,83.56 1.5,10.61 3.82,8.08 19.54,12 16.72,4.17 31.47,8.58 48.09,13.33l530.45 146.83c32.11,9.44 64.62,17.23 96.29,26.55l96.07 26.77c32.14,8.42 64.29,17.59 96.29,26.55 16.05,4.49 31.94,9.02 48.15,13.27 12.36,3.24 37.69,13.29 49.79,13.29z"/>
   <path class="fil1" d="M2115.31 3222.09l0 236.4c17.23,-2.72 36.28,-9.38 52.79,-13.93l149.36 -41.38c163.81,-45.53 333.96,-90.87 496.67,-137.7l75.43 -20.96c4.67,-1.28 8.63,-2.13 12.65,-3.29l10.38 -5.08 186.57 -2098.6 -983.85 0c0,634.38 0,2068.74 0,2084.54z"/>
   <path class="fil2" d="M2114.99 3155.33c3.98,0.27 3.48,1.51 3.48,-1.43l614.81 -170.44 83.86 -925.91 -700.6 0c-2.3,0.04 -385.31,2.49 -395.84,-1.2 -0.28,-0.1 -0.81,-0.32 -1.16,-0.56l-27.77 -307 426.05 0.24c120.27,-2.41 243.1,-0.08 363.66,-0.08l341.96 0c3.63,0.01 8.35,0.32 11.78,0.21 8.37,-0.28 6.5,1.28 9.22,-3.35l27.55 -296.75c-2.01,-1.28 -0.44,-0.8 -3.95,-1.51l-371.62 -0.37c-125.53,0 -253.53,2.46 -378.74,-0.1l-756.34 0.24 81.89 910.11c11.76,2.94 467.98,0.92 503.73,0.92 53.7,0 116.01,-2.92 168.63,0.21l372.03 0.46 -34.42 392.02 -331.95 89.17 -3.48 0.24 -330.82 -87.96c-6.16,-2.37 -2.57,-0.1 -5.45,-3.44 -4.55,-6.71 -17.89,-209.82 -22.4,-239.33l-301.84 0c-0.95,27.32 41.3,469.76 42.86,473.27l614.87 172.34z"/>
   <path class="fil3" d="M2113.71 3154.96c3.98,0.27 3.48,1.51 3.48,-1.43 -1.25,-1.92 -0.76,-0.51 -1.55,-3.96l-0.38 -306.88c9.81,-0.03 0.57,0.56 4.71,-2.85l-3.49 0.24 -330.81 -87.96c-6.16,-2.37 -2.57,-0.1 -5.44,-3.44 -4.56,-6.71 -17.9,-209.82 -22.41,-239.33l-301.84 0c-0.95,27.32 41.31,469.76 42.86,473.27l614.87 172.34z"/>
   <path class="fil4" d="M1718.26 2047.04c23.12,0 385.71,2.16 398.29,-1.22l0 -305.54 -426.06 -0.24 27.77 307z"/>
   <path class="fil3" d="M2114.3 2358.57c3.04,-14.26 0.96,-57.52 0.96,-74.92 0,-24.9 0,-49.8 0,-74.7 0,-50.46 0,-100.93 0,-151.39 -2.3,0.04 -385.3,2.49 -395.84,-1.2 -0.28,-0.1 -0.81,-0.32 -1.16,-0.56l-27.77 -307c426.05,0.24 0,0 424.77,-1.24l0 -300.47c-744.21,0.24 0,0 -755.2,0.24l81.89 910.11c11.76,2.94 467.98,0.92 503.73,0.92 53.7,0 116.01,-2.91 168.62,0.21z"/>
  </g>
  <rect class="fil5" x="309.81" y="3963.03" width="3613.7" height="270.29"/>
  <rect class="fil6" x="309.81" y="3963.03" width="1806.85" height="270.29"/>
  <path class="fil7" d="M1284.93 57.76l108.53 0 0 482.13 -108.53 0 0 -204.54 -182.28 0 0 204.54 -108.53 0 0 -482.13 108.53 0 0 184.36 182.28 0 0 -184.36zm577.45 0l0 92.53 -145.41 0 0 389.6 -108.53 0 0 -389.6 -145.41 0 0 -92.53 399.35 0zm190.62 0c8.35,15.3 17.97,34.2 28.99,56.7 10.9,22.49 22.26,46.84 34.09,73.05 11.94,26.2 23.65,52.99 35.25,80.35 11.71,27.37 22.61,53.11 32.81,77.23 10.21,-24.12 21.22,-49.86 32.82,-77.23 11.59,-27.36 23.3,-54.15 35.25,-80.35 11.83,-26.21 23.19,-50.56 34.09,-73.05 11.01,-22.5 20.64,-41.4 28.99,-56.7l98.79 0c4.64,32 8.93,67.83 12.87,107.48 3.94,39.66 7.42,80.94 10.44,123.84 3.01,42.91 5.79,85.92 8.34,129.06 2.56,43.13 4.76,83.72 6.61,121.75l-105.75 0c-1.39,-46.85 -3.24,-97.86 -5.56,-153.06 -2.32,-55.19 -5.8,-110.85 -10.44,-166.97 -8.35,19.48 -17.62,41.05 -27.94,64.7 -10.21,23.66 -20.29,47.31 -30.38,70.96 -9.97,23.66 -19.6,46.27 -28.87,67.84 -9.4,21.56 -17.28,40 -23.77,55.31l-75.84 0c-6.49,-15.31 -14.38,-33.75 -23.77,-55.31 -9.28,-21.57 -18.9,-44.18 -28.87,-67.84 -10.09,-23.65 -20.18,-47.3 -30.38,-70.96 -10.2,-23.65 -19.6,-45.22 -27.95,-64.7 -4.63,56.12 -8.11,111.78 -10.43,166.97 -2.32,55.2 -4.18,106.21 -5.57,153.06l-105.75 0c1.86,-38.03 4.06,-78.62 6.61,-121.75 2.55,-43.14 5.34,-86.15 8.35,-129.06 3.02,-42.9 6.49,-84.18 10.44,-123.84 3.94,-39.65 8.23,-75.48 12.87,-107.48l103.66 0zm818.17 388.9l0 93.23 -322.12 0 0 -482.13 108.53 0 0 388.9 213.59 0zm264.37 -48.7c0,-13.45 -3.02,-25.39 -9.05,-35.83 -6.02,-10.43 -16.46,-19.13 -31.3,-26.09 -14.84,-6.95 -34.79,-12.29 -59.83,-16 -25.05,-3.71 -56.59,-5.56 -94.62,-5.56 5.1,-43.14 9.27,-86.97 12.52,-131.49 3.25,-44.53 5.8,-86.27 7.65,-125.23l260.9 0 0 86.96 -173.93 0c-0.93,16.7 -1.97,32.82 -3.13,48.35 -1.16,15.54 -2.44,29.11 -3.83,40.7 67.72,4.64 117.69,20.53 149.93,47.66 32.23,27.13 48.35,64.82 48.35,113.05 0,22.27 -3.94,42.91 -11.83,61.92 -7.88,19.02 -19.71,35.49 -35.48,49.4 -15.77,13.91 -35.6,24.81 -59.48,32.7 -23.89,7.88 -51.83,11.83 -83.84,11.83 -12.52,0 -25.62,-0.82 -39.3,-2.44 -13.69,-1.62 -26.91,-3.71 -39.66,-6.26 -12.75,-2.55 -24.23,-5.22 -34.44,-8 -10.2,-2.78 -18.09,-5.57 -23.65,-8.35l18.78 -85.57c11.6,5.1 26.9,10.08 45.92,14.95 19.02,4.87 41.74,7.31 68.18,7.31 32,0 55.19,-6.38 69.57,-19.13 14.38,-12.76 21.57,-27.72 21.57,-44.88z"/>
 </g>
</svg>
