<?xml version="1.0" encoding="UTF-8"?>
<!DOCTYPE svg PUBLIC "-//W3C//DTD SVG 1.1//EN" "http://www.w3.org/Graphics/SVG/1.1/DTD/svg11.dtd">
<!-- Creator: CorelDRAW -->
<svg xmlns="http://www.w3.org/2000/svg" xml:space="preserve" width="35.2776mm" height="14.1674mm" version="1.1" style="shape-rendering:geometricPrecision; text-rendering:geometricPrecision; image-rendering:optimizeQuality; fill-rule:evenodd; clip-rule:evenodd"
viewBox="0 0 3527.76 1416.74"
 xmlns:xlink="http://www.w3.org/1999/xlink"
 xmlns:xodm="http://www.corel.com/coreldraw/odm/2003">
 <defs>
  <style type="text/css">
   <![CDATA[
    .fil0 {fill:#66FCF1;fill-rule:nonzero}
   ]]>
  </style>
 </defs>
 <g id="Camada_x0020_1">
  <metadata id="CorelCorpID_0Corel-Layer"/>
  <g id="_1908561711792">
   <polygon class="fil0" points="3514.99,774.52 3095.04,955.96 2656.76,1143.5 2567.05,1182.24 2516.09,1202.63 2098.19,1382.01 2098.19,1159.81 2575.21,953.92 2997.19,774.52 2575.21,595.13 2304.08,476.89 2304.08,786.75 2098.19,872.37 2098.19,389.24 2098.19,256.73 2098.19,167.04 2516.09,346.43 2567.05,366.82 2656.76,405.55 3095.04,593.09 "/>
   <polygon class="fil0" points="1792.41,1.91 1894.33,1.91 1692.51,1418.71 1590.59,1418.71 "/>
   <polygon class="fil0" points="2602.79,454.23 2703.26,437.06 2604.58,1057.84 2504.1,1075 "/>
   <polygon class="fil0" points="986.11,353.83 1404.01,174.44 1404.01,264.14 1404.01,396.64 1404.01,879.78 1198.12,794.16 1198.12,484.29 924.95,602.54 505,781.92 924.95,961.32 935.14,965.7 935.14,1189.64 847.49,1150.91 407.16,963.36 -12.79,779.89 407.16,600.49 847.49,412.95 935.14,374.22 "/>
  </g>
 </g>
</svg>
