<?xml version="1.0" encoding="UTF-8"?>
<!DOCTYPE svg PUBLIC "-//W3C//DTD SVG 1.1//EN" "http://www.w3.org/Graphics/SVG/1.1/DTD/svg11.dtd">
<!-- Creator: CorelDRAW -->
<svg xmlns="http://www.w3.org/2000/svg" xml:space="preserve" width="297mm" height="210mm" version="1.1" style="shape-rendering:geometricPrecision; text-rendering:geometricPrecision; image-rendering:optimizeQuality; fill-rule:evenodd; clip-rule:evenodd"
viewBox="0 0 29700 21000"
 xmlns:xlink="http://www.w3.org/1999/xlink"
 xmlns:xodm="http://www.corel.com/coreldraw/odm/2003">
 <defs>
  <style type="text/css">
   <![CDATA[
    .fil1 {fill:#1CB78C}
    .fil3 {fill:#292929}
    .fil0 {fill:#333333}
    .fil8 {fill:#35363D}
    .fil2 {fill:#F7F7F7}
    .fil6 {fill:#F7F7F7}
    .fil5 {fill:#FEFEFE;fill-rule:nonzero}
    .fil7 {fill:#D4D4D4;fill-rule:nonzero}
    .fil4 {fill:#F7F7F7;fill-rule:nonzero}
   ]]>
  </style>
 </defs>
 <g id="Camada_x0020_1">
  <metadata id="CorelCorpID_0Corel-Layer"/>
  <polygon class="fil0" points="-1820.42,7.13 31519.36,7.13 31519.36,21007.13 -1820.42,21007.13 "/>
  <path class="fil1" d="M-967.63 19003.09l999.39 0c136.57,0 248.32,111.74 248.32,248.32l0 999.39c0,136.58 -111.75,248.32 -248.32,248.32l-999.39 0c-136.57,0 -248.32,-111.74 -248.32,-248.32l0 -999.39c0,-136.58 111.75,-248.32 248.32,-248.32z"/>
  <g id="_2399558293264">
   <path class="fil2" d="M26092.61 19692.48c2.14,-2.14 7.62,3.18 2.24,1.04 -0.04,-0.02 -5.6,2.32 -2.24,-1.04zm6.03 -10.04l0.6 0.59c-0.04,-0.03 -0.8,-0.39 -0.6,-0.59zm-54.22 0l-2.31 -3.92 2.31 3.92zm301.24 -6.03zm-238.99 0l238.99 0zm-238.99 0c2.14,-2.13 7.62,3.19 2.24,1.04 -0.05,-0.01 -5.6,2.32 -2.24,-1.04zm238.99 0zm-297.23 -2.01l297.23 2.01zm-297.23 -2.01c0.5,-22.22 29.63,-22.22 30.13,0 -5.15,-1.2 -25.86,-4.81 -30.13,0zm279.15 -6.02c0.95,-0.95 11.39,1.09 3.62,1.08 0,0 -0.28,-0.04 -0.31,-0.05 -1.78,-0.46 -6.69,2.36 -3.31,-1.03zm-14.05 0zm8.03 -2.01l-8.03 2.01zm8.03 -2.01c2.13,-2.14 7.62,3.19 2.24,1.04 -0.05,-0.02 -5.6,2.32 -2.24,-1.04zm-6.03 0l-2 2.01 2 -2.01zm0 0zm-196.81 -2.01l196.81 2.01zm-196.81 -2.01l0.6 0.6c-0.04,-0.04 -0.8,-0.4 -0.6,-0.6zm178.74 -4.02c0.95,-0.94 11.38,1.1 3.62,1.08 0,0 -0.29,-0.03 -0.31,-0.04 -1.78,-0.46 -6.7,2.35 -3.31,-1.04zm-172.71 0c2.13,-2.13 7.61,3.19 2.23,1.05 -0.04,-0.02 -5.6,2.32 -2.23,-1.05zm166.69 -2c2.13,-2.14 7.61,3.18 2.23,1.04 -0.04,-0.02 -5.6,2.32 -2.23,-1.04zm-12.05 0zm4.01 -2.01l-4.01 2.01zm4.01 -2.01c2.14,-2.14 7.62,3.19 2.24,1.04 -0.05,-0.02 -5.6,2.32 -2.24,-1.04zm-4.01 2.01zm-18.08 -8.04l18.08 8.04zm-18.08 -8.04c2.14,-2.13 7.62,3.19 2.24,1.05 -0.05,-0.02 -5.6,2.32 -2.24,-1.05zm-18.07 0zm10.04 -2.01l-10.04 2.01zm10.04 -2.01c2.13,-2.13 7.62,3.19 2.23,1.05 -0.04,-0.02 -5.6,2.32 -2.23,-1.05zm-8.04 0l-2 2.01 2 -2.01zm142.59 -2zm-142.59 2l142.59 -2zm-142.59 2c2.7,-2.03 -4.22,-2 6.03,-2 -2.46,1.85 2.26,1.3 -6.03,2zm-104.43 -4.01l0.6 0.6c-0.04,-0.04 -0.8,-0.4 -0.6,-0.6zm90.38 -2.01l0.6 0.6c-0.04,-0.04 -0.8,-0.4 -0.6,-0.6zm-8.04 -2.01c2.14,-2.13 7.62,3.19 2.24,1.05 -0.05,-0.02 -5.6,2.31 -2.24,-1.05zm164.68 6.03c-10.42,-5.01 -18.88,-7.41 -30.12,-2.01 0,-13.83 0.33,-7.56 6.02,-16.07 18,0 24.1,-0.5 24.1,18.08zm-172.71 -8.04c0.95,-0.94 11.38,1.1 3.62,1.08 0,0 -0.29,-0.04 -0.31,-0.04 -1.78,-0.46 -6.7,2.35 -3.31,-1.04zm-6.02 -2.01c2.13,-2.13 7.61,3.19 2.23,1.05 -0.04,-0.02 -5.6,2.32 -2.23,-1.05zm-16.07 -4.01l0.6 0.6c-0.04,-0.04 -0.8,-0.4 -0.6,-0.6zm-46.19 -22.09c-4.06,-3.39 -2.1,-1.59 -1.06,-6.94 0.11,-0.57 0.78,-2.28 1,-2.87 0.16,-0.46 0.42,-0.99 0.62,-1.45 3.65,-8.75 4.72,-10.61 15.45,-11.06 20.23,-0.84 23.85,4.73 24.15,18.3 -13.78,-3.21 -16.49,-6.02 -34.14,-6.02 -3.9,5.83 -4.06,2.69 -6.02,10.04zm36.15 -26.11zm0 0zm0 0c-14.58,-0.33 -15.29,-3.92 -32.14,0 0,-13.12 5.44,-19.25 16.07,-19.25 10.63,0 16.07,6.13 16.07,19.25zm-135.01 377.56c-8.05,-9.19 -20.47,-12.12 -23.67,-24.1 -5.17,-6.91 0.16,-12.13 6.05,-16.07 -1.45,-6.23 -2.57,-5.82 -4.02,-12.05 18.19,-27.16 -1,1.84 12.25,-25.9 3.98,-8.33 1.81,-55.33 1.81,-67.01 -5.2,-5.61 -4.76,-6.94 -10.91,-12.64 -5.85,-5.42 -9.4,-7.8 -11.2,-14.95l0.02 -8.03c9.47,-6.34 12.99,-8.48 19.93,-18.22 6.65,-9.31 0.91,0.23 5.45,-14.64 3.5,-11.46 5.34,-33.84 0.73,-43.45 -1.62,-2.54 -1.03,0.35 -1.48,-4.29 -0.36,-3.66 -0.12,-1.97 0.17,-4.76 0.46,-4.42 1.31,-6.73 1.31,-13.04 9.72,-2.6 1.32,-3.33 13.96,-4.12 5.95,-0.37 13.97,0.1 20.18,0.1 3.26,6.18 5.06,11.89 8.03,18.07 -5.12,3.43 -6.27,3.45 -8.03,10.04 22.18,-11.73 -1.73,-8.56 22.09,-8.03 -1.28,-6.02 -2.7,-9.03 1.46,-12.58 5.5,-4.69 10.09,-3 16.61,-1.48 -0.16,-0.45 -0.64,-1.53 -0.72,-1.23 -1.05,3.99 -5.73,-24.67 14.78,-14.83 1.39,-3.56 -2.85,-3.05 3.61,-12.32 6.27,-8.99 5.24,-6.52 14.46,-5.76l-1.93 -2.34c-2.49,-3.86 -6.12,-1.82 -0.07,-3.68 0,-10.9 1.65,-26.52 -2.01,-34.14 7.49,-0.63 12.45,-8.24 31.08,-0.91 7.04,2.77 6.58,2.78 6.11,10.22 -0.55,8.69 -3.67,9.88 6.99,10.77l-8.03 2.01c4.27,5.83 -0.28,3.78 10.04,4.01l0 20.09c8.82,0.19 6.25,1.36 14.06,2.01l0 -14.06c11.48,-2.68 10.27,1.02 22.09,2.01l0 18.07c3.96,1.9 9.27,2.9 14.06,4.02l0 -14.06c12.35,-2.88 8.16,-0.77 20.08,2.01l0 18.07c7.8,0.65 5.23,1.81 14.06,2.01l0 -14.06c11.75,0 14.93,1.88 24.1,4.02 -3.05,6.36 -2.01,9.15 -2.01,18.07 8.82,0.2 6.25,1.36 14.06,2.01 0,-25.86 -3.68,-14.02 20.08,-12.05l0 18.08c4.73,1.1 5.93,1.87 12.05,2.01l0 -14.06c12.23,-1.02 6.02,-5.22 6.02,-30.13 0.29,-0.13 0.82,-0.49 0.92,-0.2l2.01 -0.44c0.24,-0.06 0.87,-0.18 1.14,-0.24 2.38,-0.55 3.17,-0.93 7.13,-1.91 16.17,-3.98 29.54,5.6 30.98,22.88 -9.49,-6.36 -18.29,-10.6 -30.82,-6.77 -7.18,2.19 -5.28,-0.96 -7.34,6.77 8.34,-0.7 17.07,-6.09 26.02,-2.07 9.84,4.43 5.82,3.85 5.97,28.29 0.06,9.16 6.24,25.78 8.7,29.48 0.94,1.43 5.43,5.48 7.03,7.03 4.85,4.69 9.85,9.49 10.52,17.6l1.95 2.01 0 2 2.06 2.01 0.56 8.97c-4.92,2.06 -5.18,3.06 -10.59,5.58l0 1.52c-2.48,5.77 -6.07,8.59 -10.05,12.07 0,32.95 -5.7,38.71 3.98,68.3 0.73,2.22 1.22,4.83 1.56,6.47l12.56 35.66c7.7,23.62 -15.86,20.69 -24.11,36.15 2.52,5.49 2.53,2.55 -0.01,8.04 -1.36,7.07 -5.56,10.89 -10.04,14.06 -12.76,24.06 -10.04,48.67 -10.04,84.34l0 289.2c0.31,-0.36 0.74,-1.45 0.86,-1.15l12.35 -29.83c4.54,-11.77 7.24,-20.69 11.74,-32.43l288.05 -780.37c4.27,-11.44 7.26,-20.94 11.75,-32.42 12.83,-32.78 24.68,-54.71 64.82,-69.75 21.96,-8.23 54.28,-5.98 84.38,-5.98l0 -64.27 -518.14 0c-36.18,0 -50.93,-3.49 -75.02,11.33 -17.99,11.07 -26.27,25.78 -32.09,44.23l-3.34 8.71c0,-21.71 -16.05,-40.83 -32.1,-52.25 -20.41,-14.52 -40.48,-12.02 -74.34,-12.02l-518.14 0 0 64.27c30.41,0 60.06,-1.92 82.63,5.73 49.31,16.7 60.64,56.92 76.28,100.45 7.9,21.99 15.78,43.77 24.15,66.23l83.27 226c4.15,11.97 8.87,22.46 12.57,33.62l35.65 96.9c4.14,11.6 8.13,20.47 12.06,32.12 4.04,11.97 7.48,20.67 11.94,32.24 28.45,73.7 55.79,154.55 84.34,228.95l23.69 64.68c2.03,6.02 20.93,59.89 25.37,65.01l0 -283.17c0,-15.81 1.82,-33.39 -3.42,-44.81 -6.04,-13.16 -4.12,-4.92 -3.04,-18.17 1,-12.19 -3.65,-9.17 -11.62,-7.31 0.55,-6.54 1.63,-5.54 1.56,-12.05z"/>
   <path class="fil2" d="M26014.29 20437.55l407.68 0c-2.17,1.51 -0.26,0.4 -3.84,2.18 -1.63,0.82 -2.62,1.27 -4.12,1.91l-31.33 10.84c-99.36,28.84 -179.32,34.11 -281.89,13.05 -14.72,-3.03 -30.18,-7.49 -44.08,-12.16 -6.71,-2.26 -13.35,-4.46 -21.09,-7.02l-20.06 -8.06c-0.27,-0.15 -0.87,-0.46 -1.27,-0.74zm-104.43 -58.24l618.55 0 -31.26 20.96c-7.33,4.38 -26.39,17.2 -35.01,17.2l-488.01 0c-8.52,0 -26.24,-12.37 -33.51,-16.7 -8.83,-5.26 -25.98,-14.32 -30.76,-21.46zm178.74 -313.29c-5.2,0.64 -0.62,-6.79 -0.07,-2.49l0.07 2.49zm14.06 -6.03zm0 0zm0 0l-8.04 0c1.67,-4.62 0.09,-1.64 3.3,-4.73 1.91,-1.85 3.3,-2.34 4.74,-3.3l0 8.03zm2 -6.02c2.14,-2.14 7.62,3.19 2.24,1.04 -0.04,-0.02 -5.6,2.32 -2.24,-1.04zm8.04 -2.01zm0 0zm0 0zm-2.01 -4.02l2.01 4.02zm-2.01 -4.02l-3.92 2.31 3.92 -2.31zm2.01 -2l-2.01 2 2.01 -2zm204.84 -6.03c8.24,2.2 7.06,1.46 4.02,8.03 -6.59,-4.83 -2.8,1.46 -4.02,-8.03zm-204.84 6.03l12.05 -8.04c-1.55,14.12 -2.29,-1.95 -6.03,12.05 -4.9,-5.41 0.49,-1.66 -6.02,-4.01zm178.74 -10.05c22.69,0 17.92,3.36 18.07,10.05 -16.58,-11.11 -10.69,8.36 -28.12,0 0.62,-7.39 0.65,-7.42 8.04,-8.04 -0.79,7.2 -3.4,4.1 -2.01,8.04 5.31,-1.41 1.65,0.16 6.02,-2.01l-2 -8.04zm0 0c-10.24,0 -3.19,1.65 -14.04,-0.57 -6.98,-1.43 -4.99,-2.98 -10.06,4.59 3.08,4.44 0.32,2.5 6.02,4.02 0.24,-0.69 -1.91,-3.89 0,-8.04 10.35,6.94 3.68,11.53 -3.19,9.71 -10.95,-2.9 1.49,-9.71 -18.9,-9.71l0 -8.03 38.77 7.42c0.32,0.12 0.97,0.34 1.4,0.61zm-56.24 -8.03l6.03 0 0 6.03 -6.03 0 0 -6.03zm-594.45 -84.35c0,44.53 6.02,90.79 15.25,127.34 14.48,57.33 17.1,59.71 36.68,107.92 17.46,42.96 65.58,116.54 100.2,150.84 3.33,3.3 5.99,5.6 9.02,9.05 11.99,13.64 0.21,3.17 16.99,17.15 27.11,22.58 25.37,26.87 68.88,57.64 162.18,114.65 379.66,137.23 564.36,54.26 40.55,-18.21 98.05,-51.4 132.96,-81.92 39.72,-34.73 54.8,-48.74 88.2,-90.55 5.39,-6.75 10.45,-13.5 15.39,-20.76l27.64 -42.64c44.61,-74.11 79.2,-178.5 79.2,-280.29l0 -536.22c-45.88,1.02 -38.16,47.73 -38.16,78.33l-52.22 0c-1.92,8.25 -5.36,12.17 -6.02,20.08l58.24 0 0 38.16 -74.31 0c-0.66,7.91 -4.1,11.83 -6.02,20.08l80.33 0 0 38.16 -90.37 0c-7.51,0 -9.87,12.3 -10.05,20.08l100.42 0 0 36.15 -110.46 0c-7.31,0 -10.55,13.64 -12.05,20.08l122.51 0 0 38.16 -132.55 0c-8.02,0 -8.83,13.38 -12.05,20.08l144.6 0 0 38.16 -154.64 0c-6.92,0 -9.49,13.5 -10.04,20.08l164.68 0 0 38.16 -180.75 0 -6.31 19.99 187.06 0.09 0 36.15 -196.81 0c-6.92,0 -9.5,13.5 -10.05,20.09l206.86 0c0,44.4 4.06,38.42 -22.08,38.17l-200.84 -0.02 -6.32 19.99 227.23 0.1c0,13.78 -3,25.99 -4.02,38.15l-238.98 0c-0.82,9.8 -4.15,12.02 -6.03,20.09l241 0c0,9.94 -4.86,31.53 -8.04,38.15l-247.02 0c-2.25,4.7 -5.49,13.73 -6.02,20.09l249.03 0 -12.38 36.04 -250.71 0.11c-2.54,4.8 -6.69,14.31 -8.03,20.08l251.03 0c-6.51,12.3 -11.53,25.8 -18.07,38.16l-247.02 0c-2.25,4.7 -5.5,13.72 -6.02,20.08l240.99 0c-3.43,12.86 -19.04,26.74 -22.09,38.16l-234.97 0c-1.92,8.25 -5.37,12.17 -6.03,20.08l224.93 0c-9.06,13.53 -19.33,23.03 -28.11,36.15l-210.87 0c-2.96,6.15 -5.09,13.93 -8.04,20.08l196.82 0c-5.9,8.81 -37.61,38.16 -44.19,38.16l-218.9 0 0 -329.36 -54.74 -9.52c-19.05,-3.72 -37.79,-6.39 -55.72,-10.56l0 349.44 -90.37 0 0 -311.29c0,-8.99 -1.6,-5.75 -1.06,-13.31 0.33,-4.64 1.06,-8.76 1.06,-14.8 -6.34,1.69 -9.02,4.76 -13.76,8.33 -7.4,5.58 -40.46,24.09 -40.46,31.83l0 299.24 -194.81 0c-6.25,0 -40.16,-32.16 -44.18,-38.16l216.9 0c-3.62,-6.82 -4.84,-13.41 -8.04,-20.08l-230.95 0c-4.56,-8.61 -19.88,-23.85 -28.12,-36.15l245.01 0 -6.31 -19.99 -254.76 -0.09 -22.1 -38.16 261.08 0c-0.53,-6.36 -3.77,-15.38 -6.02,-20.08l-267.1 0c-3,-12.86 -15.03,-25.63 -16.07,-38.16l269.11 0c-3.2,-6.67 -4.42,-13.26 -8.03,-20.08l-271.12 0c-1,-12.01 -8.93,-22.79 -10.04,-36.15l267.1 0c-0.53,-6.36 -3.77,-15.39 -6.03,-20.09l-267.1 0c-2.34,-4.88 -7.87,-30.79 -8.03,-38.15l261.08 0c-3.22,-6.7 -4.04,-20.09 -12.05,-20.09l-253.05 0c0,-11.45 -3.77,-27.08 -4.02,-38.15l247.02 0c-1.92,-8.26 -5.36,-12.18 -6.02,-20.09l-241 0 0 -38.15 224.93 0c-0.81,-9.8 -4.14,-12.02 -6.02,-20.09l-218.91 0 0 -36.15 204.85 0c-1.92,-8.25 -5.37,-12.17 -6.02,-20.08l-198.83 0 0 -38.16 182.76 0c-0.82,-9.79 -4.15,-12.02 -6.03,-20.08l-176.73 0 0 -38.16 162.68 0c-5.93,-12.35 -4.08,-20.08 -12.05,-20.08l-150.63 0 0 -38.16 140.58 0c-1.33,-5.75 -4.7,-20.08 -12.04,-20.08l-128.54 0 0 -36.15 118.49 0c-0.15,-6.95 -2.31,-20.08 -10.04,-20.08l-108.45 0 0 -38.16 98.41 0c-1.88,-8.07 -5.21,-10.29 -6.02,-20.08l-92.39 0 0 -38.16 76.32 0c-0.66,-7.91 -4.1,-11.83 -6.03,-20.08l-70.29 0c0,-27.96 5.54,-78.33 -40.16,-78.33l0 528.18z"/>
   <path class="fil2" d="M27536.58 20180.49c0,-77.73 126.13,-64.05 178.36,-49.83 9.83,2.67 20.46,4.89 20.46,11.67l0 104.43 -112.47 0c-48.75,0 -86.35,-17.35 -86.35,-66.27zm-68.29 -287.18c0,0.05 33.65,80.33 46.19,80.33 18.55,0 33.39,-32.14 138.58,-32.14 26.82,0 52.08,8.66 65.38,22.99 16.42,17.71 16.96,40.14 16.96,73.41 -36.1,-17.32 -89.78,-16.06 -132.55,-16.06 -47.55,0 -95.97,20.16 -123.71,40.97 -15.18,11.38 -28.36,27.38 -38.34,43.99 -26.47,44.04 -24.42,109.16 -1.33,154.73 29.27,57.72 104.88,83.64 167.4,83.64l172.71 0c47.41,0 72.3,-34.95 72.3,-84.35l0 -243c0,-130.44 -85.17,-178.74 -206.86,-178.74 -54.63,0 -98.1,10.32 -143.45,29.26 -10.72,4.48 -33.28,12.28 -33.28,24.97z"/>
   <path class="fil2" d="M30165.43 20180.49c0,-52.37 53.43,-60.25 96.4,-60.25 22.67,0 102.42,6.87 102.42,22.09l0 104.43 -112.47 0c-45.93,0 -86.35,-17.27 -86.35,-66.27zm-66.28 -291.2c0,16.12 9.6,30.57 18.74,47.54 31.6,58.68 13.94,35.34 81.42,14.45 38.38,-11.88 119.64,-19.61 149.41,13.79 16.32,18.3 15.53,39.44 15.53,72.83 -31.52,-16.68 -89.01,-16.06 -128.53,-16.06 -91.07,0 -184.76,57.81 -184.76,154.63 0,55.49 12.11,93.28 54.82,127.93 28.38,23.03 77.15,40.77 127.93,40.77l178.74 0c39.25,0 68.28,-33.92 68.28,-74.31l0 -267.1c0,-110.38 -88.8,-164.68 -196.81,-164.68 -52.7,0 -106.19,8.08 -150.59,28.15 -7.27,3.28 -34.18,14.01 -34.18,22.06z"/>
   <path class="fil2" d="M29890.29 20064.01l-104.43 0 0 -116.48 108.45 0c17.06,0 38.05,6.77 47.67,14.59 10.93,8.88 20.07,25.52 17.85,44.77 -2.28,19.82 -5.28,35.03 -18.38,44.01 -11.63,7.96 -32.24,13.11 -51.16,13.11zm-216.89 -166.69l0 437.81c0,4.68 5.36,10.04 10.04,10.04l88.36 0c9.61,0 14.06,-6.8 14.06,-16.07l0 -162.67 52.22 0c6.01,0 3.33,1.08 6.1,3.94 0.03,0.03 4.17,5.66 4.26,5.78 28.66,39.7 65.37,84.4 95.79,125.13 5.46,7.31 30.97,43.89 38.44,43.89 24.37,0 91.08,2.51 110.46,-2.01 4.04,-16.86 2.51,-11.95 -12.34,-31.84 -6.07,-8.12 -11.53,-14.66 -17.51,-22.66 -11.73,-15.68 -22.93,-29.92 -34.69,-45.64 -11.32,-15.12 -22.83,-28.99 -34.16,-44.16 -6.06,-8.13 -11.52,-14.67 -17.5,-22.66 -4.41,-5.88 -14.59,-17.23 -16.35,-23.82 13.66,-1.14 35.76,-13.97 45.36,-20.92 13.48,-9.75 23.71,-19.49 33.56,-32.71 70.24,-94.32 35.97,-253.64 -141.17,-253.64l-166.69 0c-33.72,0 -58.24,18.69 -58.24,52.21z"/>
   <path class="fil2" d="M28829.91 20108.19c0,-48.42 0.67,-87.21 31.5,-125.15 35.93,-44.22 100.82,-52.82 148.63,-28.87 28.11,14.08 47.34,39.42 58.33,68.2 19.66,51.54 15.36,136.94 -22.38,185.42 -19.83,25.48 -53.71,40.98 -95.58,40.98 -72.52,0 -120.5,-67.28 -120.5,-140.58zm-116.48 -24.1c0,79.14 13.77,137.1 64.74,194.34 11.63,13.06 13.03,16.04 29.61,28.62 12.4,9.41 22.31,16.03 36.25,24 61.75,35.32 157.18,29.61 218.19,1.42 38.5,-17.79 73.14,-49.36 95.46,-85.29 8.1,-13.04 13.9,-25 20.26,-39.99 27.31,-64.36 25.64,-162.33 -0.85,-227.27 -16.38,-40.19 -45.8,-76.32 -80.62,-102.13 -10.87,-8.06 -26.24,-17.63 -39.32,-22.94 -7.37,-2.99 -12.36,-5.48 -21.6,-8.52 -74.51,-24.54 -158.62,-15.13 -220.86,29.74 -65.89,47.52 -101.26,125.02 -101.26,208.02z"/>
   <path class="fil2" d="M29217.51 19865.19l0 295.22c0,133.03 81.88,192.79 208.87,192.79 75.47,0 153.06,-27.07 188.13,-97.04 9.45,-18.87 18.72,-50.22 18.72,-77.68l0 -323.33c0,-4.68 -5.36,-10.04 -10.04,-10.04 -122.44,0 -106.44,-10.33 -106.44,48.2l0 190.78c0,82.64 11.91,162.67 -90.37,162.67 -106.65,0 -90.38,-89.03 -90.38,-162.67l0 -190.78c0,-58.3 11.38,-48.2 -102.42,-48.2 -11.97,0 -16.07,8.1 -16.07,20.08z"/>
   <path class="fil2" d="M28313.78 19973.64c0,43.6 17.83,83.67 48.79,109.87 66.39,56.2 189.6,65.31 217.82,99.49 14.82,17.95 7.08,43.39 -9.57,53.7 -48.44,29.96 -135.76,14.81 -181.56,-17.21 -28.79,-20.11 -24.87,-35.62 -49.91,-9.42 -6.93,7.25 -47.66,50.75 -47.66,56.78 0,18.61 36.51,43.02 52.3,52.14 67.92,39.22 182.42,49.66 258.17,19.34 27.65,-11.06 42.95,-22.4 62.58,-41.86 41.23,-40.85 44.45,-108.13 23.21,-158.77 -30.33,-72.3 -133.49,-88.66 -200.7,-112.6 -25.67,-9.14 -54.98,-20.64 -54.98,-51.46 0,-51.86 98.84,-40.81 135.74,-25.29 13.41,5.64 26.3,14.03 37.24,23.02 21.69,17.83 25.75,3.31 50.42,-23.36 28.68,-31.01 45.01,-27.7 6.09,-65.29 -27.67,-26.72 -84.99,-47.65 -139.11,-47.65 -60.3,0 -107.45,0.62 -156.1,36.69 -31.71,23.5 -52.77,61.11 -52.77,101.88z"/>
   <path class="fil2" d="M30528.93 19969.62c0,23.68 0.84,43.29 11.34,64.97 21.12,43.59 54.35,67.14 99.37,85.4 43.08,17.46 50.18,17.66 91.39,31.11 29.48,9.62 71.03,21.69 71.03,55.5 0,48.58 -83.03,49.28 -126.27,41.92 -29.78,-5.07 -66.29,-19.99 -87.12,-41.41 -21.61,-22.22 -24.17,-6.85 -44.21,13.02l-24.72 27.48c-9.05,11.68 -20.71,16.26 -9.58,31.93 16.76,23.59 65.9,51.2 95.81,60.89 89.01,28.82 232.09,23.9 290.11,-65.92 11.38,-17.62 17.37,-40.1 18.44,-63.44l0 -15.54c-1.49,-32.45 -12.13,-64.87 -30.71,-86.75 -61.33,-72.29 -236.39,-72.99 -236.39,-127.11l0 -14.06c0,-27.26 43.34,-32.13 70.29,-32.13 35.29,0 78.01,13.02 101.89,36.68 19.03,18.86 31.45,-4.57 65.3,-38.18 18.45,-18.32 20.81,-27.79 -12.81,-54.47 -13.71,-10.88 -20.6,-14.64 -37.22,-23.04 -42.08,-21.27 -87.56,-21.4 -135.24,-21.4 -80.7,0 -170.7,46.77 -170.7,134.55z"/>
   <path class="fil2" d="M27900.08 19963.6c0,43.83 3.35,76.13 36.6,109.99 28.99,29.52 78.09,49.76 119.28,63.48 39.91,13.28 117.24,28.57 117.24,67.52 0,58.68 -111.44,54.79 -167,32.45 -21.89,-8.81 -30.27,-16.03 -47.04,-29.27 -8,-6.32 -14.92,-23.17 -35.29,2.55 -43.22,54.56 -72.48,51.14 -15.78,94.71 97.35,74.8 308.51,69.38 360.22,-33.45 27.07,-53.83 23.03,-114.82 -13.9,-162.26 -16.92,-21.74 -47.9,-37.71 -75.74,-48.77 -37.23,-14.8 -135.93,-37.6 -154.2,-62.7 -20.42,-28.07 -6.34,-62.37 60.37,-62.37 34.1,0 68.73,8.87 93.56,26.94 31.89,23.19 20.57,28.4 61.58,-12.38 6.58,-6.54 29.62,-30.58 29.62,-36.65 0,-10.17 -19.81,-27.36 -26.58,-33.67 -29.91,-27.84 -90.93,-44.65 -136.09,-44.65 -56.01,0 -106.42,0.84 -152.67,34.1 -6.29,4.53 -13.84,10.84 -19.58,16.57 -18.76,18.76 -34.6,49.02 -34.6,77.86z"/>
   <path class="fil2" d="M26986.3 19855.15c0,13.77 6.35,22.86 10.8,35.4 4.27,12.02 8.06,21.56 12.72,33.47l100.69 262.8c8.18,21.97 43.24,117.27 51.67,131.09 29.56,48.42 99.6,46.72 127.83,1.6 6.32,-10.11 148.85,-391.49 161.48,-428.95 18.86,-55.95 27.09,-45.45 -97.67,-45.45 -17.49,0 -18.37,22.05 -23.32,36.93l-99.51 310.18c-2.01,7.34 -0.26,6.38 -5.7,10.36 -0.37,-16.62 -51.6,-155.79 -61.01,-184 -5.41,-16.25 -10.36,-29.03 -15.56,-44.69l-31.59 -90.92c-17.52,-46.73 6.36,-37.86 -120.78,-37.86 -4.69,0 -10.05,5.36 -10.05,10.04z"/>
   <path class="fil2" d="M25640.75 19282.79l512.11 0c26.17,0 47.05,16.58 64.27,28.11 11.55,-3.08 30.63,-28.11 70.29,-28.11l508.1 0 0 -40.17 -500.07 0c-22.84,0 -40.85,4.56 -60.01,12.29l-16.3 9.8c-18.44,-12.34 -47.45,-22.09 -78.33,-22.09l-500.06 0 0 40.17z"/>
   <path class="fil2" d="M27235.33 19505.71c0,23.12 8.03,14.5 8.03,24.1l0 186.77c0,8.86 -8.03,2.62 -8.03,22.09 0,19.11 23.34,20.24 35.43,11.33 13.19,-9.7 10.76,-29.67 10.76,-51.5 0,-40.83 0,-81.67 0,-122.5 7.97,5.33 94.54,120.65 107.3,137.71 18.58,24.85 26.29,41.02 47.34,41.02 10.1,0 18.08,-8.73 18.08,-18.07 0,-9.23 -6.36,-10.64 -9.01,-17.1 -3.26,-7.98 -1.04,-180.66 -1.04,-193.77 17.75,-4.74 10.58,-34.14 -12.05,-34.14 -33.83,0 -26.1,56.73 -26.1,76.31 0,34.14 0,68.28 0,102.43 -8.13,-5.45 -65.41,-83.18 -72.3,-92.39 -11.85,-15.83 -23.4,-30.45 -35.57,-46.77 -3.54,-4.73 -5.49,-6.94 -8.89,-11.19 -10.48,-13.1 -16.98,-28.39 -35.87,-28.39 -7.84,0 -18.08,7.66 -18.08,14.06z"/>
   <path class="fil2" d="M28659.21 19718.58c-27.74,0 -46.19,4.18 -46.19,-6.02l0 -182.75 60.25 0c42.76,0 76.31,43.15 76.31,86.35 0,31.91 -2.82,56.16 -25.57,78.86 -18.72,18.68 -33.44,23.56 -64.8,23.56zm-92.38 -208.86c0,15.79 8.03,11.96 8.03,20.09l0 188.77c0,7.36 -8.03,6.01 -8.03,18.08 0,27.76 47.96,20.08 84.35,20.08 20.95,0 40.83,-1.6 57.04,-7.22 46.82,-16.21 79.52,-68.55 79.52,-115.28 0,-43.89 -5.32,-72.54 -32.57,-104 -7.17,-8.28 -6.43,-7.85 -15.14,-14.98 -4.83,-3.94 -12.18,-9.34 -17.99,-12.14 -35.76,-17.22 -90.35,-11.47 -137.14,-11.47 -9.92,0 -18.07,8.15 -18.07,18.07z"/>
   <path class="fil2" d="M29135.18 19718.58l-46.2 0 0 -188.77 56.24 0c95.82,0 105,152.41 29.91,182.54 -10.59,4.24 -25.33,6.23 -39.95,6.23zm-94.39 -210.87c0,14.8 10.04,14.8 10.04,22.1l0 186.77c0,4.32 -21.62,22.88 -1.32,35.46 12.01,7.44 57.88,4.7 75.62,4.7 50.12,0 74.28,-9.03 99.94,-34.62 76.12,-75.93 31.53,-230.47 -73.83,-230.47 -23.52,0 -93.23,-4.08 -103.64,4.81 -1.93,1.65 -6.81,9.34 -6.81,11.25z"/>
   <path class="fil2" d="M29725.61 19718.58l-46.19 0 0 -188.77 60.25 0c73.23,0 99.9,109.99 52.72,163.17 -15.6,17.59 -34.39,25.6 -66.78,25.6zm-84.35 -188.77l0 186.77c0,7.12 -14.09,11.62 -7.48,27.37 7.9,18.82 51.57,12.79 81.79,12.79 20.84,0 42.93,-1.87 58.83,-7.45 19.31,-6.78 28.13,-14.3 41.09,-27.19 12.31,-12.24 19.25,-23.22 26.6,-39.67 36.61,-81.83 -13.58,-190.78 -100.41,-190.78l-90.37 0c-9.34,0 -16.9,7.03 -18.65,15.41 -3.19,15.31 8.6,14.82 8.6,22.75z"/>
   <path class="fil2" d="M28171.2 19608.13l-74.31 0 0 -78.32 70.29 0c29.01,0 49.07,37.03 28.51,64.65 -4.06,5.46 -15.78,13.67 -24.49,13.67zm-120.5 -98.41c0,15.79 8.03,11.96 8.03,20.09l0 188.77c0,10.65 -8.03,0.55 -8.03,20.09 0,5.99 1.94,9.6 5.54,12.53 16.35,13.26 40.65,-0.46 40.65,-24.58l0 -80.33c70.27,0 53.15,-9.17 77.7,34.76 7.46,13.33 14.88,24.76 22.05,38.2 7.8,14.64 23.3,46.95 48.81,33.52 11.08,-5.83 16.57,-19.1 6.51,-30.6 -5.25,-6 -7.68,-3.6 -12.58,-7.51l-44.09 -74.4c32.16,-7.49 75.02,-74.77 24.63,-125.03 -13.4,-13.37 -28.78,-23.58 -54.75,-23.58l-96.4 0c-9.92,0 -18.07,8.15 -18.07,18.07z"/>
   <path class="fil2" d="M29892.3 19529.81l0 186.77c0,0.97 -28.38,40.16 20.08,40.16l138.58 0c41.72,0 32.55,-38.16 12.05,-38.16l-132.55 0 0 -72.29 102.42 0c24.96,0 26.42,-38.16 2.01,-38.16l-104.43 0 0 -78.32 124.51 0c24.05,0 24.05,-38.16 0,-38.16l-152.63 0c-9.33,0 -16.89,7.03 -18.64,15.41 -3.2,15.31 8.6,14.82 8.6,22.75z"/>
   <path class="fil2" d="M29301.86 19529.81l0 186.77c0,4.52 -10.04,13.41 -10.04,18.07 0,16.77 13.29,22.09 30.13,22.09l138.57 0c40.43,0 31.8,-38.16 12.05,-38.16l-132.55 0 0 -72.29 98.41 0c20.85,0 28.58,-16.95 20.12,-30.11 -1.81,-2.83 -7.99,-8.05 -12.09,-8.05l-106.44 0 0 -78.32 120.5 0c31.96,0 26.07,-38.16 4.01,-38.16l-152.63 0c-9.95,0 -17.04,5.97 -19.05,15.23 -3.14,14.5 9.01,14.65 9.01,22.93z"/>
   <path class="fil2" d="M27827.78 19509.72c0,4.73 0.51,5.79 2.42,9.63 2.47,4.96 1.95,4.92 7.62,6.44l0 164.68c0,5.73 0.74,23.25 -0.51,27.61 -2.28,7.99 -9.53,6.23 -9.53,18.58 0,14.87 12.89,20.08 28.11,20.08l140.58 0c41.57,0 28.74,-38.16 14.06,-38.16l-134.55 0 0 -72.29 98.4 0c31.97,0 26.08,-38.16 4.02,-38.16l-102.42 0 0 -78.32 122.5 0c26.51,0 26.22,-38.16 0,-38.16l-148.61 0c-12.53,0 -22.09,5.74 -22.09,18.07z"/>
   <path class="fil2" d="M28904.22 19559.93c6.33,4.64 6.9,12.08 10.04,20.08l26.11 68.28 -68.28 0c2.95,-6.14 5.49,-14.8 8.32,-21.8 4.57,-11.29 23.04,-57.23 23.81,-66.56zm-112.46 176.73c0,21.17 38.47,30.89 51.5,-8.75l14.77 -41.46 96.4 0c0.63,7.56 17.77,51.34 21.7,56.62 22.22,29.85 62.64,-0.04 35.93,-21.87 -7.46,-6.09 -5.76,-2.89 -9.54,-12.55l-78.94 -210.25c-6.39,-8.81 -28.86,-18.84 -40.08,10.69 -4.58,12.07 -7.94,21.61 -12.57,33.61 -8.86,22.96 -15.49,43.35 -24.36,66.01l-40.08 106.54c-4.4,6.2 -0.6,0.96 -6.59,5.45 -4.44,3.34 -8.14,8.09 -8.14,15.96z"/>
   <path class="fil2" d="M26986.3 19505.71c0,18.74 2.17,11.75 6.3,19.8 5.12,9.97 -2.06,118.46 3.67,150.98 2.27,12.86 6.68,22.39 12.18,32 5.67,9.9 12.35,15.58 20.49,23.69 7.67,7.64 16.19,12.58 27.02,17.17 7.77,3.29 27.25,7.2 36.78,7.18 47.31,-0.06 89.64,-33.46 97.9,-78.62 6.09,-33.28 -0.15,-141.67 3.58,-151.06 2.95,-7.42 6.97,-3.52 6.97,-17.13 0,-19.12 -27.67,-27.25 -42.23,-4.07 -7.7,12.26 -3.96,98.46 -3.96,116.54 0,31.6 2.66,47.86 -10.07,68.25 -19.74,31.62 -73.19,42.76 -102.74,0.38 -12.43,-17.83 -9.7,-39.76 -9.7,-68.63 0,-17.55 2.91,-102.74 -3.31,-115.17 -12.84,-25.66 -42.88,-13.96 -42.88,-1.31z"/>
   <path class="fil2" d="M28277.63 19559.93c0,91.18 138.58,76.89 138.58,122.51l0 8.03c0,27.74 -58.57,35.42 -93.61,21.3 -0.02,0 -39.74,-27.96 -44.24,5.53 -1.49,11.14 7.53,17.24 14.89,21.82 62.63,38.96 161.11,10.49 161.11,-44.63 0,-47.48 -16.45,-61 -60.27,-80.31 -29.99,-13.21 -78.3,-18.63 -78.3,-54.25 0,-25.14 40.8,-41.58 81.56,-25.33 8.39,3.34 18,13.28 24.88,13.28 16.78,0 40.19,-24.91 -8.67,-47.56 -34.75,-16.1 -77.2,-14.49 -107.27,7.94 -14.55,10.86 -28.66,27.15 -28.66,51.67z"/>
   <path class="fil2" d="M27683.18 19754.73c24.57,0 22.84,-12.88 39.01,-55.38 8.33,-21.92 15.98,-42.01 24.69,-63.67l36.63 -95.92c3.03,-7.84 2.56,-7.79 9.26,-12.83 17.08,-12.83 8.44,-35.28 -11.18,-35.28 -23.28,0 -27.28,20.18 -33.85,36.44l-58.53 154.35c-6.94,-5.08 -36.95,-90.04 -40.77,-99.82 -6.82,-17.48 -13.25,-34.38 -19.25,-51.04 -8.14,-22.62 -12.32,-39.93 -36.38,-39.93 -12.85,0 -22.76,13.47 -18.12,25.96 3.77,10.14 6.31,6.08 12.29,12 3.78,3.75 5.73,13.02 7.82,18.29l68.32 176.69c3.45,8.7 9.14,30.14 20.06,30.14z"/>
   <path class="fil2" d="M26034.37 19798.92zm2.01 -2.01l-2.01 2.01zm2.01 -2.01l-2.01 2.01 2.01 -2.01zm2.01 -2.01l-2.01 2.01 2.01 -2.01zm2.01 -2.01l-2.01 2.01 2.01 -2.01zm0 0c2.16,-1.37 0.04,-1.14 4.19,-1.83 1.82,-0.3 3.99,-0.18 5.85,-0.18l0 2.01 -10.04 0zm26.11 -4.02c-2.39,1.52 0.03,0.91 -4.37,1.67 -2.82,0.49 -4.84,0.34 -7.68,0.34l0 -2.01 12.05 0zm2 -2l-2 2 2 -2zm2.01 -2.01l-2.01 2.01 2.01 -2.01zm2.01 -2.01l-2.01 2.01 2.01 -2.01zm0 0c3,-4.32 0.3,-2.64 6.03,-4.02 -3.01,4.32 -0.3,2.65 -6.03,4.02zm8.03 -6.02l-2 2 2 -2zm2.01 -2.01l-2.01 2.01 2.01 -2.01zm2.01 -2.01l-2.01 2.01 2.01 -2.01zm2.01 -2.01l-2.01 2.01 2.01 -2.01zm319.32 0zm-319.32 0l319.32 0zm-319.32 0c3,-4.32 0.29,-2.64 6.02,-4.02 -3,4.32 -0.29,2.65 -6.02,4.02zm315.3 -6.02zm-307.27 0l307.27 0zm-307.27 0l-2.01 2 2.01 -2zm307.27 0c-9.54,0 -3.81,0.04 -6.02,-2.01 9.53,0 3.8,-0.05 6.02,2.01zm-305.26 -2.01l-2.01 2.01 2.01 -2.01zm299.24 0c-10.25,0 -3.34,0.03 -6.03,-2.01 10.62,0 3,0.01 6.03,2.01zm-297.23 -2.01l-2.01 2.01 2.01 -2.01zm283.17 -2.01c0.95,-0.95 11.38,1.09 3.62,1.08 -3.68,-0.01 -6.54,1.84 -3.62,-1.08zm-281.16 0l-2.01 2.01 2.01 -2.01zm255.05 -2.01l24.1 0 0 2.01 -24.1 0 0 -2.01zm-10.04 0c0.95,-0.94 11.38,1.09 3.62,1.08 -3.68,-0.01 -6.54,1.84 -3.62,-1.08zm-8.03 -2.01c0.94,-0.94 11.38,1.1 3.62,1.08 -0.01,0 -0.29,-0.03 -0.32,-0.04 -1.78,-0.46 -6.69,2.35 -3.3,-1.04zm-236.98 4.02c3,-4.32 0.29,-2.64 6.02,-4.02 -3,4.33 -0.29,2.65 -6.02,4.02zm230.95 -6.02c2.14,-2.14 7.62,3.18 2.24,1.04 -0.05,-0.02 -5.6,2.32 -2.24,-1.04zm-222.92 0l-2.01 2 2.01 -2zm214.89 -2.01c0.94,-0.95 11.38,1.09 3.62,1.08 -0.01,0 -0.29,-0.04 -0.32,-0.05 -1.77,-0.46 -6.69,2.36 -3.3,-1.03zm-212.88 0l-2.01 2.01 2.01 -2.01zm204.84 -2.01c0.95,-0.95 11.39,1.09 3.63,1.08 -0.01,0 -0.29,-0.04 -0.32,-0.05 -1.78,-0.45 -6.69,2.36 -3.31,-1.03zm-202.83 0l-2.01 2.01 2.01 -2.01zm194.8 -2.01c0.95,-0.95 11.38,1.09 3.62,1.08 0,0 -0.29,-0.04 -0.31,-0.04 -1.78,-0.46 -6.7,2.35 -3.31,-1.04zm-192.79 0l-2.01 2.01 2.01 -2.01zm186.77 -2.01c2.13,-2.13 7.61,3.19 2.23,1.05 -0.04,-0.02 -5.6,2.32 -2.23,-1.05zm-8.04 -2.01c0.95,-0.94 11.39,1.1 3.62,1.08 0,0 -0.29,-0.03 -0.31,-0.04 -1.78,-0.46 -6.7,2.35 -3.31,-1.04zm-178.73 4.02c3,-4.32 0.29,-2.64 6.02,-4.02 -3,4.33 -0.29,2.65 -6.02,4.02zm170.7 -6.02c0.95,-0.95 11.38,1.09 3.62,1.07 0,0 -0.29,-0.03 -0.31,-0.04 -1.78,-0.46 -6.7,2.35 -3.31,-1.03zm-162.67 0l-2.01 2 2.01 -2zm154.64 -2.01c0.94,-0.95 11.38,1.09 3.62,1.08 -0.01,0 -0.29,-0.04 -0.32,-0.05 -1.77,-0.46 -6.69,2.36 -3.3,-1.03zm-152.63 0l-2.01 2.01 2.01 -2.01zm146.6 -2.01c2.14,-2.14 7.62,3.19 2.24,1.04 -0.05,-0.02 -5.6,2.32 -2.24,-1.04zm-144.59 0l-2.01 2.01 2.01 -2.01zm136.56 -2.01c0.95,-0.95 11.38,1.09 3.62,1.08 -0.01,0 -0.29,-0.04 -0.31,-0.04 -1.78,-0.46 -6.7,2.35 -3.31,-1.04zm-134.56 0l-2 2.01 2 -2.01zm126.53 -2.01c0.94,-0.94 11.38,1.1 3.62,1.08 -0.01,0 -0.29,-0.04 -0.32,-0.04 -1.78,-0.46 -6.69,2.35 -3.3,-1.04zm-8.04 -2.01c0.95,-0.94 11.39,1.1 3.62,1.08 0,0 -0.29,-0.03 -0.31,-0.04 -1.78,-0.46 -6.7,2.35 -3.31,-1.04zm-118.49 4.02c3.01,-4.32 0.3,-2.64 6.03,-4.02 -3.09,4.44 -0.33,2.5 -6.03,4.02zm112.47 -6.02c2.13,-2.14 7.62,3.18 2.23,1.04 -0.04,-0.02 -5.6,2.32 -2.23,-1.04zm-8.04 -2.01c0.95,-0.95 11.39,1.09 3.63,1.08 -0.01,0 -0.29,-0.04 -0.32,-0.05 -1.78,-0.45 -6.69,2.36 -3.31,-1.03zm-8.03 -2.01c0.95,-0.95 11.38,1.09 3.62,1.08 0,0 -0.29,-0.04 -0.31,-0.05 -1.78,-0.45 -6.7,2.36 -3.31,-1.03zm-8.03 -2.01c0.95,-0.95 11.38,1.09 3.62,1.08 -0.01,0 -0.29,-0.04 -0.31,-0.04 -1.78,-0.46 -6.7,2.35 -3.31,-1.04zm-6.03 -2.01c2.14,-2.13 7.62,3.19 2.24,1.05 -0.05,-0.02 -5.6,2.32 -2.24,-1.05zm-6.02 -2.01l4.32 1.11 -4.32 -1.11zm-76.32 -4.01l-2 2.01 2 -2.01zm70.29 -4.02c5.27,3.52 4.15,1.02 6.03,8.03 -5.26,-3.52 -4.15,-1.01 -6.03,-8.03zm-68.28 2.01l-2.01 2.01 2.01 -2.01zm2.01 -2.01l-2.01 2.01 2.01 -2.01zm66.27 0l-2 -2.01 2 2.01zm-66.27 0c3.52,-5.26 1.02,-4.15 8.03,-6.02 -3.52,5.26 -1.01,4.15 -8.03,6.02zm12.05 -8.03l-4.02 2.01 4.02 -2.01zm52.22 6.02c-5.82,-0.48 -7.6,-1.4 -12.9,-3.17l-9.93 -4.12c-0.28,-0.15 -0.87,-0.46 -1.27,-0.74 6.57,0.15 7.92,0.78 13.44,2.62 0.41,0.14 5.63,2.14 5.81,2.23 4.77,2.39 2.45,1.1 4.85,3.18zm-52.22 -6.02c4.16,-2.64 11.28,-2.01 16.07,-2.01l-16.07 2.01zm28.12 -2.01l-10.05 0 0 -2.01c1.49,0 4.48,-0.14 5.85,0.18 3.88,0.9 2.11,0.51 4.2,1.83zm-46.19 16.07c-4.62,6.89 -5.36,5.56 -11.46,10.64 -4.73,3.94 -6.27,6.57 -11.48,10.6 -5.98,4.62 -6.56,5.6 -11.69,10.4l-24.89 21.3c-14.55,11.98 -23.13,3.35 -35.88,8.31 -3.3,1.28 -8.84,8.23 -13.07,11.04 1.8,7.15 5.35,9.53 11.2,14.95 6.15,5.7 5.71,7.03 10.91,12.64 8.19,-4.08 3.19,-6.44 14.06,-7.49 12.79,-1.24 11.3,3.43 19.72,-4.39 5.03,-4.68 6.44,-5.77 11.82,-10.27l37.28 -33.01c17.37,-16.82 15.52,-9.89 15.52,-32.67 9.57,-2.56 4.68,-5.22 12.57,-7.52 6.6,-1.93 31.23,-0.66 37.34,5.81 1.46,1.54 1.2,1.98 2.38,3.64 6.06,8.55 3.64,4.39 22.26,9.88l117.46 31.15c48.23,11.94 27.02,1.53 52.3,5.94 8.81,1.53 10.08,2.37 14.76,7.35 3.98,-3.48 7.57,-6.3 10.05,-12.07l-2.01 -2.01 2.01 0.49c5.41,-2.52 5.67,-3.52 10.59,-5.58l-0.56 -8.97 -2.06 -2.01 0 -2 -1.95 -2.01c-30.95,-16.38 -58.51,-5.34 -85.22,-13.19 -13.64,-4 -24.2,-6.59 -38.11,-10.09 -14.1,-3.54 -67.37,-16.19 -75.08,-23.32 -16.75,-15.52 -4.85,-8.53 -33.19,-17.02 -48.72,-14.59 -58.49,17.93 -71.65,21.44l0 4.02c6.5,1.51 8.81,3.41 16.07,4.02z"/>
   <path class="fil2" d="M28484.49 19515.75l0 216.89c0,31.99 38.16,25.14 38.16,8.04l0 -230.96c0,-22.71 -38.16,-27.68 -38.16,6.03z"/>
   <path class="fil2" d="M27496.41 19519.76l0 210.87c0,33.19 38.16,29.33 38.16,8.04l0 -232.96c0,-13.58 -38.16,-28.34 -38.16,14.05z"/>
   <path class="fil2" d="M26241.23 19943.51c8.63,0.2 6.92,-0.44 12.05,4.02 -15.52,0 -20.81,-4.02 -34.14,-4.02l4.29 13.97c21.6,0.09 15.52,7.83 24.62,21.39 10.71,15.97 44.35,30.89 63.47,-5.23 5.56,0.12 18.4,2.24 22.09,4.01 2.53,-4.77 4.63,-6.84 6.02,-12.05 -4.08,-1.96 -24.09,-5.52 -30.12,-6.02 4.72,-6.53 -0.9,-2.92 10.04,-2.01 0,-23.09 -14.14,-44.03 -31.01,-42.17 -3.89,0.43 2.15,0.64 -3.58,0.12 -11.88,-1.07 -13.8,-9.35 -28.62,0.93 -7.97,5.53 -14.84,14.84 -15.11,27.06z"/>
   <path class="fil2" d="M26078.56 19979.66l12.05 0c-6.54,8.93 -12.99,-0.53 -24.1,16.07 26.97,14.27 11.35,6.02 22.09,6.02 9.65,0 12.1,7.72 22.09,10.04 13.39,-8.96 12.05,-18.85 12.05,-40.16l9.16 -4.9c6.83,-5.48 4.9,-3.73 4.9,-13.18 -12.63,-1.05 -8.26,-5.9 -20.09,2.01 0,-12.49 -0.78,-30.12 -12.05,-30.12 -8.97,0 -2.49,1.1 -6.45,5.6 -5.49,6.22 -19.65,5.81 -19.65,48.62z"/>
   <path class="fil2" d="M26128.76 19867.2c2.11,9.03 14.64,28.3 18.92,31.42 5.8,4.23 5.88,0.71 13.22,0.71 13.65,0 12.9,7 29.66,-8.49 4.81,-4.44 16.53,-18.09 16.53,-25.65 0,-9.27 -48.97,-31.76 -78.33,2.01z"/>
   <path class="fil2" d="M26391.86 19931.46c8.25,-15.46 31.81,-12.53 24.11,-36.15 -20.93,-4.85 -32.68,-16.12 -66.29,0 1.19,14.32 25.19,34.06 25.48,34.18l2.35 0.56c7.36,0.91 5.98,-2.59 14.35,1.41z"/>
   <path class="fil2" d="M26076.55 19835.07zm10.04 -14.06l-10.04 14.06zm10.04 -14.06zm2.01 -2.01l-2.01 2.01zm2.01 -2.01l-2.01 2.01 2.01 -2.01zm22.09 -20.08zm2.01 -2.01l-2.01 2.01zm2.01 -2.01l-2.01 2.01 2.01 -2.01zm2.01 -2.01l-2.01 2.01 2.01 -2.01zm0 0c-2.63,-10.98 -10.11,-7.05 -13.58,0.59 -4.32,9.53 -2.14,12.1 3.53,17.48 -13.83,0 -7.55,0.33 -16.06,6.03 -0.47,-5.52 -0.19,-4.37 -2.01,-8.03 -7.46,0.62 -9.63,2.78 -11.84,8.46 -2.96,7.58 -1.23,9.91 1.8,15.64 -7.1,0.59 -10.87,3.68 -14.06,8.03 8.58,12.82 4.55,2.13 13.47,3.4 8.39,1.2 8.63,11.85 10.53,-3.23 1.34,-10.57 0.19,-11.56 7.7,-16.87 9.42,-6.65 9.77,-1.87 16.5,2.64 1.91,-8.22 2.01,-9.43 2.01,-20.08 24.56,-13 8.3,-8.24 24.1,-4.02 0,-7.51 3.16,-36.46 -2.49,-38.79 -3.42,-1.41 -11.86,9.15 -9.18,18.06l4.46 5.82c0.22,0.2 0.82,0.53 1.18,0.85 -14.46,0 -6.17,1.38 -16.06,4.02z"/>
   <path class="fil2" d="M26373.77 19875.23c-1.35,-16.33 -15.69,-3.62 -27.37,-4.83 -20.34,-2.1 -127.31,-31.39 -134.92,-28.64 -2.92,1.05 -5.99,2.79 -2.07,6.77 3.15,3.2 72.07,17.16 81.52,19.17 9.07,1.93 54.6,13.51 61.6,12.24 6.83,-1.24 13.41,-4.06 21.24,-4.71z"/>
   <path class="fil2" d="M26032.37 19909.37c7.13,10.65 7.7,3.22 30.2,2.09 13.3,-0.67 14.22,-4 26.31,-13.85l33.37 -26.88c5.11,-4.15 6.32,-4.96 6.51,-13.57 -11.57,0 -11.55,2.17 -25.66,14.5 -6.66,5.83 -13.13,10.4 -20.07,16.08 -9.95,8.15 -12.98,12.85 -22.56,13.59 -14.24,1.09 -21.66,-1.58 -28.1,8.04z"/>
   <path class="fil2" d="M26205.08 19764.78c2.86,7.9 0.3,0.22 6.02,8.03 -5.52,-1.29 -10.54,-2.73 -16.06,-4.02 1.06,4.58 1.55,4.62 2.01,10.04 16.29,1.36 27.72,6.48 28.11,24.1 16.32,-0.36 4.42,-4.59 16.96,-11.16 6.73,-3.52 7.06,0.07 9.15,-8.92l-11.98 -2.31c-0.35,-12.29 -9.71,-23.8 -24.17,-23.8 -5.4,0 -1.78,-1.47 -10.04,8.04z"/>
   <path class="fil2" d="M26024.31 19937.49c3.2,11.98 15.62,14.91 23.67,24.1 14.56,-6.19 11.99,6.66 19.3,-9.18 3.24,-7.04 7.06,-16.08 7.26,-24.96 -26.41,0 -33.77,-0.91 -50.23,10.04z"/>
   <path class="fil2" d="M26263.32 19790.88l0.6 0.6c-0.04,-0.04 -0.8,-0.4 -0.6,-0.6zm2.01 -4.01c-4.73,-1.11 -5.93,-1.88 -12.05,-2.01 4.38,12.1 3.11,7.64 15.3,12.78 12.84,5.42 7.17,13.75 14.82,19.35 11.44,-3.05 4.41,-5.88 11.88,-10.23 7.05,-4.11 9.21,3.45 12.22,-7.84 -4.4,-2.12 -7.9,-3.51 -14.06,-4.02 -0.45,-20.54 -25.47,-32.05 -32.17,-17.79 -3.37,7.16 -0.1,4.08 4.06,9.76z"/>
   <path class="fil2" d="M26315.53 19790.88c0.18,7.98 -0.02,6.21 4.02,10.04 -5.42,-0.45 -5.46,-0.94 -10.04,-2 1.49,17.85 15.5,6.66 22.93,23.25 3.75,8.38 -1.83,4.24 5.19,10.89 8.85,-2.37 5.08,-5.76 10.97,-11.14 5.85,-5.35 5.54,1.59 11.12,-8.95 -27.54,-13.21 -2.52,-3.71 -18.43,-19.73 -9.39,-9.46 -15.91,-8.95 -25.76,-2.36z"/>
   <path class="fil2" d="M26313.53 20021.84c5.91,0.13 16.14,2.12 20.08,4.01l0 -38.15c-9.59,0 -8.33,-1.37 -16.07,-2.01 0.24,10.51 2.66,8.7 0.71,18.62 -1.91,9.71 -4.02,9.09 -4.72,17.53z"/>
   <path class="fil2" d="M26223.15 20005.77c7.93,0 8.15,0.63 14.06,2.01 -0.74,-8.85 -2.01,-4.9 -2.01,-20.08 0,-10.1 1.81,-9 2.01,-18.08 -7.93,0 -8.15,-0.63 -14.06,-2.01l0 38.16z"/>
   <path class="fil2" d="M26078.56 20011.79l0 38.16c5.33,-2.82 8.73,-5.21 14.05,-8.03 -4.08,-17.53 -5.96,-19.16 -2,-36.15 -5.21,1.39 -7.28,3.5 -12.05,6.02z"/>
   <path class="fil2" d="M26100.65 19909.37c2.13,-2.13 7.62,3.19 2.23,1.05 -0.04,-0.02 -5.6,2.32 -2.23,-1.05zm-16.07 10.04c7.08,10.2 6.67,2.72 18.27,0.23 6.76,-1.45 3.53,0.8 9.85,-2.23 2.93,-3.03 -2.08,0.81 -1.79,-6.71 0.05,-1.36 7,-7.35 -6.25,-7.35 -8.02,0 -0.69,-0.71 -5.21,2.82 -0.44,0.34 -1.63,1.55 -2.07,1.95l-12.8 11.29z"/>
   <path class="fil2" d="M26263.32 19901.34c7,0 9.23,-1.22 12.5,-1.43 10.61,-0.66 17.96,7.18 21.64,-6.6 -19.03,0 -0.74,-2.6 -24.1,-8.04 -2.87,7.94 -7.54,6.71 -10.04,16.07z"/>
   <path class="fil2" d="M26172.95 19821.01l-8.04 0c1,11.96 3.21,6.76 15.3,8.8 6.49,1.09 17.72,6.77 19.11,6.56 8.12,-1.22 3.07,-7.28 -4.83,-10.78 -6.55,-2.91 -12.74,-4.58 -21.54,-4.58z"/>
   <path class="fil2" d="M26124.81 19979.77c1.98,8.66 4.04,27.49 -0.06,36.04 12.28,-1.02 8.03,-6.9 8.03,-40.16l-7.97 4.12z"/>
   <path class="fil2" d="M26152.86 19907.36c6.6,12.46 7,12.05 18.08,12.05 11.15,-21.07 -10.42,-15.84 -18.08,-12.05z"/>
   <path class="fil2" d="M26044.42 19704.53c7.74,-0.65 7.91,-2.15 18.04,-2.04 11.57,0.13 13.75,2.8 16.1,-6 -25.01,0 -31.08,-3.43 -34.14,8.04z"/>
   <path class="fil2" d="M26381.81 19953.56c4.48,-3.17 8.68,-6.99 10.04,-14.06l-14.06 0c0.51,6.16 1.91,9.65 4.02,14.06z"/>
   <path class="fil2" d="M26301.48 20017.82c-3.32,-4.53 -2.74,-3.17 -8.54,-5.52 -6.93,-2.81 -4.19,-2.51 -13.55,-2.51 2.16,8.09 0.19,4.71 7.71,6.34 4.87,1.06 7.76,1.69 14.38,1.69z"/>
   <path class="fil2" d="M26249.26 20009.79c5.56,0.12 18.4,2.24 22.09,4.01 -3.42,-12.8 -21.27,-8.79 -22.09,-4.01z"/>
   <path class="fil2" d="M26112.7 20025.85c7.01,-1.87 4.51,-0.76 8.03,-6.02 -7.14,1.66 -6.58,0.38 -8.03,6.02z"/>
   <path class="fil2" d="M26100.65 20033.89c7.01,-1.88 4.51,-0.77 8.03,-6.03 -5.96,1.59 -5.2,0.79 -8.03,6.03z"/>
  </g>
  <path class="fil3" d="M10159.58 6475.02l9379.78 0c227.74,0 414.06,186.32 414.06,414.06l0 7576.59c0,227.73 -186.32,414.05 -414.06,414.05l-9379.78 0c-227.75,0 -414.07,-186.32 -414.07,-414.05l0 -7576.59c0,-227.74 186.32,-414.06 414.07,-414.06z"/>
  <path class="fil4" d="M12230.23 4738.99c-4.39,5.3 -7.87,8.7 -10.6,10.19 -2.65,1.49 -5.97,2.24 -9.86,2.24 -7.62,0 -13.75,-2.57 -18.31,-7.62 -4.64,-5.14 -6.96,-13.59 -6.96,-25.44l0 -33.55c0,-12.02 2.32,-20.55 6.96,-25.69 4.56,-5.05 10.69,-7.62 18.31,-7.62 5.88,0 10.77,1.58 14.75,4.64 3.98,3.07 6.96,8.12 9.11,15.33 2.07,7.21 4.31,12.09 6.55,14.66 4.72,5.06 13,10.11 24.94,15.25 11.93,5.22 25.02,7.79 39.27,7.79 22.12,0 40.26,-5.22 54.43,-15.58 9.03,-6.3 13.59,-14.09 13.59,-23.28 0,-6.22 -2.16,-12.02 -6.55,-17.4 -4.31,-5.47 -11.35,-9.94 -21.21,-13.51 -6.38,-2.4 -20.79,-5.71 -43.08,-9.94 -27.01,-5.05 -47.47,-11.1 -61.39,-18.23 -14,-7.12 -25.02,-17.15 -33.06,-30.15 -8.12,-12.93 -12.18,-26.93 -12.18,-42.01 0,-23.78 9.94,-44.66 29.74,-62.55 19.81,-17.9 45.57,-26.85 77.3,-26.85 12.68,0 24.53,1.41 35.38,4.31 10.86,2.82 20.72,7.21 29.58,13.09 6.55,-6.29 13.09,-9.44 19.64,-9.44 7.37,0 13.42,2.57 18.06,7.7 4.72,5.06 7.04,13.51 7.04,25.36l0 37.53c0,11.93 -2.32,20.54 -6.96,25.6 -4.56,5.14 -10.52,7.7 -17.81,7.7 -6.22,0 -11.52,-1.9 -16.08,-5.63 -3.56,-2.73 -6.21,-8.29 -8.03,-16.65 -1.74,-8.29 -4.06,-14.25 -6.8,-17.82 -4.64,-6.21 -11.68,-11.43 -21.04,-15.66 -9.28,-4.22 -20.13,-6.37 -32.31,-6.37 -17.9,0 -32.07,4.14 -42.42,12.51 -10.36,8.36 -15.58,17.06 -15.58,26.09 0,6.22 2.16,12.18 6.38,17.9 4.31,5.8 10.52,10.27 18.73,13.5 5.46,2.24 20.79,5.89 46.14,10.94 25.27,5.06 44.83,10.52 58.5,16.49 13.67,6.05 25.02,15.41 34.13,28.25 9.03,12.76 13.59,28.01 13.59,45.65 0,24.61 -8.62,44.25 -25.93,58.99 -22.95,19.47 -52.28,29.17 -87.83,29.17 -13.75,0 -27.17,-1.66 -40.18,-4.97 -13.01,-3.32 -25.68,-8.29 -37.95,-14.92zm395.79 -232.15l0 194.87 50.21 0c12.34,0 21.04,2.32 26.18,6.88 5.05,4.55 7.62,10.52 7.62,17.97 0,7.46 -2.57,13.43 -7.62,17.98 -5.14,4.56 -13.84,6.88 -26.18,6.88l-150.13 0c-12.35,0 -21.04,-2.32 -26.18,-6.96 -5.06,-4.64 -7.62,-10.69 -7.62,-18.14 0,-7.46 2.56,-13.43 7.62,-17.9 5.14,-4.47 13.83,-6.71 26.18,-6.71l50.21 0 0 -194.87 -50.21 0c-12.35,0 -21.04,-2.32 -26.18,-6.87 -5.06,-4.56 -7.62,-10.53 -7.62,-17.98 0,-7.46 2.56,-13.43 7.62,-17.98 5.14,-4.56 13.83,-6.88 26.18,-6.88l150.13 0c12.34,0 21.04,2.24 26.18,6.71 5.05,4.48 7.62,10.44 7.62,17.9 0,7.45 -2.57,13.5 -7.62,18.14 -5.14,4.64 -13.84,6.96 -26.18,6.96l-50.21 0zm200.91 232.15c-4.39,5.3 -7.87,8.7 -10.6,10.19 -2.65,1.49 -5.97,2.24 -9.86,2.24 -7.62,0 -13.75,-2.57 -18.31,-7.62 -4.64,-5.14 -6.96,-13.59 -6.96,-25.44l0 -33.55c0,-12.02 2.32,-20.55 6.96,-25.69 4.56,-5.05 10.69,-7.62 18.31,-7.62 5.88,0 10.77,1.58 14.75,4.64 3.98,3.07 6.95,8.12 9.1,15.33 2.07,7.21 4.31,12.09 6.55,14.66 4.72,5.06 13,10.11 24.94,15.25 11.93,5.22 25.02,7.79 39.27,7.79 22.12,0 40.26,-5.22 54.43,-15.58 9.03,-6.3 13.59,-14.09 13.59,-23.28 0,-6.22 -2.16,-12.02 -6.55,-17.4 -4.31,-5.47 -11.35,-9.94 -21.21,-13.51 -6.38,-2.4 -20.79,-5.71 -43.08,-9.94 -27.01,-5.05 -47.47,-11.1 -61.39,-18.23 -13.99,-7.12 -25.01,-17.15 -33.05,-30.15 -8.12,-12.93 -12.18,-26.93 -12.18,-42.01 0,-23.78 9.94,-44.66 29.74,-62.55 19.8,-17.9 45.56,-26.85 77.29,-26.85 12.68,0 24.53,1.41 35.38,4.31 10.86,2.82 20.72,7.21 29.58,13.09 6.55,-6.29 13.09,-9.44 19.64,-9.44 7.37,0 13.42,2.57 18.06,7.7 4.72,5.06 7.04,13.51 7.04,25.36l0 37.53c0,11.93 -2.32,20.54 -6.96,25.6 -4.56,5.14 -10.52,7.7 -17.81,7.7 -6.22,0 -11.52,-1.9 -16.08,-5.63 -3.56,-2.73 -6.21,-8.29 -8.03,-16.65 -1.74,-8.29 -4.06,-14.25 -6.8,-17.82 -4.64,-6.21 -11.68,-11.43 -21.04,-15.66 -9.28,-4.22 -20.13,-6.37 -32.31,-6.37 -17.9,0 -32.07,4.14 -42.42,12.51 -10.36,8.36 -15.58,17.06 -15.58,26.09 0,6.22 2.16,12.18 6.38,17.9 4.31,5.8 10.52,10.27 18.73,13.5 5.46,2.24 20.79,5.89 46.14,10.94 25.27,5.06 44.83,10.52 58.5,16.49 13.67,6.05 25.02,15.41 34.13,28.25 9.03,12.76 13.59,28.01 13.59,45.65 0,24.61 -8.62,44.25 -25.93,58.99 -22.95,19.47 -52.28,29.17 -87.83,29.17 -13.75,0 -27.17,-1.66 -40.18,-4.97 -13.01,-3.32 -25.68,-8.29 -37.94,-14.92zm395.28 -232.15l0 194.87 33.31 0c12.34,0 21.04,2.32 26.18,6.88 5.05,4.55 7.62,10.52 7.62,17.97 0,7.46 -2.57,13.43 -7.62,17.98 -5.14,4.56 -13.84,6.88 -26.18,6.88l-116.33 0c-12.34,0 -21.04,-2.32 -26.18,-6.96 -5.05,-4.64 -7.62,-10.69 -7.62,-18.14 0,-7.46 2.57,-13.43 7.62,-17.9 5.14,-4.47 13.84,-6.71 26.18,-6.71l33.31 0 0 -194.87 -54.18 0 0 47.23c0,12.34 -2.32,21.04 -6.88,26.18 -4.56,5.05 -10.52,7.62 -17.98,7.62 -7.46,0 -13.42,-2.57 -17.98,-7.62 -4.56,-5.14 -6.88,-13.84 -6.88,-26.18l0 -96.94 258 0 0 96.94c0,12.34 -2.32,21.04 -6.87,26.18 -4.56,5.05 -10.52,7.62 -17.98,7.62 -7.46,0 -13.42,-2.57 -17.98,-7.62 -4.56,-5.14 -6.88,-13.84 -6.88,-26.18l0 -47.23 -54.68 0zm222.79 121.79l0 73.08 126.76 0 0 -26.84c0,-12.35 2.32,-21.05 6.96,-26.19 4.64,-5.05 10.69,-7.62 18.15,-7.62 7.45,0 13.42,2.57 17.89,7.62 4.48,5.14 6.71,13.84 6.71,26.19l0 76.55 -234.13 0c-12.35,0 -21.05,-2.32 -26.19,-6.96 -5.05,-4.64 -7.62,-10.69 -7.62,-18.14 0,-7.46 2.57,-13.43 7.62,-17.9 5.14,-4.47 13.84,-6.71 26.19,-6.71l7.95 0 0 -194.87 -7.95 0c-12.35,0 -21.05,-2.32 -26.19,-6.87 -5.05,-4.56 -7.62,-10.53 -7.62,-17.98 0,-7.46 2.57,-13.43 7.62,-17.98 5.14,-4.56 13.84,-6.88 26.19,-6.88l223.7 0.25 0 75.31c0,12.35 -2.24,21.05 -6.72,26.18 -4.47,5.06 -10.43,7.63 -17.89,7.63 -7.46,0 -13.51,-2.57 -18.15,-7.63 -4.64,-5.13 -6.96,-13.83 -6.96,-26.18l0 -25.85 -116.32 0 0 72.08 43.75 0c0,-12.34 1.49,-20.13 4.55,-23.36 6.22,-6.96 13.09,-10.44 20.55,-10.44 7.46,0 13.42,2.57 17.9,7.62 4.47,5.14 6.71,13.84 6.71,26.18l0 49.71c0,12.35 -1.49,20.22 -4.48,23.53 -5.96,6.88 -12.67,10.28 -20.13,10.28 -7.46,0 -14.33,-3.48 -20.55,-10.44 -3.06,-3.23 -4.55,-11.02 -4.55,-23.37l-43.75 0zm271.51 -75.47l0 148.55 17.89 0c12.35,0 21.05,2.32 26.18,6.88 5.06,4.55 7.63,10.52 7.63,17.97 0,7.46 -2.57,13.43 -7.63,17.98 -5.13,4.56 -13.83,6.88 -26.18,6.88l-67.6 0c-12.35,0 -21.05,-2.32 -26.19,-6.96 -5.05,-4.64 -7.62,-10.69 -7.62,-18.14 0,-7.46 2.57,-13.43 7.62,-17.9 5.14,-4.47 13.84,-6.71 26.19,-6.71l0 -194.87c-12.35,0 -21.05,-2.32 -26.19,-6.87 -5.05,-4.56 -7.62,-10.53 -7.62,-17.98 0,-7.46 2.57,-13.43 7.62,-17.98 5.14,-4.56 13.84,-6.88 26.19,-6.88l61.39 0 68.1 149.63 66.95 -149.63 61.56 0c12.34,0 21.04,2.24 26.18,6.71 5.05,4.48 7.62,10.44 7.62,17.9 0,7.45 -2.57,13.5 -7.62,18.14 -5.14,4.64 -13.84,6.96 -26.18,6.96l0 194.87c12.34,0 21.04,2.32 26.18,6.88 5.05,4.55 7.62,10.52 7.62,17.97 0,7.46 -2.57,13.43 -7.62,17.98 -5.14,4.56 -13.84,6.88 -26.18,6.88l-68.11 0c-12.34,0 -21.04,-2.32 -26.18,-6.96 -5.05,-4.64 -7.62,-10.69 -7.62,-18.14 0,-7.46 2.57,-13.43 7.62,-17.9 5.14,-4.47 13.84,-6.71 26.18,-6.71l18.39 0 0 -148.55 -57.33 128.25 -42.83 0 -58.41 -128.25zm436.79 118.23l-120.38 0 -12.26 30.32 11.93 0c12.42,0 21.21,2.32 26.34,6.88 5.06,4.55 7.63,10.52 7.63,17.97 0,7.46 -2.57,13.43 -7.63,17.98 -5.13,4.56 -13.92,6.88 -26.34,6.88l-65.46 0c-12.34,0 -21.04,-2.32 -26.18,-6.96 -5.05,-4.64 -7.62,-10.69 -7.62,-18.14 0,-7.46 2.57,-13.43 7.62,-17.9 5.14,-4.47 13.84,-6.71 26.18,-6.71l78.55 -194.87 -32.31 0c-12.35,0 -21.05,-2.32 -26.19,-6.87 -5.05,-4.56 -7.62,-10.53 -7.62,-17.98 0,-7.46 2.57,-13.43 7.62,-17.98 5.14,-4.56 13.84,-6.88 26.19,-6.88l106.71 0 99.09 244.58c12.34,0 20.21,1.49 23.61,4.47 6.8,6.13 10.19,12.93 10.19,20.38 0,7.46 -2.57,13.43 -7.62,17.98 -5.14,4.56 -13.84,6.88 -26.18,6.88l-65.54 0c-12.42,0 -21.12,-2.32 -26.26,-6.96 -5.05,-4.64 -7.62,-10.69 -7.62,-18.14 0,-7.46 2.57,-13.43 7.62,-17.9 5.14,-4.47 13.84,-6.71 26.26,-6.71l11.93 0 -12.26 -30.32zm-20.13 -49.72l-40.02 -98.75 -40.02 98.75 80.04 0zm445.08 80.04l0 -194.87c-12.34,0 -21.04,-2.32 -26.18,-6.87 -5.05,-4.56 -7.62,-10.53 -7.62,-17.98 0,-7.46 2.57,-13.43 7.62,-17.98 5.14,-4.56 13.84,-6.88 26.18,-6.88l105.22 0.25c16.32,0 32.31,2.98 47.89,8.95 15.66,6.05 28.17,13.59 37.7,22.86 7.12,6.88 14.66,16.49 22.37,28.59 7.79,12.09 13.67,24.19 17.56,36.12 3.9,12.02 5.88,26.6 5.88,43.91l0 23.78c0,21.05 -3.56,39.69 -10.77,55.93 -7.2,16.32 -16.65,29.57 -28.33,39.85 -11.68,10.27 -22.7,17.81 -32.98,22.62 -16.32,7.62 -37.53,11.43 -63.54,11.43l-101 0c-12.34,0 -21.04,-2.32 -26.18,-6.96 -5.05,-4.64 -7.62,-10.69 -7.62,-18.14 0,-7.46 2.57,-13.43 7.62,-17.9 5.14,-4.47 13.84,-6.71 26.18,-6.71zm49.71 0l52.94 0c19.72,0 34.64,-2.82 44.66,-8.53 13.17,-7.46 23.03,-16.91 29.66,-28.42 6.63,-11.52 9.94,-26.35 9.94,-44.66l0 -23.61c0,-15.66 -2.98,-29.5 -8.94,-41.26 -9.45,-18.48 -19.97,-31.15 -31.74,-38.03 -11.76,-6.88 -26.43,-10.36 -44.07,-10.36l-52.45 0 0 194.87zm308.79 -73.08l0 73.08 126.76 0 0 -26.84c0,-12.35 2.32,-21.05 6.96,-26.19 4.64,-5.05 10.69,-7.62 18.15,-7.62 7.45,0 13.42,2.57 17.89,7.62 4.48,5.14 6.71,13.84 6.71,26.19l0 76.55 -234.13 0c-12.35,0 -21.05,-2.32 -26.19,-6.96 -5.05,-4.64 -7.62,-10.69 -7.62,-18.14 0,-7.46 2.57,-13.43 7.62,-17.9 5.14,-4.47 13.84,-6.71 26.19,-6.71l7.95 0 0 -194.87 -7.95 0c-12.35,0 -21.05,-2.32 -26.19,-6.87 -5.05,-4.56 -7.62,-10.53 -7.62,-17.98 0,-7.46 2.57,-13.43 7.62,-17.98 5.14,-4.56 13.84,-6.88 26.19,-6.88l223.7 0.25 0 75.31c0,12.35 -2.24,21.05 -6.72,26.18 -4.47,5.06 -10.43,7.63 -17.89,7.63 -7.46,0 -13.51,-2.57 -18.15,-7.63 -4.64,-5.13 -6.96,-13.83 -6.96,-26.18l0 -25.85 -116.32 0 0 72.08 43.75 0c0,-12.34 1.49,-20.13 4.55,-23.36 6.22,-6.96 13.09,-10.44 20.55,-10.44 7.46,0 13.42,2.57 17.9,7.62 4.47,5.14 6.71,13.84 6.71,26.18l0 49.71c0,12.35 -1.49,20.22 -4.48,23.53 -5.96,6.88 -12.67,10.28 -20.13,10.28 -7.46,0 -14.33,-3.48 -20.55,-10.44 -3.06,-3.23 -4.55,-11.02 -4.55,-23.37l-43.75 0zm647.64 50.21l72.17 -172 -11.44 0c-12.59,0 -21.37,-2.32 -26.51,-6.87 -5.05,-4.56 -7.62,-10.53 -7.62,-17.98 0,-7.46 2.57,-13.43 7.62,-17.98 5.14,-4.56 13.92,-6.88 26.51,-6.88l65.37 0c12.27,0 20.97,2.24 26.1,6.71 5.06,4.48 7.63,10.44 7.63,17.9 0,7.45 -3.48,14.25 -10.36,20.46 -3.32,3.07 -11.1,4.64 -23.37,4.64l-102.65 244.58 -47.06 0 -101.99 -244.58c-12.26,0 -20.05,-1.57 -23.36,-4.64 -6.88,-6.05 -10.36,-12.76 -10.36,-20.21 0,-7.46 2.57,-13.43 7.62,-17.98 5.14,-4.56 13.84,-6.88 26.1,-6.88l65.37 0c12.51,0 21.38,2.24 26.51,6.71 5.06,4.48 7.63,10.44 7.63,17.9 0,7.45 -2.57,13.5 -7.63,18.14 -5.13,4.64 -14,6.96 -26.51,6.96l-11.43 0 71.66 172zm438.29 -74.48c0,44.24 -14.08,81.03 -42.17,110.44 -28.17,29.41 -60.65,44.08 -97.6,44.08 -33.31,0 -63.22,-12.27 -89.98,-36.71 -33.05,-30.24 -49.62,-69.51 -49.62,-117.81 0,-48.22 16.57,-87.58 49.62,-117.98 26.76,-24.44 56.67,-36.71 89.98,-36.71 36.95,0 69.43,14.67 97.6,44.08 28.09,29.41 42.17,66.28 42.17,110.61zm-49.71 0c0,-30.24 -9.2,-55.35 -27.51,-75.23 -18.39,-19.8 -39.19,-29.74 -62.55,-29.74 -23.28,0 -43.99,9.94 -62.39,29.9 -18.31,19.89 -27.5,44.99 -27.5,75.07 0,30.16 9.19,55.18 27.5,75.06 18.4,19.8 39.11,29.75 62.39,29.75 23.36,0 44.16,-9.86 62.55,-29.67 18.31,-19.8 27.51,-44.82 27.51,-75.14zm232.73 -97.52l0 194.87 33.31 0c12.34,0 21.04,2.32 26.18,6.88 5.05,4.55 7.62,10.52 7.62,17.97 0,7.46 -2.57,13.43 -7.62,17.98 -5.14,4.56 -13.84,6.88 -26.18,6.88l-116.33 0c-12.34,0 -21.04,-2.32 -26.18,-6.96 -5.05,-4.64 -7.62,-10.69 -7.62,-18.14 0,-7.46 2.57,-13.43 7.62,-17.9 5.14,-4.47 13.84,-6.71 26.18,-6.71l33.31 0 0 -194.87 -54.18 0 0 47.23c0,12.34 -2.32,21.04 -6.88,26.18 -4.56,5.05 -10.52,7.62 -17.98,7.62 -7.46,0 -13.42,-2.57 -17.98,-7.62 -4.56,-5.14 -6.88,-13.84 -6.88,-26.18l0 -96.94 258 0 0 96.94c0,12.34 -2.32,21.04 -6.87,26.18 -4.56,5.05 -10.52,7.62 -17.98,7.62 -7.46,0 -13.42,-2.57 -17.98,-7.62 -4.56,-5.14 -6.88,-13.84 -6.88,-26.18l0 -47.23 -54.68 0zm334.39 164.55l-120.38 0 -12.26 30.32 11.93 0c12.42,0 21.21,2.32 26.34,6.88 5.06,4.55 7.63,10.52 7.63,17.97 0,7.46 -2.57,13.43 -7.63,17.98 -5.13,4.56 -13.92,6.88 -26.34,6.88l-65.46 0c-12.34,0 -21.04,-2.32 -26.18,-6.96 -5.05,-4.64 -7.62,-10.69 -7.62,-18.14 0,-7.46 2.57,-13.43 7.62,-17.9 5.14,-4.47 13.84,-6.71 26.18,-6.71l78.55 -194.87 -32.31 0c-12.35,0 -21.05,-2.32 -26.19,-6.87 -5.05,-4.56 -7.62,-10.53 -7.62,-17.98 0,-7.46 2.57,-13.43 7.62,-17.98 5.14,-4.56 13.84,-6.88 26.19,-6.88l106.71 0 99.09 244.58c12.34,0 20.21,1.49 23.61,4.47 6.8,6.13 10.19,12.93 10.19,20.38 0,7.46 -2.57,13.43 -7.62,17.98 -5.14,4.56 -13.84,6.88 -26.18,6.88l-65.54 0c-12.42,0 -21.12,-2.32 -26.26,-6.96 -5.05,-4.64 -7.62,-10.69 -7.62,-18.14 0,-7.46 2.57,-13.43 7.62,-17.9 5.14,-4.47 13.84,-6.71 26.26,-6.71l11.93 0 -12.26 -30.32zm-20.13 -49.72l-40.02 -98.75 -40.02 98.75 80.04 0zm335.63 -151.61c3.07,-4.31 6.46,-7.54 10.11,-9.7 3.65,-2.15 7.54,-3.23 11.76,-3.23 7.38,0 13.26,2.49 17.9,7.54 4.64,4.97 6.96,13.51 6.96,25.44l0 42.17c0,11.93 -2.32,20.46 -6.88,25.6 -4.64,5.05 -10.6,7.62 -17.81,7.62 -6.63,0 -12.01,-1.82 -16.07,-5.55 -3.98,-3.73 -7.04,-10.69 -8.95,-20.88 -1.16,-6.71 -3.4,-12.01 -6.79,-15.74 -6.63,-7.21 -15.91,-13.01 -27.76,-17.4 -11.85,-4.39 -23.78,-6.54 -35.79,-6.54 -14.83,0 -28.5,3.23 -40.93,9.69 -12.51,6.54 -23.45,17.07 -32.98,31.65 -9.52,14.58 -14.33,31.9 -14.33,52.03l0 32.31c0,23.95 8.7,44 26.1,60.07 17.4,15.99 41.51,24.03 72.41,24.03 18.48,0 34.05,-2.49 46.9,-7.54 7.45,-2.9 15.32,-8.7 23.77,-17.32 5.14,-5.22 9.2,-8.53 12.1,-10.11 2.9,-1.57 6.21,-2.32 9.94,-2.32 6.63,0 12.51,2.49 17.48,7.54 5.06,5.06 7.54,10.94 7.54,17.73 0,6.8 -3.39,14.09 -10.19,21.87 -9.86,11.36 -22.53,20.22 -38.11,26.77 -20.88,8.7 -43.91,13.09 -69.18,13.09 -29.41,0 -55.92,-6.05 -79.54,-18.23 -19.14,-9.69 -35.37,-25.02 -48.8,-45.98 -13.42,-21.05 -20.13,-43.91 -20.13,-68.69l0 -33.72c0,-25.93 6.05,-50.12 18.06,-72.49 12.02,-22.46 28.67,-39.77 50.04,-51.87 21.3,-12.18 43.92,-18.23 67.86,-18.23 14.33,0 27.76,1.66 40.27,5.06 12.59,3.31 24.19,8.45 35.04,15.33zm-82.52 328.09l0 -46.73c0,-6.13 1.58,-10.85 4.64,-14.08 3.07,-3.24 6.88,-4.81 11.44,-4.81 4.63,0 8.53,1.57 11.59,4.81 3.07,3.14 4.64,7.04 4.64,11.59l0 18.4c9.03,2.57 15.99,7.04 20.97,13.25 4.88,6.3 7.37,13.43 7.37,21.55 0,10.27 -3.98,19.13 -12.01,26.59 -7.96,7.46 -18.23,11.19 -30.66,11.19 -16.74,0 -31.57,-4.23 -44.32,-12.6 -5.64,-3.73 -8.46,-8.78 -8.46,-15.08 0,-4.39 1.58,-8.12 4.73,-11.35 3.15,-3.15 6.96,-4.72 11.35,-4.72 2.73,0 6.96,1.66 12.84,4.89 7.79,4.39 15.58,6.54 23.53,6.54 3.89,0 6.79,-0.66 8.78,-1.9 1.58,-1 2.4,-1.99 2.4,-2.9 0,-1 -0.66,-1.82 -1.98,-2.49 -2.74,-1.41 -6.96,-2.15 -12.68,-2.15l-14.17 0zm363.72 -126.76l-120.38 0 -12.26 30.32 11.93 0c12.42,0 21.21,2.32 26.34,6.88 5.06,4.55 7.63,10.52 7.63,17.97 0,7.46 -2.57,13.43 -7.63,17.98 -5.13,4.56 -13.92,6.88 -26.34,6.88l-65.46 0c-12.34,0 -21.04,-2.32 -26.18,-6.96 -5.05,-4.64 -7.62,-10.69 -7.62,-18.14 0,-7.46 2.57,-13.43 7.62,-17.9 5.14,-4.47 13.84,-6.71 26.18,-6.71l78.55 -194.87 -32.31 0c-12.35,0 -21.05,-2.32 -26.19,-6.87 -5.05,-4.56 -7.62,-10.53 -7.62,-17.98 0,-7.46 2.57,-13.43 7.62,-17.98 5.14,-4.56 13.84,-6.88 26.19,-6.88l106.71 0 99.09 244.58c12.34,0 20.21,1.49 23.61,4.47 6.8,6.13 10.19,12.93 10.19,20.38 0,7.46 -2.57,13.43 -7.62,17.98 -5.14,4.56 -13.84,6.88 -26.18,6.88l-65.54 0c-12.42,0 -21.12,-2.32 -26.26,-6.96 -5.05,-4.64 -7.62,-10.69 -7.62,-18.14 0,-7.46 2.57,-13.43 7.62,-17.9 5.14,-4.47 13.84,-6.71 26.26,-6.71l11.93 0 -12.26 -30.32zm-20.13 -49.72l-40.02 -98.75 -40.02 98.75 80.04 0zm7.37 -249.54c4.56,0 8.37,1.57 11.6,4.8 3.23,3.23 4.89,7.13 4.89,11.6 0,5.72 -5.88,13.17 -17.56,22.62 -11.77,9.44 -23.45,14.17 -35.05,14.17 -5.63,0 -11.27,-1.16 -16.82,-3.57 -5.63,-2.32 -16.4,-9.19 -32.39,-20.38 -6.63,-4.56 -11.19,-6.87 -13.59,-6.87 -3.56,0 -10.52,4.22 -20.88,12.75 -6.46,5.39 -11.77,8.12 -15.99,8.12 -4.23,0 -7.87,-1.57 -11.02,-4.72 -3.15,-3.15 -4.72,-6.96 -4.72,-11.52 0,-5.96 4.97,-12.84 14.83,-20.71 13.25,-10.85 25.52,-16.24 36.78,-16.24 5.22,0 10.03,0.91 14.59,2.65 6.96,2.99 16.07,8.37 27.42,16.33 11.27,7.87 18.72,11.84 22.29,11.84 4.22,0 10.35,-3.56 18.39,-10.77 5.22,-4.64 8.78,-7.54 10.77,-8.53 2.07,-1.08 4.23,-1.57 6.46,-1.57zm390.4 232.23c0,44.24 -14.08,81.03 -42.17,110.44 -28.17,29.41 -60.65,44.08 -97.6,44.08 -33.31,0 -63.22,-12.27 -89.98,-36.71 -33.05,-30.24 -49.62,-69.51 -49.62,-117.81 0,-48.22 16.57,-87.58 49.62,-117.98 26.76,-24.44 56.67,-36.71 89.98,-36.71 36.95,0 69.43,14.67 97.6,44.08 28.09,29.41 42.17,66.28 42.17,110.61zm-49.71 0c0,-30.24 -9.2,-55.35 -27.51,-75.23 -18.39,-19.8 -39.19,-29.74 -62.55,-29.74 -23.28,0 -43.99,9.94 -62.39,29.9 -18.31,19.89 -27.5,44.99 -27.5,75.07 0,30.16 9.19,55.18 27.5,75.06 18.4,19.8 39.11,29.75 62.39,29.75 23.36,0 44.16,-9.86 62.55,-29.67 18.31,-19.8 27.51,-44.82 27.51,-75.14z"/>
  <path class="fil4" d="M12184.26 2633.77l594.12 0 0 260.58 -289.77 0 0 385.66 260.58 0 0 239.73 -260.58 0 0 629.56 -304.35 0 0 -1515.53zm1115.28 1544.71c-63.93,0 -129.25,-9.38 -195.96,-28.14 -66.7,-18.76 -126.46,-48.29 -179.27,-88.59l0 -1340.43c52.81,-40.3 112.57,-69.83 179.27,-88.6 66.71,-18.76 132.03,-28.14 195.96,-28.14 63.93,0 129.25,9.38 195.96,28.14 66.71,18.77 126.47,48.3 179.28,88.6l0 1340.43c-52.81,40.3 -112.57,69.83 -179.28,88.59 -66.71,18.76 -132.03,28.14 -195.96,28.14zm47.95 -214.71c15.28,0 22.93,-6.95 22.93,-20.85l0 -1102.77c0,-13.9 -7.65,-20.85 -22.93,-20.85l-95.9 0c-15.28,0 -22.93,6.95 -22.93,20.85l0 1102.77c0,13.9 7.65,20.85 22.93,20.85l95.9 0zm798.41 -637.9l116.74 0c13.9,0 20.85,-6.95 20.85,-20.85l0 -439.86c0,-19.45 -9.73,-29.18 -29.19,-29.18l-108.4 0 0 489.89zm137.59 252.24c0,-13.9 -6.95,-20.85 -20.85,-20.85l-116.74 0 0 592.04 -304.35 0 0 -1515.53 346.05 0c80.6,0 156.69,7.29 228.26,21.89 71.58,14.59 131.68,38.56 180.33,71.92l0 612.88c-13.9,18.07 -31.27,36.13 -52.12,54.2 -20.85,18.07 -42.39,34.74 -64.62,50.03 22.23,15.29 43.77,31.27 64.62,47.95 20.85,16.68 38.22,33.35 52.12,50.03l0 606.63 -312.7 0 0 -571.19zm771.32 -387.74c0,15.28 1.04,24.66 3.12,28.14 2.09,3.47 7.3,7.29 15.64,11.46l412.76 195.96c6.94,27.8 10.42,65.32 10.42,112.57l0 523.25c-52.81,40.3 -111.88,69.83 -177.2,88.59 -65.31,18.76 -129.94,28.14 -193.87,28.14 -63.93,0 -128.2,-9.38 -192.83,-28.14 -64.62,-18.76 -123.34,-48.29 -176.15,-88.59l0 -385.66 302.27 0 0 266.83c0,13.9 7.65,20.85 22.94,20.85l93.8 0c15.29,0 22.94,-6.95 22.94,-20.85l0 -321.03c0,-19.46 -1.05,-31.97 -3.13,-37.53 -2.09,-5.56 -10.77,-11.81 -26.06,-18.76l-404.42 -191.79c-2.78,-13.89 -4.86,-31.96 -6.25,-54.2 -1.39,-22.23 -2.09,-41.69 -2.09,-58.37l0 -539.92c52.81,-40.3 111.53,-69.83 176.15,-88.6 64.63,-18.76 128.9,-28.14 192.83,-28.14 63.93,0 128.56,9.38 193.87,28.14 65.32,18.77 124.39,48.3 177.2,88.6l0 396.08 -302.27 0 0 -277.25c0,-13.9 -7.65,-20.85 -22.93,-20.85l-93.81 0c-15.29,0 -22.93,6.95 -22.93,20.85l0 350.22zm602.46 -556.6l594.12 0 0 260.58 -289.77 0 0 385.66 260.58 0 0 239.73 -260.58 0 0 368.98 289.77 0 0 260.58 -594.12 0 0 -1515.53zm910.99 1515.53l0 -1232.02 -25.02 -22.93 -168.85 0 0 -260.58 700.43 0 0 260.58 -168.85 0 -25.02 22.93 0 1232.02 -312.69 0zm946.42 0l-306.44 0 0 -1515.53 306.44 0 0 1515.53z"/>
  <path class="fil1" d="M10321.48 13408.81l9055.97 0c138.07,0 251.03,112.96 251.03,251.03l0 623.36c0,138.07 -112.96,251.03 -251.03,251.03l-9055.97 0c-138.08,0 -251.03,-112.96 -251.03,-251.03l0 -623.36c0,-138.07 112.95,-251.03 251.03,-251.03z"/>
  <path class="fil5" d="M14171.25 13728.49l177.16 0 0 59.05 -112.2 0 0 109.25 89.17 0 0 59.05 -89.17 0 0 126.97 112.2 0 0 59.05 -177.16 0 0 -413.37zm214.36 0l81.49 0 63.19 247.43 1.18 0 0 -247.43 57.87 0 0 413.37 -66.73 0 -77.95 -301.76 -1.18 0 0 301.76 -57.87 0 0 -413.37zm302.95 59.05l-67.91 0 0 -59.05 200.78 0 0 59.05 -67.91 0 0 354.32 -64.96 0 0 -354.32zm164.16 -59.05l96.26 0c33.46,0 57.87,7.77 73.22,23.32 15.36,15.56 23.03,39.47 23.03,71.75l0 25.4c0,42.91 -14.17,70.07 -42.51,81.49l0 1.18c15.74,4.73 26.87,14.37 33.36,28.94 6.5,14.56 9.75,34.05 9.75,58.46l0 72.63c0,11.82 0.39,21.36 1.18,28.65 0.78,7.28 2.75,14.46 5.9,21.55l-66.14 0c-2.36,-6.69 -3.93,-12.99 -4.72,-18.9 -0.79,-5.9 -1.18,-16.53 -1.18,-31.89l0 -75.58c0,-18.9 -3.05,-32.09 -9.16,-39.57 -6.1,-7.48 -16.63,-11.22 -31.59,-11.22l-22.44 0 0 177.16 -64.96 0 0 -413.37zm88.58 177.16c12.99,0 22.74,-3.35 29.23,-10.04 6.5,-6.69 9.75,-17.91 9.75,-33.66l0 -31.89c0,-14.96 -2.66,-25.79 -7.98,-32.48 -5.31,-6.69 -13.68,-10.04 -25.09,-10.04l-29.53 0 0 118.11 23.62 0zm199.6 -177.16l87.99 0 67.32 413.37 -64.96 0 -11.81 -82.08 0 1.18 -73.82 0 -11.81 80.9 -60.23 0 67.32 -413.37zm70.86 276.37l-28.94 -204.33 -1.18 0 -28.34 204.33 58.46 0zm115.74 -276.37l96.26 0c33.46,0 57.87,7.77 73.22,23.32 15.36,15.56 23.03,39.47 23.03,71.75l0 25.4c0,42.91 -14.17,70.07 -42.51,81.49l0 1.18c15.74,4.73 26.87,14.37 33.36,28.94 6.5,14.56 9.75,34.05 9.75,58.46l0 72.63c0,11.82 0.39,21.36 1.18,28.65 0.78,7.28 2.75,14.46 5.9,21.55l-66.14 0c-2.36,-6.69 -3.93,-12.99 -4.72,-18.9 -0.79,-5.9 -1.18,-16.53 -1.18,-31.89l0 -75.58c0,-18.9 -3.05,-32.09 -9.16,-39.57 -6.1,-7.48 -16.63,-11.22 -31.59,-11.22l-22.44 0 0 177.16 -64.96 0 0 -413.37zm88.58 177.16c12.99,0 22.74,-3.35 29.23,-10.04 6.5,-6.69 9.75,-17.91 9.75,-33.66l0 -31.89c0,-14.96 -2.66,-25.79 -7.98,-32.48 -5.31,-6.69 -13.68,-10.04 -25.09,-10.04l-29.53 0 0 118.11 23.62 0z"/>
  <g id="_2399547155680">
   <path class="fil6" d="M-921.78 19549.92c23.42,5.46 46.2,11.83 70.69,16.77l149.81 25.11c25.75,3.2 56.1,7.76 82.07,7.76l0 657.14 101.64 0 0 -302.57 99.28 0 0 302.57 101.65 0 0 -657.14c78.72,0 224.03,-31.34 302.56,-49.64 -0.43,-19.56 -21.82,-79.78 -23.64,-101.64l-95.54 20.28c-222.94,41.95 -495.04,39.29 -716.62,-9.45 -14.26,-3.14 -34.77,-10.53 -48.26,-10.83 -1.8,21.65 -23.2,81.85 -23.64,101.64z"/>
   <path class="fil6" d="M-569.57 19346.64c0,40.84 23.88,74.69 55.91,90.64 29.25,14.56 60.51,15.25 90.24,1.14 72.4,-34.35 79.94,-144.81 -2.71,-183.22 -27.24,-12.66 -54.71,-12.95 -81.99,-0.76 -11.21,5.02 -22.87,12.05 -31.41,20.59 -6.7,6.71 -16.76,20.89 -20.32,29.32 -5.38,12.72 -9.72,24.55 -9.72,42.29z"/>
  </g>
  <path class="fil1" d="M10321.48 9160.95l9055.97 0c138.07,0 251.03,112.96 251.03,251.03l0 623.36c0,138.07 -112.96,251.03 -251.03,251.03l-9055.97 0c-138.08,0 -251.03,-112.96 -251.03,-251.03l0 -623.36c0,-138.07 112.95,-251.03 251.03,-251.03z"/>
  <path class="fil1" d="M10321.48 11299.74l9055.97 0c138.07,0 251.03,112.96 251.03,251.03l0 623.36c0,138.07 -112.96,251.03 -251.03,251.03l-9055.97 0c-138.08,0 -251.03,-112.96 -251.03,-251.03l0 -623.36c0,-138.07 112.95,-251.03 251.03,-251.03z"/>
  <path class="fil6" d="M11984.06 11299.74l7393.39 0c138.07,0 251.03,112.96 251.03,251.03l0 623.36c0,138.07 -112.96,251.03 -251.03,251.03l-7393.39 0 0 -1125.42z"/>
  <path class="fil6" d="M11984.06 9160.95l7393.39 0c138.07,0 251.03,112.96 251.03,251.03l0 623.36c0,138.07 -112.96,251.03 -251.03,251.03l-7393.39 0 0 -1125.42z"/>
  <g id="_2399547156400">
   <path class="fil6" d="M10850.06 11705.26c0,39.75 16.21,67.49 31.75,96.86 -8.14,5.46 -199.69,198.9 -216.35,215.56l-53.99 53.98c-6.33,6.23 -12.28,12.26 -12.3,24.15l0 143.02c0.02,16.21 13.95,30.13 30.17,30.13l142.91 0c16.23,0 30.17,-13.94 30.17,-30.17l0 -58.75 58.75 0c16.23,0 30.17,-13.94 30.17,-30.17l0 -58.75 58.75 0c28.05,0 39.41,-35.08 21.92,-53.68 -3.59,-3.82 -12.02,-9.84 -18.74,-9.84l-98.45 0c-10.86,0 -26.99,13.16 -26.99,30.17l0 58.75 -61.93 0c-10.86,0 -27,13.16 -27,30.17l0 58.75 -76.21 0 0 -92.09c0,-5.4 67.82,-70.21 72.64,-75.03 25,-25 48.84,-48.84 73.84,-73.84l111.15 -111.15c20.38,-20.38 32.95,-25.51 32.95,-49.62 0,-16.76 -33.53,-55.63 -38.07,-87.4 -5.67,-39.7 22.85,-58.56 43.23,-78.93l93.68 -93.69c30.95,-31.05 54.23,-27.17 89.44,-12.42 27.33,11.46 56.91,27.96 80.07,45.37 44.27,33.27 59.76,54.44 89.58,99.39 8.91,13.45 37.45,69.42 37.45,87.98 0,36.13 -31.06,58.62 -57.55,85.36l-24.62 23.01c-9.5,9.51 -63.91,65.47 -72.11,70.8 -54.24,35.28 -105.6,-28.32 -133.12,-28.32 -28.77,0 -51.12,40.25 -14.41,62.05 27.66,16.42 72.37,41.16 106.5,41.16 50.28,0 65.04,-12.29 97.1,-37.87l124.04 -123.67c43.1,-42.88 47.69,-100.52 21.28,-155.5 -27.86,-58.01 -44.15,-90.47 -91.96,-138.28 -6.18,-6.18 -12.53,-13.48 -19.33,-18.79 -46.57,-36.39 -67.1,-49.64 -118.38,-72.16 -22.19,-9.75 -36.81,-15.81 -66.56,-15.84l-0.23 0c-67.97,0.03 -94,49.12 -125.86,75.75l-99.91 101.75c-3.95,5.93 -8.84,13.15 -11.71,20.05 -6.54,15.71 -11.76,30.17 -11.76,51.75z"/>
   <path class="fil6" d="M11126.35 11673.5c0,16.5 1.68,28.02 14.62,40.96 33.49,33.48 87,5.09 87,-31.43l0 -9.53c0,-22.02 -24.15,-46.05 -46.04,-46.05l-9.53 0c-21.9,0 -46.05,24.03 -46.05,46.05z"/>
  </g>
  <path class="fil6" d="M11005.61 9685.56c-38.8,0 -81.33,-17.95 -107.61,-44.81 -27.24,-27.85 -44.82,-68.82 -44.82,-107.61 0,-4.85 1.21,-10.68 1.73,-17.34 2.52,-32.25 20.62,-67.83 43.07,-90.29 27.08,-27.07 69.51,-44.8 107.63,-44.8 4.86,0 10.68,1.21 17.34,1.73 23.04,1.8 51.01,12.67 69.33,25.93l20.96 17.14c3.94,3.94 4.99,6.24 8.68,10.37 22.28,24.94 36.12,64.54 36.12,97.26 0,4.86 -1.21,10.68 -1.73,17.34 -0.37,4.76 -1.79,12.42 -2.69,16.35 -8.86,38.68 -29.78,68.22 -61.34,91.08 -22.23,16.1 -56.92,27.65 -86.67,27.65zm406.44 342.75l0 0.35c-0.02,31.75 -7.29,52.51 -28.17,73.27 -8.9,8.86 -14.69,13.38 -26.83,19.21 -8.96,4.31 -22.9,8.94 -35.39,8.96l-632.06 0c-24.11,-0.02 -46.86,-12.86 -62.26,-28.17 -38.8,-38.57 -31.48,-87.66 -13.65,-135.13 17.82,-47.47 46.08,-104.77 81.9,-141.96 10.92,-11.34 17.01,-18.96 28.54,-28.61 3.56,-2.99 5.31,-5.61 8.87,-8.59 14,-11.73 26.76,-22.25 42.06,-32.56 19.84,-13.37 50.6,-29.95 73.6,-39.13 8.75,-3.49 17.33,-7.56 26.76,-9.75 -3.46,-4.73 -21.12,-16.04 -32.68,-30.83 -9.79,-12.54 -17.57,-21.93 -25.52,-36.39 -22.06,-40.12 -27.53,-69.5 -27.53,-115.36 0,-28.58 10.99,-63.48 20.63,-82.57 24.97,-49.46 53.71,-78.21 103.2,-103.2 33.32,-16.82 62.16,-20.63 101.62,-20.63 38.42,0 88.17,19.09 115.67,39.91 25.21,19.08 32.38,26.45 51.5,51.71 20.29,26.81 39.22,77.14 39.22,114.78 0,64.47 -14.13,103.46 -53.74,152.65 -3.63,4.52 -11.2,12.04 -15.73,16.02 -4.31,3.81 -13.42,10.02 -16.26,13.91 31.69,7.38 89.32,40.4 116.15,60.08l27.17 22.05c4.65,4.48 7.96,8.42 12.65,12.75l19.06 19.04c2.12,2.27 3.44,3.18 5.5,5.62l11.85 13.55c16.84,21.25 40.18,47.87 16.87,69.8 -12.47,11.73 -32.39,13.14 -45.39,0 -6.65,-6.72 -19.39,-29.06 -40.42,-50.08 -5.42,-5.41 -9.67,-9.66 -15.08,-15.08 -59.88,-59.98 -154.13,-94.87 -238.55,-94.87 -94.35,0 -182.74,39.05 -247.28,103.6 -31.73,31.74 -52.31,62.68 -71.31,103.33 -8.98,19.23 -16.76,42.47 -21.82,65.51 -6.18,28.15 8.07,45.1 37.17,45.1l606.49 0c12.97,0 24.25,-3.58 30.63,-10.64 3.36,-3.72 5.88,-9.06 7.14,-13.58 2.9,-10.35 0.33,-7.99 0.33,-17.06 0,-41.32 40.15,-45.64 57.45,-24.11 5.35,6.65 7.62,15.59 7.64,27.1z"/>
  <path class="fil7" d="M12443.34 9565.5l41.5 0 0 180.66c0,31.45 -3.57,56.43 -10.63,74.93 -7.13,18.42 -19.95,33.49 -38.45,45.07 -18.56,11.58 -42.81,17.4 -72.96,17.4 -29.2,0 -53.15,-5.02 -71.72,-15.14 -18.64,-10.12 -31.9,-24.69 -39.83,-43.84 -7.94,-19.15 -11.94,-45.29 -11.94,-78.42l0 -180.66 41.5 0 0 180.58c0,27.17 2.55,47.26 7.57,60.08 5.03,12.89 13.62,22.86 25.93,29.78 12.23,6.99 27.23,10.49 44.92,10.49 30.3,0 51.92,-6.92 64.81,-20.68 12.89,-13.84 19.3,-40.34 19.3,-79.67l0 -180.58zm90.5 245.1l38.01 -6.12c2.12,15.22 8.09,26.87 17.84,35.03 9.76,8.08 23.45,12.16 40.93,12.16 17.69,0 30.8,-3.57 39.39,-10.78 8.52,-7.13 12.82,-15.58 12.82,-25.27 0,-8.66 -3.86,-15.51 -11.51,-20.46 -5.39,-3.42 -18.49,-7.72 -39.32,-13.03 -28.11,-7.06 -47.55,-13.18 -58.47,-18.35 -10.85,-5.24 -19.08,-12.38 -24.69,-21.55 -5.6,-9.11 -8.44,-19.23 -8.44,-30.3 0,-10.12 2.33,-19.44 6.91,-28.03 4.67,-8.59 10.93,-15.73 18.86,-21.41 5.98,-4.37 14.13,-8.08 24.4,-11.14 10.34,-3.06 21.33,-4.59 33.13,-4.59 17.77,0 33.35,2.55 46.75,7.72 13.47,5.1 23.37,12.09 29.78,20.83 6.34,8.81 10.78,20.53 13.18,35.24l-37.57 5.24c-1.68,-11.79 -6.63,-21.04 -14.79,-27.67 -8.15,-6.62 -19.66,-9.9 -34.58,-9.9 -17.55,0 -30.15,2.91 -37.65,8.74 -7.5,5.82 -11.29,12.67 -11.29,20.46 0,4.95 1.53,9.47 4.66,13.47 3.14,4.08 8.01,7.5 14.71,10.19 3.86,1.46 15.08,4.74 33.86,9.83 27.09,7.21 46.02,13.18 56.8,17.77 10.78,4.59 19.22,11.36 25.34,20.1 6.19,8.81 9.25,19.73 9.25,32.84 0,12.74 -3.72,24.76 -11.22,36.04 -7.5,11.29 -18.27,20.03 -32.33,26.22 -14.12,6.19 -30.07,9.25 -47.84,9.25 -29.42,0 -51.92,-6.12 -67.35,-18.28 -15.44,-12.23 -25.27,-30.29 -29.57,-54.25zm381.85 67.72l0 -33.71c-17.62,25.7 -41.5,38.52 -71.72,38.52 -13.33,0 -25.78,-2.55 -37.35,-7.65 -11.58,-5.17 -20.18,-11.58 -25.78,-19.3 -5.61,-7.79 -9.54,-17.25 -11.8,-28.47 -1.53,-7.57 -2.33,-19.51 -2.33,-35.82l0 -140.32 38.45 0 0 125.46c0,20.03 0.8,33.57 2.33,40.49 2.4,10.12 7.5,17.98 15.36,23.74 7.79,5.75 17.41,8.66 28.91,8.66 11.51,0 22.28,-2.91 32.33,-8.81 10.05,-5.9 17.19,-13.98 21.41,-24.1 4.15,-10.12 6.26,-24.9 6.26,-44.2l0 -121.24 38.45 0 0 226.75 -34.52 0zm242.99 -28.4c-14.27,12.16 -28.03,20.68 -41.21,25.71 -13.18,5.02 -27.31,7.5 -42.45,7.5 -24.91,0 -44.06,-6.05 -57.45,-18.21 -13.4,-12.09 -20.1,-27.6 -20.1,-46.46 0,-11.06 2.55,-21.18 7.57,-30.36 5.1,-9.17 11.72,-16.46 19.88,-21.99 8.23,-5.53 17.4,-9.76 27.67,-12.6 7.57,-1.96 19.01,-3.86 34.22,-5.75 31.02,-3.64 53.96,-8.08 68.6,-13.18 0.14,-5.24 0.22,-8.59 0.22,-9.98 0,-15.58 -3.64,-26.57 -10.93,-32.98 -9.83,-8.67 -24.46,-12.96 -43.83,-12.96 -18.13,0 -31.53,3.2 -40.12,9.54 -8.67,6.33 -15,17.54 -19.15,33.71l-37.58 -5.24c3.42,-16.1 9.03,-29.13 16.9,-39.03 7.86,-9.91 19.22,-17.48 34.07,-22.87 14.79,-5.31 32.04,-8.01 51.56,-8.01 19.37,0 35.17,2.26 47.33,6.85 12.09,4.59 21.04,10.26 26.72,17.18 5.68,6.92 9.69,15.66 12.02,26.22 1.23,6.55 1.89,18.35 1.89,35.31l0 50.97c0,35.61 0.8,58.11 2.4,67.65 1.53,9.54 4.74,18.64 9.4,27.38l-40.2 0c-3.86,-8.08 -6.33,-17.55 -7.43,-28.4zm-3.05 -85.19c-13.98,5.68 -34.96,10.48 -62.92,14.41 -15.87,2.26 -27.09,4.81 -33.64,7.65 -6.55,2.84 -11.58,6.99 -15.14,12.38 -3.57,5.46 -5.39,11.5 -5.39,18.2 0,10.12 3.86,18.64 11.65,25.42 7.79,6.77 19.15,10.19 34.08,10.19 14.78,0 27.96,-3.2 39.54,-9.68 11.5,-6.41 20.02,-15.22 25.41,-26.36 4.15,-8.67 6.19,-21.41 6.19,-38.23l0.22 -13.98zm-80.83 -141.12l27.96 -59.86 50.68 0 -46.75 59.86 -31.89 0zm178.33 254.71l0 -226.75 34.51 0 0 34.73c8.81,-16.09 16.97,-26.72 24.47,-31.82 7.5,-5.17 15.73,-7.72 24.68,-7.72 12.97,0 26.15,4.08 39.54,12.16l-13.69 35.47c-9.32,-5.25 -18.64,-7.87 -27.96,-7.87 -8.37,0 -15.87,2.55 -22.5,7.57 -6.62,5.03 -11.36,12.02 -14.2,20.98 -4.29,13.61 -6.4,28.54 -6.4,44.78l0 118.47 -38.45 0zm145.93 -269.13l0 -43.69 38.44 0 0 43.69 -38.44 0zm0 269.13l0 -226.75 38.44 0 0 226.75 -38.44 0zm82.64 -113.38c0,-41.87 11.65,-72.89 35.02,-93.06 19.44,-16.74 43.26,-25.12 71.29,-25.12 31.09,0 56.58,10.2 76.38,30.59 19.74,20.31 29.64,48.49 29.64,84.39 0,29.13 -4.37,51.99 -13.11,68.67 -8.73,16.67 -21.48,29.63 -38.22,38.88 -16.68,9.25 -34.96,13.84 -54.69,13.84 -31.75,0 -57.38,-10.13 -76.97,-30.44 -19.58,-20.32 -29.34,-49.59 -29.34,-87.75zm39.32 0.08c0,28.98 6.33,50.68 19,65.02 12.75,14.42 28.69,21.63 47.99,21.63 19.08,0 34.95,-7.21 47.69,-21.7 12.68,-14.49 19.01,-36.55 19.01,-66.19 0,-27.96 -6.41,-49.15 -19.15,-63.5 -12.74,-14.41 -28.62,-21.62 -47.55,-21.62 -19.3,0 -35.24,7.13 -47.99,21.48 -12.67,14.34 -19,35.97 -19,64.88z"/>
  <path class="fil7" d="M12354.24 11918.37l38.88 -3.49c1.82,15.73 6.12,28.61 12.89,38.74 6.77,10.04 17.26,18.2 31.46,24.46 14.2,6.19 30.22,9.32 47.98,9.32 15.8,0 29.71,-2.33 41.8,-7.06 12.09,-4.73 21.04,-11.21 26.94,-19.44 5.9,-8.23 8.89,-17.19 8.89,-26.8 0,-9.76 -2.84,-18.28 -8.52,-25.63 -5.68,-7.28 -15.08,-13.4 -28.18,-18.42 -8.38,-3.21 -26.95,-8.3 -55.71,-15.22 -28.76,-6.92 -48.86,-13.4 -60.36,-19.52 -14.93,-7.86 -26,-17.62 -33.28,-29.2 -7.36,-11.57 -11,-24.61 -11,-38.95 0,-15.88 4.52,-30.66 13.47,-44.35 8.96,-13.76 22,-24.17 39.25,-31.31 17.19,-7.14 36.34,-10.7 57.38,-10.7 23.16,0 43.62,3.71 61.31,11.21 17.7,7.43 31.32,18.42 40.85,32.99 9.54,14.49 14.64,30.94 15.37,49.29l-39.76 3.06c-2.11,-19.73 -9.32,-34.66 -21.63,-44.71 -12.3,-10.12 -30.51,-15.14 -54.54,-15.14 -25.04,0 -43.32,4.58 -54.75,13.76 -11.44,9.17 -17.19,20.24 -17.19,33.2 0,11.22 4.08,20.46 12.16,27.75 8.01,7.21 28.76,14.71 62.41,22.28 33.64,7.64 56.72,14.27 69.24,19.95 18.14,8.37 31.61,18.93 40.27,31.82 8.67,12.82 12.96,27.6 12.96,44.35 0,16.67 -4.73,32.25 -14.27,46.96 -9.54,14.71 -23.15,26.14 -40.99,34.3 -17.84,8.16 -37.87,12.23 -60.22,12.23 -28.26,0 -51.92,-4.15 -71,-12.38 -19.15,-8.22 -34.08,-20.6 -44.93,-37.21 -10.92,-16.52 -16.6,-35.24 -17.18,-56.14zm454.81 27.09l39.76 5.24c-6.19,23.09 -17.77,41.07 -34.66,53.82 -16.9,12.74 -38.45,19.15 -64.74,19.15 -33.06,0 -59.27,-10.2 -78.64,-30.59 -19.37,-20.31 -29.05,-48.93 -29.05,-85.7 0,-38.01 9.75,-67.58 29.34,-88.55 19.59,-21.04 45,-31.53 76.24,-31.53 30.22,0 54.9,10.27 74.05,30.88 19.15,20.6 28.77,49.59 28.77,86.94 0,2.26 -0.08,5.68 -0.22,10.19l-168.86 0c1.45,24.84 8.44,43.91 21.11,57.09 12.6,13.18 28.4,19.81 47.26,19.81 14.05,0 26.07,-3.71 35.97,-11.14 9.98,-7.43 17.84,-19.3 23.67,-35.61zm-125.83 -61.6l126.26 0c-1.67,-19.08 -6.55,-33.35 -14.49,-42.89 -12.16,-14.78 -28.03,-22.21 -47.47,-22.21 -17.62,0 -32.41,5.9 -44.42,17.69 -11.94,11.8 -18.57,27.6 -19.88,47.41zm214.16 135l0 -226.75 34.51 0 0 32.18c16.6,-24.68 40.63,-36.99 72.02,-36.99 13.69,0 26.21,2.48 37.64,7.36 11.43,4.88 20.03,11.36 25.71,19.29 5.68,7.94 9.68,17.41 11.94,28.33 1.38,7.14 2.11,19.59 2.11,37.35l0 139.23 -38.45 0 0 -137.77c0,-15.65 -1.45,-27.38 -4.44,-35.1 -2.98,-7.72 -8.3,-13.9 -15.87,-18.57 -7.58,-4.58 -16.53,-6.91 -26.73,-6.91 -16.31,0 -30.36,5.17 -42.23,15.58 -11.87,10.34 -17.77,30.07 -17.77,59.05l0 123.72 -38.44 0zm242.99 0l0 -312.82 38.44 0 0 112.57c17.84,-20.89 40.34,-31.31 67.58,-31.31 16.67,0 31.16,3.28 43.54,9.91 12.31,6.62 21.12,15.72 26.43,27.38 5.32,11.65 7.94,28.61 7.94,50.75l0 143.52 -38.45 0 0 -143.38c0,-19.15 -4.15,-33.13 -12.38,-41.87 -8.3,-8.73 -19.95,-13.1 -35.09,-13.1 -11.29,0 -21.92,2.91 -31.9,8.81 -9.97,5.9 -17.04,13.91 -21.33,24.03 -4.23,10.05 -6.34,23.95 -6.34,41.72l0 123.79 -38.44 0zm391.09 -28.4c-14.27,12.16 -28.03,20.68 -41.21,25.71 -13.18,5.02 -27.31,7.5 -42.45,7.5 -24.91,0 -44.06,-6.05 -57.45,-18.21 -13.4,-12.09 -20.1,-27.6 -20.1,-46.46 0,-11.06 2.55,-21.18 7.57,-30.36 5.1,-9.17 11.72,-16.46 19.88,-21.99 8.23,-5.53 17.4,-9.76 27.67,-12.6 7.57,-1.96 19.01,-3.86 34.22,-5.75 31.02,-3.64 53.96,-8.08 68.6,-13.18 0.14,-5.24 0.22,-8.59 0.22,-9.98 0,-15.58 -3.64,-26.57 -10.93,-32.98 -9.83,-8.67 -24.46,-12.96 -43.83,-12.96 -18.13,0 -31.53,3.2 -40.12,9.54 -8.67,6.33 -15,17.54 -19.15,33.71l-37.58 -5.24c3.42,-16.1 9.03,-29.13 16.9,-39.03 7.86,-9.91 19.22,-17.48 34.07,-22.87 14.79,-5.31 32.04,-8.01 51.56,-8.01 19.37,0 35.17,2.26 47.33,6.85 12.09,4.59 21.04,10.26 26.72,17.18 5.68,6.92 9.69,15.66 12.02,26.22 1.23,6.55 1.89,18.35 1.89,35.31l0 50.97c0,35.61 0.8,58.11 2.4,67.65 1.53,9.54 4.74,18.64 9.4,27.38l-40.2 0c-3.86,-8.08 -6.33,-17.55 -7.43,-28.4zm-3.05 -85.19c-13.98,5.68 -34.96,10.48 -62.92,14.41 -15.87,2.26 -27.09,4.81 -33.64,7.65 -6.55,2.84 -11.58,6.99 -15.14,12.38 -3.57,5.46 -5.39,11.5 -5.39,18.2 0,10.12 3.86,18.64 11.65,25.42 7.79,6.77 19.15,10.19 34.08,10.19 14.78,0 27.96,-3.2 39.54,-9.68 11.5,-6.41 20.02,-15.22 25.41,-26.36 4.15,-8.67 6.19,-21.41 6.19,-38.23l0.22 -13.98z"/>
  <path class="fil4" d="M10697.34 8034.93l149.75 0 0 49.92 -94.85 0 0 92.34 75.38 0 0 49.92 -75.38 0 0 107.32 94.85 0 0 49.92 -149.75 0 0 -349.42zm181.2 0l68.88 0 53.41 209.15 1 0 0 -209.15 48.92 0 0 349.42 -56.41 0 -65.89 -255.08 -1 0 0 255.08 -48.91 0 0 -349.42zm256.07 49.92l-57.4 0 0 -49.92 169.72 0 0 49.92 -57.41 0 0 299.5 -54.91 0 0 -299.5zm138.78 -49.92l81.36 0c28.29,0 48.92,6.57 61.9,19.72 12.98,13.14 19.47,33.36 19.47,60.65l0 21.46c0,36.27 -11.98,59.24 -35.94,68.89l0 1c13.31,3.99 22.71,12.14 28.2,24.45 5.49,12.32 8.23,28.79 8.23,49.42l0 61.4c0,9.98 0.34,18.05 1,24.21 0.67,6.16 2.33,12.23 4.99,18.22l-55.9 0c-2,-5.66 -3.33,-10.98 -4,-15.97 -0.66,-5 -0.99,-13.98 -0.99,-26.96l0 -63.89c0,-15.98 -2.58,-27.12 -7.74,-33.45 -5.16,-6.32 -14.06,-9.48 -26.71,-9.48l-18.97 0 0 149.75 -54.9 0 0 -349.42zm74.87 149.75c10.98,0 19.22,-2.83 24.71,-8.48 5.49,-5.66 8.24,-15.15 8.24,-28.46l0 -26.95c0,-12.65 -2.25,-21.8 -6.74,-27.46 -4.49,-5.65 -11.57,-8.48 -21.22,-8.48l-24.96 0 0 99.83 19.97 0zm126.3 -149.75l149.75 0 0 49.92 -94.85 0 0 92.34 75.38 0 0 49.92 -75.38 0 0 107.32 94.85 0 0 49.92 -149.75 0 0 -349.42zm338.44 354.41c-26.29,0 -46.34,-7.49 -60.15,-22.46 -13.81,-14.98 -20.72,-36.11 -20.72,-63.4l0 -187.68c0,-27.29 6.91,-48.42 20.72,-63.4 13.81,-14.97 33.86,-22.46 60.15,-22.46 26.29,0 46.34,7.49 60.15,22.46 13.81,14.98 20.71,36.11 20.71,63.4l0 36.94 -51.91 0 0 -40.44c0,-21.63 -9.15,-32.44 -27.46,-32.44 -18.3,0 -27.45,10.81 -27.45,32.44l0 195.18c0,21.3 9.15,31.94 27.45,31.94 18.31,0 27.46,-10.64 27.46,-31.94l0 -53.41 51.91 0 0 49.41c0,27.29 -6.9,48.42 -20.71,63.4 -13.81,14.97 -33.86,22.46 -60.15,22.46zm194.17 0c-26.95,0 -47.58,-7.65 -61.89,-22.96 -14.31,-15.31 -21.47,-36.94 -21.47,-64.89l0 -183.7c0,-27.95 7.16,-49.58 21.47,-64.89 14.31,-15.31 34.94,-22.96 61.89,-22.96 26.96,0 47.59,7.65 61.9,22.96 14.31,15.31 21.47,36.94 21.47,64.89l0 183.7c0,27.95 -7.16,49.58 -21.47,64.89 -14.31,15.31 -34.94,22.96 -61.9,22.96zm0 -49.92c18.97,0 28.46,-11.48 28.46,-34.44l0 -190.68c0,-22.96 -9.49,-34.44 -28.46,-34.44 -18.96,0 -28.45,11.48 -28.45,34.44l0 190.68c0,22.96 9.49,34.44 28.45,34.44zm120.31 -304.49l78.37 0 34.94 250.09 1 0 34.94 -250.09 78.37 0 0 349.42 -51.92 0 0 -264.56 -0.99 0 -39.94 264.56 -45.92 0 -39.94 -264.56 -0.99 0 0 264.56 -47.92 0 0 -349.42zm428.28 354.41c-26.62,0 -46.92,-7.57 -60.9,-22.71 -13.97,-15.14 -20.96,-36.86 -20.96,-65.14l0 -266.56 54.91 0 0 270.55c0,11.98 2.41,20.63 7.24,25.96 4.82,5.32 11.73,7.98 20.71,7.98 8.99,0 15.89,-2.66 20.72,-7.98 4.82,-5.33 7.24,-13.98 7.24,-25.96l0 -270.55 52.91 0 0 266.56c0,28.28 -6.99,50 -20.97,65.14 -13.97,15.14 -34.27,22.71 -60.9,22.71zm192.19 0c-26.63,0 -46.76,-7.57 -60.4,-22.71 -13.65,-15.14 -20.47,-36.86 -20.47,-65.14l0 -19.97 51.92 0 0 23.96c0,22.63 9.48,33.94 28.45,33.94 9.32,0 16.39,-2.74 21.21,-8.23 4.83,-5.49 7.24,-14.39 7.24,-26.71 0,-14.64 -3.33,-27.53 -9.98,-38.68 -6.66,-11.15 -18.97,-24.55 -36.94,-40.19 -22.63,-19.96 -38.44,-38.02 -47.42,-54.16 -8.99,-16.14 -13.48,-34.36 -13.48,-54.66 0,-27.62 6.99,-49 20.97,-64.14 13.97,-15.14 34.27,-22.71 60.89,-22.71 26.29,0 46.18,7.57 59.65,22.71 13.48,15.14 20.22,36.86 20.22,65.14l0 14.48 -51.91 0 0 -17.97c0,-11.98 -2.33,-20.72 -6.99,-26.21 -4.66,-5.49 -11.48,-8.23 -20.47,-8.23 -18.3,0 -27.45,11.14 -27.45,33.44 0,12.65 3.41,24.46 10.23,35.44 6.82,10.98 19.22,24.29 37.19,39.94 22.96,19.96 38.77,38.1 47.42,54.4 8.65,16.31 12.98,35.45 12.98,57.41 0,28.62 -7.07,50.58 -21.22,65.89 -14.14,15.31 -34.69,22.96 -61.64,22.96zm194.17 0c-26.62,0 -46.92,-7.57 -60.9,-22.71 -13.97,-15.14 -20.96,-36.86 -20.96,-65.14l0 -266.56 54.91 0 0 270.55c0,11.98 2.41,20.63 7.24,25.96 4.82,5.32 11.73,7.98 20.71,7.98 8.99,0 15.89,-2.66 20.72,-7.98 4.82,-5.33 7.24,-13.98 7.24,-25.96l0 -270.55 52.91 0 0 266.56c0,28.28 -6.99,50 -20.97,65.14 -13.97,15.14 -34.27,22.71 -60.9,22.71zm162.24 -354.41l74.37 0 56.91 349.42 -54.91 0 -9.98 -69.38 0 0.99 -62.4 0 -9.98 68.39 -50.92 0 56.91 -349.42zm59.9 233.61l-24.46 -172.71 -1 0 -23.96 172.71 49.42 0zm-17.48 -314.47l59.91 0 -53.42 57.4 -41.43 0 34.94 -57.4zm115.32 80.86l81.36 0c28.29,0 48.92,6.57 61.9,19.72 12.98,13.14 19.47,33.36 19.47,60.65l0 21.46c0,36.27 -11.98,59.24 -35.94,68.89l0 1c13.31,3.99 22.71,12.14 28.2,24.45 5.49,12.32 8.23,28.79 8.23,49.42l0 61.4c0,9.98 0.34,18.05 1,24.21 0.67,6.16 2.33,12.23 4.99,18.22l-55.9 0c-2,-5.66 -3.33,-10.98 -4,-15.97 -0.66,-5 -0.99,-13.98 -0.99,-26.96l0 -63.89c0,-15.98 -2.58,-27.12 -7.74,-33.45 -5.16,-6.32 -14.06,-9.48 -26.71,-9.48l-18.97 0 0 149.75 -54.9 0 0 -349.42zm74.87 149.75c10.98,0 19.22,-2.83 24.71,-8.48 5.49,-5.66 8.24,-15.15 8.24,-28.46l0 -26.95c0,-12.65 -2.25,-21.8 -6.74,-27.46 -4.49,-5.65 -11.57,-8.48 -21.22,-8.48l-24.96 0 0 99.83 19.97 0zm126.3 -149.75l54.9 0 0 349.42 -54.9 0 0 -349.42zm175.2 354.41c-26.95,0 -47.58,-7.65 -61.89,-22.96 -14.31,-15.31 -21.47,-36.94 -21.47,-64.89l0 -183.7c0,-27.95 7.16,-49.58 21.47,-64.89 14.31,-15.31 34.94,-22.96 61.89,-22.96 26.96,0 47.59,7.65 61.9,22.96 14.31,15.31 21.47,36.94 21.47,64.89l0 183.7c0,27.95 -7.16,49.58 -21.47,64.89 -14.31,15.31 -34.94,22.96 -61.9,22.96zm0 -49.92c18.97,0 28.46,-11.48 28.46,-34.44l0 -190.68c0,-22.96 -9.49,-34.44 -28.46,-34.44 -18.96,0 -28.45,11.48 -28.45,34.44l0 190.68c0,22.96 9.49,34.44 28.45,34.44zm200.18 -304.49l149.75 0 0 49.92 -94.85 0 0 92.34 75.38 0 0 49.92 -75.38 0 0 107.32 94.85 0 0 49.92 -149.75 0 0 -349.42zm332.45 354.41c-26.63,0 -46.76,-7.57 -60.4,-22.71 -13.65,-15.14 -20.47,-36.86 -20.47,-65.14l0 -19.97 51.92 0 0 23.96c0,22.63 9.48,33.94 28.45,33.94 9.32,0 16.39,-2.74 21.21,-8.23 4.83,-5.49 7.24,-14.39 7.24,-26.71 0,-14.64 -3.33,-27.53 -9.98,-38.68 -6.66,-11.15 -18.97,-24.55 -36.94,-40.19 -22.63,-19.96 -38.44,-38.02 -47.42,-54.16 -8.99,-16.14 -13.48,-34.36 -13.48,-54.66 0,-27.62 6.99,-49 20.97,-64.14 13.97,-15.14 34.27,-22.71 60.89,-22.71 26.29,0 46.18,7.57 59.65,22.71 13.48,15.14 20.22,36.86 20.22,65.14l0 14.48 -51.91 0 0 -17.97c0,-11.98 -2.33,-20.72 -6.99,-26.21 -4.66,-5.49 -11.48,-8.23 -20.47,-8.23 -18.3,0 -27.45,11.14 -27.45,33.44 0,12.65 3.41,24.46 10.23,35.44 6.82,10.98 19.22,24.29 37.19,39.94 22.96,19.96 38.77,38.1 47.42,54.4 8.65,16.31 12.98,35.45 12.98,57.41 0,28.62 -7.07,50.58 -21.22,65.89 -14.14,15.31 -34.69,22.96 -61.64,22.96zm114.31 -354.41l149.75 0 0 49.92 -94.85 0 0 92.34 75.38 0 0 49.92 -75.38 0 0 107.32 94.85 0 0 49.92 -149.75 0 0 -349.42zm181.2 0l68.88 0 53.41 209.15 1 0 0 -209.15 48.92 0 0 349.42 -56.41 0 -65.89 -255.08 -1 0 0 255.08 -48.91 0 0 -349.42zm213.15 0l54.9 0 0 142.26 58.91 0 0 -142.26 54.91 0 0 349.42 -54.91 0 0 -157.24 -58.91 0 0 157.24 -54.9 0 0 -349.42zm252.08 0l74.37 0 56.91 349.42 -54.91 0 -9.98 -69.38 0 0.99 -62.4 0 -9.98 68.39 -50.92 0 56.91 -349.42zm59.9 233.61l-24.46 -172.71 -1 0 -23.96 172.71 49.42 0zm177.71 -233.61l80.86 0c27.29,0 47.76,7.32 61.4,21.96 13.64,14.65 20.47,36.11 20.47,64.4l0 34.44c0,28.29 -6.83,49.75 -20.47,64.39 -13.64,14.65 -34.11,21.97 -61.4,21.97l-25.96 0 0 142.26 -54.9 0 0 -349.42zm80.86 157.24c8.99,0 15.73,-2.5 20.22,-7.49 4.49,-4.99 6.74,-13.48 6.74,-25.46l0 -41.43c0,-11.98 -2.25,-20.46 -6.74,-25.45 -4.49,-5 -11.23,-7.49 -20.22,-7.49l-25.96 0 0 107.32 25.96 0zm136.78 -157.24l74.37 0 56.91 349.42 -54.91 0 -9.98 -69.38 0 0.99 -62.4 0 -9.98 68.39 -50.92 0 56.91 -349.42zm59.9 233.61l-24.46 -172.71 -1 0 -23.96 172.71 49.42 0zm97.84 -233.61l81.36 0c28.29,0 48.92,6.57 61.9,19.72 12.98,13.14 19.47,33.36 19.47,60.65l0 21.46c0,36.27 -11.98,59.24 -35.94,68.89l0 1c13.31,3.99 22.71,12.14 28.2,24.45 5.49,12.32 8.23,28.79 8.23,49.42l0 61.4c0,9.98 0.34,18.05 1,24.21 0.67,6.16 2.33,12.23 4.99,18.22l-55.9 0c-2,-5.66 -3.33,-10.98 -4,-15.97 -0.66,-5 -0.99,-13.98 -0.99,-26.96l0 -63.89c0,-15.98 -2.58,-27.12 -7.74,-33.45 -5.16,-6.32 -14.06,-9.48 -26.71,-9.48l-18.97 0 0 149.75 -54.9 0 0 -349.42zm74.87 149.75c10.98,0 19.22,-2.83 24.71,-8.48 5.49,-5.66 8.24,-15.15 8.24,-28.46l0 -26.95c0,-12.65 -2.25,-21.8 -6.74,-27.46 -4.49,-5.65 -11.57,-8.48 -21.22,-8.48l-24.96 0 0 99.83 19.97 0zm168.73 -149.75l74.37 0 56.91 349.42 -54.91 0 -9.98 -69.38 0 0.99 -62.4 0 -9.98 68.39 -50.92 0 56.91 -349.42zm59.9 233.61l-24.46 -172.71 -1 0 -23.96 172.71 49.42 0zm220.14 -233.61l74.37 0 56.91 349.42 -54.91 0 -9.98 -69.38 0 0.99 -62.4 0 -9.98 68.39 -50.92 0 56.91 -349.42zm59.9 233.61l-24.46 -172.71 -1 0 -23.96 172.71 49.42 0zm174.21 120.8c-26.29,0 -46.34,-7.49 -60.15,-22.46 -13.81,-14.98 -20.72,-36.11 -20.72,-63.4l0 -187.68c0,-27.29 6.91,-48.42 20.72,-63.4 13.81,-14.97 33.86,-22.46 60.15,-22.46 26.29,0 46.34,7.49 60.15,22.46 13.81,14.98 20.71,36.11 20.71,63.4l0 36.94 -51.91 0 0 -40.44c0,-21.63 -9.15,-32.44 -27.46,-32.44 -18.3,0 -27.45,10.81 -27.45,32.44l0 195.18c0,21.3 9.15,31.94 27.45,31.94 18.31,0 27.46,-10.64 27.46,-31.94l0 -53.41 51.91 0 0 49.41c0,27.29 -6.9,48.42 -20.71,63.4 -13.81,14.97 -33.86,22.46 -60.15,22.46zm113.81 -354.41l149.75 0 0 49.92 -94.85 0 0 92.34 75.38 0 0 49.92 -75.38 0 0 107.32 94.85 0 0 49.92 -149.75 0 0 -349.42zm253.58 354.41c-26.63,0 -46.76,-7.57 -60.4,-22.71 -13.65,-15.14 -20.47,-36.86 -20.47,-65.14l0 -19.97 51.92 0 0 23.96c0,22.63 9.48,33.94 28.45,33.94 9.32,0 16.39,-2.74 21.21,-8.23 4.83,-5.49 7.24,-14.39 7.24,-26.71 0,-14.64 -3.33,-27.53 -9.98,-38.68 -6.66,-11.15 -18.97,-24.55 -36.94,-40.19 -22.63,-19.96 -38.44,-38.02 -47.42,-54.16 -8.99,-16.14 -13.48,-34.36 -13.48,-54.66 0,-27.62 6.99,-49 20.97,-64.14 13.97,-15.14 34.27,-22.71 60.89,-22.71 26.29,0 46.18,7.57 59.65,22.71 13.48,15.14 20.22,36.86 20.22,65.14l0 14.48 -51.91 0 0 -17.97c0,-11.98 -2.33,-20.72 -6.99,-26.21 -4.66,-5.49 -11.48,-8.23 -20.47,-8.23 -18.3,0 -27.45,11.14 -27.45,33.44 0,12.65 3.41,24.46 10.23,35.44 6.82,10.98 19.22,24.29 37.19,39.94 22.96,19.96 38.77,38.1 47.42,54.4 8.65,16.31 12.98,35.45 12.98,57.41 0,28.62 -7.07,50.58 -21.22,65.89 -14.14,15.31 -34.69,22.96 -61.64,22.96zm185.69 0c-26.63,0 -46.76,-7.57 -60.4,-22.71 -13.65,-15.14 -20.47,-36.86 -20.47,-65.14l0 -19.97 51.92 0 0 23.96c0,22.63 9.48,33.94 28.45,33.94 9.32,0 16.39,-2.74 21.21,-8.23 4.83,-5.49 7.24,-14.39 7.24,-26.71 0,-14.64 -3.33,-27.53 -9.98,-38.68 -6.66,-11.15 -18.97,-24.55 -36.94,-40.19 -22.63,-19.96 -38.44,-38.02 -47.42,-54.16 -8.99,-16.14 -13.48,-34.36 -13.48,-54.66 0,-27.62 6.99,-49 20.97,-64.14 13.97,-15.14 34.27,-22.71 60.89,-22.71 26.29,0 46.18,7.57 59.65,22.71 13.48,15.14 20.22,36.86 20.22,65.14l0 14.48 -51.91 0 0 -17.97c0,-11.98 -2.33,-20.72 -6.99,-26.21 -4.66,-5.49 -11.48,-8.23 -20.47,-8.23 -18.3,0 -27.45,11.14 -27.45,33.44 0,12.65 3.41,24.46 10.23,35.44 6.82,10.98 19.22,24.29 37.19,39.94 22.96,19.96 38.77,38.1 47.42,54.4 8.65,16.31 12.98,35.45 12.98,57.41 0,28.62 -7.07,50.58 -21.22,65.89 -14.14,15.31 -34.69,22.96 -61.64,22.96zm155.24 -354.41l74.37 0 56.91 349.42 -54.91 0 -9.98 -69.38 0 0.99 -62.4 0 -9.98 68.39 -50.92 0 56.91 -349.42zm59.9 233.61l-24.46 -172.71 -1 0 -23.96 172.71 49.42 0zm97.84 -233.61l81.36 0c28.29,0 48.92,6.57 61.9,19.72 12.98,13.14 19.47,33.36 19.47,60.65l0 21.46c0,36.27 -11.98,59.24 -35.94,68.89l0 1c13.31,3.99 22.71,12.14 28.2,24.45 5.49,12.32 8.23,28.79 8.23,49.42l0 61.4c0,9.98 0.34,18.05 1,24.21 0.67,6.16 2.33,12.23 4.99,18.22l-55.9 0c-2,-5.66 -3.33,-10.98 -4,-15.97 -0.66,-5 -0.99,-13.98 -0.99,-26.96l0 -63.89c0,-15.98 -2.58,-27.12 -7.74,-33.45 -5.16,-6.32 -14.06,-9.48 -26.71,-9.48l-18.97 0 0 149.75 -54.9 0 0 -349.42zm74.87 149.75c10.98,0 19.22,-2.83 24.71,-8.48 5.49,-5.66 8.24,-15.15 8.24,-28.46l0 -26.95c0,-12.65 -2.25,-21.8 -6.74,-27.46 -4.49,-5.65 -11.57,-8.48 -21.22,-8.48l-24.96 0 0 99.83 19.97 0zm285.53 204.66c-26.95,0 -47.58,-7.65 -61.89,-22.96 -14.31,-15.31 -21.47,-36.94 -21.47,-64.89l0 -183.7c0,-27.95 7.16,-49.58 21.47,-64.89 14.31,-15.31 34.94,-22.96 61.89,-22.96 26.96,0 47.59,7.65 61.9,22.96 14.31,15.31 21.47,36.94 21.47,64.89l0 183.7c0,27.95 -7.16,49.58 -21.47,64.89 -14.31,15.31 -34.94,22.96 -61.9,22.96zm0 -49.92c18.97,0 28.46,-11.48 28.46,-34.44l0 -190.68c0,-22.96 -9.49,-34.44 -28.46,-34.44 -18.96,0 -28.45,11.48 -28.45,34.44l0 190.68c0,22.96 9.49,34.44 28.45,34.44zm271.56 49.92c-26.63,0 -46.76,-7.57 -60.4,-22.71 -13.65,-15.14 -20.47,-36.86 -20.47,-65.14l0 -19.97 51.92 0 0 23.96c0,22.63 9.48,33.94 28.45,33.94 9.32,0 16.39,-2.74 21.21,-8.23 4.83,-5.49 7.24,-14.39 7.24,-26.71 0,-14.64 -3.33,-27.53 -9.98,-38.68 -6.66,-11.15 -18.97,-24.55 -36.94,-40.19 -22.63,-19.96 -38.44,-38.02 -47.42,-54.16 -8.99,-16.14 -13.48,-34.36 -13.48,-54.66 0,-27.62 6.99,-49 20.97,-64.14 13.97,-15.14 34.27,-22.71 60.89,-22.71 26.29,0 46.18,7.57 59.65,22.71 13.48,15.14 20.22,36.86 20.22,65.14l0 14.48 -51.91 0 0 -17.97c0,-11.98 -2.33,-20.72 -6.99,-26.21 -4.66,-5.49 -11.48,-8.23 -20.47,-8.23 -18.3,0 -27.45,11.14 -27.45,33.44 0,12.65 3.41,24.46 10.23,35.44 6.82,10.98 19.22,24.29 37.19,39.94 22.96,19.96 38.77,38.1 47.42,54.4 8.65,16.31 12.98,35.45 12.98,57.41 0,28.62 -7.07,50.58 -21.22,65.89 -14.14,15.31 -34.69,22.96 -61.64,22.96zm114.31 -354.41l54.9 0 0 349.42 -54.9 0 0 -349.42zm167.22 354.41c-26.63,0 -46.76,-7.57 -60.4,-22.71 -13.65,-15.14 -20.47,-36.86 -20.47,-65.14l0 -19.97 51.92 0 0 23.96c0,22.63 9.48,33.94 28.45,33.94 9.32,0 16.39,-2.74 21.21,-8.23 4.83,-5.49 7.24,-14.39 7.24,-26.71 0,-14.64 -3.33,-27.53 -9.98,-38.68 -6.66,-11.15 -18.97,-24.55 -36.94,-40.19 -22.63,-19.96 -38.44,-38.02 -47.42,-54.16 -8.99,-16.14 -13.48,-34.36 -13.48,-54.66 0,-27.62 6.99,-49 20.97,-64.14 13.97,-15.14 34.27,-22.71 60.89,-22.71 26.29,0 46.18,7.57 59.65,22.71 13.48,15.14 20.22,36.86 20.22,65.14l0 14.48 -51.91 0 0 -17.97c0,-11.98 -2.33,-20.72 -6.99,-26.21 -4.66,-5.49 -11.48,-8.23 -20.47,-8.23 -18.3,0 -27.45,11.14 -27.45,33.44 0,12.65 3.41,24.46 10.23,35.44 6.82,10.98 19.22,24.29 37.19,39.94 22.96,19.96 38.77,38.1 47.42,54.4 8.65,16.31 12.98,35.45 12.98,57.41 0,28.62 -7.07,50.58 -21.22,65.89 -14.14,15.31 -34.69,22.96 -61.64,22.96zm157.23 -304.49l-57.4 0 0 -49.92 169.72 0 0 49.92 -57.41 0 0 299.5 -54.91 0 0 -299.5zm138.78 -49.92l149.75 0 0 49.92 -94.85 0 0 92.34 75.38 0 0 49.92 -75.38 0 0 107.32 94.85 0 0 49.92 -149.75 0 0 -349.42zm181.2 0l78.37 0 34.94 250.09 1 0 34.94 -250.09 78.37 0 0 349.42 -51.92 0 0 -264.56 -0.99 0 -39.94 264.56 -45.92 0 -39.94 -264.56 -0.99 0 0 264.56 -47.92 0 0 -349.42zm310.98 0l74.37 0 56.91 349.42 -54.91 0 -9.98 -69.38 0 0.99 -62.4 0 -9.98 68.39 -50.92 0 56.91 -349.42zm59.9 233.61l-24.46 -172.71 -1 0 -23.96 172.71 49.42 0z"/>
  <g id="_2399547160672">
   <path class="fil8" d="M14849.47 5790.95c242.1,0 461.28,98.14 619.95,256.81 158.67,158.67 256.81,377.85 256.81,619.95 0,242.08 -98.14,461.28 -256.81,619.95 -158.67,158.67 -377.85,256.81 -619.95,256.81 -242.1,0 -461.28,-98.14 -619.95,-256.81 -158.67,-158.67 -256.81,-377.87 -256.81,-619.95 0,-242.1 98.14,-461.28 256.81,-619.95 158.67,-158.67 377.85,-256.81 619.95,-256.81z"/>
   <path class="fil1" d="M14849.47 5790.95c242.1,0 461.28,98.14 619.95,256.81 158.67,158.67 256.81,377.85 256.81,619.95 0,242.08 -98.14,461.28 -256.81,619.95 -158.67,158.67 -377.85,256.81 -619.95,256.81 -242.1,0 -461.28,-98.14 -619.95,-256.81 -158.67,-158.67 -256.81,-377.87 -256.81,-619.95 0,-242.1 98.14,-461.28 256.81,-619.95 158.67,-158.67 377.85,-256.81 619.95,-256.81zm0 103.04c427.31,0 773.72,346.41 773.72,773.72 0,427.31 -346.41,773.72 -773.72,773.72 -427.31,0 -773.72,-346.41 -773.72,-773.72 0,-427.31 346.41,-773.72 773.72,-773.72z"/>
   <g>
    <path class="fil1" d="M14698.72 6417.35c0,-76.05 44.77,-135.91 115.59,-151.71 24.01,-5.35 44.39,-5.54 68.45,-0.33 72.81,15.76 117.14,76.08 117.14,153.92l0 120.47 -301.18 0 0 -122.35zm-75.3 -22.59l0 144.94c-59.06,0 -104.14,-4.16 -152.03,43.74 -20.36,20.35 -43.74,59.38 -43.74,99.33l0 323.77c0,73.38 69.69,143.06 143.06,143.06l557.19 0c39.95,0 78.97,-23.37 99.33,-43.73 43,-43 70.81,-144.51 4.21,-144.51 -39.2,0 -34.9,42.87 -40.52,61.13 -2.56,8.31 -1.22,4.54 -4.5,10.56 -17.19,31.51 -43.57,41.25 -77.34,41.25l-519.54 0c-14,0 -27.35,-2.02 -37.66,-5.63 -9.64,-3.38 -19.8,-10.21 -26.44,-16.86 -6.65,-6.64 -13.48,-16.8 -16.86,-26.44 -3.61,-10.31 -5.63,-23.66 -5.63,-37.66l0 -286.12c0,-36.35 14.01,-68.72 48.93,-80.96 10.31,-3.61 23.66,-5.63 37.66,-5.63l519.54 0c30.52,0 52.28,8.46 66.73,25.5 17.61,20.78 19.87,37.52 19.86,74.27 -0.01,31.37 0,62.74 0,94.12 0,18.75 -1.86,29.3 5.64,41.42 18.51,29.89 69.66,18.32 69.66,-18.84l0 -148.7c0,-73.38 -69.69,-143.07 -143.07,-143.07l-52.7 0 0 -141.18c0,-56.02 -28.86,-110.69 -65.42,-147.29 -36.17,-36.22 -95.7,-65.42 -147.3,-65.42 -42.1,0 -71.99,2.06 -110.45,21.31 -48.31,24.19 -82.22,55.44 -106.65,104.18 -9.97,19.89 -21.96,54.74 -21.96,83.46z"/>
    <path class="fil1" d="M14811.66 6837.12c0,52.93 75.3,52.93 75.3,0 0,-47.48 -75.3,-47.48 -75.3,0z"/>
   </g>
  </g>
 </g>
</svg>
