<?xml version="1.0" encoding="UTF-8"?>
<!DOCTYPE svg PUBLIC "-//W3C//DTD SVG 1.1//EN" "http://www.w3.org/Graphics/SVG/1.1/DTD/svg11.dtd">
<!-- Creator: CorelDRAW -->
<svg xmlns="http://www.w3.org/2000/svg" xml:space="preserve" width="42.3332mm" height="42.3332mm" version="1.1" style="shape-rendering:geometricPrecision; text-rendering:geometricPrecision; image-rendering:optimizeQuality; fill-rule:evenodd; clip-rule:evenodd"
viewBox="0 0 4233.32 4233.32"
 xmlns:xlink="http://www.w3.org/1999/xlink"
 xmlns:xodm="http://www.corel.com/coreldraw/odm/2003">
 <defs>
  <style type="text/css">
   <![CDATA[
    .fil4 {fill:#333333}
    .fil0 {fill:#E4A126}
    .fil3 {fill:#EAEAEB}
    .fil1 {fill:#F0BE25}
    .fil2 {fill:white}
    .fil6 {fill:#F6F6F6;fill-rule:nonzero}
    .fil5 {fill:url(#id0)}
   ]]>
  </style>
  <linearGradient id="id0" gradientUnits="userSpaceOnUse" x1="309.81" y1="4098.18" x2="858.82" y2="4098.18">
   <stop offset="0" style="stop-opacity:1; stop-color:#FAD66C"/>
   <stop offset="1" style="stop-opacity:1; stop-color:#E4A126"/>
  </linearGradient>
 </defs>
 <g id="Camada_x0020_1">
  <metadata id="CorelCorpID_0Corel-Layer"/>
  <path class="fil0" d="M2115.66 3667.64c10.27,0 419.61,-117.21 481.4,-132.92l336.4 -93.25c16.78,-4.88 31.77,-9.32 48.68,-13.55 32.99,-8.25 62.99,-18.25 95.98,-26.48 30.21,-7.54 21.82,-3.01 25.85,-34.38 5.19,-40.38 8.45,-96.27 13.17,-141.42l30.12 -337.28c3.14,-30.05 3.12,-56.35 7.49,-86.86 5,-34.84 4.69,-75.1 10.04,-112.42 1.17,-8.12 2.23,-20.8 2.73,-27.39 3.14,-41.46 10.65,-106.49 12.19,-142.4 1.43,-33.21 8.47,-75.96 10.04,-112.42 1.49,-34.63 7.84,-74.01 10.08,-114.39 2.04,-36.85 7.75,-71.2 10.04,-112.43 0.88,-15.93 3.47,-39.79 5.4,-54.83 4.62,-35.85 4.87,-72.31 10.04,-112.42l10.29 -114.18c2.14,-20.32 2.92,-37.72 4.48,-57.77l20.07 -224.85c2.84,-36.54 7.09,-74.41 10.04,-112.43 1.36,-17.46 4.42,-39.05 5.74,-56.49l30.09 -339.31c3.07,-39.41 14.21,-141.78 14.21,-172.51l-2407.14 0 19.51 225.42c4.49,34.62 5.03,73.49 10.04,112.43l10.28 114.19c3.97,37.98 6.24,76.08 10.04,112.43l30.3 339.1c14.09,185.89 35.79,378.98 50.17,564.16l32.34 367.18c0.43,7.73 1.27,18.51 2.25,27.86 1.77,16.79 4.7,39.34 5.66,56.58 2.19,39.61 8.11,77.61 10.04,112.43 2.59,46.81 10.23,96.59 12.12,140.46 0.35,8.26 1.34,20.2 2.55,29.57 1.93,14.98 4.96,40.78 5.46,56.77 1.25,39.96 9.63,95.8 12.11,140.47l5.26 54.97c2.74,9.71 3.39,6.83 20.79,11.34l937.98 260.56c6.64,1.87 19.46,6.46 25.67,6.46z"/>
  <path class="fil1" d="M2116.55 3221.95l0 236.4c17.23,-2.72 36.28,-9.38 52.79,-13.93l149.36 -41.38c163.81,-45.53 333.96,-90.87 496.67,-137.7l75.43 -20.96c4.67,-1.28 8.63,-2.13 12.65,-3.29l10.38 -5.08 186.57 -2098.6 -983.85 0c0,634.38 0,2068.74 0,2084.54z"/>
  <path class="fil2" d="M1801.09 2166.53c5.61,-83.86 14.79,-167.61 22.71,-250.73 20.26,-212.66 -2.72,-174.53 86.91,-175.9 178.35,-2.71 336.55,-0.96 512.85,12.88 14.71,30.66 27.14,226.35 29.65,280.64l277.09 0.58 -53.27 -584.94c-107.19,0 -1068.2,-4.66 -1079.74,6.5 -14.58,14.11 -85.74,883.91 -94.28,983.46l927.09 1.88 -31.21 350.42c-357.5,80.86 -195.23,122.65 -604.7,0.16 -8.75,-142.66 0.06,-195.52 -33.71,-213.31 -31.48,-16.59 -99.97,-2.71 -254.22,-2.71 -6.16,36.36 10.76,171.34 15.32,218.52l17.01 186.35c5.25,25.87 -3.15,3.23 7.48,23.72 62.33,18.59 528.18,150.88 555.21,150.75 26.06,-0.12 504.39,-133.69 546.57,-150.18 13.22,-10.83 15.5,-88.06 16.91,-103.07 12.53,-133.76 68.75,-689.25 61.3,-736.41l-924.97 1.39z"/>
  <path class="fil3" d="M1801.09 2166.53c5.61,-83.86 14.78,-167.61 22.71,-250.73 20.26,-212.67 -2.72,-174.53 86.9,-175.9 71.01,-1.07 138.82,-1.45 205.85,-0.63l0 -291.15c-260.56,0.18 -513.38,1.75 -519.26,7.45 -14.58,14.1 -85.74,883.91 -94.28,983.45l613.54 1.25 0 -274.21 -315.46 0.47zm315.46 701.07c-55.44,5.42 -116.98,-14.68 -322.36,-76.12 -8.76,-142.66 0.06,-195.51 -33.71,-213.31 -31.48,-16.59 -99.97,-2.71 -254.22,-2.71 -6.15,36.36 10.76,171.34 15.32,218.52l17.01 186.35c5.25,25.87 -3.15,3.23 7.48,23.72 62.34,18.59 528.18,150.88 555.21,150.76 2.15,-0.01 7.45,-0.95 15.27,-2.64l0 -284.57z"/>
  <rect class="fil4" x="309.81" y="3963.03" width="3613.7" height="270.29"/>
  <rect class="fil5" x="309.81" y="3963.03" width="549.01" height="270.29"/>
  <path class="fil6" d="M702.61 377.79c0,23.65 -2.67,45.91 -8.01,66.79 -5.33,20.87 -14.61,39.07 -27.82,54.61 -13.22,15.54 -31.08,27.83 -53.57,36.87 -22.5,9.05 -50.91,13.57 -85.23,13.57 -31.54,0 -58.67,-3.83 -81.4,-11.48 -22.73,-7.65 -41.51,-16.58 -56.35,-26.78l36.17 -84.19c13.46,7.89 27.83,14.85 43.14,20.87 15.31,6.03 32,9.05 50.09,9.05 26.44,0 45.45,-6.49 57.05,-19.48 11.6,-12.99 17.39,-34.79 17.39,-65.4l0 -314.46 108.54 0 0 320.03zm237.24 89.75c10.2,0 19.94,-0.24 29.22,-0.7 9.28,-0.46 16.7,-1.16 22.26,-2.09l0 -78.61c-4.17,-0.93 -10.43,-1.86 -18.78,-2.79 -8.35,-0.92 -16,-1.39 -22.96,-1.39 -9.74,0 -18.9,0.58 -27.48,1.74 -8.58,1.16 -16.12,3.36 -22.61,6.61 -6.5,3.25 -11.6,7.65 -15.31,13.22 -3.71,5.56 -5.56,12.52 -5.56,20.87 0,16.23 5.45,27.48 16.35,33.74 10.9,6.26 25.85,9.4 44.87,9.4zm-8.35 -303.34c30.61,0 56.12,3.48 76.53,10.44 20.41,6.95 36.76,16.93 49.05,29.91 12.29,12.99 20.99,28.76 26.09,47.31 5.1,18.55 7.65,39.19 7.65,61.92l0 215.67c-14.84,3.25 -35.48,7.08 -61.92,11.48 -26.44,4.41 -58.44,6.61 -96.01,6.61 -23.65,0 -45.1,-2.08 -64.35,-6.26 -19.25,-4.17 -35.83,-11.01 -49.75,-20.52 -13.91,-9.51 -24.58,-21.92 -32,-37.22 -7.42,-15.31 -11.13,-34.09 -11.13,-56.36 0,-21.33 4.29,-39.42 12.87,-54.26 8.58,-14.84 20.06,-26.67 34.44,-35.48 14.38,-8.82 30.84,-15.19 49.4,-19.14 18.55,-3.94 37.8,-5.91 57.74,-5.91 13.45,0 25.39,0.58 35.83,1.74 10.44,1.16 18.9,2.67 25.39,4.52l0 -9.74c0,-17.62 -5.33,-31.77 -16,-42.44 -10.67,-10.67 -29.22,-16 -55.66,-16 -17.62,0 -35.01,1.28 -52.17,3.83 -17.17,2.55 -32.01,6.14 -44.53,10.78l-13.22 -83.49c6.03,-1.85 13.57,-3.82 22.61,-5.91 9.05,-2.09 18.9,-3.94 29.57,-5.57 10.67,-1.62 21.91,-3.01 33.74,-4.17 11.83,-1.16 23.77,-1.74 35.83,-1.74zm344.27 375.69c-23.77,-46.38 -47.89,-100.65 -72.36,-162.8 -24.46,-62.15 -47.54,-129.87 -69.45,-203.15l109.92 0c4.64,18.09 10.09,37.69 16.47,58.79 6.26,21.1 12.75,42.44 19.48,64.01 6.84,21.56 13.56,42.55 20.29,62.96 6.72,20.41 13.45,38.96 19.94,55.66 6.03,-16.7 12.53,-35.25 19.6,-55.66 6.96,-20.41 13.8,-41.4 20.52,-62.96 6.73,-21.57 13.34,-42.91 19.6,-64.01 6.26,-21.1 11.71,-40.7 16.35,-58.79l107.25 0c-21.91,73.28 -44.99,141 -69.45,203.15 -24.35,62.15 -48.47,116.42 -72.24,162.8l-85.92 0zm415.46 -72.35c10.2,0 19.94,-0.24 29.22,-0.7 9.28,-0.46 16.7,-1.16 22.26,-2.09l0 -78.61c-4.17,-0.93 -10.43,-1.86 -18.78,-2.79 -8.35,-0.92 -16,-1.39 -22.96,-1.39 -9.74,0 -18.9,0.58 -27.48,1.74 -8.58,1.16 -16.12,3.36 -22.61,6.61 -6.5,3.25 -11.6,7.65 -15.31,13.22 -3.71,5.56 -5.56,12.52 -5.56,20.87 0,16.23 5.45,27.48 16.35,33.74 10.9,6.26 25.85,9.4 44.87,9.4zm-8.35 -303.34c30.61,0 56.12,3.48 76.53,10.44 20.41,6.95 36.76,16.93 49.05,29.91 12.29,12.99 20.99,28.76 26.09,47.31 5.1,18.55 7.65,39.19 7.65,61.92l0 215.67c-14.84,3.25 -35.48,7.08 -61.92,11.48 -26.44,4.41 -58.44,6.61 -96.01,6.61 -23.65,0 -45.1,-2.08 -64.35,-6.26 -19.25,-4.17 -35.83,-11.01 -49.75,-20.52 -13.91,-9.51 -24.58,-21.92 -32,-37.22 -7.42,-15.31 -11.13,-34.09 -11.13,-56.36 0,-21.33 4.29,-39.42 12.87,-54.26 8.58,-14.84 20.06,-26.67 34.44,-35.48 14.38,-8.82 30.84,-15.19 49.4,-19.14 18.55,-3.94 37.8,-5.91 57.74,-5.91 13.45,0 25.39,0.58 35.83,1.74 10.44,1.16 18.9,2.67 25.39,4.52l0 -9.74c0,-17.62 -5.33,-31.77 -16,-42.44 -10.67,-10.67 -29.22,-16 -55.66,-16 -17.62,0 -35.01,1.28 -52.17,3.83 -17.17,2.55 -32.01,6.14 -44.53,10.78l-13.22 -83.49c6.03,-1.85 13.57,-3.82 22.61,-5.91 9.05,-2.09 18.9,-3.94 29.57,-5.57 10.67,-1.62 21.91,-3.01 33.74,-4.17 11.83,-1.16 23.77,-1.74 35.83,-1.74zm391.69 292.9c15.3,0 27.94,-1.28 37.92,-3.83 9.97,-2.55 17.97,-6.03 24,-10.43 6.03,-4.41 10.2,-9.63 12.52,-15.66 2.32,-6.03 3.48,-12.75 3.48,-20.17 0,-15.77 -7.42,-28.87 -22.26,-39.31 -14.85,-10.44 -40.36,-21.68 -76.53,-33.74 -15.77,-5.57 -31.54,-11.95 -47.31,-19.14 -15.77,-7.18 -29.92,-16.23 -42.44,-27.13 -12.52,-10.9 -22.73,-24.12 -30.61,-39.65 -7.89,-15.54 -11.83,-34.44 -11.83,-56.71 0,-22.26 4.17,-42.32 12.52,-60.18 8.35,-17.85 20.18,-33.04 35.48,-45.57 15.31,-12.52 33.86,-22.14 55.66,-28.87 21.8,-6.72 46.38,-10.09 73.75,-10.09 32.47,0 60.53,3.48 84.18,10.44 23.66,6.96 43.14,14.61 58.44,22.96l-31.31 85.57c-13.45,-6.95 -28.4,-13.1 -44.87,-18.43 -16.47,-5.34 -36.29,-8 -59.48,-8 -25.98,0 -44.65,3.59 -56.01,10.78 -11.36,7.19 -17.04,18.2 -17.04,33.05 0,8.81 2.08,16.23 6.26,22.26 4.17,6.03 10.08,11.48 17.74,16.35 7.65,4.87 16.46,9.27 26.44,13.22 9.97,3.94 20.98,8 33.04,12.17 25.05,9.28 46.85,18.44 65.4,27.48 18.55,9.05 33.97,19.6 46.26,31.66 12.3,12.06 21.46,26.2 27.49,42.44 6.03,16.23 9.04,35.94 9.04,59.13 0,44.99 -15.77,79.9 -47.31,104.71 -31.54,24.81 -79.08,37.22 -142.62,37.22 -21.34,0 -40.58,-1.28 -57.75,-3.83 -17.16,-2.55 -32.35,-5.68 -45.57,-9.39 -13.21,-3.71 -24.58,-7.65 -34.09,-11.83 -9.5,-4.17 -17.5,-8.11 -24,-11.82l30.61 -86.27c14.38,7.88 32.12,14.96 53.23,21.22 21.1,6.26 46.96,9.39 77.57,9.39zm249.07 -100.18c0,-26.44 4.29,-51.37 12.87,-74.79 8.58,-23.43 20.99,-43.83 37.22,-61.23 16.23,-17.39 35.94,-31.19 59.14,-41.39 23.19,-10.21 49.62,-15.31 79.31,-15.31 19.48,0 37.33,1.74 53.57,5.22 16.23,3.48 32,8.46 47.31,14.96l-21.57 82.79c-9.74,-3.71 -20.41,-6.96 -32,-9.74 -11.6,-2.79 -24.59,-4.18 -38.96,-4.18 -30.62,0 -53.46,9.51 -68.53,28.53 -15.08,19.01 -22.61,44.06 -22.61,75.14 0,32.93 7.07,58.44 21.22,76.52 14.14,18.09 38.84,27.14 74.09,27.14 12.52,0 25.97,-1.16 40.35,-3.48 14.38,-2.32 27.6,-6.03 39.66,-11.13l14.61 84.88c-12.06,5.1 -27.13,9.5 -45.22,13.21 -18.09,3.71 -38.04,5.57 -59.84,5.57 -33.39,0 -62.15,-4.99 -86.26,-14.96 -24.12,-9.97 -43.95,-23.54 -59.49,-40.7 -15.54,-17.16 -26.9,-37.45 -34.09,-60.87 -7.19,-23.43 -10.78,-48.82 -10.78,-76.18zm585.79 -91.14c-9.27,-2.32 -20.17,-4.76 -32.7,-7.31 -12.52,-2.55 -25.97,-3.83 -40.35,-3.83 -6.49,0 -14.26,0.58 -23.3,1.74 -9.05,1.16 -15.89,2.44 -20.53,3.83l0 279.68 -103.66 0 0 -346.47c18.55,-6.49 40.47,-12.64 65.75,-18.44 25.27,-5.79 53.45,-8.69 84.53,-8.69 5.56,0 12.29,0.35 20.17,1.04 7.89,0.7 15.77,1.63 23.66,2.78 7.88,1.16 15.77,2.56 23.65,4.18 7.89,1.62 14.61,3.59 20.18,5.91l-17.4 85.58zm176.71 274.11l-103.66 0 0 -365.95 103.66 0 0 365.95zm9.74 -471.7c0,19.02 -6.14,33.98 -18.43,44.88 -12.29,10.9 -26.79,16.35 -43.49,16.35 -16.69,0 -31.19,-5.45 -43.48,-16.35 -12.29,-10.9 -18.44,-25.86 -18.44,-44.88 0,-19.01 6.15,-33.97 18.44,-44.87 12.29,-10.9 26.79,-16.35 43.48,-16.35 16.7,0 31.2,5.45 43.49,16.35 12.29,10.9 18.43,25.86 18.43,44.87zm322.12 291.51c0,-32 -7.19,-57.63 -21.57,-76.88 -14.38,-19.25 -35.71,-28.87 -64.01,-28.87 -9.27,0 -17.85,0.35 -25.74,1.04 -7.88,0.7 -14.38,1.51 -19.48,2.44l0 187.15c6.5,4.17 14.96,7.65 25.4,10.43 10.43,2.79 20.98,4.18 31.65,4.18 49.17,0 73.75,-33.17 73.75,-99.49zm105.75 -2.78c0,28.29 -3.48,54.03 -10.44,77.22 -6.96,23.19 -17.16,43.14 -30.61,59.83 -13.45,16.7 -30.15,29.69 -50.09,38.96 -19.95,9.28 -42.9,13.92 -68.88,13.92 -14.38,0 -27.83,-1.39 -40.35,-4.18 -12.52,-2.78 -24.58,-6.72 -36.18,-11.82l0 137.75 -103.66 0 0 -482.14c9.28,-2.78 19.94,-5.45 32,-8 12.06,-2.55 24.7,-4.75 37.92,-6.61 13.22,-1.85 26.67,-3.36 40.35,-4.52 13.68,-1.16 26.79,-1.74 39.31,-1.74 30.15,0 57.05,4.52 80.7,13.57 23.66,9.04 43.6,21.8 59.84,38.26 16.23,16.47 28.64,36.53 37.22,60.18 8.58,23.66 12.87,50.1 12.87,79.32zm76.52 -274.12l103.66 -16.7 0 107.84 124.54 0 0 86.27 -124.54 0 0 128.71c0,21.8 3.83,39.19 11.48,52.18 7.66,12.98 23.08,19.48 46.27,19.48 11.13,0 22.61,-1.05 34.44,-3.13 11.82,-2.09 22.61,-4.99 32.35,-8.7l14.61 80.7c-12.52,5.11 -26.44,9.51 -41.75,13.22 -15.3,3.71 -34.09,5.57 -56.35,5.57 -28.29,0 -51.71,-3.83 -70.27,-11.48 -18.55,-7.65 -33.39,-18.32 -44.52,-32 -11.13,-13.69 -18.9,-30.27 -23.31,-49.75 -4.41,-19.48 -6.61,-41.05 -6.61,-64.7l0 -307.51z"/>
 </g>
</svg>
