<?xml version="1.0" encoding="UTF-8"?>
<!DOCTYPE svg PUBLIC "-//W3C//DTD SVG 1.1//EN" "http://www.w3.org/Graphics/SVG/1.1/DTD/svg11.dtd">
<!-- Creator: CorelDRAW -->
<svg xmlns="http://www.w3.org/2000/svg" xml:space="preserve" width="42.3332mm" height="42.3332mm" version="1.1" style="shape-rendering:geometricPrecision; text-rendering:geometricPrecision; image-rendering:optimizeQuality; fill-rule:evenodd; clip-rule:evenodd"
viewBox="0 0 4233.32 4233.32"
 xmlns:xlink="http://www.w3.org/1999/xlink"
 xmlns:xodm="http://www.corel.com/coreldraw/odm/2003">
 <defs>
  <style type="text/css">
   <![CDATA[
    .fil0 {fill:#00EED0}
    .fil7 {fill:#333333}
    .fil6 {fill:#681E7B}
    .fil5 {fill:#9331B2}
    .fil1 {fill:#FDDBA9}
    .fil3 {fill:#FE52A1}
    .fil2 {fill:#FF127F}
    .fil4 {fill:#FFC473}
    .fil9 {fill:#F6F6F6;fill-rule:nonzero}
    .fil8 {fill:url(#id0)}
   ]]>
  </style>
  <linearGradient id="id0" gradientUnits="userSpaceOnUse" x1="308.49" y1="4098" x2="3309.98" y2="4098">
   <stop offset="0" style="stop-opacity:1; stop-color:#00EED0"/>
   <stop offset="1" style="stop-opacity:1; stop-color:#009187"/>
  </linearGradient>
 </defs>
 <g id="Camada_x0020_1">
  <metadata id="CorelCorpID_0Corel-Layer"/>
  <g id="_1804915309504">
   <circle class="fil0" cx="2116.66" cy="2301.45" r="1366.18"/>
   <path class="fil1" d="M1567.9 2504.51c-78.96,1.7 -153.95,-7.84 -195.12,41.92 -60.17,72.71 -11.31,131.9 17.43,169.4 -78.6,98.66 -9.67,145.24 12,179.1l809.79 1.56 -0.32 -391.64c-75.18,0 -73.99,7.45 -134.09,-21.29 -34.44,-16.46 -74.38,-36.14 -110.92,-50.99 -69.14,-28.11 -157.99,-70.88 -235.92,-83.21l-1.46 156.15 -161.39 -1z"/>
   <path class="fil2" d="M1731.8 2063.14l984.64 0c-6.74,-25.34 -147.89,-235.75 -179.36,-287.1 -16.52,-26.95 -43.51,-74.08 -62.46,-97.41 -54.6,-12.99 -297.56,-3.49 -371.44,-3.49 -124.13,0 -248.27,0 -372.41,0l1.03 388z"/>
   <path class="fil3" d="M1730.77 1675.14c124.14,0 248.28,0 372.41,0 73.88,0 316.84,-9.5 371.44,3.49 7.2,-24.89 42.7,-73.76 59.35,-99.58 20.72,-32.12 39.7,-63.95 60.38,-96.09 41.78,-64.94 86.31,-129.35 122.23,-193.26l-985.97 -1.38 0.16 386.82z"/>
   <path class="fil4" d="M1478.06 3255.62c46.55,13.12 295.91,5.05 366.44,5.05 122.31,0 244.62,0 366.92,0l0.58 -364.18 -809.79 -1.56c-59.32,62.41 -34.21,155.51 33.97,182.34 -5.8,24.82 -49.13,83.65 6.48,148.86 11.77,13.8 29.54,21.01 35.4,29.49z"/>
   <polygon class="fil5" points="2211.68,2504.85 2212,2896.49 2761.79,2894.79 2761.41,2485.85 2213.19,2485.91 "/>
   <polygon class="fil6" points="2211.42,3260.67 2212.3,3296.34 2760.06,3297.08 2761.79,2894.79 2212,2896.49 "/>
   <path class="fil5" d="M1567.9 2504.51l161.39 1 1.46 -156.15c-12.45,31.27 -3.58,112.92 -3.47,153.55l-78.15 0 0 -1214.59 -80.94 -0.03 -0.29 1216.22z"/>
   <path class="fil6" d="M1730.75 2349.36l1.05 -286.22 -1.03 -388 -0.16 -386.82 -81.48 0 0 1214.59 78.15 0c-0.11,-40.63 -8.98,-122.28 3.47,-153.55z"/>
  </g>
  <rect class="fil7" x="309.81" y="3963.03" width="3613.7" height="270.29"/>
  <rect class="fil8" x="309.81" y="3963.03" width="3001.24" height="270.29"/>
  <path class="fil9" d="M962.58 466.55l0 87.1 -300.95 0 0 -450.45 101.4 0 0 363.35 199.55 0zm155.35 87.1l-96.85 0 0 -341.9 96.85 0 0 341.9zm9.1 -440.7c0,17.77 -5.74,31.74 -17.23,41.93 -11.48,10.18 -25.02,15.27 -40.62,15.27 -15.6,0 -29.14,-5.09 -40.63,-15.27 -11.48,-10.19 -17.22,-24.16 -17.22,-41.93 0,-17.77 5.74,-31.74 17.22,-41.92 11.49,-10.19 25.03,-15.28 40.63,-15.28 15.6,0 29.14,5.09 40.62,15.28 11.49,10.18 17.23,24.15 17.23,41.92zm164.45 267.15c0,29.9 6.72,53.95 20.15,72.15 13.43,18.2 33.37,27.3 59.8,27.3 8.67,0 16.68,-0.32 24.05,-0.97 7.37,-0.65 13.43,-1.41 18.2,-2.28l0 -176.15c-6.07,-3.9 -13.98,-7.15 -23.73,-9.75 -9.75,-2.6 -19.6,-3.9 -29.57,-3.9 -45.93,0 -68.9,31.2 -68.9,93.6zm219.05 162.5c-8.67,2.6 -18.63,5.09 -29.9,7.48 -11.27,2.38 -23.08,4.44 -35.43,6.17 -12.35,1.73 -24.91,3.14 -37.7,4.22 -12.78,1.09 -25.02,1.63 -36.72,1.63 -28.17,0 -53.3,-4.12 -75.4,-12.35 -22.1,-8.23 -40.73,-20.04 -55.9,-35.42 -15.17,-15.39 -26.76,-34.02 -34.78,-55.9 -8.01,-21.89 -12.02,-46.48 -12.02,-73.78 0,-27.73 3.47,-52.76 10.4,-75.07 6.93,-22.32 16.9,-41.28 29.9,-56.88 13,-15.6 28.92,-27.52 47.77,-35.75 18.85,-8.23 40.41,-12.35 64.68,-12.35 13.43,0 25.46,1.3 36.07,3.9 10.62,2.6 21.35,6.28 32.18,11.05l0 -154.7 96.85 -15.6 0 493.35zm74.75 -157.3c0,-30.33 4.66,-56.87 13.97,-79.62 9.32,-22.75 21.56,-41.71 36.73,-56.88 15.17,-15.17 32.61,-26.65 52.32,-34.45 19.72,-7.8 39.98,-11.7 60.78,-11.7 48.53,0 86.88,14.84 115.05,44.53 28.17,29.68 42.25,73.34 42.25,130.97 0,5.63 -0.22,11.81 -0.65,18.53 -0.43,6.71 -0.87,12.67 -1.3,17.87l-219.7 0c2.17,19.93 11.48,35.75 27.95,47.45 16.47,11.7 38.57,17.55 66.3,17.55 17.77,0 35.21,-1.62 52.32,-4.87 17.12,-3.25 31.1,-7.26 41.93,-12.03l13 78.65c-5.2,2.6 -12.13,5.2 -20.8,7.8 -8.67,2.6 -18.31,4.87 -28.93,6.82 -10.61,1.95 -21.99,3.58 -34.12,4.88 -12.13,1.3 -24.27,1.95 -36.4,1.95 -30.77,0 -57.53,-4.55 -80.28,-13.65 -22.75,-9.1 -41.6,-21.56 -56.55,-37.37 -14.95,-15.82 -26,-34.56 -33.15,-56.23 -7.15,-21.67 -10.72,-45.07 -10.72,-70.2zm227.5 -37.05c-0.43,-8.23 -1.84,-16.25 -4.23,-24.05 -2.38,-7.8 -6.06,-14.73 -11.05,-20.8 -4.98,-6.07 -11.26,-11.05 -18.85,-14.95 -7.58,-3.9 -17,-5.85 -28.27,-5.85 -10.83,0 -20.15,1.84 -27.95,5.53 -7.8,3.68 -14.3,8.55 -19.5,14.62 -5.2,6.07 -9.21,13.11 -12.03,21.13 -2.81,8.01 -4.87,16.14 -6.17,24.37l128.05 0zm374.4 -50.7c-8.67,-2.17 -18.85,-4.44 -30.55,-6.82 -11.7,-2.39 -24.27,-3.58 -37.7,-3.58 -6.07,0 -13.33,0.54 -21.78,1.63 -8.45,1.08 -14.84,2.27 -19.17,3.57l0 261.3 -96.85 0 0 -323.7c17.33,-6.07 37.81,-11.81 61.42,-17.22 23.62,-5.42 49.95,-8.13 78.98,-8.13 5.2,0 11.48,0.33 18.85,0.98 7.37,0.65 14.73,1.51 22.1,2.6 7.37,1.08 14.73,2.38 22.1,3.9 7.37,1.51 13.65,3.35 18.85,5.52l-16.25 79.95zm192.4 188.5c9.53,0 18.63,-0.22 27.3,-0.65 8.67,-0.43 15.6,-1.08 20.8,-1.95l0 -73.45c-3.9,-0.87 -9.75,-1.73 -17.55,-2.6 -7.8,-0.87 -14.95,-1.3 -21.45,-1.3 -9.1,0 -17.66,0.54 -25.68,1.63 -8.01,1.08 -15.05,3.14 -21.12,6.17 -6.07,3.03 -10.83,7.15 -14.3,12.35 -3.47,5.2 -5.2,11.7 -5.2,19.5 0,15.17 5.09,25.68 15.27,31.53 10.19,5.85 24.16,8.77 41.93,8.77zm-7.8 -283.4c28.6,0 52.43,3.25 71.5,9.75 19.07,6.5 34.34,15.82 45.82,27.95 11.49,12.13 19.61,26.87 24.38,44.2 4.77,17.33 7.15,36.62 7.15,57.85l0 201.5c-13.87,3.03 -33.15,6.61 -57.85,10.72 -24.7,4.12 -54.6,6.18 -89.7,6.18 -22.1,0 -42.14,-1.95 -60.13,-5.85 -17.98,-3.9 -33.47,-10.29 -46.47,-19.17 -13,-8.89 -22.97,-20.48 -29.9,-34.78 -6.93,-14.3 -10.4,-31.85 -10.4,-52.65 0,-19.93 4.01,-36.83 12.02,-50.7 8.02,-13.87 18.75,-24.92 32.18,-33.15 13.43,-8.23 28.82,-14.19 46.15,-17.87 17.33,-3.69 35.32,-5.53 53.95,-5.53 12.57,0 23.72,0.54 33.47,1.63 9.75,1.08 17.66,2.49 23.73,4.22l0 -9.1c0,-16.47 -4.98,-29.68 -14.95,-39.65 -9.97,-9.97 -27.3,-14.95 -52,-14.95 -16.47,0 -32.72,1.19 -48.75,3.58 -16.03,2.38 -29.9,5.74 -41.6,10.07l-12.35 -78c5.63,-1.73 12.67,-3.57 21.12,-5.52 8.45,-1.95 17.66,-3.69 27.63,-5.2 9.97,-1.52 20.47,-2.82 31.52,-3.9 11.05,-1.09 22.21,-1.63 33.48,-1.63zm236.6 20.8c16.47,-4.77 37.7,-9.21 63.7,-13.32 26,-4.12 53.3,-6.18 81.9,-6.18 29.03,0 53.19,3.79 72.47,11.38 19.29,7.58 34.56,18.3 45.83,32.17 11.27,13.87 19.28,30.33 24.05,49.4 4.77,19.07 7.15,40.3 7.15,63.7l0 193.05 -96.85 0 0 -181.35c0,-31.2 -4.12,-53.3 -12.35,-66.3 -8.23,-13 -23.62,-19.5 -46.15,-19.5 -6.93,0 -14.3,0.33 -22.1,0.98 -7.8,0.65 -14.73,1.4 -20.8,2.27l0 263.9 -96.85 0 0 -330.2zm550.55 356.2c13.87,6.93 23.4,15.17 28.6,24.7 5.2,9.53 7.8,19.28 7.8,29.25 0,20.8 -8.23,36.62 -24.7,47.45 -16.47,10.83 -38.13,16.25 -65,16.25 -9.53,0 -19.07,-0.76 -28.6,-2.28 -9.53,-1.51 -19.07,-3.57 -28.6,-6.17l11.7 -56.55c3.03,0.87 8.56,2.27 16.57,4.22 8.02,1.95 15.93,2.93 23.73,2.93 6.07,0 11.37,-1.19 15.92,-3.58 4.55,-2.38 7.05,-6.6 7.48,-12.67 0.43,-5.2 -1.63,-9.97 -6.18,-14.3 -4.55,-4.33 -11.8,-7.58 -21.77,-9.75l-7.8 -1.95c1.73,-5.63 4.12,-12.03 7.15,-19.18 3.03,-7.15 6.07,-13.75 9.1,-19.82 -22.53,-4.33 -41.93,-11.81 -58.18,-22.42 -16.25,-10.62 -29.68,-23.62 -40.3,-39 -10.61,-15.39 -18.41,-32.83 -23.4,-52.33 -4.98,-19.5 -7.47,-40.08 -7.47,-61.75 0,-24.7 4.01,-47.99 12.02,-69.87 8.02,-21.89 19.61,-40.95 34.78,-57.2 15.17,-16.25 33.58,-29.15 55.25,-38.68 21.67,-9.53 46.37,-14.3 74.1,-14.3 18.2,0 34.88,1.63 50.05,4.88 15.17,3.25 29.9,7.9 44.2,13.97l-20.15 77.35c-9.1,-3.47 -19.07,-6.5 -29.9,-9.1 -10.83,-2.6 -22.97,-3.9 -36.4,-3.9 -28.6,0 -49.94,8.88 -64.03,26.65 -14.08,17.77 -21.12,41.17 -21.12,70.2 0,30.77 6.61,54.6 19.82,71.5 13.22,16.9 36.3,25.35 69.23,25.35 11.7,0 24.27,-1.08 37.7,-3.25 13.43,-2.17 25.78,-5.63 37.05,-10.4l13.65 79.3c-9.97,4.33 -22.21,8.02 -36.73,11.05 -14.51,3.03 -30.44,4.98 -47.77,5.85 -1.73,3.47 -3.25,6.72 -4.55,9.75 -1.3,3.03 -2.38,5.63 -3.25,7.8zm271.7 -93.6c9.53,0 18.63,-0.22 27.3,-0.65 8.67,-0.43 15.6,-1.08 20.8,-1.95l0 -73.45c-3.9,-0.87 -9.75,-1.73 -17.55,-2.6 -7.8,-0.87 -14.95,-1.3 -21.45,-1.3 -9.1,0 -17.66,0.54 -25.68,1.63 -8.01,1.08 -15.05,3.14 -21.12,6.17 -6.07,3.03 -10.83,7.15 -14.3,12.35 -3.47,5.2 -5.2,11.7 -5.2,19.5 0,15.17 5.09,25.68 15.27,31.53 10.19,5.85 24.16,8.77 41.93,8.77zm-7.8 -283.4c28.6,0 52.43,3.25 71.5,9.75 19.07,6.5 34.34,15.82 45.82,27.95 11.49,12.13 19.61,26.87 24.38,44.2 4.77,17.33 7.15,36.62 7.15,57.85l0 201.5c-13.87,3.03 -33.15,6.61 -57.85,10.72 -24.7,4.12 -54.6,6.18 -89.7,6.18 -22.1,0 -42.14,-1.95 -60.13,-5.85 -17.98,-3.9 -33.47,-10.29 -46.47,-19.17 -13,-8.89 -22.97,-20.48 -29.9,-34.78 -6.93,-14.3 -10.4,-31.85 -10.4,-52.65 0,-19.93 4.01,-36.83 12.02,-50.7 8.02,-13.87 18.75,-24.92 32.18,-33.15 13.43,-8.23 28.82,-14.19 46.15,-17.87 17.33,-3.69 35.32,-5.53 53.95,-5.53 12.57,0 23.72,0.54 33.47,1.63 9.75,1.08 17.66,2.49 23.73,4.22l0 -9.1c0,-16.47 -4.98,-29.68 -14.95,-39.65 -9.97,-9.97 -27.3,-14.95 -52,-14.95 -16.47,0 -32.72,1.19 -48.75,3.58 -16.03,2.38 -29.9,5.74 -41.6,10.07l-12.35 -78c5.63,-1.73 12.67,-3.57 21.12,-5.52 8.45,-1.95 17.66,-3.69 27.63,-5.2 9.97,-1.52 20.47,-2.82 31.52,-3.9 11.05,-1.09 22.21,-1.63 33.48,-1.63z"/>
 </g>
</svg>
