<?xml version="1.0" encoding="UTF-8"?>
<!DOCTYPE svg PUBLIC "-//W3C//DTD SVG 1.1//EN" "http://www.w3.org/Graphics/SVG/1.1/DTD/svg11.dtd">
<!-- Creator: CorelDRAW -->
<svg xmlns="http://www.w3.org/2000/svg" xml:space="preserve" width="2.5398mm" height="2.5398mm" version="1.1" style="shape-rendering:geometricPrecision; text-rendering:geometricPrecision; image-rendering:optimizeQuality; fill-rule:evenodd; clip-rule:evenodd"
viewBox="0 0 253.98 253.98"
 xmlns:xlink="http://www.w3.org/1999/xlink"
 xmlns:xodm="http://www.corel.com/coreldraw/odm/2003">
 <defs>
  <style type="text/css">
   <![CDATA[
    .fil0 {fill:#66FCF1}
    .fil1 {fill:#66FCF1}
   ]]>
  </style>
 </defs>
 <g id="Camada_x0020_1">
  <metadata id="CorelCorpID_0Corel-Layer"/>
  <path class="fil0" d="M43.24 -0.01l167.49 0c23.79,0 43.26,19.47 43.26,43.26l0 167.48c0,23.79 -19.47,43.26 -43.26,43.26l-167.49 0c-23.79,0 -43.25,-19.47 -43.25,-43.26l0 -167.48c0,-23.79 19.46,-43.26 43.25,-43.26zm9.17 24.08l149.15 0c15.6,0 28.35,12.75 28.35,28.34l0 149.15c0,15.6 -12.75,28.35 -28.35,28.35l-149.15 0c-15.59,0 -28.34,-12.75 -28.34,-28.35l0 -149.15c0,-15.59 12.75,-28.34 28.34,-28.34z"/>
  <rect class="fil1" x="63.37" y="63.37" width="127.24" height="127.24" rx="6.67" ry="21.67"/>
 </g>
</svg>
