<?xml version="1.0" encoding="UTF-8"?>
<!DOCTYPE svg PUBLIC "-//W3C//DTD SVG 1.1//EN" "http://www.w3.org/Graphics/SVG/1.1/DTD/svg11.dtd">
<!-- Creator: CorelDRAW -->
<svg xmlns="http://www.w3.org/2000/svg" xml:space="preserve" width="42.3332mm" height="42.3332mm" version="1.1" style="shape-rendering:geometricPrecision; text-rendering:geometricPrecision; image-rendering:optimizeQuality; fill-rule:evenodd; clip-rule:evenodd"
viewBox="0 0 4233.32 4233.32"
 xmlns:xlink="http://www.w3.org/1999/xlink"
 xmlns:xodm="http://www.corel.com/coreldraw/odm/2003">
 <defs>
  <style type="text/css">
   <![CDATA[
    .fil0 {fill:#001E36}
    .fil1 {fill:#31A7FE}
    .fil3 {fill:#333333}
    .fil2 {fill:#F6F6F6;fill-rule:nonzero}
    .fil4 {fill:url(#id0)}
   ]]>
  </style>
  <linearGradient id="id0" gradientUnits="userSpaceOnUse" x1="309.81" y1="4098.18" x2="3188.61" y2="4098.18">
   <stop offset="0" style="stop-opacity:1; stop-color:#31A7FE"/>
   <stop offset="0.419608" style="stop-opacity:1; stop-color:#1972B6"/>
   <stop offset="1" style="stop-opacity:1; stop-color:#003D6E"/>
  </linearGradient>
 </defs>
 <g id="Camada_x0020_1">
  <metadata id="CorelCorpID_0Corel-Layer"/>
  <g id="_2208681919552">
   <path class="fil0" d="M2336.09 2595.34c6.84,-0.28 66.06,32.3 100.91,43.59 65.76,21.32 188.99,43.68 252.86,11.73 37.24,-18.64 37.89,-63.9 -2.5,-92.48 -78.94,-55.86 -291.6,-85.26 -343.35,-252.66 -26.14,-84.53 0.2,-180.52 43.62,-232.4 43.5,-51.97 98.81,-89.65 191.82,-105.65 73.46,-12.64 197.82,-6.84 267.65,12.98 72.82,20.67 55.92,14.27 55.92,167.95 0,80.63 4.62,65.36 -67.89,37.7 -58.72,-22.39 -281.09,-70.23 -281.19,26.77 -0.04,37.02 46.83,58.97 75.02,73.03 33.71,16.82 69.83,28.34 104.61,43.96 99,44.49 203.44,102.35 212.29,235.27 2.99,45.05 -3.65,90.32 -19.6,127.2 -21.89,50.66 -61.44,94.66 -104.08,118.77 -123.82,70.02 -310.61,64.7 -434.38,22.02 -65.94,-22.74 -56.3,-18.46 -56.3,-92.46 0,-26.8 -5.33,-131.38 4.59,-145.32zm-915.26 -896.03c32.03,-5.05 95.11,-3.16 131.53,-4.12 114.23,-3 278.35,-12.45 380.14,16.35 141.08,39.93 238.85,124.72 273.87,269.2 18.95,78.2 14.64,170.02 -9.29,243.88 -60.56,186.9 -241.5,249.73 -420.72,254.5 -25.14,0.67 -112.9,-4.34 -128.52,-0.17 0,42.72 4.11,343.34 -2.9,356.45 -6.61,7.18 -11.68,5.86 -24.81,5.77l-145.11 -0.06c-69.19,0 -56.86,22.7 -56.86,-142.58l0 -431.18c0,-63.03 -3.45,-549.04 2.67,-568.04zm-574.16 -210.07l0 1652.86c0,35.09 5.91,66.38 13.03,95.67 31.82,130.86 124.12,247.78 242.83,303.61 50.05,23.54 114.65,44.29 174.32,44.29l1677.22 0c39.28,0 99.16,-11.86 134.33,-25.81 14.57,-5.78 25.37,-11.05 39,-17.01 20.01,-8.76 33.96,-18.08 51.59,-28.87 116.29,-71.21 207.68,-228.58 207.68,-369.4l0 -1655.34c0,-67.81 -20.83,-129.99 -41.75,-177.74 -22,-50.21 -64.67,-110.69 -102.67,-145.01 -27.53,-24.86 -78.89,-63.36 -112.77,-77.65 -55.61,-23.47 -109.75,-43.17 -175.41,-43.17l-1674.81 0c-134.43,0 -276.51,83.48 -349.95,193.78l-56.09 108.51c-14.48,37.06 -26.55,99.24 -26.55,141.28z"/>
   <path class="fil1" d="M1648.9 2272.34l0 -364.93c136.88,-10.94 342.36,-13.04 338.55,181.52 -3.67,187.8 -192.55,191.39 -338.55,183.41zm-228.07 -573.03c-6.12,19 -2.67,505.01 -2.67,568.04l0 431.18c0,165.28 -12.33,142.58 56.86,142.58l145.11 0.06c13.13,0.09 18.2,1.41 24.81,-5.77 7.01,-13.11 2.9,-313.73 2.9,-356.45 15.62,-4.17 103.38,0.84 128.52,0.17 179.22,-4.77 360.16,-67.6 420.72,-254.5 23.93,-73.86 28.24,-165.68 9.29,-243.88 -35.02,-144.48 -132.79,-229.27 -273.87,-269.2 -101.79,-28.8 -265.91,-19.35 -380.14,-16.35 -36.42,0.96 -99.5,-0.93 -131.53,4.12z"/>
   <path class="fil1" d="M2336.09 2595.34c-9.92,13.94 -4.59,118.52 -4.59,145.32 0,74 -9.64,69.72 56.3,92.46 123.77,42.68 310.56,48 434.38,-22.02 42.64,-24.11 82.19,-68.11 104.08,-118.77 15.95,-36.88 22.59,-82.15 19.6,-127.2 -8.85,-132.92 -113.29,-190.78 -212.29,-235.27 -34.78,-15.62 -70.9,-27.14 -104.61,-43.96 -28.19,-14.06 -75.06,-36.01 -75.02,-73.03 0.1,-97 222.47,-49.16 281.19,-26.77 72.51,27.66 67.89,42.93 67.89,-37.7 0,-153.68 16.9,-147.28 -55.92,-167.95 -69.83,-19.82 -194.19,-25.62 -267.65,-12.98 -93.01,16 -148.32,53.68 -191.82,105.65 -43.42,51.88 -69.76,147.87 -43.62,232.4 51.75,167.4 264.41,196.8 343.35,252.66 40.39,28.58 39.74,73.84 2.5,92.48 -63.87,31.95 -187.1,9.59 -252.86,-11.73 -34.85,-11.29 -94.07,-43.87 -100.91,-43.59z"/>
   <path class="fil0" d="M1648.9 2272.34c146,7.98 334.88,4.39 338.55,-183.41 3.81,-194.56 -201.67,-192.46 -338.55,-181.52l0 364.93z"/>
  </g>
  <path class="fil2" d="M552.66 52.19c71.89,0 127.08,12.64 165.58,37.92 38.5,25.27 57.74,66.67 57.74,124.18 0,57.98 -19.48,99.84 -58.44,125.58 -38.96,25.74 -94.61,38.61 -166.97,38.61l-34.09 0 0 161.41 -108.53 0 0 -475.18c23.65,-4.63 48.7,-7.88 75.14,-9.74 26.43,-1.85 49.62,-2.78 69.57,-2.78zm6.95 92.53c-7.88,0 -15.65,0.23 -23.3,0.7 -7.65,0.46 -14.26,0.92 -19.83,1.39l0 139.14 34.09 0c37.57,0 65.86,-5.1 84.88,-15.3 19.01,-10.21 28.52,-29.22 28.52,-57.05 0,-13.45 -2.43,-24.58 -7.3,-33.4 -4.87,-8.81 -11.83,-15.88 -20.87,-21.22 -9.05,-5.33 -20.06,-9.04 -33.05,-11.13 -12.99,-2.09 -27.37,-3.13 -43.14,-3.13zm289.42 395.17l0 -523.18 103.66 -16.7 0 175.32c6.96,-2.32 15.89,-4.52 26.79,-6.61 10.9,-2.08 21.45,-3.13 31.65,-3.13 29.69,0 54.39,4.06 74.1,12.18 19.71,8.11 35.48,19.59 47.31,34.44 11.82,14.84 20.17,32.46 25.04,52.87 4.87,20.41 7.31,43.14 7.31,68.18l0 206.63 -103.66 0 0 -194.11c0,-33.39 -4.3,-57.04 -12.88,-70.96 -8.58,-13.91 -24.46,-20.87 -47.65,-20.87 -9.28,0 -17.98,0.81 -26.09,2.43 -8.12,1.63 -15.42,3.37 -21.92,5.22l0 278.29 -103.66 0zm752.07 -183.67c0,28.76 -4.17,55.08 -12.52,78.96 -8.35,23.89 -20.41,44.3 -36.18,61.23 -15.77,16.93 -34.67,30.03 -56.7,39.31 -22.03,9.27 -46.73,13.91 -74.09,13.91 -26.9,0 -51.37,-4.64 -73.4,-13.91 -22.03,-9.28 -40.93,-22.38 -56.7,-39.31 -15.77,-16.93 -28.06,-37.34 -36.87,-61.23 -8.82,-23.88 -13.22,-50.2 -13.22,-78.96 0,-28.76 4.52,-54.96 13.56,-78.62 9.05,-23.65 21.57,-43.83 37.57,-60.52 16,-16.7 35.02,-29.69 57.05,-38.96 22.03,-9.28 46.04,-13.92 72.01,-13.92 26.44,0 50.67,4.64 72.7,13.92 22.03,9.27 40.93,22.26 56.7,38.96 15.77,16.69 28.06,36.87 36.88,60.52 8.81,23.66 13.21,49.86 13.21,78.62zm-105.74 0c0,-32 -6.38,-57.17 -19.14,-75.49 -12.75,-18.32 -30.96,-27.48 -54.61,-27.48 -23.66,0 -41.98,9.16 -54.96,27.48 -12.99,18.32 -19.48,43.49 -19.48,75.49 0,32 6.49,57.4 19.48,76.18 12.98,18.79 31.3,28.18 54.96,28.18 23.65,0 41.86,-9.39 54.61,-28.18 12.76,-18.78 19.14,-44.18 19.14,-76.18zm182.27 -273.42l103.66 -16.7 0 107.84 124.54 0 0 86.27 -124.54 0 0 128.71c0,21.8 3.83,39.19 11.48,52.18 7.66,12.98 23.08,19.48 46.27,19.48 11.13,0 22.61,-1.05 34.44,-3.13 11.82,-2.09 22.61,-4.99 32.35,-8.7l14.61 80.7c-12.52,5.11 -26.44,9.51 -41.75,13.22 -15.3,3.71 -34.09,5.57 -56.35,5.57 -28.29,0 -51.71,-3.83 -70.27,-11.48 -18.55,-7.65 -33.39,-18.32 -44.52,-32 -11.13,-13.69 -18.9,-30.27 -23.31,-49.75 -4.41,-19.48 -6.61,-41.05 -6.61,-64.7l0 -307.51zm640.76 273.42c0,28.76 -4.17,55.08 -12.52,78.96 -8.35,23.89 -20.41,44.3 -36.18,61.23 -15.77,16.93 -34.67,30.03 -56.7,39.31 -22.03,9.27 -46.73,13.91 -74.09,13.91 -26.9,0 -51.37,-4.64 -73.4,-13.91 -22.03,-9.28 -40.93,-22.38 -56.7,-39.31 -15.77,-16.93 -28.06,-37.34 -36.87,-61.23 -8.82,-23.88 -13.22,-50.2 -13.22,-78.96 0,-28.76 4.52,-54.96 13.56,-78.62 9.05,-23.65 21.57,-43.83 37.57,-60.52 16,-16.7 35.02,-29.69 57.05,-38.96 22.03,-9.28 46.04,-13.92 72.01,-13.92 26.44,0 50.67,4.64 72.7,13.92 22.03,9.27 40.93,22.26 56.7,38.96 15.77,16.69 28.06,36.87 36.88,60.52 8.81,23.66 13.21,49.86 13.21,78.62zm-105.74 0c0,-32 -6.38,-57.17 -19.14,-75.49 -12.75,-18.32 -30.96,-27.48 -54.61,-27.48 -23.66,0 -41.98,9.16 -54.96,27.48 -12.99,18.32 -19.48,43.49 -19.48,75.49 0,32 6.49,57.4 19.48,76.18 12.98,18.79 31.3,28.18 54.96,28.18 23.65,0 41.86,-9.39 54.61,-28.18 12.76,-18.78 19.14,-44.18 19.14,-76.18zm290.8 109.23c19.02,0 32.47,-1.86 40.36,-5.57 7.88,-3.71 11.82,-10.9 11.82,-21.57 0,-8.34 -5.1,-15.65 -15.3,-21.91 -10.21,-6.26 -25.74,-13.33 -46.62,-21.22 -16.23,-6.03 -30.96,-12.29 -44.17,-18.78 -13.22,-6.5 -24.47,-14.27 -33.75,-23.31 -9.27,-9.05 -16.46,-19.83 -21.56,-32.35 -5.11,-12.52 -7.66,-27.6 -7.66,-45.22 0,-34.33 12.76,-61.46 38.27,-81.4 25.51,-19.95 60.53,-29.92 105.05,-29.92 22.26,0 43.6,1.97 64.01,5.91 20.41,3.95 36.64,8.24 48.7,12.88l-18.09 80.7c-12.06,-4.18 -25.16,-7.89 -39.31,-11.13 -14.15,-3.25 -30.03,-4.87 -47.66,-4.87 -32.46,0 -48.7,9.04 -48.7,27.13 0,4.17 0.7,7.89 2.09,11.13 1.39,3.25 4.18,6.38 8.35,9.39 4.17,3.02 9.86,6.27 17.04,9.74 7.19,3.6 16.35,7.43 27.49,11.6 22.72,8.46 41.51,16.7 56.35,24.93 14.84,8.12 26.55,17.04 35.13,26.44 8.58,9.51 14.61,20.06 18.09,31.65 3.48,11.6 5.22,24.93 5.22,40.24 0,36.06 -13.57,63.42 -40.7,81.98 -27.13,18.43 -65.51,27.71 -115.14,27.71 -32.47,0 -59.49,-2.78 -81.05,-8.35 -21.57,-5.56 -36.53,-10.2 -44.88,-13.91l17.4 -84.19c17.62,6.96 35.71,12.41 54.26,16.35 18.55,3.95 36.88,5.92 54.96,5.92zm232.37 74.44l0 -523.18 103.66 -16.7 0 175.32c6.96,-2.32 15.89,-4.52 26.79,-6.61 10.9,-2.08 21.45,-3.13 31.65,-3.13 29.69,0 54.39,4.06 74.1,12.18 19.71,8.11 35.48,19.59 47.31,34.44 11.82,14.84 20.17,32.46 25.04,52.87 4.87,20.41 7.31,43.14 7.31,68.18l0 206.63 -103.66 0 0 -194.11c0,-33.39 -4.3,-57.04 -12.88,-70.96 -8.58,-13.91 -24.46,-20.87 -47.65,-20.87 -9.28,0 -17.98,0.81 -26.09,2.43 -8.12,1.63 -15.42,3.37 -21.92,5.22l0 278.29 -103.66 0zm752.07 -183.67c0,28.76 -4.17,55.08 -12.52,78.96 -8.35,23.89 -20.41,44.3 -36.18,61.23 -15.77,16.93 -34.67,30.03 -56.7,39.31 -22.03,9.27 -46.73,13.91 -74.09,13.91 -26.9,0 -51.37,-4.64 -73.4,-13.91 -22.03,-9.28 -40.93,-22.38 -56.7,-39.31 -15.77,-16.93 -28.06,-37.34 -36.87,-61.23 -8.82,-23.88 -13.22,-50.2 -13.22,-78.96 0,-28.76 4.52,-54.96 13.56,-78.62 9.05,-23.65 21.57,-43.83 37.57,-60.52 16,-16.7 35.02,-29.69 57.05,-38.96 22.03,-9.28 46.04,-13.92 72.01,-13.92 26.44,0 50.67,4.64 72.7,13.92 22.03,9.27 40.93,22.26 56.7,38.96 15.77,16.69 28.06,36.87 36.88,60.52 8.81,23.66 13.21,49.86 13.21,78.62zm-105.74 0c0,-32 -6.38,-57.17 -19.14,-75.49 -12.75,-18.32 -30.96,-27.48 -54.61,-27.48 -23.66,0 -41.98,9.16 -54.96,27.48 -12.99,18.32 -19.48,43.49 -19.48,75.49 0,32 6.49,57.4 19.48,76.18 12.98,18.79 31.3,28.18 54.96,28.18 23.65,0 41.86,-9.39 54.61,-28.18 12.76,-18.78 19.14,-44.18 19.14,-76.18zm420.21 3.48c0,-32 -7.19,-57.63 -21.57,-76.88 -14.38,-19.25 -35.71,-28.87 -64.01,-28.87 -9.27,0 -17.85,0.35 -25.74,1.04 -7.88,0.7 -14.38,1.51 -19.48,2.44l0 187.15c6.5,4.17 14.96,7.65 25.4,10.43 10.43,2.79 20.98,4.18 31.65,4.18 49.17,0 73.75,-33.17 73.75,-99.49zm105.75 -2.78c0,28.29 -3.48,54.03 -10.44,77.22 -6.96,23.19 -17.16,43.14 -30.61,59.83 -13.45,16.7 -30.15,29.69 -50.09,38.96 -19.95,9.28 -42.9,13.92 -68.88,13.92 -14.38,0 -27.83,-1.39 -40.35,-4.18 -12.52,-2.78 -24.58,-6.72 -36.18,-11.82l0 137.75 -103.66 0 0 -482.14c9.28,-2.78 19.94,-5.45 32,-8 12.06,-2.55 24.7,-4.75 37.92,-6.61 13.22,-1.85 26.67,-3.36 40.35,-4.52 13.68,-1.16 26.79,-1.74 39.31,-1.74 30.15,0 57.05,4.52 80.7,13.57 23.66,9.04 43.6,21.8 59.84,38.26 16.23,16.47 28.64,36.53 37.22,60.18 8.58,23.66 12.87,50.1 12.87,79.32z"/>
  <rect class="fil3" x="309.81" y="3963.03" width="3613.7" height="270.29"/>
  <rect class="fil4" x="309.8" y="3963.03" width="2878.81" height="270.29"/>
 </g>
</svg>
