<?xml version="1.0" encoding="UTF-8"?>
<!DOCTYPE svg PUBLIC "-//W3C//DTD SVG 1.1//EN" "http://www.w3.org/Graphics/SVG/1.1/DTD/svg11.dtd">
<!-- Creator: CorelDRAW -->
<svg xmlns="http://www.w3.org/2000/svg" xml:space="preserve" width="17.6388mm" height="12.7776mm" version="1.1" style="shape-rendering:geometricPrecision; text-rendering:geometricPrecision; image-rendering:optimizeQuality; fill-rule:evenodd; clip-rule:evenodd"
viewBox="0 0 1763.88 1277.76"
 xmlns:xlink="http://www.w3.org/1999/xlink"
 xmlns:xodm="http://www.corel.com/coreldraw/odm/2003">
 <defs>
  <style type="text/css">
   <![CDATA[
    .fil2 {fill:#002776}
    .fil0 {fill:#009B39}
    .fil6 {fill:#3B88C3}
    .fil5 {fill:#54ABED}
    .fil4 {fill:#55ACEE}
    .fil3 {fill:#88C9F9}
    .fil7 {fill:#CAE8D4}
    .fil1 {fill:#FDDE01}
   ]]>
  </style>
 </defs>
 <g id="Camada_x0020_1">
  <metadata id="CorelCorpID_0Corel-Layer"/>
  <rect class="fil0" x="0.07" y="31.4" width="1763.73" height="1277.76" rx="237.15" ry="188.43"/>
  <rect class="fil1" transform="matrix(1.60553 -1.2134 1.60553 1.2134 162.63 670.28)" width="448.02" height="448.02"/>
  <circle class="fil2" cx="881.94" cy="670.28" r="317.5"/>
  <g id="_2546188236096">
   <rect class="fil3" x="592.03" y="681.54" width="49.16" height="49.16"/>
   <rect class="fil3" x="641.15" y="779.58" width="49.16" height="49.16"/>
   <rect class="fil4" x="738.93" y="681.33" width="49.16" height="49.16"/>
   <rect class="fil5" x="837.1" y="730.55" width="49.16" height="49.16"/>
   <rect class="fil6" x="935.21" y="779.63" width="49.16" height="49.16"/>
   <rect class="fil5" x="1032.97" y="828.56" width="49.16" height="49.16"/>
   <rect class="fil5" x="1032.42" y="584.68" width="49.16" height="49.16"/>
   <rect class="fil5" x="886.04" y="877.71" width="49.16" height="49.16"/>
  </g>
  <path class="fil7" d="M1191.82 739.71c-156.38,-138.26 -360.28,-223.99 -584.08,-229.59 -17.51,29.91 -30.26,62.93 -37.22,98.04 223.26,4.5 426.95,88.75 583.75,225.44 17.22,-28.67 30.05,-60.27 37.55,-93.89z"/>
 </g>
</svg>
