<?xml version="1.0" encoding="UTF-8"?>
<!DOCTYPE svg PUBLIC "-//W3C//DTD SVG 1.1//EN" "http://www.w3.org/Graphics/SVG/1.1/DTD/svg11.dtd">
<!-- Creator: CorelDRAW -->
<svg xmlns="http://www.w3.org/2000/svg" xml:space="preserve" width="42.3332mm" height="42.3332mm" version="1.1" style="shape-rendering:geometricPrecision; text-rendering:geometricPrecision; image-rendering:optimizeQuality; fill-rule:evenodd; clip-rule:evenodd"
viewBox="0 0 4233.32 4233.32"
 xmlns:xlink="http://www.w3.org/1999/xlink"
 xmlns:xodm="http://www.corel.com/coreldraw/odm/2003">
 <defs>
  <style type="text/css">
   <![CDATA[
    .fil7 {fill:#333333}
    .fil3 {fill:#5AC3FF}
    .fil0 {fill:#8847C9}
    .fil4 {fill:#ABE9FF}
    .fil5 {fill:#E0E0E0}
    .fil1 {fill:#F9BA3A}
    .fil2 {fill:#FEE471}
    .fil6 {fill:#FEFDFE}
    .fil9 {fill:#F6F6F6;fill-rule:nonzero}
    .fil8 {fill:url(#id0)}
   ]]>
  </style>
  <linearGradient id="id0" gradientUnits="userSpaceOnUse" x1="308.66" y1="4098" x2="2925.26" y2="4098">
   <stop offset="0" style="stop-opacity:1; stop-color:#8847C9"/>
   <stop offset="1" style="stop-opacity:1; stop-color:#46008C"/>
  </linearGradient>
 </defs>
 <g id="Camada_x0020_1">
  <metadata id="CorelCorpID_0Corel-Layer"/>
  <g id="_1804746388784">
   <circle class="fil0" cx="2116.66" cy="2301.45" r="1366.18"/>
   <path class="fil1" d="M2833.99 1689.14c-108.63,59.87 -403.89,130.36 -556.08,138.03l-159.81 7.96 0 186.95 -74.22 -1.68c203.25,23.59 531.73,-37.75 728.65,-105.29 73.35,-25.16 152.3,-62.28 202.19,-79.26l60.64 -30.62c-10.16,-30.43 -64.96,-147.12 -84.75,-166.91 -39.79,13.3 -73.84,36.85 -116.62,50.82z"/>
   <path class="fil1" d="M2038.16 2769.05c267.49,-12.17 575.21,43.58 816.15,151.62 28.88,12.95 66.94,33.89 96.3,43.79 0.86,-1.08 2.16,-4.11 2.53,-3.26l82.29 -163.85c-279.07,-135.27 -662.89,-243.8 -986.92,-215.48l69.59 -1.12 -0.01 184.72 -79.93 3.58z"/>
   <path class="fil2" d="M1220.25 1815.78l181.69 75.77c189.98,72.13 436.72,126.59 641.94,128.85l74.22 1.68 0 -186.95c-156.55,3.79 -314.23,-21.65 -458,-57.95 -193.91,-48.96 -338.07,-127.7 -375.62,-137.69l-83.4 162.32 19.17 13.97z"/>
   <path class="fil2" d="M1483.68 2680.6c-89.35,42.25 -202.34,66.39 -281.75,118.48 10.09,23 73.14,155.06 86.56,163.26 54.03,-20.94 105.88,-49.11 164.97,-71.49 57.74,-21.87 115.85,-41.07 177.04,-57.69 129.84,-35.28 266.34,-58.14 407.66,-64.11l79.93 -3.58 0.01 -184.72 -69.59 1.12c-98.63,1.96 -206.51,14.97 -300.06,32.43 -46.99,8.77 -90.08,18.6 -135.71,30.33 -39.68,10.21 -91.38,29.14 -129.06,35.97z"/>
   <polygon class="fil3" points="2118.12,2392.24 3034.85,2392.58 3034.88,2210.06 2118.12,2210.43 "/>
   <polygon class="fil4" points="2118.12,2392.24 2118.12,2210.43 1200.88,2210.59 1200.88,2391.44 1205.53,2391.52 "/>
   <path class="fil5" d="M2112.81 1654.88c4.09,8.33 -7.49,7.14 10.22,6.12 21.59,-42.71 219,-284.34 224.45,-313.28l-96.97 0 0.32 -236.49c-20.28,-13.01 -102.39,-5.55 -133.68,-5.18 0.6,7.49 8.98,530.68 -4.34,548.83z"/>
   <path class="fil5" d="M2116.73 3496.62l134.04 0.01 0.15 -241.67 96.32 0c-5.28,-30.04 -208.48,-276.57 -223.66,-314.44 -21.33,1.67 -2.28,-1.29 -10.55,8.17l5.05 14.78c6.84,45.76 -0.68,527 -1.35,533.15z"/>
   <path class="fil6" d="M1888.97 1355.06c48.11,53.28 180.93,253.93 223.84,299.82 13.32,-18.15 4.94,-541.34 4.34,-548.83l-126.79 -0.11 -3.12 242.7c-29.77,10.44 -66.46,1.57 -98.27,6.42z"/>
   <path class="fil6" d="M1889.11 3247.07c31.81,5.2 68.63,-4.07 99.95,6.81l1.55 242.76 126.12 -0.02c0.67,-6.15 8.19,-487.39 1.35,-533.15l-5.05 -14.78c-26.64,24.06 -191.23,265.44 -223.92,298.38z"/>
  </g>
  <rect class="fil7" x="309.81" y="3963.03" width="3613.7" height="270.29"/>
  <rect class="fil8" x="309.81" y="3963.03" width="2616.38" height="270.29"/>
  <path class="fil9" d="M217.65 77.01c86.45,0 152.67,15.38 198.67,46.13 45.99,30.76 68.99,78.56 68.99,143.39 0,40.46 -9.28,73.29 -27.85,98.51 -18.56,25.21 -45.3,45.02 -80.21,59.43 11.64,14.41 23.83,30.89 36.57,49.46 12.75,18.56 25.36,37.96 37.82,58.18 12.47,20.23 24.53,41.29 36.16,63.18 11.64,21.89 22.45,43.36 32.42,64.42l-144.91 0c-10.67,-18.84 -21.34,-37.96 -32.14,-57.36 -10.95,-19.39 -22.03,-38.23 -33.39,-56.52 -11.36,-18.29 -22.72,-35.6 -33.8,-51.95 -11.09,-16.35 -22.31,-31.17 -33.39,-44.47l-64.01 0 0 210.3 -129.67 0 0 -567.74c28.26,-5.54 57.49,-9.42 87.7,-11.63 30.2,-2.22 57.21,-3.33 81.04,-3.33zm7.48 110.56c-9.42,0 -17.87,0.27 -25.35,0.83 -7.48,0.55 -14.55,1.11 -21.2,1.66l0 156.27 36.58 0c48.76,0 83.68,-6.09 104.73,-18.28 21.06,-12.2 31.59,-32.98 31.59,-62.35 0,-28.26 -10.67,-48.35 -32,-60.26 -21.34,-11.92 -52.79,-17.87 -94.35,-17.87zm328.35 256.85c0,-38.79 5.95,-72.73 17.87,-101.83 11.91,-29.09 27.57,-53.34 46.96,-72.73 19.4,-19.4 41.7,-34.08 66.92,-44.06 25.21,-9.97 51.12,-14.96 77.72,-14.96 62.06,0 111.11,18.98 147.13,56.94 36.02,37.96 54.03,93.79 54.03,167.5 0,7.2 -0.28,15.1 -0.83,23.69 -0.56,8.59 -1.11,16.2 -1.67,22.85l-280.95 0c2.77,25.5 14.68,45.72 35.74,60.69 21.06,14.96 49.32,22.44 84.79,22.44 22.72,0 45.02,-2.08 66.91,-6.24 21.89,-4.15 39.76,-9.28 53.62,-15.37l16.62 100.58c-6.65,3.32 -15.52,6.65 -26.6,9.97 -11.08,3.33 -23.41,6.24 -36.99,8.73 -13.58,2.49 -28.12,4.57 -43.64,6.23 -15.52,1.67 -31.03,2.5 -46.55,2.5 -39.34,0 -73.56,-5.82 -102.66,-17.46 -29.09,-11.64 -53.2,-27.57 -72.32,-47.79 -19.11,-20.23 -33.25,-44.2 -42.39,-71.91 -9.14,-27.71 -13.71,-57.63 -13.71,-89.77zm290.93 -47.38c-0.55,-10.53 -2.36,-20.78 -5.4,-30.76 -3.05,-9.97 -7.76,-18.84 -14.13,-26.6 -6.38,-7.76 -14.41,-14.13 -24.11,-19.12 -9.7,-4.98 -21.75,-7.48 -36.16,-7.48 -13.85,0 -25.77,2.36 -35.74,7.07 -9.98,4.71 -18.29,10.94 -24.94,18.7 -6.65,7.76 -11.78,16.76 -15.38,27.02 -3.6,10.25 -6.23,20.64 -7.89,31.17l163.75 0zm340.8 173.73c22.72,0 38.8,-2.22 48.22,-6.65 9.42,-4.44 14.13,-13.03 14.13,-25.77 0,-9.98 -6.1,-18.7 -18.29,-26.19 -12.19,-7.48 -30.76,-15.93 -55.69,-25.35 -19.4,-7.2 -36.99,-14.68 -52.79,-22.44 -15.79,-7.76 -29.23,-17.04 -40.31,-27.85 -11.09,-10.8 -19.67,-23.69 -25.77,-38.65 -6.1,-14.96 -9.14,-32.97 -9.14,-54.03 0,-41.01 15.24,-73.43 45.71,-97.26 30.48,-23.83 72.32,-35.74 125.52,-35.74 26.6,0 52.09,2.36 76.48,7.07 24.38,4.71 43.77,9.83 58.18,15.37l-21.61 96.43c-14.41,-4.99 -30.06,-9.42 -46.97,-13.3 -16.9,-3.88 -35.88,-5.82 -56.94,-5.82 -38.79,0 -58.18,10.81 -58.18,32.42 0,4.99 0.83,9.42 2.49,13.3 1.66,3.88 4.99,7.62 9.98,11.22 4.98,3.6 11.77,7.48 20.36,11.64 8.59,4.29 19.54,8.86 32.84,13.85 27.15,10.11 49.59,19.95 67.33,29.79 17.73,9.69 31.72,20.36 41.97,31.58 10.26,11.36 17.46,23.97 21.62,37.83 4.15,13.85 6.23,29.78 6.23,48.07 0,43.08 -16.21,75.78 -48.63,97.95 -32.42,22.02 -78.27,33.11 -137.57,33.11 -38.79,0 -71.07,-3.33 -96.84,-9.98 -25.77,-6.65 -43.64,-12.19 -53.61,-16.62l20.78 -100.58c21.06,8.31 42.67,14.82 64.84,19.53 22.16,4.71 44.05,7.07 65.66,7.07zm401.49 88.94l-123.85 0 0 -437.23 123.85 0 0 437.23zm11.64 -563.58c0,22.72 -7.34,40.59 -22.03,53.61 -14.68,13.03 -32,19.54 -51.95,19.54 -19.95,0 -37.27,-6.51 -51.95,-19.54 -14.69,-13.02 -22.03,-30.89 -22.03,-53.61 0,-22.72 7.34,-40.59 22.03,-53.62 14.68,-13.02 32,-19.53 51.95,-19.53 19.95,0 37.27,6.51 51.95,19.53 14.69,13.03 22.03,30.9 22.03,53.62zm279.3 571.89c-36.02,-0.55 -65.26,-4.43 -87.7,-11.63 -22.44,-7.21 -40.18,-17.32 -53.2,-30.35 -13.02,-13.02 -21.89,-28.81 -26.6,-47.38 -4.71,-18.56 -7.06,-39.48 -7.06,-62.75l0 -481.29 123.85 -19.95 0 476.3c0,11.08 0.83,21.06 2.5,29.92 1.66,8.87 4.84,16.35 9.55,22.45 4.71,6.09 11.5,11.08 20.37,14.96 8.87,3.88 20.78,6.37 35.74,7.48l-17.45 102.24zm211.96 -8.31l-123.85 0 0 -437.23 123.85 0 0 437.23zm11.64 -563.58c0,22.72 -7.34,40.59 -22.03,53.61 -14.68,13.03 -32,19.54 -51.95,19.54 -19.95,0 -37.27,-6.51 -51.95,-19.54 -14.69,-13.02 -22.03,-30.89 -22.03,-53.61 0,-22.72 7.34,-40.59 22.03,-53.62 14.68,-13.02 32,-19.53 51.95,-19.53 19.95,0 37.27,6.51 51.95,19.53 14.69,13.03 22.03,30.9 22.03,53.62zm83.96 348.29c0,-38.79 5.95,-72.73 17.87,-101.83 11.91,-29.09 27.57,-53.34 46.96,-72.73 19.4,-19.4 41.7,-34.08 66.92,-44.06 25.21,-9.97 51.12,-14.96 77.72,-14.96 62.06,0 111.11,18.98 147.13,56.94 36.02,37.96 54.03,93.79 54.03,167.5 0,7.2 -0.28,15.1 -0.83,23.69 -0.56,8.59 -1.11,16.2 -1.67,22.85l-280.95 0c2.77,25.5 14.68,45.72 35.74,60.69 21.06,14.96 49.32,22.44 84.79,22.44 22.72,0 45.02,-2.08 66.91,-6.24 21.89,-4.15 39.76,-9.28 53.62,-15.37l16.62 100.58c-6.65,3.32 -15.52,6.65 -26.6,9.97 -11.08,3.33 -23.41,6.24 -36.99,8.73 -13.58,2.49 -28.12,4.57 -43.64,6.23 -15.52,1.67 -31.03,2.5 -46.55,2.5 -39.34,0 -73.56,-5.82 -102.66,-17.46 -29.09,-11.64 -53.2,-27.57 -72.32,-47.79 -19.11,-20.23 -33.25,-44.2 -42.39,-71.91 -9.14,-27.71 -13.71,-57.63 -13.71,-89.77zm290.93 -47.38c-0.55,-10.53 -2.36,-20.78 -5.4,-30.76 -3.05,-9.97 -7.76,-18.84 -14.13,-26.6 -6.38,-7.76 -14.41,-14.13 -24.11,-19.12 -9.7,-4.98 -21.75,-7.48 -36.16,-7.48 -13.85,0 -25.77,2.36 -35.74,7.07 -9.98,4.71 -18.29,10.94 -24.94,18.7 -6.65,7.76 -11.78,16.76 -15.38,27.02 -3.6,10.25 -6.23,20.64 -7.89,31.17l163.75 0zm43.22 -273.48l-45.85 54.86 -83.4 -64 -83.4 64 -47.52 -54.86 130.92 -113.88 129.25 113.88zm172.07 113.88c21.05,-6.1 48.21,-11.78 81.46,-17.04 33.25,-5.26 68.16,-7.9 104.73,-7.9 37.13,0 68.03,4.85 92.69,14.55 24.66,9.7 44.19,23.41 58.6,41.15 14.41,17.73 24.66,38.79 30.76,63.17 6.09,24.38 9.14,51.54 9.14,81.46l0 246.88 -123.86 0 0 -231.92c0,-39.9 -5.26,-68.16 -15.79,-84.78 -10.53,-16.63 -30.2,-24.94 -59.02,-24.94 -8.86,0 -18.28,0.42 -28.26,1.25 -9.97,0.83 -18.84,1.8 -26.6,2.91l0 337.48 -123.85 0 0 -422.27zm468.82 203.65c0,-31.58 5.12,-61.37 15.37,-89.35 10.26,-27.99 25.08,-52.37 44.48,-73.15 19.39,-20.78 42.94,-37.27 70.65,-49.46 27.71,-12.19 59.3,-18.29 94.76,-18.29 23.28,0 44.61,2.08 64.01,6.23 19.39,4.16 38.23,10.12 56.52,17.88l-25.77 98.91c-11.63,-4.43 -24.38,-8.31 -38.23,-11.63 -13.86,-3.33 -29.37,-4.99 -46.55,-4.99 -36.58,0 -63.87,11.36 -81.88,34.08 -18.01,22.72 -27.02,52.65 -27.02,89.77 0,39.35 8.46,69.83 25.36,91.44 16.9,21.61 46.41,32.42 88.52,32.42 14.97,0 31.04,-1.39 48.22,-4.16 17.18,-2.77 32.97,-7.2 47.38,-13.3l17.45 101.41c-14.41,6.1 -32.42,11.36 -54.03,15.8 -21.61,4.43 -45.44,6.65 -71.48,6.65 -39.9,0 -74.26,-5.96 -103.08,-17.87 -28.81,-11.92 -52.5,-28.13 -71.07,-48.63 -18.56,-20.51 -32.14,-44.75 -40.73,-72.74 -8.59,-27.98 -12.88,-58.32 -12.88,-91.02zm560.25 218.62l-123.85 0 0 -437.23 123.85 0 0 437.23zm11.64 -563.58c0,22.72 -7.34,40.59 -22.03,53.61 -14.68,13.03 -32,19.54 -51.95,19.54 -19.95,0 -37.27,-6.51 -51.95,-19.54 -14.69,-13.02 -22.03,-30.89 -22.03,-53.61 0,-22.72 7.34,-40.59 22.03,-53.62 14.68,-13.02 32,-19.53 51.95,-19.53 19.95,0 37.27,6.51 51.95,19.53 14.69,13.03 22.03,30.9 22.03,53.62zm271.82 477.13c12.19,0 23.82,-0.28 34.91,-0.83 11.08,-0.55 19.95,-1.39 26.6,-2.49l0 -93.93c-4.99,-1.11 -12.47,-2.22 -22.45,-3.33 -9.97,-1.11 -19.11,-1.66 -27.43,-1.66 -11.63,0 -22.58,0.69 -32.83,2.08 -10.25,1.38 -19.26,4.01 -27.02,7.89 -7.75,3.88 -13.85,9.15 -18.28,15.8 -4.44,6.65 -6.65,14.96 -6.65,24.93 0,19.4 6.51,32.84 19.53,40.32 13.02,7.48 30.9,11.22 53.62,11.22zm-9.98 -362.42c36.58,0 67.05,4.16 91.44,12.47 24.38,8.31 43.91,20.23 58.6,35.74 14.69,15.52 25.08,34.36 31.17,56.53 6.1,22.16 9.15,46.82 9.15,73.98l0 257.68c-17.74,3.88 -42.4,8.45 -73.99,13.72 -31.58,5.26 -69.82,7.89 -114.71,7.89 -28.26,0 -53.89,-2.49 -76.89,-7.48 -22.99,-4.98 -42.8,-13.16 -59.43,-24.52 -16.62,-11.36 -29.37,-26.18 -38.24,-44.47 -8.86,-18.29 -13.3,-40.73 -13.3,-67.33 0,-25.49 5.13,-47.1 15.38,-64.84 10.25,-17.73 23.97,-31.86 41.15,-42.39 17.18,-10.53 36.85,-18.15 59.02,-22.86 22.16,-4.71 45.16,-7.07 68.99,-7.07 16.07,0 30.34,0.7 42.81,2.08 12.47,1.39 22.58,3.19 30.34,5.41l0 -11.64c0,-21.06 -6.38,-37.96 -19.12,-50.71 -12.75,-12.74 -34.91,-19.12 -66.5,-19.12 -21.06,0 -41.84,1.53 -62.34,4.58 -20.51,3.04 -38.24,7.34 -53.2,12.88l-15.8 -99.75c7.21,-2.22 16.21,-4.57 27.02,-7.06 10.81,-2.5 22.58,-4.71 35.33,-6.65 12.74,-1.94 26.18,-3.61 40.31,-4.99 14.13,-1.39 28.4,-2.08 42.81,-2.08z"/>
 </g>
</svg>
