<?xml version="1.0" encoding="UTF-8"?>
<!DOCTYPE svg PUBLIC "-//W3C//DTD SVG 1.1//EN" "http://www.w3.org/Graphics/SVG/1.1/DTD/svg11.dtd">
<!-- Creator: CorelDRAW -->
<svg xmlns="http://www.w3.org/2000/svg" xml:space="preserve" width="12.6998mm" height="12.6998mm" version="1.1" style="shape-rendering:geometricPrecision; text-rendering:geometricPrecision; image-rendering:optimizeQuality; fill-rule:evenodd; clip-rule:evenodd"
viewBox="0 0 1269.98 1269.98"
 xmlns:xlink="http://www.w3.org/1999/xlink"
 xmlns:xodm="http://www.corel.com/coreldraw/odm/2003">
 <defs>
  <style type="text/css">
   <![CDATA[
    .fil0 {fill:#66FCF1}
   ]]>
  </style>
 </defs>
 <g id="Camada_x0020_1">
  <metadata id="CorelCorpID_0Corel-Layer"/>
  <path class="fil0" d="M202.79 -0.01l864.4 0c111.54,0 202.8,91.26 202.8,202.8l0 864.4c0,111.54 -91.26,202.8 -202.8,202.8l-864.4 0c-111.54,0 -202.8,-91.26 -202.8,-202.8l0 -864.4c0,-111.54 91.26,-202.8 202.8,-202.8zm118.1 862.89c18.89,0 24.66,1.19 42.1,-7.71 16.09,-8.21 42.62,-37.99 56.27,-51.64 16.92,-16.92 206.86,-208.86 215.4,-214.58 8.55,5.72 225.46,224.58 250.28,249.45 68.98,69.08 166.31,-17.79 120.31,-90.43 -13.02,-20.56 -264.68,-268.11 -304.59,-308.02 -23.35,-23.35 -35.96,-33.62 -70.98,-33.62 -26.34,0 -46.49,19.1 -60.18,32.79l-235.75 235.75c-16.17,16.17 -31.13,31.13 -47.31,47.31 -23.57,23.57 -33.62,35.83 -33.62,70.98 0,33.97 34.34,69.72 68.07,69.72z"/>
 </g>
</svg>
